<svg width="256" height="255" viewBox="0 0 256 255" fill="none" xmlns="http://www.w3.org/2000/svg">
<rect x="0.5" width="255" height="255" rx="24" fill="url(#paint0_linear_451_957)"/>
<path d="M194.69 42.2887C172.849 47.1556 165.76 51.4209 152.639 64.5424C140.887 76.0413 133.843 83.3359 119.052 98.1286L103.558 102.311L106.56 90.8229C106.56 90.8229 99.0704 92.6503 90.735 98.1624C81.9394 103.979 73.4028 112.665 69.0626 117.006L80.3763 128.319C83.2701 125.426 91.9249 122.427 96.1677 126.67C100.411 130.913 97.425 139.554 97.425 139.554C97.425 139.554 106.069 136.391 110.311 140.633C114.397 145.052 113.001 152.262 108.66 156.603L119.974 167.917C123.926 163.965 132.91 155.021 138.817 146.244C144.637 137.595 146.156 130.419 146.156 130.419L134.668 133.422L138.851 117.927C153.637 103.134 160.772 96.006 172.437 84.3406C185.563 71.2208 189.82 64.1246 194.691 42.2889L194.69 42.2887ZM168.931 68.0476C172.056 71.1717 172.025 76.2662 168.864 79.4276C165.703 82.5889 160.608 82.6191 157.484 79.495C154.36 76.371 154.39 71.2765 157.552 68.1151C160.713 64.9538 165.807 64.9236 168.931 68.0476ZM68.2323 121.902C59.5523 126.96 57.9316 132.209 54.6842 142.699C65.1743 139.451 70.4223 137.83 75.481 129.151L68.2323 121.902ZM107.829 161.499C99.1494 166.557 97.5287 171.806 94.2813 182.296C104.771 179.048 110.019 177.427 115.078 168.748L107.829 161.499Z" fill="white"/>
<path d="M63.2305 203.211L58.1328 218H55.0508L61.4727 200.938H63.4414L63.2305 203.211ZM67.4961 218L62.3867 203.211L62.1641 200.938H64.1445L70.5898 218H67.4961ZM67.25 211.672V214.004H57.9688V211.672H67.25ZM77.3984 215.984C77.8594 215.984 78.2734 215.895 78.6406 215.715C79.0156 215.527 79.3164 215.27 79.543 214.941C79.7773 214.613 79.9062 214.234 79.9297 213.805H82.5898C82.5742 214.625 82.332 215.371 81.8633 216.043C81.3945 216.715 80.7734 217.25 80 217.648C79.2266 218.039 78.3711 218.234 77.4336 218.234C76.4648 218.234 75.6211 218.07 74.9023 217.742C74.1836 217.406 73.5859 216.945 73.1094 216.359C72.6328 215.773 72.2734 215.098 72.0312 214.332C71.7969 213.566 71.6797 212.746 71.6797 211.871V211.461C71.6797 210.586 71.7969 209.766 72.0312 209C72.2734 208.227 72.6328 207.547 73.1094 206.961C73.5859 206.375 74.1836 205.918 74.9023 205.59C75.6211 205.254 76.4609 205.086 77.4219 205.086C78.4375 205.086 79.3281 205.289 80.0938 205.695C80.8594 206.094 81.4609 206.652 81.8984 207.371C82.3438 208.082 82.5742 208.91 82.5898 209.855H79.9297C79.9062 209.387 79.7891 208.965 79.5781 208.59C79.375 208.207 79.0859 207.902 78.7109 207.676C78.3438 207.449 77.9023 207.336 77.3867 207.336C76.8164 207.336 76.3438 207.453 75.9688 207.688C75.5938 207.914 75.3008 208.227 75.0898 208.625C74.8789 209.016 74.7266 209.457 74.6328 209.949C74.5469 210.434 74.5039 210.938 74.5039 211.461V211.871C74.5039 212.395 74.5469 212.902 74.6328 213.395C74.7188 213.887 74.8672 214.328 75.0781 214.719C75.2969 215.102 75.5938 215.41 75.9688 215.645C76.3438 215.871 76.8203 215.984 77.3984 215.984ZM93.2656 205.32V207.57H87.0078V205.32H93.2656ZM87.6758 205.32V218H84.8516V205.32H87.6758ZM95.4805 205.32V218H92.6445V205.32H95.4805ZM101.387 213.875L106.367 205.32H109.191V218H106.367V209.434L101.387 218H98.5625V205.32H101.387V213.875ZM115.016 207.758V222.875H112.191V205.32H114.793L115.016 207.758ZM123.277 211.543V211.789C123.277 212.711 123.168 213.566 122.949 214.355C122.738 215.137 122.422 215.82 122 216.406C121.586 216.984 121.074 217.434 120.465 217.754C119.855 218.074 119.152 218.234 118.355 218.234C117.566 218.234 116.875 218.09 116.281 217.801C115.695 217.504 115.199 217.086 114.793 216.547C114.387 216.008 114.059 215.375 113.809 214.648C113.566 213.914 113.395 213.109 113.293 212.234V211.285C113.395 210.355 113.566 209.512 113.809 208.754C114.059 207.996 114.387 207.344 114.793 206.797C115.199 206.25 115.695 205.828 116.281 205.531C116.867 205.234 117.551 205.086 118.332 205.086C119.129 205.086 119.836 205.242 120.453 205.555C121.07 205.859 121.59 206.297 122.012 206.867C122.434 207.43 122.75 208.109 122.961 208.906C123.172 209.695 123.277 210.574 123.277 211.543ZM120.453 211.789V211.543C120.453 210.957 120.398 210.414 120.289 209.914C120.18 209.406 120.008 208.961 119.773 208.578C119.539 208.195 119.238 207.898 118.871 207.688C118.512 207.469 118.078 207.359 117.57 207.359C117.07 207.359 116.641 207.445 116.281 207.617C115.922 207.781 115.621 208.012 115.379 208.309C115.137 208.605 114.949 208.953 114.816 209.352C114.684 209.742 114.59 210.168 114.535 210.629V212.902C114.629 213.465 114.789 213.98 115.016 214.449C115.242 214.918 115.562 215.293 115.977 215.574C116.398 215.848 116.938 215.984 117.594 215.984C118.102 215.984 118.535 215.875 118.895 215.656C119.254 215.438 119.547 215.137 119.773 214.754C120.008 214.363 120.18 213.914 120.289 213.406C120.398 212.898 120.453 212.359 120.453 211.789ZM132.828 215.457V209.41C132.828 208.957 132.746 208.566 132.582 208.238C132.418 207.91 132.168 207.656 131.832 207.477C131.504 207.297 131.09 207.207 130.59 207.207C130.129 207.207 129.73 207.285 129.395 207.441C129.059 207.598 128.797 207.809 128.609 208.074C128.422 208.34 128.328 208.641 128.328 208.977H125.516C125.516 208.477 125.637 207.992 125.879 207.523C126.121 207.055 126.473 206.637 126.934 206.27C127.395 205.902 127.945 205.613 128.586 205.402C129.227 205.191 129.945 205.086 130.742 205.086C131.695 205.086 132.539 205.246 133.273 205.566C134.016 205.887 134.598 206.371 135.02 207.02C135.449 207.66 135.664 208.465 135.664 209.434V215.07C135.664 215.648 135.703 216.168 135.781 216.629C135.867 217.082 135.988 217.477 136.145 217.812V218H133.25C133.117 217.695 133.012 217.309 132.934 216.84C132.863 216.363 132.828 215.902 132.828 215.457ZM133.238 210.289L133.262 212.035H131.234C130.711 212.035 130.25 212.086 129.852 212.188C129.453 212.281 129.121 212.422 128.855 212.609C128.59 212.797 128.391 213.023 128.258 213.289C128.125 213.555 128.059 213.855 128.059 214.191C128.059 214.527 128.137 214.836 128.293 215.117C128.449 215.391 128.676 215.605 128.973 215.762C129.277 215.918 129.645 215.996 130.074 215.996C130.652 215.996 131.156 215.879 131.586 215.645C132.023 215.402 132.367 215.109 132.617 214.766C132.867 214.414 133 214.082 133.016 213.77L133.93 215.023C133.836 215.344 133.676 215.688 133.449 216.055C133.223 216.422 132.926 216.773 132.559 217.109C132.199 217.438 131.766 217.707 131.258 217.918C130.758 218.129 130.18 218.234 129.523 218.234C128.695 218.234 127.957 218.07 127.309 217.742C126.66 217.406 126.152 216.957 125.785 216.395C125.418 215.824 125.234 215.18 125.234 214.461C125.234 213.789 125.359 213.195 125.609 212.68C125.867 212.156 126.242 211.719 126.734 211.367C127.234 211.016 127.844 210.75 128.562 210.57C129.281 210.383 130.102 210.289 131.023 210.289H133.238ZM147.277 210.617V212.844H140.715V210.617H147.277ZM141.535 205.32V218H138.711V205.32H141.535ZM149.316 205.32V218H146.492V205.32H149.316ZM158.211 205.32V218H155.375V205.32H158.211ZM162.371 205.32V207.547H151.285V205.32H162.371ZM168.078 216.617L171.523 205.32H174.547L169.461 219.934C169.344 220.246 169.191 220.586 169.004 220.953C168.816 221.32 168.57 221.668 168.266 221.996C167.969 222.332 167.598 222.602 167.152 222.805C166.707 223.016 166.168 223.121 165.535 223.121C165.285 223.121 165.043 223.098 164.809 223.051C164.582 223.012 164.367 222.969 164.164 222.922L164.152 220.766C164.23 220.773 164.324 220.781 164.434 220.789C164.551 220.797 164.645 220.801 164.715 220.801C165.184 220.801 165.574 220.742 165.887 220.625C166.199 220.516 166.453 220.336 166.648 220.086C166.852 219.836 167.023 219.5 167.164 219.078L168.078 216.617ZM166.133 205.32L169.145 214.812L169.648 217.789L167.691 218.293L163.086 205.32H166.133ZM179 207.758V222.875H176.176V205.32H178.777L179 207.758ZM187.262 211.543V211.789C187.262 212.711 187.152 213.566 186.934 214.355C186.723 215.137 186.406 215.82 185.984 216.406C185.57 216.984 185.059 217.434 184.449 217.754C183.84 218.074 183.137 218.234 182.34 218.234C181.551 218.234 180.859 218.09 180.266 217.801C179.68 217.504 179.184 217.086 178.777 216.547C178.371 216.008 178.043 215.375 177.793 214.648C177.551 213.914 177.379 213.109 177.277 212.234V211.285C177.379 210.355 177.551 209.512 177.793 208.754C178.043 207.996 178.371 207.344 178.777 206.797C179.184 206.25 179.68 205.828 180.266 205.531C180.852 205.234 181.535 205.086 182.316 205.086C183.113 205.086 183.82 205.242 184.438 205.555C185.055 205.859 185.574 206.297 185.996 206.867C186.418 207.43 186.734 208.109 186.945 208.906C187.156 209.695 187.262 210.574 187.262 211.543ZM184.438 211.789V211.543C184.438 210.957 184.383 210.414 184.273 209.914C184.164 209.406 183.992 208.961 183.758 208.578C183.523 208.195 183.223 207.898 182.855 207.688C182.496 207.469 182.062 207.359 181.555 207.359C181.055 207.359 180.625 207.445 180.266 207.617C179.906 207.781 179.605 208.012 179.363 208.309C179.121 208.605 178.934 208.953 178.801 209.352C178.668 209.742 178.574 210.168 178.52 210.629V212.902C178.613 213.465 178.773 213.98 179 214.449C179.227 214.918 179.547 215.293 179.961 215.574C180.383 215.848 180.922 215.984 181.578 215.984C182.086 215.984 182.52 215.875 182.879 215.656C183.238 215.438 183.531 215.137 183.758 214.754C183.992 214.363 184.164 213.914 184.273 213.406C184.383 212.898 184.438 212.359 184.438 211.789ZM196.812 215.457V209.41C196.812 208.957 196.73 208.566 196.566 208.238C196.402 207.91 196.152 207.656 195.816 207.477C195.488 207.297 195.074 207.207 194.574 207.207C194.113 207.207 193.715 207.285 193.379 207.441C193.043 207.598 192.781 207.809 192.594 208.074C192.406 208.34 192.312 208.641 192.312 208.977H189.5C189.5 208.477 189.621 207.992 189.863 207.523C190.105 207.055 190.457 206.637 190.918 206.27C191.379 205.902 191.93 205.613 192.57 205.402C193.211 205.191 193.93 205.086 194.727 205.086C195.68 205.086 196.523 205.246 197.258 205.566C198 205.887 198.582 206.371 199.004 207.02C199.434 207.66 199.648 208.465 199.648 209.434V215.07C199.648 215.648 199.688 216.168 199.766 216.629C199.852 217.082 199.973 217.477 200.129 217.812V218H197.234C197.102 217.695 196.996 217.309 196.918 216.84C196.848 216.363 196.812 215.902 196.812 215.457ZM197.223 210.289L197.246 212.035H195.219C194.695 212.035 194.234 212.086 193.836 212.188C193.438 212.281 193.105 212.422 192.84 212.609C192.574 212.797 192.375 213.023 192.242 213.289C192.109 213.555 192.043 213.855 192.043 214.191C192.043 214.527 192.121 214.836 192.277 215.117C192.434 215.391 192.66 215.605 192.957 215.762C193.262 215.918 193.629 215.996 194.059 215.996C194.637 215.996 195.141 215.879 195.57 215.645C196.008 215.402 196.352 215.109 196.602 214.766C196.852 214.414 196.984 214.082 197 213.77L197.914 215.023C197.82 215.344 197.66 215.688 197.434 216.055C197.207 216.422 196.91 216.773 196.543 217.109C196.184 217.438 195.75 217.707 195.242 217.918C194.742 218.129 194.164 218.234 193.508 218.234C192.68 218.234 191.941 218.07 191.293 217.742C190.645 217.406 190.137 216.957 189.77 216.395C189.402 215.824 189.219 215.18 189.219 214.461C189.219 213.789 189.344 213.195 189.594 212.68C189.852 212.156 190.227 211.719 190.719 211.367C191.219 211.016 191.828 210.75 192.547 210.57C193.266 210.383 194.086 210.289 195.008 210.289H197.223Z" fill="white"/>
<defs>
<linearGradient id="paint0_linear_451_957" x1="12.6125" y1="240.337" x2="299.186" y2="105.812" gradientUnits="userSpaceOnUse">
<stop stop-color="#0D67B7"/>
<stop offset="0.9964" stop-color="#002C97"/>
</linearGradient>
</defs>
</svg>
