<svg width="256" height="255" viewBox="0 0 256 255" fill="none" xmlns="http://www.w3.org/2000/svg">
<g clip-path="url(#clip0_451_945)">
<rect x="0.166992" width="255" height="255" rx="24" fill="url(#paint0_linear_451_945)"/>
<path d="M165.903 153.442L162.738 77.5931C168.451 73.5419 180.772 63.9152 182.868 61.8837C200.324 44.8583 182.504 39.5459 173.991 46.2807C171.657 48.1197 159.401 57.3817 151.408 63.7954L77.5168 46.286L66.15 55.3078L127.308 85.6944L93.675 115.802L72.3182 109.944L64.8735 115.84L84.894 130.177L95.3197 152.66L102.514 146.464L100.664 124.437L136.664 97.1294L154.864 162.89L165.903 153.442Z" fill="white"/>
<path d="M63.6772 184.938V187.281H55.7437V202H52.814V184.938H63.6772ZM54.853 191.488H59.1421C60.439 191.488 61.5483 191.707 62.4702 192.145C63.3921 192.574 64.0952 193.18 64.5796 193.961C65.064 194.742 65.3062 195.652 65.3062 196.691C65.3062 197.473 65.1694 198.188 64.896 198.836C64.6226 199.484 64.2202 200.047 63.689 200.523C63.1577 200.992 62.5093 201.355 61.7437 201.613C60.9858 201.871 60.1187 202 59.1421 202H52.814V184.938H55.7671V199.668H59.1421C59.8843 199.668 60.4937 199.531 60.9702 199.258C61.4468 198.977 61.7983 198.609 62.0249 198.156C62.2593 197.703 62.3765 197.207 62.3765 196.668C62.3765 196.145 62.2593 195.668 62.0249 195.238C61.7983 194.809 61.4468 194.465 60.9702 194.207C60.4937 193.949 59.8843 193.82 59.1421 193.82H54.853V191.488ZM74.8218 199.457V193.41C74.8218 192.957 74.7397 192.566 74.5757 192.238C74.4116 191.91 74.1616 191.656 73.8257 191.477C73.4976 191.297 73.0835 191.207 72.5835 191.207C72.1226 191.207 71.7241 191.285 71.3882 191.441C71.0522 191.598 70.7905 191.809 70.603 192.074C70.4155 192.34 70.3218 192.641 70.3218 192.977H67.5093C67.5093 192.477 67.6304 191.992 67.8726 191.523C68.1147 191.055 68.4663 190.637 68.9272 190.27C69.3882 189.902 69.939 189.613 70.5796 189.402C71.2202 189.191 71.939 189.086 72.7358 189.086C73.689 189.086 74.5327 189.246 75.2671 189.566C76.0093 189.887 76.5913 190.371 77.0132 191.02C77.4429 191.66 77.6577 192.465 77.6577 193.434V199.07C77.6577 199.648 77.6968 200.168 77.7749 200.629C77.8608 201.082 77.9819 201.477 78.1382 201.812V202H75.2437C75.1108 201.695 75.0054 201.309 74.9272 200.84C74.8569 200.363 74.8218 199.902 74.8218 199.457ZM75.2319 194.289L75.2554 196.035H73.228C72.7046 196.035 72.2437 196.086 71.8452 196.188C71.4468 196.281 71.1147 196.422 70.8491 196.609C70.5835 196.797 70.3843 197.023 70.2515 197.289C70.1187 197.555 70.0522 197.855 70.0522 198.191C70.0522 198.527 70.1304 198.836 70.2866 199.117C70.4429 199.391 70.6694 199.605 70.9663 199.762C71.271 199.918 71.6382 199.996 72.0679 199.996C72.646 199.996 73.1499 199.879 73.5796 199.645C74.0171 199.402 74.3608 199.109 74.6108 198.766C74.8608 198.414 74.9937 198.082 75.0093 197.77L75.9233 199.023C75.8296 199.344 75.6694 199.688 75.4429 200.055C75.2163 200.422 74.9194 200.773 74.5522 201.109C74.1929 201.438 73.7593 201.707 73.2515 201.918C72.7515 202.129 72.1733 202.234 71.5171 202.234C70.689 202.234 69.9507 202.07 69.3022 201.742C68.6538 201.406 68.146 200.957 67.7788 200.395C67.4116 199.824 67.228 199.18 67.228 198.461C67.228 197.789 67.353 197.195 67.603 196.68C67.8608 196.156 68.2358 195.719 68.728 195.367C69.228 195.016 69.8374 194.75 70.5562 194.57C71.2749 194.383 72.0952 194.289 73.0171 194.289H75.2319ZM83.6577 189.32V202H80.8335V189.32H83.6577ZM91.9312 189.32L86.2241 196.949H83.0015L82.6265 194.395H84.9819L88.4038 189.32H91.9312ZM88.6265 202L84.8062 196.469L87.0327 194.863L92.3413 202H88.6265ZM101.025 199.457V193.41C101.025 192.957 100.943 192.566 100.779 192.238C100.615 191.91 100.365 191.656 100.029 191.477C99.7007 191.297 99.2866 191.207 98.7866 191.207C98.3257 191.207 97.9272 191.285 97.5913 191.441C97.2554 191.598 96.9937 191.809 96.8062 192.074C96.6187 192.34 96.5249 192.641 96.5249 192.977H93.7124C93.7124 192.477 93.8335 191.992 94.0757 191.523C94.3179 191.055 94.6694 190.637 95.1304 190.27C95.5913 189.902 96.1421 189.613 96.7827 189.402C97.4233 189.191 98.1421 189.086 98.939 189.086C99.8921 189.086 100.736 189.246 101.47 189.566C102.212 189.887 102.794 190.371 103.216 191.02C103.646 191.66 103.861 192.465 103.861 193.434V199.07C103.861 199.648 103.9 200.168 103.978 200.629C104.064 201.082 104.185 201.477 104.341 201.812V202H101.447C101.314 201.695 101.208 201.309 101.13 200.84C101.06 200.363 101.025 199.902 101.025 199.457ZM101.435 194.289L101.458 196.035H99.4312C98.9077 196.035 98.4468 196.086 98.0483 196.188C97.6499 196.281 97.3179 196.422 97.0522 196.609C96.7866 196.797 96.5874 197.023 96.4546 197.289C96.3218 197.555 96.2554 197.855 96.2554 198.191C96.2554 198.527 96.3335 198.836 96.4897 199.117C96.646 199.391 96.8726 199.605 97.1694 199.762C97.4741 199.918 97.8413 199.996 98.271 199.996C98.8491 199.996 99.353 199.879 99.7827 199.645C100.22 199.402 100.564 199.109 100.814 198.766C101.064 198.414 101.197 198.082 101.212 197.77L102.126 199.023C102.033 199.344 101.873 199.688 101.646 200.055C101.419 200.422 101.123 200.773 100.755 201.109C100.396 201.438 99.9624 201.707 99.4546 201.918C98.9546 202.129 98.3765 202.234 97.7202 202.234C96.8921 202.234 96.1538 202.07 95.5054 201.742C94.8569 201.406 94.3491 200.957 93.9819 200.395C93.6147 199.824 93.4312 199.18 93.4312 198.461C93.4312 197.789 93.5562 197.195 93.8062 196.68C94.064 196.156 94.439 195.719 94.9312 195.367C95.4312 195.016 96.0405 194.75 96.7593 194.57C97.478 194.383 98.2983 194.289 99.2202 194.289H101.435ZM115.333 189.32V191.57H109.146V189.32H115.333ZM117.548 189.32V202H114.724V189.32H117.548ZM108.455 189.32H111.244L110.904 195.59C110.857 196.52 110.763 197.34 110.623 198.051C110.49 198.754 110.31 199.359 110.083 199.867C109.857 200.367 109.58 200.773 109.251 201.086C108.923 201.398 108.541 201.629 108.103 201.777C107.666 201.926 107.173 202 106.626 202H105.748L105.736 199.68L106.181 199.645C106.47 199.621 106.72 199.547 106.931 199.422C107.142 199.289 107.322 199.102 107.47 198.859C107.626 198.617 107.751 198.305 107.845 197.922C107.947 197.539 108.025 197.086 108.08 196.562C108.142 196.039 108.189 195.43 108.22 194.734L108.455 189.32ZM127.697 199.457V193.41C127.697 192.957 127.615 192.566 127.451 192.238C127.287 191.91 127.037 191.656 126.701 191.477C126.373 191.297 125.958 191.207 125.458 191.207C124.998 191.207 124.599 191.285 124.263 191.441C123.927 191.598 123.666 191.809 123.478 192.074C123.291 192.34 123.197 192.641 123.197 192.977H120.384C120.384 192.477 120.505 191.992 120.748 191.523C120.99 191.055 121.341 190.637 121.802 190.27C122.263 189.902 122.814 189.613 123.455 189.402C124.095 189.191 124.814 189.086 125.611 189.086C126.564 189.086 127.408 189.246 128.142 189.566C128.884 189.887 129.466 190.371 129.888 191.02C130.318 191.66 130.533 192.465 130.533 193.434V199.07C130.533 199.648 130.572 200.168 130.65 200.629C130.736 201.082 130.857 201.477 131.013 201.812V202H128.119C127.986 201.695 127.88 201.309 127.802 200.84C127.732 200.363 127.697 199.902 127.697 199.457ZM128.107 194.289L128.13 196.035H126.103C125.58 196.035 125.119 196.086 124.72 196.188C124.322 196.281 123.99 196.422 123.724 196.609C123.458 196.797 123.259 197.023 123.126 197.289C122.994 197.555 122.927 197.855 122.927 198.191C122.927 198.527 123.005 198.836 123.162 199.117C123.318 199.391 123.544 199.605 123.841 199.762C124.146 199.918 124.513 199.996 124.943 199.996C125.521 199.996 126.025 199.879 126.455 199.645C126.892 199.402 127.236 199.109 127.486 198.766C127.736 198.414 127.869 198.082 127.884 197.77L128.798 199.023C128.705 199.344 128.544 199.688 128.318 200.055C128.091 200.422 127.794 200.773 127.427 201.109C127.068 201.438 126.634 201.707 126.126 201.918C125.626 202.129 125.048 202.234 124.392 202.234C123.564 202.234 122.826 202.07 122.177 201.742C121.529 201.406 121.021 200.957 120.654 200.395C120.287 199.824 120.103 199.18 120.103 198.461C120.103 197.789 120.228 197.195 120.478 196.68C120.736 196.156 121.111 195.719 121.603 195.367C122.103 195.016 122.712 194.75 123.431 194.57C124.15 194.383 124.97 194.289 125.892 194.289H128.107ZM139.65 196.574H135.595L135.572 194.582H138.9C139.447 194.582 139.896 194.527 140.248 194.418C140.607 194.309 140.873 194.145 141.044 193.926C141.216 193.699 141.302 193.426 141.302 193.105C141.302 192.84 141.251 192.609 141.15 192.414C141.048 192.211 140.892 192.047 140.681 191.922C140.478 191.789 140.22 191.695 139.908 191.641C139.603 191.578 139.248 191.547 138.841 191.547H136.533V202H133.708V189.32H138.841C139.654 189.32 140.384 189.391 141.033 189.531C141.689 189.672 142.248 189.887 142.708 190.176C143.169 190.465 143.521 190.832 143.763 191.277C144.013 191.715 144.138 192.23 144.138 192.824C144.138 193.215 144.052 193.582 143.88 193.926C143.716 194.27 143.47 194.574 143.142 194.84C142.814 195.105 142.412 195.324 141.935 195.496C141.458 195.66 140.912 195.762 140.294 195.801L139.65 196.574ZM139.65 202H134.775L135.9 199.773H139.65C140.15 199.773 140.564 199.711 140.892 199.586C141.22 199.461 141.462 199.281 141.619 199.047C141.783 198.805 141.865 198.52 141.865 198.191C141.865 197.855 141.787 197.566 141.63 197.324C141.474 197.082 141.232 196.898 140.904 196.773C140.583 196.641 140.166 196.574 139.65 196.574H136.427L136.451 194.582H140.283L141.091 195.355C141.896 195.41 142.564 195.582 143.095 195.871C143.626 196.16 144.025 196.523 144.291 196.961C144.556 197.398 144.689 197.875 144.689 198.391C144.689 198.984 144.576 199.508 144.349 199.961C144.13 200.414 143.802 200.793 143.365 201.098C142.935 201.395 142.408 201.621 141.783 201.777C141.158 201.926 140.447 202 139.65 202ZM149.962 191.758V206.875H147.138V189.32H149.74L149.962 191.758ZM158.224 195.543V195.789C158.224 196.711 158.115 197.566 157.896 198.355C157.685 199.137 157.369 199.82 156.947 200.406C156.533 200.984 156.021 201.434 155.412 201.754C154.802 202.074 154.099 202.234 153.302 202.234C152.513 202.234 151.822 202.09 151.228 201.801C150.642 201.504 150.146 201.086 149.74 200.547C149.333 200.008 149.005 199.375 148.755 198.648C148.513 197.914 148.341 197.109 148.24 196.234V195.285C148.341 194.355 148.513 193.512 148.755 192.754C149.005 191.996 149.333 191.344 149.74 190.797C150.146 190.25 150.642 189.828 151.228 189.531C151.814 189.234 152.498 189.086 153.279 189.086C154.076 189.086 154.783 189.242 155.4 189.555C156.017 189.859 156.537 190.297 156.958 190.867C157.38 191.43 157.697 192.109 157.908 192.906C158.119 193.695 158.224 194.574 158.224 195.543ZM155.4 195.789V195.543C155.4 194.957 155.345 194.414 155.236 193.914C155.126 193.406 154.955 192.961 154.72 192.578C154.486 192.195 154.185 191.898 153.818 191.688C153.458 191.469 153.025 191.359 152.517 191.359C152.017 191.359 151.587 191.445 151.228 191.617C150.869 191.781 150.568 192.012 150.326 192.309C150.083 192.605 149.896 192.953 149.763 193.352C149.63 193.742 149.537 194.168 149.482 194.629V196.902C149.576 197.465 149.736 197.98 149.962 198.449C150.189 198.918 150.509 199.293 150.923 199.574C151.345 199.848 151.884 199.984 152.541 199.984C153.048 199.984 153.482 199.875 153.841 199.656C154.201 199.438 154.494 199.137 154.72 198.754C154.955 198.363 155.126 197.914 155.236 197.406C155.345 196.898 155.4 196.359 155.4 195.789ZM163.544 197.875L168.525 189.32H171.349V202H168.525V193.434L163.544 202H160.72V189.32H163.544V197.875ZM181.486 199.457V193.41C181.486 192.957 181.404 192.566 181.24 192.238C181.076 191.91 180.826 191.656 180.49 191.477C180.162 191.297 179.748 191.207 179.248 191.207C178.787 191.207 178.388 191.285 178.052 191.441C177.716 191.598 177.455 191.809 177.267 192.074C177.08 192.34 176.986 192.641 176.986 192.977H174.173C174.173 192.477 174.294 191.992 174.537 191.523C174.779 191.055 175.13 190.637 175.591 190.27C176.052 189.902 176.603 189.613 177.244 189.402C177.884 189.191 178.603 189.086 179.4 189.086C180.353 189.086 181.197 189.246 181.931 189.566C182.673 189.887 183.255 190.371 183.677 191.02C184.107 191.66 184.322 192.465 184.322 193.434V199.07C184.322 199.648 184.361 200.168 184.439 200.629C184.525 201.082 184.646 201.477 184.802 201.812V202H181.908C181.775 201.695 181.669 201.309 181.591 200.84C181.521 200.363 181.486 199.902 181.486 199.457ZM181.896 194.289L181.919 196.035H179.892C179.369 196.035 178.908 196.086 178.509 196.188C178.111 196.281 177.779 196.422 177.513 196.609C177.248 196.797 177.048 197.023 176.916 197.289C176.783 197.555 176.716 197.855 176.716 198.191C176.716 198.527 176.794 198.836 176.951 199.117C177.107 199.391 177.333 199.605 177.63 199.762C177.935 199.918 178.302 199.996 178.732 199.996C179.31 199.996 179.814 199.879 180.244 199.645C180.681 199.402 181.025 199.109 181.275 198.766C181.525 198.414 181.658 198.082 181.673 197.77L182.587 199.023C182.494 199.344 182.333 199.688 182.107 200.055C181.88 200.422 181.583 200.773 181.216 201.109C180.857 201.438 180.423 201.707 179.916 201.918C179.416 202.129 178.837 202.234 178.181 202.234C177.353 202.234 176.615 202.07 175.966 201.742C175.318 201.406 174.81 200.957 174.443 200.395C174.076 199.824 173.892 199.18 173.892 198.461C173.892 197.789 174.017 197.195 174.267 196.68C174.525 196.156 174.9 195.719 175.392 195.367C175.892 195.016 176.501 194.75 177.22 194.57C177.939 194.383 178.759 194.289 179.681 194.289H181.896ZM192.97 189.32V202H190.134V189.32H192.97ZM197.13 189.32V191.547H186.044V189.32H197.13ZM50.1772 228.875L55.1577 220.32H57.9819V233H55.1577V224.434L50.1772 233H47.353V220.32H50.1772V228.875ZM72.1265 230.984C72.5874 230.984 73.0015 230.895 73.3687 230.715C73.7437 230.527 74.0444 230.27 74.271 229.941C74.5054 229.613 74.6343 229.234 74.6577 228.805H77.3179C77.3022 229.625 77.0601 230.371 76.5913 231.043C76.1226 231.715 75.5015 232.25 74.728 232.648C73.9546 233.039 73.0991 233.234 72.1616 233.234C71.1929 233.234 70.3491 233.07 69.6304 232.742C68.9116 232.406 68.314 231.945 67.8374 231.359C67.3608 230.773 67.0015 230.098 66.7593 229.332C66.5249 228.566 66.4077 227.746 66.4077 226.871V226.461C66.4077 225.586 66.5249 224.766 66.7593 224C67.0015 223.227 67.3608 222.547 67.8374 221.961C68.314 221.375 68.9116 220.918 69.6304 220.59C70.3491 220.254 71.189 220.086 72.1499 220.086C73.1655 220.086 74.0562 220.289 74.8218 220.695C75.5874 221.094 76.189 221.652 76.6265 222.371C77.0718 223.082 77.3022 223.91 77.3179 224.855H74.6577C74.6343 224.387 74.5171 223.965 74.3062 223.59C74.103 223.207 73.814 222.902 73.439 222.676C73.0718 222.449 72.6304 222.336 72.1147 222.336C71.5444 222.336 71.0718 222.453 70.6968 222.688C70.3218 222.914 70.0288 223.227 69.8179 223.625C69.6069 224.016 69.4546 224.457 69.3608 224.949C69.2749 225.434 69.2319 225.938 69.2319 226.461V226.871C69.2319 227.395 69.2749 227.902 69.3608 228.395C69.4468 228.887 69.5952 229.328 69.8062 229.719C70.0249 230.102 70.3218 230.41 70.6968 230.645C71.0718 230.871 71.5483 230.984 72.1265 230.984ZM87.9937 220.32V222.57H81.7358V220.32H87.9937ZM82.4038 220.32V233H79.5796V220.32H82.4038ZM90.2085 220.32V233H87.3726V220.32H90.2085ZM98.7866 233.234C97.8491 233.234 97.0015 233.082 96.2437 232.777C95.4937 232.465 94.853 232.031 94.3218 231.477C93.7983 230.922 93.396 230.27 93.1147 229.52C92.8335 228.77 92.6929 227.961 92.6929 227.094V226.625C92.6929 225.633 92.8374 224.734 93.1265 223.93C93.4155 223.125 93.8179 222.438 94.3335 221.867C94.8491 221.289 95.4585 220.848 96.1616 220.543C96.8647 220.238 97.6265 220.086 98.4468 220.086C99.353 220.086 100.146 220.238 100.826 220.543C101.505 220.848 102.068 221.277 102.513 221.832C102.966 222.379 103.302 223.031 103.521 223.789C103.748 224.547 103.861 225.383 103.861 226.297V227.504H94.064V225.477H101.072V225.254C101.056 224.746 100.955 224.27 100.767 223.824C100.587 223.379 100.31 223.02 99.9351 222.746C99.5601 222.473 99.0601 222.336 98.4351 222.336C97.9663 222.336 97.5483 222.438 97.1812 222.641C96.8218 222.836 96.521 223.121 96.2788 223.496C96.0366 223.871 95.8491 224.324 95.7163 224.855C95.5913 225.379 95.5288 225.969 95.5288 226.625V227.094C95.5288 227.648 95.603 228.164 95.7515 228.641C95.9077 229.109 96.1343 229.52 96.4312 229.871C96.728 230.223 97.0874 230.5 97.5093 230.703C97.9312 230.898 98.4116 230.996 98.9507 230.996C99.6304 230.996 100.236 230.859 100.767 230.586C101.298 230.312 101.759 229.926 102.15 229.426L103.638 230.867C103.365 231.266 103.009 231.648 102.572 232.016C102.134 232.375 101.599 232.668 100.966 232.895C100.341 233.121 99.6147 233.234 98.7866 233.234ZM106.158 233V220.32H108.982V230.75H113.951V220.32H116.787V233H106.158ZM118.509 230.762L118.287 236.762H115.697V233H114.173V230.762H118.509ZM123.419 228.875L128.4 220.32H131.224V233H128.4V224.434L123.419 233H120.595V220.32H123.419V228.875ZM141.361 230.457V224.41C141.361 223.957 141.279 223.566 141.115 223.238C140.951 222.91 140.701 222.656 140.365 222.477C140.037 222.297 139.623 222.207 139.123 222.207C138.662 222.207 138.263 222.285 137.927 222.441C137.591 222.598 137.33 222.809 137.142 223.074C136.955 223.34 136.861 223.641 136.861 223.977H134.048C134.048 223.477 134.169 222.992 134.412 222.523C134.654 222.055 135.005 221.637 135.466 221.27C135.927 220.902 136.478 220.613 137.119 220.402C137.759 220.191 138.478 220.086 139.275 220.086C140.228 220.086 141.072 220.246 141.806 220.566C142.548 220.887 143.13 221.371 143.552 222.02C143.982 222.66 144.197 223.465 144.197 224.434V230.07C144.197 230.648 144.236 231.168 144.314 231.629C144.4 232.082 144.521 232.477 144.677 232.812V233H141.783C141.65 232.695 141.544 232.309 141.466 231.84C141.396 231.363 141.361 230.902 141.361 230.457ZM141.771 225.289L141.794 227.035H139.767C139.244 227.035 138.783 227.086 138.384 227.188C137.986 227.281 137.654 227.422 137.388 227.609C137.123 227.797 136.923 228.023 136.791 228.289C136.658 228.555 136.591 228.855 136.591 229.191C136.591 229.527 136.669 229.836 136.826 230.117C136.982 230.391 137.208 230.605 137.505 230.762C137.81 230.918 138.177 230.996 138.607 230.996C139.185 230.996 139.689 230.879 140.119 230.645C140.556 230.402 140.9 230.109 141.15 229.766C141.4 229.414 141.533 229.082 141.548 228.77L142.462 230.023C142.369 230.344 142.208 230.688 141.982 231.055C141.755 231.422 141.458 231.773 141.091 232.109C140.732 232.438 140.298 232.707 139.791 232.918C139.291 233.129 138.712 233.234 138.056 233.234C137.228 233.234 136.49 233.07 135.841 232.742C135.193 232.406 134.685 231.957 134.318 231.395C133.951 230.824 133.767 230.18 133.767 229.461C133.767 228.789 133.892 228.195 134.142 227.68C134.4 227.156 134.775 226.719 135.267 226.367C135.767 226.016 136.376 225.75 137.095 225.57C137.814 225.383 138.634 225.289 139.556 225.289H141.771ZM155.669 220.32V222.57H149.482V220.32H155.669ZM157.884 220.32V233H155.06V220.32H157.884ZM148.791 220.32H151.58L151.24 226.59C151.193 227.52 151.099 228.34 150.958 229.051C150.826 229.754 150.646 230.359 150.419 230.867C150.193 231.367 149.916 231.773 149.587 232.086C149.259 232.398 148.876 232.629 148.439 232.777C148.001 232.926 147.509 233 146.962 233H146.083L146.072 230.68L146.517 230.645C146.806 230.621 147.056 230.547 147.267 230.422C147.478 230.289 147.658 230.102 147.806 229.859C147.962 229.617 148.087 229.305 148.181 228.922C148.283 228.539 148.361 228.086 148.416 227.562C148.478 227.039 148.525 226.43 148.556 225.734L148.791 220.32ZM163.802 228.875L168.783 220.32H171.607V233H168.783V224.434L163.802 233H160.978V220.32H163.802V228.875ZM180.478 220.32V233H177.642V220.32H180.478ZM184.638 220.32V222.547H173.552V220.32H184.638ZM191.248 233.234C190.31 233.234 189.462 233.082 188.705 232.777C187.955 232.465 187.314 232.031 186.783 231.477C186.259 230.922 185.857 230.27 185.576 229.52C185.294 228.77 185.154 227.961 185.154 227.094V226.625C185.154 225.633 185.298 224.734 185.587 223.93C185.876 223.125 186.279 222.438 186.794 221.867C187.31 221.289 187.919 220.848 188.623 220.543C189.326 220.238 190.087 220.086 190.908 220.086C191.814 220.086 192.607 220.238 193.287 220.543C193.966 220.848 194.529 221.277 194.974 221.832C195.427 222.379 195.763 223.031 195.982 223.789C196.208 224.547 196.322 225.383 196.322 226.297V227.504H186.525V225.477H193.533V225.254C193.517 224.746 193.416 224.27 193.228 223.824C193.048 223.379 192.771 223.02 192.396 222.746C192.021 222.473 191.521 222.336 190.896 222.336C190.427 222.336 190.009 222.438 189.642 222.641C189.283 222.836 188.982 223.121 188.74 223.496C188.498 223.871 188.31 224.324 188.177 224.855C188.052 225.379 187.99 225.969 187.99 226.625V227.094C187.99 227.648 188.064 228.164 188.212 228.641C188.369 229.109 188.595 229.52 188.892 229.871C189.189 230.223 189.548 230.5 189.97 230.703C190.392 230.898 190.873 230.996 191.412 230.996C192.091 230.996 192.697 230.859 193.228 230.586C193.759 230.312 194.22 229.926 194.611 229.426L196.099 230.867C195.826 231.266 195.47 231.648 195.033 232.016C194.595 232.375 194.06 232.668 193.427 232.895C192.802 233.121 192.076 233.234 191.248 233.234ZM204.267 220.32V233H201.431V220.32H204.267ZM208.427 220.32V222.547H197.341V220.32H208.427Z" fill="white"/>
</g>
<defs>
<linearGradient id="paint0_linear_451_945" x1="12.2795" y1="240.337" x2="298.853" y2="105.812" gradientUnits="userSpaceOnUse">
<stop stop-color="#8B49E0"/>
<stop offset="0.721852" stop-color="#6A51C0"/>
</linearGradient>
<clipPath id="clip0_451_945">
<rect x="0.166992" width="255" height="255" rx="24" fill="white"/>
</clipPath>
</defs>
</svg>
