<svg width="341" height="115" viewBox="0 0 341 115" fill="none" xmlns="http://www.w3.org/2000/svg">
<path d="M147.582 27.6973H149.936C150.756 27.6973 151.514 27.8372 152.211 28.1172C152.914 28.3906 153.526 28.7812 154.047 29.2891C154.574 29.7969 154.984 30.4023 155.277 31.1055C155.57 31.8021 155.717 32.5736 155.717 33.4199C155.717 34.2663 155.57 35.041 155.277 35.7441C154.984 36.4473 154.574 37.056 154.047 37.5703C153.526 38.0781 152.914 38.472 152.211 38.752C151.514 39.0254 150.756 39.1621 149.936 39.1621H147.582C146.762 39.1621 146.003 39.0254 145.307 38.752C144.61 38.472 143.998 38.0781 143.471 37.5703C142.95 37.0625 142.543 36.4603 142.25 35.7637C141.964 35.0605 141.82 34.2858 141.82 33.4395C141.82 32.5931 141.964 31.8216 142.25 31.125C142.543 30.4219 142.95 29.8164 143.471 29.3086C143.998 28.7943 144.61 28.3971 145.307 28.1172C146.003 27.8372 146.762 27.6973 147.582 27.6973ZM147.582 29.1816C146.729 29.1816 146.007 29.3607 145.414 29.7188C144.822 30.0703 144.372 30.5651 144.066 31.2031C143.76 31.8411 143.607 32.5866 143.607 33.4395C143.607 34.084 143.692 34.6667 143.861 35.1875C144.037 35.7083 144.294 36.1543 144.633 36.5254C144.971 36.8965 145.388 37.1829 145.883 37.3848C146.378 37.5866 146.944 37.6875 147.582 37.6875H149.955C150.801 37.6875 151.518 37.5117 152.104 37.1602C152.696 36.8021 153.145 36.304 153.451 35.666C153.764 35.0215 153.92 34.2728 153.92 33.4199C153.92 32.7819 153.832 32.2025 153.656 31.6816C153.48 31.1608 153.223 30.7148 152.885 30.3438C152.553 29.9727 152.139 29.6862 151.645 29.4844C151.156 29.2826 150.593 29.1816 149.955 29.1816H147.582ZM149.672 25.6953V41.0859H147.865V25.6953H149.672ZM164.457 38.6934V33.2539C164.457 32.8372 164.372 32.4759 164.203 32.1699C164.04 31.8574 163.793 31.6165 163.461 31.4473C163.129 31.278 162.718 31.1934 162.23 31.1934C161.774 31.1934 161.374 31.2715 161.029 31.4277C160.69 31.584 160.423 31.7891 160.228 32.043C160.039 32.2969 159.945 32.5703 159.945 32.8633H158.138C158.138 32.4857 158.236 32.1113 158.431 31.7402C158.627 31.3691 158.907 31.0339 159.271 30.7344C159.642 30.4284 160.085 30.1875 160.599 30.0117C161.12 29.8294 161.699 29.7383 162.337 29.7383C163.106 29.7383 163.783 29.8685 164.369 30.1289C164.961 30.3893 165.423 30.7832 165.755 31.3105C166.094 31.8314 166.263 32.4857 166.263 33.2734V38.1953C166.263 38.5469 166.293 38.9212 166.351 39.3184C166.416 39.7155 166.511 40.0573 166.634 40.3438V40.5H164.75C164.658 40.2917 164.587 40.015 164.535 39.6699C164.483 39.3184 164.457 38.9928 164.457 38.6934ZM164.769 34.0938L164.789 35.3633H162.962C162.448 35.3633 161.989 35.4056 161.586 35.4902C161.182 35.5684 160.843 35.6888 160.57 35.8516C160.296 36.0143 160.088 36.2194 159.945 36.4668C159.802 36.7077 159.73 36.9909 159.73 37.3164C159.73 37.6484 159.805 37.9512 159.955 38.2246C160.104 38.498 160.329 38.7161 160.629 38.8789C160.935 39.0352 161.309 39.1133 161.752 39.1133C162.305 39.1133 162.793 38.9961 163.216 38.7617C163.64 38.5273 163.975 38.2409 164.222 37.9023C164.476 37.5638 164.613 37.235 164.632 36.916L165.404 37.7852C165.358 38.0586 165.235 38.3613 165.033 38.6934C164.831 39.0254 164.561 39.3444 164.222 39.6504C163.89 39.9499 163.493 40.2005 163.031 40.4023C162.575 40.5977 162.061 40.6953 161.488 40.6953C160.772 40.6953 160.143 40.5553 159.603 40.2754C159.069 39.9954 158.653 39.6211 158.353 39.1523C158.06 38.6771 157.914 38.1465 157.914 37.5605C157.914 36.9941 158.024 36.4961 158.246 36.0664C158.467 35.6302 158.786 35.2689 159.203 34.9824C159.619 34.6895 160.121 34.4681 160.707 34.3184C161.293 34.1686 161.947 34.0938 162.67 34.0938H164.769ZM171.468 29.9336V40.5H169.661V29.9336H171.468ZM178.402 29.9336L173.392 35.9883H170.862L170.589 34.4062H172.659L176.204 29.9336H178.402ZM176.458 40.5L172.571 35.7148L173.734 34.4062L178.753 40.5H176.458ZM183.694 39.4062L186.634 29.9336H188.567L184.329 42.1309C184.231 42.3913 184.101 42.6712 183.938 42.9707C183.782 43.2767 183.58 43.5664 183.333 43.8398C183.085 44.1133 182.786 44.3346 182.434 44.5039C182.089 44.6797 181.676 44.7676 181.194 44.7676C181.051 44.7676 180.869 44.748 180.647 44.709C180.426 44.6699 180.27 44.6374 180.179 44.6113L180.169 43.1465C180.221 43.153 180.302 43.1595 180.413 43.166C180.53 43.179 180.611 43.1855 180.657 43.1855C181.067 43.1855 181.415 43.1302 181.702 43.0195C181.988 42.9154 182.229 42.7363 182.425 42.4824C182.626 42.235 182.799 41.8932 182.942 41.457L183.694 39.4062ZM181.536 29.9336L184.28 38.1367L184.749 40.041L183.45 40.7051L179.563 29.9336H181.536ZM197.248 29.9336V31.4277H192.141V29.9336H197.248ZM198.84 29.9336V40.5H197.034V29.9336H198.84ZM191.702 29.9336H193.518L193.245 35.0312C193.199 35.819 193.124 36.5156 193.02 37.1211C192.922 37.7201 192.786 38.2344 192.61 38.6641C192.44 39.0938 192.226 39.4453 191.965 39.7188C191.711 39.9857 191.405 40.1842 191.047 40.3145C190.689 40.4382 190.276 40.5 189.807 40.5H189.241V38.9082L189.631 38.8789C189.911 38.8594 190.149 38.7943 190.344 38.6836C190.546 38.5729 190.715 38.4102 190.852 38.1953C190.989 37.974 191.099 37.6908 191.184 37.3457C191.275 37.0007 191.343 36.5905 191.389 36.1152C191.441 35.64 191.48 35.0866 191.506 34.4551L191.702 29.9336ZM203.635 33.5664H206.809C207.661 33.5664 208.381 33.7161 208.967 34.0156C209.553 34.3086 209.995 34.7155 210.295 35.2363C210.601 35.7507 210.754 36.3366 210.754 36.9941C210.754 37.4824 210.669 37.9414 210.5 38.3711C210.331 38.7943 210.077 39.1654 209.738 39.4844C209.406 39.8034 208.993 40.054 208.498 40.2363C208.01 40.4121 207.447 40.5 206.809 40.5H202.316V29.9336H204.123V39.0156H206.809C207.329 39.0156 207.746 38.9212 208.059 38.7324C208.371 38.5436 208.596 38.2995 208.732 38C208.869 37.7005 208.938 37.388 208.938 37.0625C208.938 36.7435 208.869 36.431 208.732 36.125C208.596 35.819 208.371 35.5651 208.059 35.3633C207.746 35.1549 207.329 35.0508 206.809 35.0508H203.635V33.5664ZM217.033 29.9336V40.5H215.216V29.9336H217.033ZM220.578 29.9336V31.3984H211.74V29.9336H220.578ZM226.359 40.6953C225.623 40.6953 224.956 40.5716 224.357 40.3242C223.764 40.0703 223.253 39.7155 222.823 39.2598C222.4 38.804 222.075 38.2637 221.847 37.6387C221.619 37.0137 221.505 36.3301 221.505 35.5879V35.1777C221.505 34.3184 221.632 33.5534 221.886 32.8828C222.14 32.2057 222.485 31.6328 222.921 31.1641C223.357 30.6953 223.852 30.3405 224.405 30.0996C224.959 29.8587 225.532 29.7383 226.124 29.7383C226.879 29.7383 227.53 29.8685 228.077 30.1289C228.631 30.3893 229.083 30.7539 229.435 31.2227C229.786 31.6849 230.047 32.2318 230.216 32.8633C230.385 33.4883 230.47 34.1719 230.47 34.9141V35.7246H222.579V34.25H228.663V34.1133C228.637 33.6445 228.54 33.1888 228.37 32.7461C228.208 32.3034 227.947 31.9388 227.589 31.6523C227.231 31.3659 226.743 31.2227 226.124 31.2227C225.714 31.2227 225.336 31.3105 224.991 31.4863C224.646 31.6556 224.35 31.9095 224.103 32.248C223.855 32.5866 223.663 33 223.527 33.4883C223.39 33.9766 223.321 34.5397 223.321 35.1777V35.5879C223.321 36.0892 223.39 36.5612 223.527 37.0039C223.67 37.4401 223.875 37.8242 224.142 38.1562C224.415 38.4883 224.744 38.7487 225.128 38.9375C225.519 39.1263 225.961 39.2207 226.456 39.2207C227.094 39.2207 227.635 39.0905 228.077 38.8301C228.52 38.5697 228.907 38.2214 229.239 37.7852L230.333 38.6543C230.105 38.9993 229.816 39.3281 229.464 39.6406C229.113 39.9531 228.68 40.207 228.165 40.4023C227.657 40.5977 227.055 40.6953 226.359 40.6953ZM237.169 29.9336V40.5H235.352V29.9336H237.169ZM240.714 29.9336V31.3984H231.876V29.9336H240.714ZM252.48 39.2109C252.91 39.2109 253.307 39.123 253.672 38.9473C254.036 38.7715 254.336 38.5306 254.57 38.2246C254.805 37.9121 254.938 37.5573 254.971 37.1602H256.689C256.657 37.7852 256.445 38.3678 256.055 38.9082C255.671 39.4421 255.166 39.875 254.541 40.207C253.916 40.5326 253.229 40.6953 252.48 40.6953C251.686 40.6953 250.993 40.5553 250.4 40.2754C249.814 39.9954 249.326 39.6113 248.936 39.123C248.551 38.6348 248.262 38.0749 248.066 37.4434C247.878 36.8053 247.783 36.1315 247.783 35.4219V35.0117C247.783 34.3021 247.878 33.6315 248.066 33C248.262 32.362 248.551 31.7988 248.936 31.3105C249.326 30.8223 249.814 30.4382 250.4 30.1582C250.993 29.8783 251.686 29.7383 252.48 29.7383C253.307 29.7383 254.03 29.9076 254.648 30.2461C255.267 30.5781 255.752 31.0339 256.104 31.6133C256.462 32.1862 256.657 32.8372 256.689 33.5664H254.971C254.938 33.1302 254.814 32.7363 254.6 32.3848C254.391 32.0332 254.105 31.7533 253.74 31.5449C253.382 31.3301 252.962 31.2227 252.48 31.2227C251.927 31.2227 251.462 31.3333 251.084 31.5547C250.713 31.7695 250.417 32.0625 250.195 32.4336C249.98 32.7982 249.824 33.2051 249.727 33.6543C249.635 34.097 249.59 34.5495 249.59 35.0117V35.4219C249.59 35.8841 249.635 36.3398 249.727 36.7891C249.818 37.2383 249.971 37.6452 250.186 38.0098C250.407 38.3743 250.703 38.6673 251.074 38.8887C251.452 39.1035 251.921 39.2109 252.48 39.2109ZM260.927 31.9648V44.5625H259.111V29.9336H260.771L260.927 31.9648ZM268.046 35.1289V35.334C268.046 36.1022 267.955 36.8151 267.773 37.4727C267.591 38.1237 267.324 38.6901 266.972 39.1719C266.627 39.6536 266.201 40.028 265.693 40.2949C265.185 40.5618 264.602 40.6953 263.945 40.6953C263.274 40.6953 262.682 40.5846 262.168 40.3633C261.653 40.1419 261.217 39.8197 260.859 39.3965C260.501 38.9733 260.214 38.4655 260 37.873C259.791 37.2806 259.648 36.6133 259.57 35.8711V34.7773C259.648 33.9961 259.795 33.2962 260.009 32.6777C260.224 32.0592 260.507 31.5319 260.859 31.0957C261.217 30.653 261.65 30.3177 262.158 30.0898C262.666 29.8555 263.252 29.7383 263.916 29.7383C264.58 29.7383 265.169 29.8685 265.683 30.1289C266.198 30.3828 266.63 30.7474 266.982 31.2227C267.334 31.6979 267.597 32.2676 267.773 32.9316C267.955 33.5892 268.046 34.3216 268.046 35.1289ZM266.23 35.334V35.1289C266.23 34.6016 266.175 34.1068 266.064 33.6445C265.953 33.1758 265.781 32.7656 265.546 32.4141C265.319 32.056 265.026 31.776 264.668 31.5742C264.31 31.3659 263.883 31.2617 263.388 31.2617C262.933 31.2617 262.535 31.3398 262.197 31.4961C261.865 31.6523 261.582 31.8639 261.347 32.1309C261.113 32.3913 260.921 32.6908 260.771 33.0293C260.628 33.3613 260.52 33.7064 260.449 34.0645V36.5938C260.579 37.0495 260.761 37.4792 260.996 37.8828C261.23 38.2799 261.543 38.6022 261.933 38.8496C262.324 39.0905 262.815 39.2109 263.408 39.2109C263.896 39.2109 264.316 39.11 264.668 38.9082C265.026 38.6999 265.319 38.4167 265.546 38.0586C265.781 37.7005 265.953 37.2904 266.064 36.8281C266.175 36.3594 266.23 35.8613 266.23 35.334ZM275.136 40.6953C274.4 40.6953 273.733 40.5716 273.134 40.3242C272.542 40.0703 272.03 39.7155 271.601 39.2598C271.178 38.804 270.852 38.2637 270.624 37.6387C270.396 37.0137 270.282 36.3301 270.282 35.5879V35.1777C270.282 34.3184 270.409 33.5534 270.663 32.8828C270.917 32.2057 271.262 31.6328 271.698 31.1641C272.135 30.6953 272.629 30.3405 273.183 30.0996C273.736 29.8587 274.309 29.7383 274.902 29.7383C275.657 29.7383 276.308 29.8685 276.855 30.1289C277.408 30.3893 277.861 30.7539 278.212 31.2227C278.564 31.6849 278.824 32.2318 278.993 32.8633C279.163 33.4883 279.247 34.1719 279.247 34.9141V35.7246H271.357V34.25H277.441V34.1133C277.415 33.6445 277.317 33.1888 277.148 32.7461C276.985 32.3034 276.724 31.9388 276.366 31.6523C276.008 31.3659 275.52 31.2227 274.902 31.2227C274.491 31.2227 274.114 31.3105 273.769 31.4863C273.424 31.6556 273.127 31.9095 272.88 32.248C272.633 32.5866 272.441 33 272.304 33.4883C272.167 33.9766 272.099 34.5397 272.099 35.1777V35.5879C272.099 36.0892 272.167 36.5612 272.304 37.0039C272.447 37.4401 272.652 37.8242 272.919 38.1562C273.193 38.4883 273.521 38.7487 273.905 38.9375C274.296 39.1263 274.739 39.2207 275.234 39.2207C275.872 39.2207 276.412 39.0905 276.855 38.8301C277.297 38.5697 277.685 38.2214 278.017 37.7852L279.111 38.6543C278.883 38.9993 278.593 39.3281 278.241 39.6406C277.89 39.9531 277.457 40.207 276.943 40.4023C276.435 40.5977 275.833 40.6953 275.136 40.6953ZM283.661 29.9336H285.468L285.311 33.8887C285.272 34.8913 285.158 35.7572 284.97 36.4863C284.781 37.2155 284.54 37.8372 284.247 38.3516C283.954 38.8594 283.625 39.2858 283.261 39.6309C282.902 39.9759 282.531 40.2656 282.147 40.5H281.249L281.298 39.0254L281.669 39.0156C281.884 38.7617 282.092 38.5013 282.294 38.2344C282.496 37.9609 282.681 37.6387 282.85 37.2676C283.02 36.89 283.16 36.431 283.27 35.8906C283.387 35.3438 283.462 34.6764 283.495 33.8887L283.661 29.9336ZM284.11 29.9336H290.468V40.5H288.661V31.6035H284.11V29.9336ZM280.839 39.0156H291.825V43.6152H290.018V40.5H282.645V43.6152H280.829L280.839 39.0156ZM301.395 34.5137V35.9785H295.809V34.5137H301.395ZM296.19 29.9336V40.5H294.383V29.9336H296.19ZM302.86 29.9336V40.5H301.043V29.9336H302.86ZM310.555 40.6953C309.819 40.6953 309.152 40.5716 308.553 40.3242C307.96 40.0703 307.449 39.7155 307.02 39.2598C306.596 38.804 306.271 38.2637 306.043 37.6387C305.815 37.0137 305.701 36.3301 305.701 35.5879V35.1777C305.701 34.3184 305.828 33.5534 306.082 32.8828C306.336 32.2057 306.681 31.6328 307.117 31.1641C307.553 30.6953 308.048 30.3405 308.602 30.0996C309.155 29.8587 309.728 29.7383 310.32 29.7383C311.076 29.7383 311.727 29.8685 312.273 30.1289C312.827 30.3893 313.279 30.7539 313.631 31.2227C313.982 31.6849 314.243 32.2318 314.412 32.8633C314.581 33.4883 314.666 34.1719 314.666 34.9141V35.7246H306.775V34.25H312.859V34.1133C312.833 33.6445 312.736 33.1888 312.566 32.7461C312.404 32.3034 312.143 31.9388 311.785 31.6523C311.427 31.3659 310.939 31.2227 310.32 31.2227C309.91 31.2227 309.533 31.3105 309.188 31.4863C308.842 31.6556 308.546 31.9095 308.299 32.248C308.051 32.5866 307.859 33 307.723 33.4883C307.586 33.9766 307.518 34.5397 307.518 35.1777V35.5879C307.518 36.0892 307.586 36.5612 307.723 37.0039C307.866 37.4401 308.071 37.8242 308.338 38.1562C308.611 38.4883 308.94 38.7487 309.324 38.9375C309.715 39.1263 310.158 39.2207 310.652 39.2207C311.29 39.2207 311.831 39.0905 312.273 38.8301C312.716 38.5697 313.104 38.2214 313.436 37.7852L314.529 38.6543C314.301 38.9993 314.012 39.3281 313.66 39.6406C313.309 39.9531 312.876 40.207 312.361 40.4023C311.854 40.5977 311.251 40.6953 310.555 40.6953ZM324.002 29.9336V31.4277H319.119V40.5H317.312V29.9336H324.002ZM325.3 35.334V35.1094C325.3 34.3477 325.411 33.6413 325.632 32.9902C325.853 32.3327 326.172 31.763 326.589 31.2812C327.006 30.793 327.51 30.4154 328.103 30.1484C328.695 29.875 329.359 29.7383 330.095 29.7383C330.837 29.7383 331.504 29.875 332.097 30.1484C332.696 30.4154 333.204 30.793 333.62 31.2812C334.043 31.763 334.366 32.3327 334.587 32.9902C334.808 33.6413 334.919 34.3477 334.919 35.1094V35.334C334.919 36.0957 334.808 36.8021 334.587 37.4531C334.366 38.1042 334.043 38.6738 333.62 39.1621C333.204 39.6439 332.699 40.0215 332.107 40.2949C331.521 40.5618 330.857 40.6953 330.114 40.6953C329.372 40.6953 328.705 40.5618 328.113 40.2949C327.52 40.0215 327.012 39.6439 326.589 39.1621C326.172 38.6738 325.853 38.1042 325.632 37.4531C325.411 36.8021 325.3 36.0957 325.3 35.334ZM327.107 35.1094V35.334C327.107 35.8613 327.168 36.3594 327.292 36.8281C327.416 37.2904 327.601 37.7005 327.849 38.0586C328.103 38.4167 328.418 38.6999 328.796 38.9082C329.174 39.11 329.613 39.2109 330.114 39.2109C330.609 39.2109 331.042 39.11 331.413 38.9082C331.791 38.6999 332.103 38.4167 332.351 38.0586C332.598 37.7005 332.784 37.2904 332.907 36.8281C333.038 36.3594 333.103 35.8613 333.103 35.334V35.1094C333.103 34.5885 333.038 34.097 332.907 33.6348C332.784 33.166 332.595 32.7526 332.341 32.3945C332.094 32.0299 331.781 31.7435 331.404 31.5352C331.032 31.3268 330.596 31.2227 330.095 31.2227C329.6 31.2227 329.164 31.3268 328.786 31.5352C328.415 31.7435 328.103 32.0299 327.849 32.3945C327.601 32.7526 327.416 33.166 327.292 33.6348C327.168 34.097 327.107 34.5885 327.107 35.1094ZM149.418 53.9336V55.4277H144.076V53.9336H149.418ZM144.34 53.9336V64.5H142.533V53.9336H144.34ZM151.02 53.9336V64.5H149.203V53.9336H151.02ZM156.127 55.9648V68.5625H154.31V53.9336H155.97L156.127 55.9648ZM163.246 59.1289V59.334C163.246 60.1022 163.155 60.8151 162.972 61.4727C162.79 62.1237 162.523 62.6901 162.171 63.1719C161.826 63.6536 161.4 64.028 160.892 64.2949C160.384 64.5618 159.802 64.6953 159.144 64.6953C158.474 64.6953 157.881 64.5846 157.367 64.3633C156.852 64.1419 156.416 63.8197 156.058 63.3965C155.7 62.9733 155.414 62.4655 155.199 61.873C154.99 61.2806 154.847 60.6133 154.769 59.8711V58.7773C154.847 57.9961 154.994 57.2962 155.209 56.6777C155.423 56.0592 155.707 55.5319 156.058 55.0957C156.416 54.653 156.849 54.3177 157.357 54.0898C157.865 53.8555 158.451 53.7383 159.115 53.7383C159.779 53.7383 160.368 53.8685 160.882 54.1289C161.397 54.3828 161.83 54.7474 162.181 55.2227C162.533 55.6979 162.796 56.2676 162.972 56.9316C163.155 57.5892 163.246 58.3216 163.246 59.1289ZM161.429 59.334V59.1289C161.429 58.6016 161.374 58.1068 161.263 57.6445C161.153 57.1758 160.98 56.7656 160.746 56.4141C160.518 56.056 160.225 55.776 159.867 55.5742C159.509 55.3659 159.082 55.2617 158.587 55.2617C158.132 55.2617 157.735 55.3398 157.396 55.4961C157.064 55.6523 156.781 55.8639 156.546 56.1309C156.312 56.3913 156.12 56.6908 155.97 57.0293C155.827 57.3613 155.72 57.7064 155.648 58.0645V60.5938C155.778 61.0495 155.961 61.4792 156.195 61.8828C156.429 62.2799 156.742 62.6022 157.132 62.8496C157.523 63.0905 158.015 63.2109 158.607 63.2109C159.095 63.2109 159.515 63.11 159.867 62.9082C160.225 62.6999 160.518 62.4167 160.746 62.0586C160.98 61.7005 161.153 61.2904 161.263 60.8281C161.374 60.3594 161.429 59.8613 161.429 59.334ZM165.472 59.334V59.1094C165.472 58.3477 165.583 57.6413 165.804 56.9902C166.025 56.3327 166.344 55.763 166.761 55.2812C167.178 54.793 167.682 54.4154 168.275 54.1484C168.867 53.875 169.531 53.7383 170.267 53.7383C171.009 53.7383 171.676 53.875 172.269 54.1484C172.868 54.4154 173.376 54.793 173.792 55.2812C174.215 55.763 174.538 56.3327 174.759 56.9902C174.98 57.6413 175.091 58.3477 175.091 59.1094V59.334C175.091 60.0957 174.98 60.8021 174.759 61.4531C174.538 62.1042 174.215 62.6738 173.792 63.1621C173.376 63.6439 172.871 64.0215 172.279 64.2949C171.693 64.5618 171.029 64.6953 170.286 64.6953C169.544 64.6953 168.877 64.5618 168.284 64.2949C167.692 64.0215 167.184 63.6439 166.761 63.1621C166.344 62.6738 166.025 62.1042 165.804 61.4531C165.583 60.8021 165.472 60.0957 165.472 59.334ZM167.279 59.1094V59.334C167.279 59.8613 167.34 60.3594 167.464 60.8281C167.588 61.2904 167.773 61.7005 168.021 62.0586C168.275 62.4167 168.59 62.6999 168.968 62.9082C169.346 63.11 169.785 63.2109 170.286 63.2109C170.781 63.2109 171.214 63.11 171.585 62.9082C171.963 62.6999 172.275 62.4167 172.523 62.0586C172.77 61.7005 172.956 61.2904 173.079 60.8281C173.21 60.3594 173.275 59.8613 173.275 59.334V59.1094C173.275 58.5885 173.21 58.097 173.079 57.6348C172.956 57.166 172.767 56.7526 172.513 56.3945C172.265 56.0299 171.953 55.7435 171.575 55.5352C171.204 55.3268 170.768 55.2227 170.267 55.2227C169.772 55.2227 169.336 55.3268 168.958 55.5352C168.587 55.7435 168.275 56.0299 168.021 56.3945C167.773 56.7526 167.588 57.166 167.464 57.6348C167.34 58.097 167.279 58.5885 167.279 59.1094ZM189.905 59.4023V59.6074C189.905 60.3496 189.824 61.0332 189.661 61.6582C189.498 62.2767 189.254 62.8138 188.929 63.2695C188.61 63.7253 188.212 64.0801 187.737 64.334C187.262 64.5814 186.712 64.7051 186.087 64.7051C185.572 64.7051 185.12 64.6367 184.729 64.5C184.339 64.3568 184.007 64.1517 183.733 63.8848C183.466 63.6178 183.251 63.2988 183.089 62.9277C182.932 62.5501 182.825 62.127 182.766 61.6582V56.9707C182.825 56.4694 182.932 56.0202 183.089 55.623C183.251 55.2259 183.466 54.8874 183.733 54.6074C184.007 54.3275 184.335 54.1126 184.72 53.9629C185.104 53.8132 185.553 53.7383 186.067 53.7383C186.575 53.7383 187.031 53.8294 187.434 54.0117C187.845 54.1875 188.203 54.4414 188.509 54.7734C188.821 55.1055 189.078 55.5059 189.28 55.9746C189.488 56.4368 189.645 56.9577 189.749 57.5371C189.853 58.1165 189.905 58.7383 189.905 59.4023ZM188.098 59.6074V59.4023C188.098 58.9466 188.066 58.5137 188.001 58.1035C187.942 57.6868 187.848 57.306 187.718 56.9609C187.594 56.6094 187.431 56.3034 187.229 56.043C187.027 55.7826 186.783 55.5807 186.497 55.4375C186.217 55.2943 185.895 55.2227 185.53 55.2227C185.139 55.2227 184.814 55.2715 184.554 55.3691C184.3 55.4668 184.101 55.597 183.958 55.7598C183.815 55.916 183.71 56.082 183.645 56.2578V62.3809C183.723 62.5241 183.837 62.6608 183.987 62.791C184.137 62.9147 184.339 63.0189 184.593 63.1035C184.846 63.1816 185.165 63.2207 185.55 63.2207C186.005 63.2207 186.393 63.1296 186.712 62.9473C187.037 62.7585 187.301 62.498 187.503 62.166C187.711 61.834 187.861 61.4499 187.952 61.0137C188.05 60.5775 188.098 60.1087 188.098 59.6074ZM177.356 59.6074V59.4023C177.356 58.7383 177.408 58.1165 177.513 57.5371C177.617 56.9577 177.773 56.4368 177.981 55.9746C178.19 55.5059 178.447 55.1055 178.753 54.7734C179.065 54.4414 179.423 54.1875 179.827 54.0117C180.237 53.8294 180.696 53.7383 181.204 53.7383C181.705 53.7383 182.141 53.8132 182.513 53.9629C182.89 54.1126 183.209 54.3275 183.47 54.6074C183.73 54.8874 183.938 55.2259 184.095 55.623C184.251 56.0202 184.361 56.4694 184.427 56.9707V61.4727C184.368 61.9674 184.261 62.4134 184.104 62.8105C183.948 63.2077 183.74 63.5495 183.479 63.8359C183.219 64.1159 182.897 64.3307 182.513 64.4805C182.135 64.6302 181.692 64.7051 181.184 64.7051C180.559 64.7051 180.009 64.5814 179.534 64.334C179.059 64.0801 178.658 63.7253 178.333 63.2695C178.014 62.8138 177.77 62.2767 177.6 61.6582C177.438 61.0332 177.356 60.3496 177.356 59.6074ZM179.173 59.4023V59.6074C179.173 60.1087 179.215 60.5775 179.3 61.0137C179.391 61.4499 179.531 61.834 179.72 62.166C179.915 62.498 180.169 62.7585 180.481 62.9473C180.794 63.1296 181.178 63.2207 181.634 63.2207C182.024 63.2207 182.346 63.1719 182.6 63.0742C182.854 62.9766 183.056 62.8496 183.206 62.6934C183.356 62.5371 183.47 62.3743 183.548 62.2051V56.2578C183.483 56.082 183.375 55.916 183.225 55.7598C183.082 55.597 182.884 55.4668 182.63 55.3691C182.376 55.2715 182.05 55.2227 181.653 55.2227C181.197 55.2227 180.81 55.3333 180.491 55.5547C180.172 55.776 179.915 56.0788 179.72 56.4629C179.531 56.847 179.391 57.293 179.3 57.8008C179.215 58.3021 179.173 58.8359 179.173 59.4023ZM182.649 68.5625V49.5H184.466V68.5625H182.649ZM197.053 64.6953C196.317 64.6953 195.65 64.5716 195.051 64.3242C194.459 64.0703 193.948 63.7155 193.518 63.2598C193.095 62.804 192.769 62.2637 192.541 61.6387C192.314 61.0137 192.2 60.3301 192.2 59.5879V59.1777C192.2 58.3184 192.327 57.5534 192.58 56.8828C192.834 56.2057 193.179 55.6328 193.616 55.1641C194.052 54.6953 194.547 54.3405 195.1 54.0996C195.653 53.8587 196.226 53.7383 196.819 53.7383C197.574 53.7383 198.225 53.8685 198.772 54.1289C199.325 54.3893 199.778 54.7539 200.129 55.2227C200.481 55.6849 200.741 56.2318 200.911 56.8633C201.08 57.4883 201.164 58.1719 201.164 58.9141V59.7246H193.274V58.25H199.358V58.1133C199.332 57.6445 199.234 57.1888 199.065 56.7461C198.902 56.3034 198.642 55.9388 198.284 55.6523C197.926 55.3659 197.437 55.2227 196.819 55.2227C196.409 55.2227 196.031 55.3105 195.686 55.4863C195.341 55.6556 195.045 55.9095 194.797 56.248C194.55 56.5866 194.358 57 194.221 57.4883C194.084 57.9766 194.016 58.5397 194.016 59.1777V59.5879C194.016 60.0892 194.084 60.5612 194.221 61.0039C194.364 61.4401 194.569 61.8242 194.836 62.1562C195.11 62.4883 195.439 62.7487 195.823 62.9375C196.213 63.1263 196.656 63.2207 197.151 63.2207C197.789 63.2207 198.329 63.0905 198.772 62.8301C199.215 62.5697 199.602 62.2214 199.934 61.7852L201.028 62.6543C200.8 62.9993 200.51 63.3281 200.159 63.6406C199.807 63.9531 199.374 64.207 198.86 64.4023C198.352 64.5977 197.75 64.6953 197.053 64.6953ZM207.902 63.2109C208.332 63.2109 208.729 63.123 209.094 62.9473C209.458 62.7715 209.758 62.5306 209.992 62.2246C210.227 61.9121 210.36 61.5573 210.393 61.1602H212.111C212.079 61.7852 211.867 62.3678 211.477 62.9082C211.092 63.4421 210.588 63.875 209.963 64.207C209.338 64.5326 208.651 64.6953 207.902 64.6953C207.108 64.6953 206.415 64.5553 205.822 64.2754C205.236 63.9954 204.748 63.6113 204.357 63.123C203.973 62.6348 203.684 62.0749 203.488 61.4434C203.299 60.8053 203.205 60.1315 203.205 59.4219V59.0117C203.205 58.3021 203.299 57.6315 203.488 57C203.684 56.362 203.973 55.7988 204.357 55.3105C204.748 54.8223 205.236 54.4382 205.822 54.1582C206.415 53.8783 207.108 53.7383 207.902 53.7383C208.729 53.7383 209.452 53.9076 210.07 54.2461C210.689 54.5781 211.174 55.0339 211.525 55.6133C211.883 56.1862 212.079 56.8372 212.111 57.5664H210.393C210.36 57.1302 210.236 56.7363 210.021 56.3848C209.813 56.0332 209.527 55.7533 209.162 55.5449C208.804 55.3301 208.384 55.2227 207.902 55.2227C207.349 55.2227 206.883 55.3333 206.506 55.5547C206.135 55.7695 205.839 56.0625 205.617 56.4336C205.402 56.7982 205.246 57.2051 205.148 57.6543C205.057 58.097 205.012 58.5495 205.012 59.0117V59.4219C205.012 59.8841 205.057 60.3398 205.148 60.7891C205.24 61.2383 205.393 61.6452 205.607 62.0098C205.829 62.3743 206.125 62.6673 206.496 62.8887C206.874 63.1035 207.342 63.2109 207.902 63.2109ZM218.771 63.2109C219.201 63.2109 219.598 63.123 219.963 62.9473C220.327 62.7715 220.627 62.5306 220.861 62.2246C221.095 61.9121 221.229 61.5573 221.261 61.1602H222.98C222.948 61.7852 222.736 62.3678 222.345 62.9082C221.961 63.4421 221.457 63.875 220.832 64.207C220.207 64.5326 219.52 64.6953 218.771 64.6953C217.977 64.6953 217.283 64.5553 216.691 64.2754C216.105 63.9954 215.617 63.6113 215.226 63.123C214.842 62.6348 214.552 62.0749 214.357 61.4434C214.168 60.8053 214.074 60.1315 214.074 59.4219V59.0117C214.074 58.3021 214.168 57.6315 214.357 57C214.552 56.362 214.842 55.7988 215.226 55.3105C215.617 54.8223 216.105 54.4382 216.691 54.1582C217.283 53.8783 217.977 53.7383 218.771 53.7383C219.598 53.7383 220.321 53.9076 220.939 54.2461C221.558 54.5781 222.043 55.0339 222.394 55.6133C222.752 56.1862 222.948 56.8372 222.98 57.5664H221.261C221.229 57.1302 221.105 56.7363 220.89 56.3848C220.682 56.0332 220.395 55.7533 220.031 55.5449C219.673 55.3301 219.253 55.2227 218.771 55.2227C218.218 55.2227 217.752 55.3333 217.375 55.5547C217.004 55.7695 216.707 56.0625 216.486 56.4336C216.271 56.7982 216.115 57.2051 216.017 57.6543C215.926 58.097 215.88 58.5495 215.88 59.0117V59.4219C215.88 59.8841 215.926 60.3398 216.017 60.7891C216.108 61.2383 216.261 61.6452 216.476 62.0098C216.698 62.3743 216.994 62.6673 217.365 62.8887C217.742 63.1035 218.211 63.2109 218.771 63.2109ZM227.364 61.6387L232.238 53.9336H234.054V64.5H232.238V56.7949L227.364 64.5H225.568V53.9336H227.364V61.6387ZM236.876 59.334V59.1094C236.876 58.3477 236.986 57.6413 237.208 56.9902C237.429 56.3327 237.748 55.763 238.165 55.2812C238.582 54.793 239.086 54.4154 239.679 54.1484C240.271 53.875 240.935 53.7383 241.671 53.7383C242.413 53.7383 243.08 53.875 243.673 54.1484C244.272 54.4154 244.779 54.793 245.196 55.2812C245.619 55.763 245.942 56.3327 246.163 56.9902C246.384 57.6413 246.495 58.3477 246.495 59.1094V59.334C246.495 60.0957 246.384 60.8021 246.163 61.4531C245.942 62.1042 245.619 62.6738 245.196 63.1621C244.779 63.6439 244.275 64.0215 243.682 64.2949C243.096 64.5618 242.432 64.6953 241.69 64.6953C240.948 64.6953 240.281 64.5618 239.688 64.2949C239.096 64.0215 238.588 63.6439 238.165 63.1621C237.748 62.6738 237.429 62.1042 237.208 61.4531C236.986 60.8021 236.876 60.0957 236.876 59.334ZM238.682 59.1094V59.334C238.682 59.8613 238.744 60.3594 238.868 60.8281C238.992 61.2904 239.177 61.7005 239.425 62.0586C239.679 62.4167 239.994 62.6999 240.372 62.9082C240.749 63.11 241.189 63.2109 241.69 63.2109C242.185 63.2109 242.618 63.11 242.989 62.9082C243.367 62.6999 243.679 62.4167 243.927 62.0586C244.174 61.7005 244.36 61.2904 244.483 60.8281C244.613 60.3594 244.679 59.8613 244.679 59.334V59.1094C244.679 58.5885 244.613 58.097 244.483 57.6348C244.36 57.166 244.171 56.7526 243.917 56.3945C243.669 56.0299 243.357 55.7435 242.979 55.5352C242.608 55.3268 242.172 55.2227 241.671 55.2227C241.176 55.2227 240.74 55.3268 240.362 55.5352C239.991 55.7435 239.679 56.0299 239.425 56.3945C239.177 56.7526 238.992 57.166 238.868 57.6348C238.744 58.097 238.682 58.5885 238.682 59.1094ZM256.329 58.5137V59.9785H250.743V58.5137H256.329ZM251.123 53.9336V64.5H249.317V53.9336H251.123ZM257.793 53.9336V64.5H255.977V53.9336H257.793ZM267.334 62.6934V57.2539C267.334 56.8372 267.249 56.4759 267.08 56.1699C266.917 55.8574 266.67 55.6165 266.338 55.4473C266.006 55.278 265.596 55.1934 265.107 55.1934C264.652 55.1934 264.251 55.2715 263.906 55.4277C263.568 55.584 263.301 55.7891 263.105 56.043C262.917 56.2969 262.822 56.5703 262.822 56.8633H261.016C261.016 56.4857 261.113 56.1113 261.309 55.7402C261.504 55.3691 261.784 55.0339 262.148 54.7344C262.52 54.4284 262.962 54.1875 263.477 54.0117C263.997 53.8294 264.577 53.7383 265.215 53.7383C265.983 53.7383 266.66 53.8685 267.246 54.1289C267.839 54.3893 268.301 54.7832 268.633 55.3105C268.971 55.8314 269.141 56.4857 269.141 57.2734V62.1953C269.141 62.5469 269.17 62.9212 269.229 63.3184C269.294 63.7155 269.388 64.0573 269.512 64.3438V64.5H267.627C267.536 64.2917 267.464 64.015 267.412 63.6699C267.36 63.3184 267.334 62.9928 267.334 62.6934ZM267.646 58.0938L267.666 59.3633H265.84C265.326 59.3633 264.867 59.4056 264.463 59.4902C264.059 59.5684 263.721 59.6888 263.447 59.8516C263.174 60.0143 262.965 60.2194 262.822 60.4668C262.679 60.7077 262.607 60.9909 262.607 61.3164C262.607 61.6484 262.682 61.9512 262.832 62.2246C262.982 62.498 263.206 62.7161 263.506 62.8789C263.812 63.0352 264.186 63.1133 264.629 63.1133C265.182 63.1133 265.671 62.9961 266.094 62.7617C266.517 62.5273 266.852 62.2409 267.1 61.9023C267.354 61.5638 267.49 61.235 267.51 60.916L268.281 61.7852C268.236 62.0586 268.112 62.3613 267.91 62.6934C267.708 63.0254 267.438 63.3444 267.1 63.6504C266.768 63.9499 266.37 64.2005 265.908 64.4023C265.452 64.5977 264.938 64.6953 264.365 64.6953C263.649 64.6953 263.021 64.5553 262.48 64.2754C261.947 63.9954 261.53 63.6211 261.23 63.1523C260.938 62.6771 260.791 62.1465 260.791 61.5605C260.791 60.9941 260.902 60.4961 261.123 60.0664C261.344 59.6302 261.663 59.2689 262.08 58.9824C262.497 58.6895 262.998 58.4681 263.584 58.3184C264.17 58.1686 264.824 58.0938 265.547 58.0938H267.646ZM279.443 53.9336V55.4277H274.336V53.9336H279.443ZM281.035 53.9336V64.5H279.228V53.9336H281.035ZM273.896 53.9336H275.712L275.439 59.0312C275.393 59.819 275.319 60.5156 275.214 61.1211C275.117 61.7201 274.98 62.2344 274.804 62.6641C274.635 63.0938 274.42 63.4453 274.16 63.7188C273.906 63.9857 273.6 64.1842 273.242 64.3145C272.884 64.4382 272.47 64.5 272.002 64.5H271.435V62.9082L271.826 62.8789C272.106 62.8594 272.343 62.7943 272.539 62.6836C272.74 62.5729 272.91 62.4102 273.046 62.1953C273.183 61.974 273.294 61.6908 273.379 61.3457C273.47 61.0007 273.538 60.5905 273.584 60.1152C273.636 59.64 273.675 59.0866 273.701 58.4551L273.896 53.9336ZM285.829 57.5664H289.003C289.856 57.5664 290.575 57.7161 291.161 58.0156C291.747 58.3086 292.19 58.7155 292.489 59.2363C292.795 59.7507 292.948 60.3366 292.948 60.9941C292.948 61.4824 292.864 61.9414 292.695 62.3711C292.525 62.7943 292.271 63.1654 291.933 63.4844C291.601 63.8034 291.187 64.054 290.693 64.2363C290.204 64.4121 289.641 64.5 289.003 64.5H284.511V53.9336H286.318V63.0156H289.003C289.524 63.0156 289.941 62.9212 290.253 62.7324C290.566 62.5436 290.79 62.2995 290.927 62C291.064 61.7005 291.132 61.388 291.132 61.0625C291.132 60.7435 291.064 60.431 290.927 60.125C290.79 59.819 290.566 59.5651 290.253 59.3633C289.941 59.1549 289.524 59.0508 289.003 59.0508H285.829V57.5664ZM302.772 58.5137V59.9785H297.186V58.5137H302.772ZM297.567 53.9336V64.5H295.761V53.9336H297.567ZM304.237 53.9336V64.5H302.421V53.9336H304.237ZM307.069 59.334V59.1094C307.069 58.3477 307.179 57.6413 307.401 56.9902C307.622 56.3327 307.941 55.763 308.358 55.2812C308.774 54.793 309.279 54.4154 309.871 54.1484C310.464 53.875 311.128 53.7383 311.864 53.7383C312.606 53.7383 313.273 53.875 313.866 54.1484C314.465 54.4154 314.972 54.793 315.389 55.2812C315.812 55.763 316.135 56.3327 316.356 56.9902C316.577 57.6413 316.688 58.3477 316.688 59.1094V59.334C316.688 60.0957 316.577 60.8021 316.356 61.4531C316.135 62.1042 315.812 62.6738 315.389 63.1621C314.972 63.6439 314.468 64.0215 313.875 64.2949C313.289 64.5618 312.625 64.6953 311.883 64.6953C311.141 64.6953 310.474 64.5618 309.881 64.2949C309.289 64.0215 308.781 63.6439 308.358 63.1621C307.941 62.6738 307.622 62.1042 307.401 61.4531C307.179 60.8021 307.069 60.0957 307.069 59.334ZM308.875 59.1094V59.334C308.875 59.8613 308.937 60.3594 309.061 60.8281C309.185 61.2904 309.37 61.7005 309.618 62.0586C309.871 62.4167 310.187 62.6999 310.565 62.9082C310.942 63.11 311.382 63.2109 311.883 63.2109C312.378 63.2109 312.811 63.11 313.182 62.9082C313.56 62.6999 313.872 62.4167 314.12 62.0586C314.367 61.7005 314.552 61.2904 314.676 60.8281C314.806 60.3594 314.871 59.8613 314.871 59.334V59.1094C314.871 58.5885 314.806 58.097 314.676 57.6348C314.552 57.166 314.364 56.7526 314.11 56.3945C313.862 56.0299 313.55 55.7435 313.172 55.5352C312.801 55.3268 312.365 55.2227 311.864 55.2227C311.369 55.2227 310.933 55.3268 310.555 55.5352C310.184 55.7435 309.871 56.0299 309.618 56.3945C309.37 56.7526 309.185 57.166 309.061 57.6348C308.937 58.097 308.875 58.5885 308.875 59.1094ZM326.18 53.9336V55.4277H321.297V64.5H319.49V53.9336H326.18ZM327.478 59.334V59.1094C327.478 58.3477 327.589 57.6413 327.81 56.9902C328.032 56.3327 328.351 55.763 328.767 55.2812C329.184 54.793 329.688 54.4154 330.281 54.1484C330.873 53.875 331.537 53.7383 332.273 53.7383C333.015 53.7383 333.683 53.875 334.275 54.1484C334.874 54.4154 335.382 54.793 335.798 55.2812C336.222 55.763 336.544 56.3327 336.765 56.9902C336.987 57.6413 337.097 58.3477 337.097 59.1094V59.334C337.097 60.0957 336.987 60.8021 336.765 61.4531C336.544 62.1042 336.222 62.6738 335.798 63.1621C335.382 63.6439 334.877 64.0215 334.285 64.2949C333.699 64.5618 333.035 64.6953 332.293 64.6953C331.55 64.6953 330.883 64.5618 330.291 64.2949C329.698 64.0215 329.19 63.6439 328.767 63.1621C328.351 62.6738 328.032 62.1042 327.81 61.4531C327.589 60.8021 327.478 60.0957 327.478 59.334ZM329.285 59.1094V59.334C329.285 59.8613 329.347 60.3594 329.47 60.8281C329.594 61.2904 329.78 61.7005 330.027 62.0586C330.281 62.4167 330.597 62.6999 330.974 62.9082C331.352 63.11 331.791 63.2109 332.293 63.2109C332.787 63.2109 333.22 63.11 333.591 62.9082C333.969 62.6999 334.282 62.4167 334.529 62.0586C334.776 61.7005 334.962 61.2904 335.086 60.8281C335.216 60.3594 335.281 59.8613 335.281 59.334V59.1094C335.281 58.5885 335.216 58.097 335.086 57.6348C334.962 57.166 334.773 56.7526 334.519 56.3945C334.272 56.0299 333.959 55.7435 333.582 55.5352C333.211 55.3268 332.774 55.2227 332.273 55.2227C331.778 55.2227 331.342 55.3268 330.964 55.5352C330.593 55.7435 330.281 56.0299 330.027 56.3945C329.78 56.7526 329.594 57.166 329.47 57.6348C329.347 58.097 329.285 58.5885 329.285 59.1094ZM141.898 83.334V83.1094C141.898 82.3477 142.009 81.6413 142.23 80.9902C142.452 80.3327 142.771 79.763 143.188 79.2812C143.604 78.793 144.109 78.4154 144.701 78.1484C145.294 77.875 145.958 77.7383 146.693 77.7383C147.436 77.7383 148.103 77.875 148.695 78.1484C149.294 78.4154 149.802 78.793 150.219 79.2812C150.642 79.763 150.964 80.3327 151.186 80.9902C151.407 81.6413 151.518 82.3477 151.518 83.1094V83.334C151.518 84.0957 151.407 84.8021 151.186 85.4531C150.964 86.1042 150.642 86.6738 150.219 87.1621C149.802 87.6439 149.298 88.0215 148.705 88.2949C148.119 88.5618 147.455 88.6953 146.713 88.6953C145.971 88.6953 145.303 88.5618 144.711 88.2949C144.118 88.0215 143.611 87.6439 143.188 87.1621C142.771 86.6738 142.452 86.1042 142.23 85.4531C142.009 84.8021 141.898 84.0957 141.898 83.334ZM143.705 83.1094V83.334C143.705 83.8613 143.767 84.3594 143.891 84.8281C144.014 85.2904 144.2 85.7005 144.447 86.0586C144.701 86.4167 145.017 86.6999 145.395 86.9082C145.772 87.11 146.212 87.2109 146.713 87.2109C147.208 87.2109 147.641 87.11 148.012 86.9082C148.389 86.6999 148.702 86.4167 148.949 86.0586C149.197 85.7005 149.382 85.2904 149.506 84.8281C149.636 84.3594 149.701 83.8613 149.701 83.334V83.1094C149.701 82.5885 149.636 82.097 149.506 81.6348C149.382 81.166 149.193 80.7526 148.939 80.3945C148.692 80.0299 148.38 79.7435 148.002 79.5352C147.631 79.3268 147.195 79.2227 146.693 79.2227C146.199 79.2227 145.762 79.3268 145.385 79.5352C145.014 79.7435 144.701 80.0299 144.447 80.3945C144.2 80.7526 144.014 81.166 143.891 81.6348C143.767 82.097 143.705 82.5885 143.705 83.1094ZM160.961 73.334H162.445C162.445 73.972 162.347 74.4798 162.152 74.8574C161.957 75.2285 161.69 75.515 161.351 75.7168C161.019 75.9186 160.642 76.0716 160.218 76.1758C159.802 76.2799 159.369 76.3809 158.92 76.4785C158.36 76.5957 157.839 76.7812 157.357 77.0352C156.882 77.2826 156.472 77.6341 156.127 78.0898C155.788 78.5456 155.537 79.138 155.375 79.8672C155.218 80.5964 155.176 81.498 155.248 82.5723V83.4707H153.763V82.5723C153.763 81.3678 153.877 80.3164 154.105 79.418C154.339 78.5195 154.668 77.7611 155.091 77.1426C155.515 76.5241 156.016 76.0326 156.595 75.668C157.181 75.3034 157.826 75.0527 158.529 74.916C159.037 74.8184 159.473 74.7142 159.837 74.6035C160.202 74.4863 160.479 74.3301 160.668 74.1348C160.863 73.9395 160.961 73.6725 160.961 73.334ZM158.822 78.5391C159.512 78.5391 160.127 78.6595 160.668 78.9004C161.208 79.1413 161.667 79.4766 162.045 79.9062C162.422 80.3359 162.709 80.8438 162.904 81.4297C163.106 82.0091 163.207 82.6406 163.207 83.3242V83.5391C163.207 84.2747 163.099 84.9583 162.884 85.5898C162.676 86.2148 162.367 86.7617 161.957 87.2305C161.553 87.6927 161.058 88.054 160.472 88.3145C159.893 88.5749 159.232 88.7051 158.49 88.7051C157.748 88.7051 157.084 88.5749 156.498 88.3145C155.918 88.054 155.423 87.6927 155.013 87.2305C154.603 86.7617 154.291 86.2148 154.076 85.5898C153.867 84.9583 153.763 84.2747 153.763 83.5391V83.3242C153.763 83.1615 153.793 83.002 153.851 82.8457C153.91 82.6895 153.981 82.5299 154.066 82.3672C154.157 82.2044 154.239 82.0319 154.31 81.8496C154.551 81.2637 154.88 80.7201 155.296 80.2188C155.72 79.7174 156.224 79.3138 156.81 79.0078C157.403 78.6953 158.073 78.5391 158.822 78.5391ZM158.47 80.0137C157.806 80.0137 157.259 80.1667 156.83 80.4727C156.407 80.7786 156.091 81.1855 155.882 81.6934C155.674 82.1947 155.57 82.7383 155.57 83.3242V83.5391C155.57 84.0339 155.629 84.5026 155.746 84.9453C155.863 85.388 156.039 85.7819 156.273 86.127C156.514 86.4655 156.817 86.7324 157.181 86.9277C157.552 87.123 157.989 87.2207 158.49 87.2207C158.991 87.2207 159.424 87.123 159.789 86.9277C160.153 86.7324 160.453 86.4655 160.687 86.127C160.921 85.7819 161.097 85.388 161.214 84.9453C161.332 84.5026 161.39 84.0339 161.39 83.5391V83.3242C161.39 82.8815 161.332 82.4616 161.214 82.0645C161.097 81.6673 160.918 81.3158 160.677 81.0098C160.443 80.7038 160.14 80.4629 159.769 80.2871C159.405 80.1048 158.972 80.0137 158.47 80.0137ZM167.288 79.9648V92.5625H165.472V77.9336H167.132L167.288 79.9648ZM174.407 83.1289V83.334C174.407 84.1022 174.316 84.8151 174.134 85.4727C173.952 86.1237 173.685 86.6901 173.333 87.1719C172.988 87.6536 172.562 88.028 172.054 88.2949C171.546 88.5618 170.963 88.6953 170.306 88.6953C169.635 88.6953 169.043 88.5846 168.529 88.3633C168.014 88.1419 167.578 87.8197 167.22 87.3965C166.862 86.9733 166.575 86.4655 166.361 85.873C166.152 85.2806 166.009 84.6133 165.931 83.8711V82.7773C166.009 81.9961 166.155 81.2962 166.37 80.6777C166.585 80.0592 166.868 79.5319 167.22 79.0957C167.578 78.653 168.011 78.3177 168.519 78.0898C169.027 77.8555 169.612 77.7383 170.277 77.7383C170.941 77.7383 171.53 77.8685 172.044 78.1289C172.558 78.3828 172.991 78.7474 173.343 79.2227C173.695 79.6979 173.958 80.2676 174.134 80.9316C174.316 81.5892 174.407 82.3216 174.407 83.1289ZM172.591 83.334V83.1289C172.591 82.6016 172.536 82.1068 172.425 81.6445C172.314 81.1758 172.142 80.7656 171.907 80.4141C171.68 80.056 171.387 79.776 171.029 79.5742C170.67 79.3659 170.244 79.2617 169.749 79.2617C169.293 79.2617 168.896 79.3398 168.558 79.4961C168.226 79.6523 167.943 79.8639 167.708 80.1309C167.474 80.3913 167.282 80.6908 167.132 81.0293C166.989 81.3613 166.881 81.7064 166.81 82.0645V84.5938C166.94 85.0495 167.122 85.4792 167.357 85.8828C167.591 86.2799 167.904 86.6022 168.294 86.8496C168.685 87.0905 169.176 87.2109 169.769 87.2109C170.257 87.2109 170.677 87.11 171.029 86.9082C171.387 86.6999 171.68 86.4167 171.907 86.0586C172.142 85.7005 172.314 85.2904 172.425 84.8281C172.536 84.3594 172.591 83.8613 172.591 83.334ZM183.343 86.6934V81.2539C183.343 80.8372 183.258 80.4759 183.089 80.1699C182.926 79.8574 182.679 79.6165 182.346 79.4473C182.014 79.278 181.604 79.1934 181.116 79.1934C180.66 79.1934 180.26 79.2715 179.915 79.4277C179.576 79.584 179.309 79.7891 179.114 80.043C178.925 80.2969 178.831 80.5703 178.831 80.8633H177.024C177.024 80.4857 177.122 80.1113 177.317 79.7402C177.513 79.3691 177.792 79.0339 178.157 78.7344C178.528 78.4284 178.971 78.1875 179.485 78.0117C180.006 77.8294 180.585 77.7383 181.223 77.7383C181.992 77.7383 182.669 77.8685 183.255 78.1289C183.847 78.3893 184.309 78.7832 184.641 79.3105C184.98 79.8314 185.149 80.4857 185.149 81.2734V86.1953C185.149 86.5469 185.179 86.9212 185.237 87.3184C185.302 87.7155 185.397 88.0573 185.52 88.3438V88.5H183.636C183.544 88.2917 183.473 88.015 183.421 87.6699C183.369 87.3184 183.343 86.9928 183.343 86.6934ZM183.655 82.0938L183.675 83.3633H181.848C181.334 83.3633 180.875 83.4056 180.471 83.4902C180.068 83.5684 179.729 83.6888 179.456 83.8516C179.182 84.0143 178.974 84.2194 178.831 84.4668C178.688 84.7077 178.616 84.9909 178.616 85.3164C178.616 85.6484 178.691 85.9512 178.841 86.2246C178.99 86.498 179.215 86.7161 179.514 86.8789C179.82 87.0352 180.195 87.1133 180.638 87.1133C181.191 87.1133 181.679 86.9961 182.102 86.7617C182.526 86.5273 182.861 86.2409 183.108 85.9023C183.362 85.5638 183.499 85.235 183.518 84.916L184.29 85.7852C184.244 86.0586 184.121 86.3613 183.919 86.6934C183.717 87.0254 183.447 87.3444 183.108 87.6504C182.776 87.9499 182.379 88.2005 181.917 88.4023C181.461 88.5977 180.947 88.6953 180.374 88.6953C179.658 88.6953 179.029 88.5553 178.489 88.2754C177.955 87.9954 177.539 87.6211 177.239 87.1523C176.946 86.6771 176.8 86.1465 176.8 85.5605C176.8 84.9941 176.91 84.4961 177.132 84.0664C177.353 83.6302 177.672 83.2689 178.089 82.9824C178.505 82.6895 179.007 82.4681 179.593 82.3184C180.179 82.1686 180.833 82.0938 181.555 82.0938H183.655ZM192.336 83.4512H190.393V82.3379H192.19C192.691 82.3379 193.088 82.276 193.381 82.1523C193.674 82.0221 193.883 81.8431 194.006 81.6152C194.13 81.3874 194.192 81.1204 194.192 80.8145C194.192 80.541 194.12 80.2839 193.977 80.043C193.84 79.7956 193.619 79.597 193.313 79.4473C193.007 79.291 192.597 79.2129 192.082 79.2129C191.666 79.2129 191.288 79.2878 190.95 79.4375C190.611 79.5807 190.341 79.7793 190.139 80.0332C189.944 80.2806 189.846 80.5605 189.846 80.873H188.039C188.039 80.2285 188.222 79.6751 188.586 79.2129C188.957 78.7441 189.449 78.3828 190.061 78.1289C190.679 77.875 191.353 77.748 192.082 77.748C192.694 77.748 193.241 77.8164 193.723 77.9531C194.211 78.0833 194.625 78.2786 194.963 78.5391C195.302 78.793 195.559 79.112 195.735 79.4961C195.917 79.8737 196.008 80.3132 196.008 80.8145C196.008 81.1725 195.924 81.5111 195.754 81.8301C195.585 82.1491 195.341 82.4323 195.022 82.6797C194.703 82.9206 194.315 83.1094 193.86 83.2461C193.411 83.3828 192.903 83.4512 192.336 83.4512ZM190.393 82.7676H192.336C192.968 82.7676 193.524 82.8294 194.006 82.9531C194.488 83.0703 194.892 83.2461 195.217 83.4805C195.543 83.7148 195.787 84.0046 195.95 84.3496C196.119 84.6882 196.204 85.0788 196.204 85.5215C196.204 86.0163 196.103 86.4622 195.901 86.8594C195.705 87.25 195.426 87.582 195.061 87.8555C194.696 88.1289 194.26 88.3372 193.752 88.4805C193.251 88.6237 192.694 88.6953 192.082 88.6953C191.399 88.6953 190.735 88.5781 190.09 88.3438C189.446 88.1094 188.915 87.748 188.498 87.2598C188.082 86.765 187.873 86.1367 187.873 85.375H189.68C189.68 85.694 189.781 85.9967 189.983 86.2832C190.185 86.5697 190.465 86.8008 190.823 86.9766C191.187 87.1523 191.607 87.2402 192.082 87.2402C192.59 87.2402 193.013 87.1621 193.352 87.0059C193.69 86.8496 193.944 86.6413 194.114 86.3809C194.289 86.1204 194.377 85.8372 194.377 85.5312C194.377 85.1341 194.299 84.8151 194.143 84.5742C193.987 84.3333 193.746 84.1576 193.42 84.0469C193.101 83.9297 192.691 83.8711 192.19 83.8711H190.393V82.7676ZM198.469 83.334V83.1094C198.469 82.3477 198.579 81.6413 198.801 80.9902C199.022 80.3327 199.341 79.763 199.758 79.2812C200.174 78.793 200.679 78.4154 201.271 78.1484C201.864 77.875 202.528 77.7383 203.264 77.7383C204.006 77.7383 204.673 77.875 205.266 78.1484C205.865 78.4154 206.372 78.793 206.789 79.2812C207.212 79.763 207.535 80.3327 207.756 80.9902C207.977 81.6413 208.088 82.3477 208.088 83.1094V83.334C208.088 84.0957 207.977 84.8021 207.756 85.4531C207.535 86.1042 207.212 86.6738 206.789 87.1621C206.372 87.6439 205.868 88.0215 205.275 88.2949C204.689 88.5618 204.025 88.6953 203.283 88.6953C202.541 88.6953 201.874 88.5618 201.281 88.2949C200.689 88.0215 200.181 87.6439 199.758 87.1621C199.341 86.6738 199.022 86.1042 198.801 85.4531C198.579 84.8021 198.469 84.0957 198.469 83.334ZM200.275 83.1094V83.334C200.275 83.8613 200.337 84.3594 200.461 84.8281C200.585 85.2904 200.77 85.7005 201.018 86.0586C201.271 86.4167 201.587 86.6999 201.965 86.9082C202.342 87.11 202.782 87.2109 203.283 87.2109C203.778 87.2109 204.211 87.11 204.582 86.9082C204.96 86.6999 205.272 86.4167 205.52 86.0586C205.767 85.7005 205.952 85.2904 206.076 84.8281C206.206 84.3594 206.271 83.8613 206.271 83.334V83.1094C206.271 82.5885 206.206 82.097 206.076 81.6348C205.952 81.166 205.764 80.7526 205.51 80.3945C205.262 80.0299 204.95 79.7435 204.572 79.5352C204.201 79.3268 203.765 79.2227 203.264 79.2227C202.769 79.2227 202.333 79.3268 201.955 79.5352C201.584 79.7435 201.271 80.0299 201.018 80.3945C200.77 80.7526 200.585 81.166 200.461 81.6348C200.337 82.097 200.275 82.5885 200.275 83.1094ZM215.714 83.8516H212.248L212.228 82.4062H215.06C215.62 82.4062 216.086 82.3509 216.457 82.2402C216.834 82.1296 217.117 81.9635 217.306 81.7422C217.495 81.5208 217.589 81.2474 217.589 80.9219C217.589 80.668 217.534 80.4466 217.423 80.2578C217.319 80.0625 217.16 79.903 216.945 79.7793C216.73 79.6491 216.463 79.5547 216.144 79.4961C215.832 79.431 215.464 79.3984 215.041 79.3984H212.726V88.5H210.92V77.9336H215.041C215.711 77.9336 216.313 77.9922 216.847 78.1094C217.388 78.2266 217.847 78.4056 218.224 78.6465C218.608 78.8809 218.901 79.1803 219.103 79.5449C219.305 79.9095 219.406 80.3392 219.406 80.834C219.406 81.153 219.341 81.4557 219.211 81.7422C219.08 82.0286 218.888 82.2826 218.634 82.5039C218.38 82.7253 218.068 82.9076 217.697 83.0508C217.326 83.1875 216.899 83.2754 216.418 83.3145L215.714 83.8516ZM215.714 88.5H211.593L212.492 87.0352H215.714C216.216 87.0352 216.632 86.9733 216.964 86.8496C217.296 86.7194 217.544 86.5371 217.707 86.3027C217.876 86.0618 217.961 85.7754 217.961 85.4434C217.961 85.1113 217.876 84.8281 217.707 84.5938C217.544 84.3529 217.296 84.1706 216.964 84.0469C216.632 83.9167 216.216 83.8516 215.714 83.8516H212.97L212.99 82.4062H216.418L217.072 82.9531C217.651 82.9987 218.143 83.1419 218.546 83.3828C218.95 83.6237 219.256 83.9297 219.464 84.3008C219.673 84.6654 219.777 85.0625 219.777 85.4922C219.777 85.987 219.683 86.4232 219.494 86.8008C219.311 87.1784 219.045 87.4941 218.693 87.748C218.341 87.9954 217.915 88.1842 217.414 88.3145C216.912 88.4382 216.346 88.5 215.714 88.5ZM228.829 86.6934V81.2539C228.829 80.8372 228.745 80.4759 228.575 80.1699C228.413 79.8574 228.165 79.6165 227.833 79.4473C227.501 79.278 227.091 79.1934 226.603 79.1934C226.147 79.1934 225.747 79.2715 225.402 79.4277C225.063 79.584 224.796 79.7891 224.601 80.043C224.412 80.2969 224.318 80.5703 224.318 80.8633H222.511C222.511 80.4857 222.609 80.1113 222.804 79.7402C222.999 79.3691 223.279 79.0339 223.644 78.7344C224.015 78.4284 224.458 78.1875 224.972 78.0117C225.493 77.8294 226.072 77.7383 226.71 77.7383C227.478 77.7383 228.155 77.8685 228.741 78.1289C229.334 78.3893 229.796 78.7832 230.128 79.3105C230.467 79.8314 230.636 80.4857 230.636 81.2734V86.1953C230.636 86.5469 230.665 86.9212 230.724 87.3184C230.789 87.7155 230.883 88.0573 231.007 88.3438V88.5H229.122C229.031 88.2917 228.96 88.015 228.907 87.6699C228.855 87.3184 228.829 86.9928 228.829 86.6934ZM229.142 82.0938L229.161 83.3633H227.335C226.821 83.3633 226.362 83.4056 225.958 83.4902C225.555 83.5684 225.216 83.6888 224.943 83.8516C224.669 84.0143 224.461 84.2194 224.318 84.4668C224.174 84.7077 224.103 84.9909 224.103 85.3164C224.103 85.6484 224.178 85.9512 224.327 86.2246C224.477 86.498 224.702 86.7161 225.001 86.8789C225.307 87.0352 225.682 87.1133 226.124 87.1133C226.678 87.1133 227.166 86.9961 227.589 86.7617C228.012 86.5273 228.348 86.2409 228.595 85.9023C228.849 85.5638 228.986 85.235 229.005 84.916L229.777 85.7852C229.731 86.0586 229.607 86.3613 229.405 86.6934C229.204 87.0254 228.933 87.3444 228.595 87.6504C228.263 87.9499 227.866 88.2005 227.404 88.4023C226.948 88.5977 226.433 88.6953 225.861 88.6953C225.144 88.6953 224.516 88.5553 223.976 88.2754C223.442 87.9954 223.025 87.6211 222.726 87.1523C222.433 86.6771 222.286 86.1465 222.286 85.5605C222.286 84.9941 222.397 84.4961 222.618 84.0664C222.84 83.6302 223.159 83.2689 223.575 82.9824C223.992 82.6895 224.493 82.4681 225.079 82.3184C225.665 82.1686 226.32 82.0938 227.042 82.0938H229.142ZM241.046 82.5137V83.9785H235.46V82.5137H241.046ZM235.841 77.9336V88.5H234.034V77.9336H235.841ZM242.511 77.9336V88.5H240.694V77.9336H242.511ZM247.774 85.6387L252.647 77.9336H254.463V88.5H252.647V80.7949L247.774 88.5H245.977V77.9336H247.774V85.6387ZM259.902 83.4609H261.855L258.799 88.5H256.846L259.902 83.4609ZM261.416 77.9336H265.83V88.5H264.023V79.3984H261.416C260.902 79.3984 260.482 79.4863 260.156 79.6621C259.831 79.8314 259.593 80.0527 259.443 80.3262C259.294 80.5996 259.219 80.8828 259.219 81.1758C259.219 81.4622 259.287 81.7389 259.424 82.0059C259.561 82.2663 259.775 82.4811 260.068 82.6504C260.361 82.8197 260.739 82.9043 261.201 82.9043H264.512V84.3887H261.201C260.596 84.3887 260.059 84.3073 259.59 84.1445C259.121 83.9818 258.724 83.7572 258.398 83.4707C258.073 83.1777 257.826 82.8359 257.656 82.4453C257.487 82.0482 257.402 81.6185 257.402 81.1562C257.402 80.694 257.49 80.2676 257.666 79.877C257.848 79.4863 258.109 79.1445 258.447 78.8516C258.792 78.5586 259.212 78.334 259.707 78.1777C260.208 78.015 260.778 77.9336 261.416 77.9336Z" fill="#005AAA"/>
<path fill-rule="evenodd" clip-rule="evenodd" d="M44.8899 3.74625C45.3205 1.6823 47.1375 0.203613 49.2458 0.203613V0.204725H65.8429C67.9515 0.204725 69.7695 1.68341 70.2001 3.74625L71.7063 10.9673C72.2085 13.3728 70.6649 15.7315 68.2595 16.2334C65.8553 16.7385 63.4966 15.1919 62.9934 12.7853L62.2255 9.10582H52.8632L51.5279 15.5101C51.2277 16.9499 50.2339 18.1493 48.8743 18.7123L36.216 23.9562C34.8552 24.5191 33.3052 24.3745 32.0738 23.5678L26.6018 19.984L19.9817 26.6031L23.5655 32.0772C24.3732 33.3081 24.5168 34.8577 23.9538 36.2185L18.71 48.8768C18.147 50.2354 16.9487 51.2292 15.5079 51.5304L9.10361 52.867V62.2274L15.5079 63.5636C16.9487 63.8652 18.147 64.8577 18.71 66.2172L23.9538 78.8758C24.5179 80.2354 24.3732 81.7866 23.5655 83.0184L19.9817 88.4911L26.6018 95.1113L31.237 92.075L39.8944 77.9044C34.0588 72.8144 30.6696 65.4886 30.6696 57.5724C30.6696 45.1441 39.0798 34.3581 51.1216 31.344C53.504 30.7443 55.9238 32.1964 56.5202 34.5807C57.1179 36.965 55.6679 39.3816 53.2836 39.9784C45.2093 42.0008 39.5705 49.2343 39.5705 57.5724C39.5705 63.8677 42.7592 69.6129 48.1 72.9569C48.105 72.9611 48.1106 72.9631 48.1165 72.9651C48.1194 72.9662 48.1225 72.9673 48.1255 72.9687C50.2227 74.2506 50.8836 76.9898 49.603 79.086L38.3112 97.5694C37.9675 98.132 37.5021 98.6118 36.9501 98.9734L28.451 104.54C27.7055 105.028 26.8577 105.268 26.0154 105.268C24.8661 105.268 23.7257 104.822 22.8667 103.963L11.1297 92.2264C9.63989 90.7365 9.39957 88.4055 10.5545 86.6422L14.8314 80.1095L11.3867 71.7973L3.74413 70.2029C1.68131 69.771 0.202637 67.9544 0.202637 65.8457V49.2486C0.202637 47.1403 1.68131 45.323 3.74413 44.8914L11.3867 43.2971L14.8314 34.9845L10.5545 28.4534C9.39845 26.6899 9.63989 24.3578 11.1297 22.868L22.8667 11.1308C24.3554 9.63875 26.6864 9.40067 28.451 10.5544L34.9833 14.8314L43.2955 11.389L44.8899 3.74625ZM78.1395 16.1197L86.6389 10.5543C87.3855 10.0659 88.2333 9.82666 89.0766 9.82666C90.2247 9.82666 91.3642 10.2706 92.2244 11.1307L103.961 22.8679C105.451 24.3576 105.691 26.6898 104.536 28.4533L100.258 34.9843L103.702 43.2969L111.345 44.8915C113.407 45.3221 114.886 47.1401 114.886 49.2484V65.8468C114.886 67.9551 113.407 69.7731 111.345 70.2037L103.702 71.7983L100.259 80.1087L104.536 86.642C105.693 88.4053 105.451 90.7363 103.961 92.2262L92.2254 103.963C90.7345 105.455 88.4035 105.693 86.6389 104.54L80.1076 100.262L71.794 103.706L70.2 111.348C69.7694 113.413 67.9514 114.892 65.8428 114.892H49.246C47.1387 114.892 45.3204 113.412 44.8898 111.349L43.4571 104.483C42.9549 102.075 44.4985 99.7188 46.9039 99.2156C49.3138 98.7141 51.669 100.258 52.1699 102.664L52.8631 105.989H62.2257L63.5619 99.5852C63.8622 98.1442 64.856 96.9447 66.2156 96.3818L78.8752 91.1391C80.2347 90.575 81.7856 90.7209 83.0152 91.5263L88.4892 95.1114L95.1093 88.4909L91.5258 83.0182C90.7189 81.7864 90.5729 80.2352 91.1361 78.8769L96.3788 66.2186C96.9417 64.8575 98.1412 63.8653 99.5822 63.5634L105.985 62.2284V52.8668L99.5822 51.5315C98.1412 51.2299 96.9417 50.2378 96.3788 48.8766L91.1351 36.2173C90.5729 34.8578 90.7176 33.3078 91.5258 32.077L95.1093 26.603L88.4892 19.9828L83.854 23.0192L75.2881 37.0396C81.2672 42.1322 84.7421 49.5289 84.7421 57.5722C84.7421 70.2391 76.1302 81.074 63.8012 83.9171C63.4655 83.996 63.1269 84.0315 62.7966 84.0315C60.7703 84.0315 58.9389 82.6387 58.4639 80.5811C57.911 78.186 59.405 75.7971 61.8008 75.2442C70.0662 73.3368 75.8408 66.0701 75.8408 57.5722C75.8408 51.16 72.5575 45.3499 67.0592 42.0319C67.0554 42.0306 67.0522 42.0274 67.05 42.0252C67.0433 42.0207 67.0378 42.0207 67.0311 42.0165C66.8196 41.8872 66.6328 41.7325 66.4504 41.5757C66.4331 41.5606 66.414 41.5475 66.3947 41.5342C66.374 41.52 66.3531 41.5057 66.3344 41.4888C64.8046 40.0781 64.4286 37.7414 65.5546 35.8992L76.7799 17.5239C77.124 16.9609 77.5878 16.4824 78.1395 16.1197Z" fill="url(#paint0_linear_23_13)"/>
<defs>
<linearGradient id="paint0_linear_23_13" x1="0.202636" y1="75.3708" x2="114.887" y2="75.4209" gradientUnits="userSpaceOnUse">
<stop stop-color="#8B2346"/>
<stop offset="0.510417" stop-color="#005AAA"/>
<stop offset="1" stop-color="#00BEF3"/>
</linearGradient>
</defs>
</svg>
