<svg width="670" height="115" viewBox="0 0 670 115" fill="none" xmlns="http://www.w3.org/2000/svg">
<path d="M320.928 39.0884H314.21V51.6599H312.309V37.591H320.928V39.0884Z" fill="white"/>
<path d="M323.091 46.5482C323.091 47.6562 323.325 48.5713 323.791 49.2923C324.258 50.0144 324.95 50.3748 325.871 50.3748C326.778 50.3748 327.466 50.0144 327.936 49.2923C328.406 48.5713 328.641 47.6562 328.641 46.5482V46.3363C328.641 45.2404 328.405 44.3287 327.932 43.6011C327.459 42.8734 326.765 42.5096 325.851 42.5096C324.945 42.5096 324.258 42.8734 323.791 43.6011C323.325 44.3287 323.091 45.2404 323.091 46.3363V46.5482ZM321.19 46.3363C321.19 44.7901 321.608 43.5156 322.445 42.5141C323.281 41.5125 324.417 41.0122 325.851 41.0122C327.299 41.0122 328.444 41.5102 329.282 42.5096C330.122 43.5079 330.542 44.7834 330.542 46.3363V46.5482C330.542 48.1066 330.124 49.3821 329.288 50.3748C328.451 51.3665 327.312 51.8623 325.871 51.8623C324.43 51.8623 323.29 51.3654 322.45 50.3693C321.61 49.3744 321.19 48.101 321.19 46.5482V46.3363Z" fill="white"/>
<path d="M337.513 50.3748C338.098 50.3748 338.61 50.1796 339.048 49.7903C339.485 49.3999 339.703 48.9218 339.703 48.355H341.422L341.451 48.4127C341.476 49.3145 341.091 50.1153 340.293 50.8141C339.494 51.5129 338.568 51.8623 337.513 51.8623C336.045 51.8623 334.913 51.3631 334.116 50.3649C333.317 49.3666 332.919 48.1232 332.919 46.6358V46.2287C332.919 44.7546 333.32 43.5156 334.12 42.5141C334.922 41.5125 336.053 41.0122 337.513 41.0122C338.677 41.0122 339.631 41.3727 340.374 42.0937C341.117 42.8157 341.476 43.7009 341.451 44.7502L341.431 44.809H339.703C339.703 44.1712 339.496 43.6288 339.082 43.1807C338.665 42.7337 338.143 42.5096 337.513 42.5096C336.58 42.5096 335.899 42.8712 335.471 43.5966C335.044 44.3209 334.83 45.1983 334.83 46.2287V46.6358C334.83 47.6851 335.04 48.5713 335.462 49.2923C335.883 50.0144 336.567 50.3748 337.513 50.3748Z" fill="white"/>
<path d="M347.398 47.7851L347.736 49.0995H347.793L350.36 41.2055H352.474L348.082 53.2634C347.819 53.9666 347.441 54.5778 346.949 55.1002C346.456 55.6215 345.792 55.8822 344.956 55.8822C344.801 55.8822 344.605 55.8644 344.367 55.8289C344.128 55.7934 343.946 55.7602 343.817 55.728L344.01 54.2306C343.971 54.2228 344.085 54.2306 344.352 54.2495C344.619 54.2683 344.789 54.2783 344.858 54.2783C345.265 54.2783 345.596 54.0986 345.853 53.737C346.11 53.3765 346.326 52.9772 346.5 52.5391L346.954 51.4477L343.074 41.2055H345.196L347.398 47.7851Z" fill="white"/>
<path d="M357.91 45.1375C357.833 46.3687 357.727 47.3836 357.596 48.1866C357.464 48.9874 357.266 49.6496 357.003 50.172H361.278V42.8958H358.045L357.91 45.1375ZM354.407 50.172C354.909 50.172 355.273 49.7572 355.502 48.9298C355.73 48.1023 355.896 46.8378 355.999 45.1375L356.249 41.2054H363.179V50.172H364.56V55.119H362.659V51.6595H355.284V55.119H353.383V50.172H354.407Z" fill="white"/>
<path d="M370.372 50.2683C371.061 50.2683 371.681 50.0919 372.234 49.737C372.788 49.3832 373.148 48.9761 373.315 48.5191V46.8187H371.183C370.416 46.8187 369.803 47.0117 369.344 47.3988C368.884 47.7848 368.655 48.2396 368.655 48.7609C368.655 49.2246 368.799 49.5917 369.089 49.8623C369.378 50.133 369.806 50.2683 370.372 50.2683ZM373.528 51.6592C373.464 51.3442 373.414 51.0658 373.379 50.824C373.343 50.5822 373.322 50.3393 373.315 50.0942C372.962 50.5966 372.5 51.017 371.931 51.3553C371.361 51.6936 370.748 51.8622 370.091 51.8622C369.005 51.8622 368.176 51.5849 367.606 51.027C367.037 50.4691 366.752 49.7015 366.752 48.7221C366.752 47.7238 367.156 46.943 367.964 46.3795C368.771 45.816 369.867 45.5332 371.25 45.5332H373.315V44.4994C373.315 43.8883 373.129 43.4025 372.756 43.0453C372.383 42.6881 371.855 42.5096 371.173 42.5096C370.556 42.5096 370.056 42.6637 369.677 42.9732C369.297 43.2816 369.108 43.6531 369.108 44.0846L367.303 44.1035L367.284 44.0458C367.239 43.286 367.594 42.5905 368.35 41.9583C369.105 41.3272 370.083 41.0122 371.279 41.0122C372.462 41.0122 373.415 41.3128 374.136 41.915C374.857 42.5173 375.217 43.3858 375.217 44.5194V49.5529C375.217 49.9267 375.237 50.2872 375.274 50.6354C375.313 50.9837 375.384 51.3242 375.487 51.6592H373.528Z" fill="white"/>
<path d="M385.469 46.6254C385.469 45.4397 385.235 44.4658 384.768 43.7027C384.302 42.9396 383.615 42.558 382.708 42.558C382.162 42.558 381.695 42.6812 381.31 42.9296C380.922 43.177 380.61 43.5175 380.372 43.949V49.0024C380.61 49.4339 380.922 49.7711 381.31 50.0129C381.695 50.2536 382.168 50.3745 382.728 50.3745C383.628 50.3745 384.31 50.045 384.773 49.384C385.237 48.724 385.469 47.8721 385.469 46.8284V46.6254ZM387.37 46.8284C387.37 48.3358 387.009 49.5525 386.288 50.4765C385.568 51.4004 384.575 51.863 383.306 51.863C382.663 51.863 382.098 51.7543 381.613 51.5391C381.127 51.3239 380.714 51 380.372 50.5675V55.6797H378.471V41.2048H379.928L380.228 42.558C380.568 42.0556 380.993 41.6718 381.502 41.4078C382.01 41.1438 382.601 41.0118 383.277 41.0118C384.57 41.0118 385.576 41.5254 386.294 42.5525C387.012 43.5807 387.37 44.9383 387.37 46.6254V46.8284Z" fill="white"/>
<path d="M394.35 50.3748C394.936 50.3748 395.448 50.1796 395.884 49.7903C396.322 49.3999 396.541 48.9218 396.541 48.355H398.26L398.287 48.4127C398.313 49.3145 397.927 50.1153 397.13 50.8141C396.332 51.5129 395.405 51.8623 394.35 51.8623C392.883 51.8623 391.751 51.3631 390.953 50.3649C390.154 49.3666 389.756 48.1232 389.756 46.6358V46.2287C389.756 44.7546 390.156 43.5156 390.956 42.5141C391.758 41.5125 392.89 41.0122 394.35 41.0122C395.514 41.0122 396.469 41.3727 397.212 42.0937C397.954 42.8157 398.313 43.7009 398.287 44.7502L398.267 44.809H396.541C396.541 44.1712 396.333 43.6288 395.919 43.1807C395.503 42.7337 394.98 42.5096 394.35 42.5096C393.417 42.5096 392.736 42.8712 392.308 43.5966C391.88 44.3209 391.668 45.1983 391.668 46.2287V46.6358C391.668 47.6851 391.877 48.5713 392.299 49.2923C392.72 50.0144 393.404 50.3748 394.35 50.3748Z" fill="white"/>
<path d="M409.089 42.6829H405.643V51.6595H403.742V42.6829H400.344V41.2043H409.089V42.6829Z" fill="white"/>
<path d="M413.559 47.0795V50.1907H416.444C417.147 50.1907 417.677 50.0576 418.038 49.7903C418.399 49.523 418.578 49.1381 418.578 48.6356C418.578 48.1398 418.399 47.7561 418.038 47.4854C417.677 47.2148 417.147 47.0795 416.444 47.0795H413.559ZM413.559 45.6209H415.79C416.593 45.6209 417.2 45.5011 417.608 45.2637C418.018 45.0253 418.221 44.6637 418.221 44.1812C418.221 43.6854 418.015 43.3116 417.603 43.0598C417.191 42.8091 416.584 42.6827 415.78 42.6827H413.559V45.6209ZM411.658 51.6593V41.2052H415.78C417.157 41.2052 418.224 41.4448 418.984 41.9251C419.744 42.4043 420.123 43.1241 420.123 44.0847C420.123 44.5738 419.974 45.0108 419.678 45.3935C419.382 45.7773 418.965 46.069 418.424 46.2675C419.073 46.4295 419.58 46.7301 419.943 47.1715C420.308 47.613 420.489 48.1177 420.489 48.6844C420.489 49.6627 420.134 50.4037 419.423 50.9061C418.712 51.4086 417.718 51.6593 416.444 51.6593H411.658Z" fill="white"/>
<path d="M427.401 42.5091C426.738 42.5091 426.189 42.7653 425.755 43.2777C425.321 43.7891 425.056 44.4446 424.958 45.2443L424.978 45.292H429.688V45.1378C429.688 44.378 429.502 43.7491 429.129 43.2533C428.755 42.7564 428.18 42.5091 427.401 42.5091ZM427.701 51.8628C426.2 51.8628 425.033 51.3825 424.193 50.4231C423.353 49.4625 422.932 48.2003 422.932 46.6352V46.2104C422.932 44.7086 423.365 43.4674 424.231 42.4847C425.096 41.503 426.154 41.0117 427.401 41.0117C428.797 41.0117 429.845 41.4465 430.543 42.3161C431.241 43.1857 431.589 44.3426 431.589 45.7845V46.7894H424.912L424.882 46.8382C424.882 47.8875 425.115 48.7393 425.578 49.3938C426.04 50.0482 426.748 50.3743 427.701 50.3743C428.343 50.3743 428.908 50.2822 429.394 50.0992C429.88 49.9162 430.296 49.6633 430.644 49.3405L431.388 50.5773C431.014 50.9389 430.522 51.2428 429.911 51.4912C429.299 51.7386 428.562 51.8628 427.701 51.8628Z" fill="white"/>
<path d="M442.672 51.6597H440.771V47.2152H436.119V51.6597H434.217V41.2045H436.119V45.7267H440.771V41.2045H442.672V51.6597Z" fill="white"/>
<path d="M454.4 51.6597H452.499V47.2152H447.847V51.6597H445.946V41.2045H447.847V45.7267H452.499V41.2045H454.4V51.6597Z" fill="white"/>
<path d="M470.116 51.66H468.215V41.2048H470.116V51.66ZM459.866 46.6742V50.1714H462.463C463.144 50.1714 463.648 50.0073 463.973 49.6789C464.297 49.3506 464.459 48.9413 464.459 48.4511C464.459 47.9752 464.296 47.5593 463.968 47.2055C463.639 46.8506 463.138 46.6742 462.463 46.6742H459.866ZM459.866 45.1856H462.463C463.698 45.1856 464.658 45.4818 465.343 46.0752C466.028 46.6675 466.37 47.4373 466.37 48.3845C466.37 49.3373 466.025 50.1215 465.332 50.7371C464.641 51.3516 463.684 51.66 462.463 51.66H457.965V41.2048H459.866V45.1856Z" fill="white"/>
<path d="M480.84 36.9048L480.86 36.9625C480.886 37.7101 480.637 38.319 480.116 38.7893C479.595 39.2596 478.894 39.4947 478.012 39.4947C477.125 39.4947 476.42 39.2596 475.898 38.7893C475.378 38.319 475.133 37.7101 475.165 36.9625L475.185 36.9048H476.642C476.642 37.3307 476.751 37.6746 476.97 37.9385C477.189 38.2025 477.536 38.3345 478.012 38.3345C478.475 38.3345 478.82 38.2014 479.046 37.9341C479.271 37.6668 479.383 37.3229 479.383 36.9048H480.84ZM480.338 41.2051H482.239V51.6592H480.338V44.2387L480.28 44.2199L475.667 51.6592H473.775V41.2051H475.667V48.6255L475.724 48.6455L480.338 41.2051Z" fill="white"/>
<path d="M494.106 47.7851L494.442 49.0995H494.501L497.068 41.2055H499.182L494.791 53.2634C494.527 53.9666 494.149 54.5778 493.657 55.1002C493.165 55.6215 492.499 55.8822 491.663 55.8822C491.509 55.8822 491.313 55.8644 491.074 55.8289C490.837 55.7934 490.653 55.7602 490.525 55.728L490.718 54.2306C490.679 54.2228 490.793 54.2306 491.06 54.2495C491.327 54.2683 491.496 54.2783 491.567 54.2783C491.973 54.2783 492.304 54.0986 492.561 53.737C492.818 53.3765 493.034 52.9772 493.207 52.5391L493.661 51.4477L489.781 41.2055H491.904L494.106 47.7851Z" fill="white"/>
<path d="M509.8 51.6597H507.899V47.2152H503.247V51.6597H501.346V41.2045H503.247V45.7267H507.899V41.2045H509.8V51.6597Z" fill="white"/>
<path d="M519.637 41.2049H521.538V51.6602H519.637V44.2386L519.578 44.2197L514.966 51.6602H513.074V41.2049H514.966V48.6265L515.024 48.6454L519.637 41.2049Z" fill="white"/>
<path d="M526.713 47.0795V50.1907H529.598C530.3 50.1907 530.831 50.0576 531.191 49.7903C531.552 49.523 531.732 49.1381 531.732 48.6356C531.732 48.1398 531.552 47.7561 531.191 47.4854C530.831 47.2148 530.3 47.0795 529.598 47.0795H526.713ZM526.713 45.6209H528.943C529.746 45.6209 530.353 45.5011 530.761 45.2637C531.171 45.0253 531.375 44.6637 531.375 44.1812C531.375 43.6854 531.169 43.3116 530.757 43.0598C530.345 42.8091 529.737 42.6827 528.933 42.6827H526.713V45.6209ZM524.812 51.6593V41.2052H528.933C530.31 41.2052 531.377 41.4448 532.137 41.9251C532.897 42.4043 533.276 43.1241 533.276 44.0847C533.276 44.5738 533.128 45.0108 532.832 45.3935C532.536 45.7773 532.118 46.069 531.578 46.2675C532.227 46.4295 532.733 46.7301 533.097 47.1715C533.461 47.613 533.643 48.1177 533.643 48.6844C533.643 49.6627 533.287 50.4037 532.577 50.9061C531.866 51.4086 530.872 51.6593 529.598 51.6593H524.812Z" fill="white"/>
<path d="M540.556 42.5091C539.893 42.5091 539.344 42.7653 538.91 43.2777C538.476 43.7891 538.211 44.4446 538.113 45.2443L538.133 45.292H542.843V45.1378C542.843 44.378 542.657 43.7491 542.283 43.2533C541.91 42.7564 541.335 42.5091 540.556 42.5091ZM540.855 51.8628C539.355 51.8628 538.187 51.3825 537.348 50.4231C536.508 49.4625 536.087 48.2003 536.087 46.6352V46.2104C536.087 44.7086 536.52 43.4674 537.385 42.4847C538.251 41.503 539.309 41.0117 540.556 41.0117C541.952 41.0117 543 41.4465 543.698 42.3161C544.396 43.1857 544.744 44.3426 544.744 45.7845V46.7894H538.067L538.037 46.8382C538.037 47.8875 538.269 48.7393 538.733 49.3938C539.195 50.0482 539.903 50.3743 540.855 50.3743C541.498 50.3743 542.063 50.2822 542.549 50.0992C543.035 49.9162 543.451 49.6633 543.799 49.3405L544.542 50.5773C544.169 50.9389 543.677 51.2428 543.066 51.4912C542.454 51.7386 541.717 51.8628 540.855 51.8628Z" fill="white"/>
<path d="M554.368 46.6254C554.368 45.4397 554.135 44.4658 553.669 43.7027C553.203 42.9396 552.516 42.558 551.608 42.558C551.061 42.558 550.595 42.6812 550.209 42.9296C549.824 43.177 549.511 43.5175 549.272 43.949V49.0024C549.511 49.4339 549.824 49.7711 550.209 50.0129C550.595 50.2536 551.068 50.3745 551.627 50.3745C552.528 50.3745 553.209 50.045 553.674 49.384C554.137 48.724 554.368 47.8721 554.368 46.8284V46.6254ZM556.269 46.8284C556.269 48.3358 555.909 49.5525 555.188 50.4765C554.468 51.4004 553.474 51.863 552.207 51.863C551.563 51.863 550.999 51.7543 550.513 51.5391C550.027 51.3239 549.613 51 549.272 50.5675V55.6797H547.371V41.2048H548.829L549.128 42.558C549.468 42.0556 549.892 41.6718 550.402 41.4078C550.909 41.1438 551.501 41.0118 552.177 41.0118C553.471 41.0118 554.477 41.5254 555.194 42.5525C555.911 43.5807 556.269 44.9383 556.269 46.6254V46.8284Z" fill="white"/>
<path d="M563.251 50.3748C563.836 50.3748 564.347 50.1796 564.785 49.7903C565.223 49.3999 565.442 48.9218 565.442 48.355H567.158L567.188 48.4127C567.214 49.3145 566.828 50.1153 566.031 50.8141C565.233 51.5129 564.306 51.8623 563.251 51.8623C561.784 51.8623 560.651 51.3631 559.853 50.3649C559.055 49.3666 558.656 48.1232 558.656 46.6358V46.2287C558.656 44.7546 559.056 43.5156 559.857 42.5141C560.659 41.5125 561.791 41.0122 563.251 41.0122C564.415 41.0122 565.368 41.3727 566.113 42.0937C566.855 42.8157 567.214 43.7009 567.188 44.7502L567.168 44.809H565.442C565.442 44.1712 565.234 43.6288 564.819 43.1807C564.404 42.7337 563.881 42.5096 563.251 42.5096C562.318 42.5096 561.637 42.8712 561.209 43.5966C560.781 44.3209 560.567 45.1983 560.567 46.2287V46.6358C560.567 47.6851 560.778 48.5713 561.199 49.2923C561.621 50.0144 562.305 50.3748 563.251 50.3748Z" fill="white"/>
<path d="M576.504 41.2049H578.405V51.6602H576.504V44.2386L576.445 44.2197L571.833 51.6602H569.941V41.2049H571.833V48.6265L571.891 48.6454L576.504 41.2049Z" fill="white"/>
<path d="M589.719 42.6829H586.273V51.6595H584.371V42.6829H580.975V41.2043H589.719V42.6829Z" fill="white"/>
<path d="M596.129 42.5091C595.466 42.5091 594.917 42.7653 594.483 43.2777C594.049 43.7891 593.784 44.4446 593.687 45.2443L593.706 45.292H598.416V45.1378C598.416 44.378 598.23 43.7491 597.857 43.2533C597.483 42.7564 596.908 42.5091 596.129 42.5091ZM596.429 51.8628C594.928 51.8628 593.761 51.3825 592.921 50.4231C592.081 49.4625 591.66 48.2003 591.66 46.6352V46.2104C591.66 44.7086 592.093 43.4674 592.959 42.4847C593.824 41.503 594.882 41.0117 596.129 41.0117C597.525 41.0117 598.573 41.4465 599.271 42.3161C599.969 43.1857 600.317 44.3426 600.317 45.7845V46.7894H593.64L593.61 46.8382C593.61 47.8875 593.843 48.7393 594.306 49.3938C594.768 50.0482 595.476 50.3743 596.429 50.3743C597.071 50.3743 597.636 50.2822 598.123 50.0992C598.608 49.9162 599.024 49.6633 599.372 49.3405L600.116 50.5773C599.742 50.9389 599.25 51.2428 598.639 51.4912C598.027 51.7386 597.291 51.8628 596.429 51.8628Z" fill="white"/>
<path d="M610.888 42.6829H607.442V51.6595H605.54V42.6829H602.144V41.2043H610.888V42.6829Z" fill="white"/>
<path d="M315.378 74.9761C316.067 74.9761 316.687 74.7998 317.24 74.4448C317.794 74.091 318.154 73.6839 318.321 73.227V71.5266H316.189C315.422 71.5266 314.809 71.7196 314.35 72.1067C313.89 72.4927 313.66 72.9474 313.66 73.4688C313.66 73.9324 313.804 74.2995 314.095 74.5702C314.384 74.8408 314.812 74.9761 315.378 74.9761ZM318.534 76.3671C318.47 76.0521 318.42 75.7736 318.385 75.5318C318.349 75.29 318.328 75.0471 318.321 74.802C317.968 75.3045 317.506 75.7248 316.937 76.0631C316.367 76.4014 315.754 76.57 315.097 76.57C314.011 76.57 313.182 76.2927 312.612 75.7348C312.043 75.1769 311.758 74.4093 311.758 73.4299C311.758 72.4317 312.163 71.6508 312.97 71.0873C313.777 70.5239 314.873 70.241 316.256 70.241H318.321V69.2073C318.321 68.5961 318.135 68.1103 317.762 67.7531C317.389 67.396 316.861 67.2174 316.179 67.2174C315.562 67.2174 315.062 67.3716 314.683 67.681C314.303 67.9894 314.114 68.361 314.114 68.7924L312.309 68.8113L312.29 68.7536C312.245 67.9938 312.6 67.2984 313.356 66.6661C314.111 66.035 315.089 65.72 316.285 65.72C317.468 65.72 318.421 66.0206 319.142 66.6229C319.863 67.2252 320.223 68.0936 320.223 69.2272V74.2607C320.223 74.6345 320.243 74.995 320.28 75.3433C320.319 75.6916 320.39 76.0321 320.493 76.3671H318.534Z" fill="white"/>
<path d="M327.116 67.2168C326.524 67.2168 325.998 67.4131 325.538 67.8069C325.077 68.1995 324.848 68.6765 324.848 69.2366H323.129L323.111 69.1789C323.072 68.2827 323.463 67.483 324.283 66.7775C325.104 66.0721 326.048 65.7194 327.116 65.7194C328.532 65.7194 329.649 66.2229 330.469 67.2312C331.29 68.2394 331.7 69.4751 331.7 70.937V71.3429C331.7 72.8115 331.288 74.0493 330.465 75.0587C329.642 76.0669 328.525 76.5705 327.116 76.5705C325.939 76.5705 324.967 76.2111 324.201 75.4924C323.435 74.7747 323.069 73.8907 323.101 72.8403L323.12 72.7826H324.848C324.848 73.4204 325.065 73.9628 325.499 74.4109C325.934 74.8579 326.472 75.082 327.116 75.082C327.927 75.082 328.554 74.767 328.998 74.1347C329.442 73.5047 329.689 72.7372 329.741 71.8354L329.713 71.7866H325.997V70.2992H329.693L329.713 70.2515C329.647 69.4074 329.395 68.6909 328.955 68.1008C328.514 67.5118 327.901 67.2168 327.116 67.2168Z" fill="white"/>
<path d="M341.605 71.3333C341.605 70.1475 341.371 69.1737 340.904 68.4106C340.438 67.6474 339.751 67.2659 338.845 67.2659C338.298 67.2659 337.831 67.389 337.446 67.6375C337.059 67.8848 336.747 68.2253 336.509 68.6568V73.7102C336.747 74.1417 337.059 74.4789 337.446 74.7207C337.831 74.9614 338.304 75.0823 338.864 75.0823C339.764 75.0823 340.447 74.7529 340.91 74.0918C341.373 73.4318 341.605 72.58 341.605 71.5362V71.3333ZM343.506 71.5362C343.506 73.0436 343.146 74.2604 342.426 75.1844C341.704 76.1083 340.711 76.5708 339.443 76.5708C338.799 76.5708 338.234 76.4621 337.749 76.247C337.263 76.0318 336.85 75.7079 336.509 75.2753V80.3875H334.608V65.9127H336.065L336.364 67.2659C336.704 66.7634 337.13 66.3797 337.638 66.1157C338.147 65.8517 338.739 65.7197 339.414 65.7197C340.707 65.7197 341.712 66.2332 342.43 67.2603C343.148 68.2886 343.506 69.6462 343.506 71.3333V71.5362Z" fill="white"/>
<path d="M347.794 71.2559C347.794 72.364 348.027 73.2791 348.494 74.0001C348.96 74.7221 349.653 75.0826 350.573 75.0826C351.481 75.0826 352.169 74.7221 352.638 74.0001C353.108 73.2791 353.343 72.364 353.343 71.2559V71.0441C353.343 69.9482 353.107 69.0365 352.634 68.3088C352.161 67.5812 351.467 67.2174 350.553 67.2174C349.647 67.2174 348.96 67.5812 348.494 68.3088C348.027 69.0365 347.794 69.9482 347.794 71.0441V71.2559ZM345.892 71.0441C345.892 69.4979 346.31 68.2234 347.148 67.2218C347.983 66.2202 349.12 65.72 350.553 65.72C352.001 65.72 353.146 66.218 353.984 67.2174C354.824 68.2157 355.244 69.4912 355.244 71.0441V71.2559C355.244 72.8143 354.826 74.0899 353.99 75.0826C353.154 76.0742 352.015 76.57 350.573 76.57C349.132 76.57 347.992 76.0731 347.152 75.0771C346.312 74.0821 345.892 72.8088 345.892 71.2559V71.0441Z" fill="white"/>
<path d="M361.037 71.9323H360.062V76.368H358.161V65.9128H360.062V70.3285H360.873L364.608 65.9128H366.838L366.857 65.9605L362.523 70.9274L367.185 76.3192L367.166 76.368H364.83L361.037 71.9323Z" fill="white"/>
<path d="M370.623 71.2559C370.623 72.364 370.857 73.2791 371.323 74.0001C371.79 74.7221 372.482 75.0826 373.403 75.0826C374.309 75.0826 374.998 74.7221 375.468 74.0001C375.938 73.2791 376.173 72.364 376.173 71.2559V71.0441C376.173 69.9482 375.937 69.0365 375.462 68.3088C374.989 67.5812 374.297 67.2174 373.383 67.2174C372.477 67.2174 371.79 67.5812 371.323 68.3088C370.857 69.0365 370.623 69.9482 370.623 71.0441V71.2559ZM368.722 71.0441C368.722 69.4979 369.14 68.2234 369.977 67.2218C370.813 66.2202 371.949 65.72 373.383 65.72C374.831 65.72 375.975 66.218 376.814 67.2174C377.654 68.2157 378.074 69.4912 378.074 71.0441V71.2559C378.074 72.8143 377.656 74.0899 376.819 75.0826C375.983 76.0742 374.844 76.57 373.403 76.57C371.962 76.57 370.822 76.0731 369.982 75.0771C369.142 74.0821 368.722 72.8088 368.722 71.2559V71.0441Z" fill="white"/>
<path d="M385.044 75.0826C385.629 75.0826 386.14 74.8874 386.579 74.4981C387.016 74.1077 387.235 73.6296 387.235 73.0628H388.952L388.981 73.1205C389.007 74.0222 388.622 74.8231 387.824 75.5219C387.025 76.2206 386.099 76.57 385.044 76.57C383.576 76.57 382.444 76.0709 381.646 75.0726C380.849 74.0744 380.45 72.831 380.45 71.3436V70.9365C380.45 69.4624 380.85 68.2234 381.651 67.2218C382.453 66.2202 383.584 65.72 385.044 65.72C386.208 65.72 387.162 66.0805 387.905 66.8014C388.648 67.5235 389.007 68.4087 388.981 69.4579L388.962 69.5167H387.235C387.235 68.879 387.027 68.3366 386.612 67.8884C386.197 67.4414 385.674 67.2174 385.044 67.2174C384.111 67.2174 383.43 67.579 383.002 68.3044C382.575 69.0287 382.361 69.9061 382.361 70.9365V71.3436C382.361 72.3929 382.57 73.2791 382.992 74.0001C383.415 74.7221 384.097 75.0826 385.044 75.0826Z" fill="white"/>
<path d="M397.679 73.8744H397.738L401.155 65.9126H403.528V76.3678H401.627V69.1104L401.569 69.0916L398.365 76.3678H397.052L393.79 68.9274L393.733 68.9462V76.3678H391.832V65.9126H394.283L397.679 73.8744Z" fill="white"/>
<path d="M413.538 65.9126H415.439V76.3678H413.538V68.9462L413.48 68.9274L408.867 76.3678H406.976V65.9126H408.867V73.3342L408.925 73.353L413.538 65.9126Z" fill="white"/>
<path d="M426.86 76.3675H424.959V72.6285C424.592 72.725 424.217 72.7971 423.829 72.8459C423.443 72.8936 423.031 72.918 422.594 72.918C421.333 72.918 420.345 72.5863 419.627 71.923C418.909 71.2586 418.55 70.277 418.55 68.9759V65.9024H420.451V68.9759C420.451 69.8134 420.632 70.4278 420.993 70.8216C421.352 71.2142 421.886 71.4106 422.594 71.4106C423.019 71.4106 423.423 71.3873 423.81 71.3385C424.197 71.2897 424.579 71.2176 424.959 71.1211V65.9124H426.86V76.3675Z" fill="white"/>
<path d="M434.139 67.2168C433.475 67.2168 432.927 67.473 432.493 67.9854C432.058 68.4968 431.793 69.1523 431.696 69.952L431.716 69.9997H436.426V69.8455C436.426 69.0857 436.239 68.4568 435.866 67.961C435.493 67.4641 434.918 67.2168 434.139 67.2168ZM434.438 76.5705C432.938 76.5705 431.77 76.0902 430.93 75.1308C430.091 74.1702 429.67 72.908 429.67 71.3429V70.9181C429.67 69.4163 430.103 68.1751 430.968 67.1924C431.833 66.2107 432.891 65.7194 434.139 65.7194C435.535 65.7194 436.583 66.1542 437.281 67.0238C437.979 67.8934 438.327 69.0503 438.327 70.4922V71.4971H431.649L431.62 71.5459C431.62 72.5952 431.852 73.447 432.315 74.1015C432.777 74.7559 433.485 75.082 434.438 75.082C435.081 75.082 435.646 74.9899 436.132 74.8069C436.617 74.6239 437.034 74.371 437.382 74.0482L438.125 75.285C437.752 75.6466 437.26 75.9505 436.648 76.1989C436.037 76.4463 435.3 76.5705 434.438 76.5705Z" fill="white"/>
<path d="M445.105 75.0826C445.69 75.0826 446.201 74.8874 446.64 74.4981C447.078 74.1077 447.297 73.6296 447.297 73.0628H449.013L449.043 73.1205C449.068 74.0222 448.683 74.8231 447.885 75.5219C447.087 76.2206 446.16 76.57 445.105 76.57C443.639 76.57 442.505 76.0709 441.707 75.0726C440.91 74.0744 440.511 72.831 440.511 71.3436V70.9365C440.511 69.4624 440.911 68.2234 441.712 67.2218C442.514 66.2202 443.645 65.72 445.105 65.72C446.27 65.72 447.223 66.0805 447.967 66.8014C448.709 67.5235 449.068 68.4087 449.043 69.4579L449.023 69.5167H447.297C447.297 68.879 447.089 68.3366 446.673 67.8884C446.259 67.4414 445.736 67.2174 445.105 67.2174C444.173 67.2174 443.491 67.579 443.064 68.3044C442.636 69.0287 442.422 69.9061 442.422 70.9365V71.3436C442.422 72.3929 442.634 73.2791 443.054 74.0001C443.476 74.7221 444.159 75.0826 445.105 75.0826Z" fill="white"/>
<path d="M454.767 71.9323H453.793V76.368H451.892V65.9128H453.793V70.3285H454.604L458.339 65.9128H460.568L460.588 65.9605L456.254 70.9274L460.916 76.3192L460.896 76.368H458.56L454.767 71.9323Z" fill="white"/>
<path d="M464.354 71.2559C464.354 72.364 464.586 73.2791 465.053 74.0001C465.519 74.7221 466.213 75.0826 467.133 75.0826C468.041 75.0826 468.729 74.7221 469.198 74.0001C469.668 73.2791 469.903 72.364 469.903 71.2559V71.0441C469.903 69.9482 469.666 69.0365 469.194 68.3088C468.721 67.5812 468.026 67.2174 467.113 67.2174C466.206 67.2174 465.519 67.5812 465.053 68.3088C464.586 69.0365 464.354 69.9482 464.354 71.0441V71.2559ZM462.451 71.0441C462.451 69.4979 462.87 68.2234 463.707 67.2218C464.543 66.2202 465.679 65.72 467.113 65.72C468.561 65.72 469.705 66.218 470.545 67.2174C471.384 68.2157 471.804 69.4912 471.804 71.0441V71.2559C471.804 72.8143 471.385 74.0899 470.55 75.0826C469.713 76.0742 468.574 76.57 467.133 76.57C465.691 76.57 464.552 76.0731 463.711 75.0771C462.871 74.0821 462.451 72.8088 462.451 71.2559V71.0441Z" fill="white"/>
<path d="M481.265 67.4199H476.526V76.3677H474.624V65.9125H481.265V67.4199Z" fill="white"/>
<path d="M484.577 71.2559C484.577 72.364 484.81 73.2791 485.276 74.0001C485.743 74.7221 486.436 75.0826 487.357 75.0826C488.264 75.0826 488.952 74.7221 489.422 74.0001C489.892 73.2791 490.127 72.364 490.127 71.2559V71.0441C490.127 69.9482 489.89 69.0365 489.418 68.3088C488.945 67.5812 488.25 67.2174 487.337 67.2174C486.43 67.2174 485.743 67.5812 485.276 68.3088C484.81 69.0365 484.577 69.9482 484.577 71.0441V71.2559ZM482.675 71.0441C482.675 69.4979 483.094 68.2234 483.93 67.2218C484.767 66.2202 485.902 65.72 487.337 65.72C488.785 65.72 489.928 66.218 490.768 67.2174C491.608 68.2157 492.028 69.4912 492.028 71.0441V71.2559C492.028 72.8143 491.609 74.0899 490.774 75.0826C489.936 76.0742 488.797 76.57 487.357 76.57C485.914 76.57 484.776 76.0731 483.936 75.0771C483.095 74.0821 482.675 72.8088 482.675 71.2559V71.0441Z" fill="white"/>
<path d="M508.719 76.3675H506.818V67.4197H502.156V76.3675H500.254V65.9123H508.719V76.3675Z" fill="white"/>
<path d="M518.981 71.3333C518.981 70.1475 518.749 69.1737 518.282 68.4106C517.816 67.6474 517.129 67.2659 516.221 67.2659C515.674 67.2659 515.208 67.389 514.822 67.6375C514.437 67.8848 514.124 68.2253 513.885 68.6568V73.7102C514.124 74.1417 514.437 74.4789 514.822 74.7207C515.208 74.9614 515.681 75.0823 516.24 75.0823C517.141 75.0823 517.822 74.7529 518.287 74.0918C518.75 73.4318 518.981 72.58 518.981 71.5362V71.3333ZM520.882 71.5362C520.882 73.0436 520.522 74.2604 519.801 75.1844C519.081 76.1083 518.087 76.5708 516.82 76.5708C516.176 76.5708 515.612 76.4621 515.126 76.247C514.641 76.0318 514.226 75.7079 513.885 75.2753V80.3875H511.984V65.9127H513.442L513.741 67.2659C514.081 66.7634 514.505 66.3797 515.015 66.1157C515.522 65.8517 516.115 65.7197 516.79 65.7197C518.084 65.7197 519.09 66.2332 519.807 67.2603C520.525 68.2886 520.882 69.6462 520.882 71.3333V71.5362Z" fill="white"/>
<path d="M530.275 65.9126H532.176V76.3678H530.275V68.9462L530.216 68.9274L525.604 76.3678H523.712V65.9126H525.604V73.3342L525.662 73.353L530.275 65.9126Z" fill="white"/>
<path d="M539.658 67.2167C538.751 67.2167 538.066 67.5806 537.603 68.3082C537.139 69.0369 536.907 69.9487 536.907 71.0434V71.2553C536.907 72.3634 537.139 73.2784 537.603 74.0005C538.066 74.7215 538.757 75.082 539.678 75.082C540.585 75.082 541.273 74.7215 541.743 74.0005C542.213 73.2784 542.448 72.3634 542.448 71.2553V71.0434C542.448 69.9487 542.212 69.0369 541.739 68.3082C541.265 67.5806 540.571 67.2167 539.658 67.2167ZM540.035 65.7193C541.366 65.7193 542.419 66.2185 543.19 67.2167C543.963 68.215 544.349 69.4906 544.349 71.0434V71.2553C544.349 72.8148 543.931 74.0904 543.095 75.082C542.257 76.0736 541.118 76.5705 539.678 76.5705C538.235 76.5705 537.096 76.0725 536.257 75.0775C535.417 74.0826 534.996 72.8081 534.996 71.2553V70.9125C534.996 70.8782 534.999 70.8371 535.006 70.7917V68.5211C535.006 66.5368 535.402 65.0771 536.198 64.1399C536.992 63.2015 538.162 62.6924 539.707 62.6081C540.595 62.5626 541.279 62.4517 541.762 62.2742C542.245 62.0967 542.486 61.7928 542.486 61.3614H543.943L543.963 61.419C543.995 62.4373 543.656 63.1505 542.948 63.5598C542.24 63.9691 541.216 64.1865 539.871 64.212C538.892 64.2375 538.108 64.5081 537.515 65.0239C536.924 65.5385 536.637 66.3028 536.657 67.3132L536.685 67.3621C537.065 66.8784 537.551 66.4847 538.142 66.1774C538.735 65.8724 539.365 65.7193 540.035 65.7193Z" fill="white"/>
<path d="M548.328 71.2559C548.328 72.364 548.56 73.2791 549.027 74.0001C549.493 74.7221 550.187 75.0826 551.107 75.0826C552.015 75.0826 552.703 74.7221 553.172 74.0001C553.642 73.2791 553.877 72.364 553.877 71.2559V71.0441C553.877 69.9482 553.64 69.0365 553.168 68.3088C552.695 67.5812 552 67.2174 551.087 67.2174C550.18 67.2174 549.493 67.5812 549.027 68.3088C548.56 69.0365 548.328 69.9482 548.328 71.0441V71.2559ZM546.425 71.0441C546.425 69.4979 546.844 68.2234 547.681 67.2218C548.517 66.2202 549.653 65.72 551.087 65.72C552.535 65.72 553.679 66.218 554.518 67.2174C555.358 68.2157 555.778 69.4912 555.778 71.0441V71.2559C555.778 72.8143 555.359 74.0899 554.524 75.0826C553.686 76.0742 552.548 76.57 551.107 76.57C549.665 76.57 548.526 76.0731 547.686 75.0771C546.845 74.0821 546.425 72.8088 546.425 71.2559V71.0441Z" fill="white"/>
<path d="M565.595 71.3333C565.595 70.1475 565.362 69.1737 564.896 68.4106C564.429 67.6474 563.743 67.2659 562.835 67.2659C562.288 67.2659 561.821 67.389 561.436 67.6375C561.05 67.8848 560.738 68.2253 560.499 68.6568V73.7102C560.738 74.1417 561.05 74.4789 561.436 74.7207C561.821 74.9614 562.295 75.0823 562.854 75.0823C563.755 75.0823 564.436 74.7529 564.9 74.0918C565.363 73.4318 565.595 72.58 565.595 71.5362V71.3333ZM567.496 71.5362C567.496 73.0436 567.136 74.2604 566.415 75.1844C565.695 76.1083 564.701 76.5708 563.433 76.5708C562.79 76.5708 562.226 76.4621 561.739 76.247C561.254 76.0318 560.84 75.7079 560.499 75.2753V80.3875H558.597V65.9127H560.055L560.355 67.2659C560.695 66.7634 561.119 66.3797 561.629 66.1157C562.136 65.8517 562.729 65.7197 563.404 65.7197C564.698 65.7197 565.703 66.2332 566.42 67.2603C567.138 68.2886 567.496 69.6462 567.496 71.3333V71.5362Z" fill="white"/>
<path d="M571.785 71.2559C571.785 72.364 572.017 73.2791 572.484 74.0001C572.95 74.7221 573.644 75.0826 574.565 75.0826C575.472 75.0826 576.16 74.7221 576.63 74.0001C577.099 73.2791 577.334 72.364 577.334 71.2559V71.0441C577.334 69.9482 577.097 69.0365 576.625 68.3088C576.152 67.5812 575.458 67.2174 574.545 67.2174C573.637 67.2174 572.95 67.5812 572.484 68.3088C572.017 69.0365 571.785 69.9482 571.785 71.0441V71.2559ZM569.883 71.0441C569.883 69.4979 570.301 68.2234 571.138 67.2218C571.974 66.2202 573.11 65.72 574.545 65.72C575.993 65.72 577.136 66.218 577.976 67.2174C578.816 68.2157 579.235 69.4912 579.235 71.0441V71.2559C579.235 72.8143 578.817 74.0899 577.981 75.0826C577.144 76.0742 576.005 76.57 574.565 76.57C573.122 76.57 571.983 76.0731 571.143 75.0771C570.302 74.0821 569.883 72.8088 569.883 71.2559V71.0441Z" fill="white"/>
<path d="M586.205 75.0826C586.79 75.0826 587.301 74.8874 587.74 74.4981C588.177 74.1077 588.397 73.6296 588.397 73.0628H590.114L590.143 73.1205C590.168 74.0222 589.783 74.8231 588.985 75.5219C588.187 76.2206 587.26 76.57 586.205 76.57C584.739 76.57 583.605 76.0709 582.807 75.0726C582.01 74.0744 581.611 72.831 581.611 71.3436V70.9365C581.611 69.4624 582.011 68.2234 582.812 67.2218C583.614 66.2202 584.745 65.72 586.205 65.72C587.37 65.72 588.323 66.0805 589.067 66.8014C589.809 67.5235 590.168 68.4087 590.143 69.4579L590.123 69.5167H588.397C588.397 68.879 588.189 68.3366 587.773 67.8884C587.359 67.4414 586.836 67.2174 586.205 67.2174C585.273 67.2174 584.591 67.579 584.164 68.3044C583.736 69.0287 583.522 69.9061 583.522 70.9365V71.3436C583.522 72.3929 583.733 73.2791 584.154 74.0001C584.576 74.7221 585.259 75.0826 586.205 75.0826Z" fill="white"/>
<path d="M600.946 67.3907H597.499V76.3673H595.598V67.3907H592.201V65.9121H600.946V67.3907Z" fill="white"/>
<path d="M610.502 71.3333C610.502 70.1475 610.269 69.1737 609.802 68.4106C609.336 67.6474 608.649 67.2659 607.742 67.2659C607.194 67.2659 606.728 67.389 606.342 67.6375C605.957 67.8848 605.644 68.2253 605.405 68.6568V73.7102C605.644 74.1417 605.957 74.4789 606.342 74.7207C606.728 74.9614 607.201 75.0823 607.761 75.0823C608.661 75.0823 609.343 74.7529 609.807 74.0918C610.27 73.4318 610.502 72.58 610.502 71.5362V71.3333ZM612.403 71.5362C612.403 73.0436 612.043 74.2604 611.321 75.1844C610.601 76.1083 609.607 76.5708 608.34 76.5708C607.696 76.5708 607.132 76.4621 606.646 76.247C606.161 76.0318 605.746 75.7079 605.405 75.2753V80.3875H603.504V65.9127H604.962L605.261 67.2659C605.601 66.7634 606.026 66.3797 606.535 66.1157C607.043 65.8517 607.634 65.7197 608.31 65.7197C609.604 65.7197 610.61 66.2332 611.327 67.2603C612.045 68.2886 612.403 69.6462 612.403 71.3333V71.5362Z" fill="white"/>
<path d="M616.692 71.2559C616.692 72.364 616.924 73.2791 617.391 74.0001C617.857 74.7221 618.551 75.0826 619.471 75.0826C620.379 75.0826 621.067 74.7221 621.536 74.0001C622.006 73.2791 622.241 72.364 622.241 71.2559V71.0441C622.241 69.9482 622.004 69.0365 621.532 68.3088C621.059 67.5812 620.364 67.2174 619.451 67.2174C618.544 67.2174 617.857 67.5812 617.391 68.3088C616.924 69.0365 616.692 69.9482 616.692 71.0441V71.2559ZM614.789 71.0441C614.789 69.4979 615.208 68.2234 616.045 67.2218C616.881 66.2202 618.017 65.72 619.451 65.72C620.899 65.72 622.043 66.218 622.882 67.2174C623.722 68.2157 624.142 69.4912 624.142 71.0441V71.2559C624.142 72.8143 623.723 74.0899 622.888 75.0826C622.05 76.0742 620.912 76.57 619.471 76.57C618.029 76.57 616.89 76.0731 616.05 75.0771C615.209 74.0821 614.789 72.8088 614.789 71.2559V71.0441Z" fill="white"/>
<path d="M630.986 67.2168C630.323 67.2168 629.774 67.473 629.34 67.9854C628.906 68.4968 628.641 69.1523 628.543 69.952L628.563 69.9997H633.273V69.8455C633.273 69.0857 633.087 68.4568 632.714 67.961C632.34 67.4641 631.765 67.2168 630.986 67.2168ZM631.286 76.5705C629.785 76.5705 628.618 76.0902 627.778 75.1308C626.938 74.1702 626.517 72.908 626.517 71.3429V70.9181C626.517 69.4163 626.95 68.1751 627.816 67.1924C628.681 66.2107 629.739 65.7194 630.986 65.7194C632.382 65.7194 633.43 66.1542 634.128 67.0238C634.826 67.8934 635.174 69.0503 635.174 70.4922V71.4971H628.497L628.467 71.5459C628.467 72.5952 628.7 73.447 629.163 74.1015C629.625 74.7559 630.333 75.082 631.286 75.082C631.928 75.082 632.493 74.9899 632.98 74.8069C633.465 74.6239 633.881 74.371 634.229 74.0482L634.973 75.285C634.599 75.6466 634.107 75.9505 633.496 76.1989C632.884 76.4463 632.147 76.5705 631.286 76.5705Z" fill="white"/>
<path d="M646.257 76.3675H644.356V71.923H639.704V76.3675H637.802V65.9123H639.704V70.4345H644.356V65.9123H646.257V76.3675Z" fill="white"/>
<path d="M656.094 65.9126H657.995V76.3678H656.094V68.9462L656.035 68.9274L651.423 76.3678H649.53V65.9126H651.423V73.3342L651.48 73.353L656.094 65.9126Z" fill="white"/>
<path d="M663.121 69.1302C663.121 69.5938 663.279 69.9898 663.594 70.3181C663.91 70.6475 664.383 70.8117 665.013 70.8117H667.724V67.391H665.216C664.527 67.391 664.006 67.5629 663.653 67.9078C663.299 68.2528 663.121 68.6599 663.121 69.1302ZM669.626 65.9124V76.3676H667.724V72.3091H665.147L662.678 76.3676H660.631L663.275 72.0285C662.613 71.7911 662.103 71.414 661.746 70.8982C661.389 70.3835 661.21 69.7868 661.21 69.1113C661.21 68.1707 661.565 67.4021 662.278 66.8064C662.988 66.2108 663.967 65.9124 665.216 65.9124H669.626Z" fill="white"/>
<path d="M140.66 51.308V76.5164H149.749V51.0396C149.749 48.6294 151.701 46.675 154.108 46.675H167.07V37.5752H154.377C146.801 37.5752 140.66 43.7234 140.66 51.308Z" fill="white"/>
<path d="M199.704 37.5749L190.626 54.9137L180.591 37.5749H170.094L185.62 64.4205L184.647 66.1675C184.148 67.1169 183.171 67.707 182.101 67.707H175.675V76.8068H182.101C186.555 76.8068 190.612 74.3566 192.689 70.4101L210.027 37.5749H199.704Z" fill="white"/>
<path d="M219.271 60.3097L224.877 49.585C225.715 47.8169 227.521 46.6756 229.477 46.6756H232.184C232.815 46.6756 233.327 47.1869 233.327 47.8191V60.3097H219.271ZM235.558 37.5747H229.477C224.033 37.5747 219.005 40.7559 216.746 45.522L200.535 76.5348H210.79L214.513 69.4094H233.327V76.5348H242.417V44.4417C242.417 40.6494 239.346 37.5747 235.558 37.5747Z" fill="white"/>
<path d="M279.23 37.5749H258.649C254.861 37.5749 251.79 40.6496 251.79 44.4419V76.4485H260.88V47.8105C260.88 47.1838 261.387 46.6747 262.013 46.6747H275.865C276.491 46.6747 276.999 47.1838 276.999 47.8105V76.4308H286.089V44.4419C286.089 40.6496 283.018 37.5749 279.23 37.5749Z" fill="white"/>
<path d="M53.8395 41.7212C41.2083 41.8831 0 43.477 0 57.191C0 71.9342 47.5854 72.6807 57.1255 72.6807C66.6646 72.6807 114.25 71.9342 114.25 57.191C114.25 50.6534 105.664 47.6597 99.2069 45.9771C92.164 44.1425 82.6505 42.8104 72.1465 42.1593C72.3182 44.9533 72.4389 47.8217 72.5132 50.7388C91.7075 51.9922 101.859 55.2332 104.98 57.2031C100.754 59.9362 84.4563 64.1333 57.1255 64.1333C29.746 64.1333 13.4399 59.9206 9.24653 57.1887C13.2272 54.5722 28.144 50.598 53.9481 50.2674C56.3057 50.2375 58.1925 48.2997 58.1614 45.9405C58.1315 43.5979 56.227 41.7212 53.8949 41.7212C53.8761 41.7212 53.8583 41.7212 53.8395 41.7212" fill="white"/>
<path d="M41.6538 57.1912C41.6538 66.7402 42.3994 114.382 57.1257 114.382C63.6523 114.382 66.6425 105.791 68.3232 99.3291C70.1579 92.2747 71.4885 82.7413 72.1388 72.2173C68.9757 72.4059 66.0509 72.5212 63.5703 72.5878C62.3195 91.8111 59.0811 101.977 57.1135 105.101C54.3825 100.869 50.1891 84.5537 50.1891 57.1912C50.1891 29.8011 54.3913 13.4794 57.1212 9.26562C59.7425 13.3552 63.8273 28.9359 64.0511 55.0405C64.0711 57.3875 65.9778 59.2765 68.3188 59.2765H68.3564C70.7129 59.2565 72.6074 57.3266 72.5875 54.9673C72.4679 41.0082 71.2159 27.9298 69.0622 18.1402C66.3389 5.7639 62.5455 0.00057503 57.1257 0.00057503C42.3994 0.00057503 41.6538 47.6401 41.6538 57.1912" fill="white"/>
</svg>
