<svg width="339" height="204" viewBox="0 0 339 204" fill="none" xmlns="http://www.w3.org/2000/svg">
<path d="M150.092 104.106H142.692V117.876H140.598V102.466H150.092V104.106Z" fill="white"/>
<path d="M152.475 112.277C152.475 113.49 152.732 114.492 153.245 115.282C153.76 116.072 154.523 116.468 155.537 116.468C156.536 116.468 157.294 116.072 157.811 115.282C158.329 114.492 158.588 113.49 158.588 112.277V112.044C158.588 110.844 158.328 109.846 157.807 109.049C157.285 108.251 156.522 107.853 155.515 107.853C154.516 107.853 153.76 108.251 153.245 109.049C152.732 109.846 152.475 110.844 152.475 112.044V112.277ZM150.381 112.044C150.381 110.351 150.842 108.956 151.763 107.858C152.684 106.761 153.935 106.212 155.515 106.212C157.11 106.212 158.37 106.759 159.294 107.853C160.219 108.947 160.682 110.344 160.682 112.044V112.277C160.682 113.984 160.221 115.382 159.3 116.468C158.379 117.554 157.124 118.098 155.537 118.098C153.949 118.098 152.693 117.553 151.769 116.462C150.843 115.373 150.381 113.976 150.381 112.277V112.044Z" fill="white"/>
<path d="M168.36 116.468C169.004 116.468 169.567 116.255 170.051 115.827C170.532 115.4 170.773 114.877 170.773 114.256H172.665L172.697 114.319C172.725 115.306 172.3 116.184 171.421 116.949C170.543 117.715 169.522 118.098 168.36 118.098C166.744 118.098 165.496 117.551 164.618 116.457C163.739 115.363 163.299 114.002 163.299 112.372V111.927C163.299 110.312 163.74 108.956 164.623 107.858C165.505 106.761 166.75 106.212 168.36 106.212C169.643 106.212 170.694 106.608 171.512 107.398C172.33 108.188 172.725 109.158 172.697 110.309L172.675 110.372H170.773C170.773 109.673 170.544 109.079 170.087 108.588C169.631 108.098 169.054 107.853 168.36 107.853C167.332 107.853 166.583 108.249 166.112 109.043C165.64 109.837 165.404 110.799 165.404 111.927V112.372C165.404 113.522 165.636 114.492 166.101 115.282C166.565 116.072 167.318 116.468 168.36 116.468Z" fill="white"/>
<path d="M179.248 113.632L179.62 115.071H179.683L182.512 106.424H184.84L180.003 119.633C179.711 120.401 179.295 121.072 178.753 121.643C178.211 122.214 177.479 122.5 176.558 122.5C176.388 122.5 176.172 122.48 175.909 122.442C175.648 122.403 175.445 122.367 175.304 122.331L175.516 120.69C175.474 120.683 175.599 120.69 175.894 120.711C176.188 120.733 176.374 120.743 176.452 120.743C176.898 120.743 177.263 120.545 177.547 120.15C177.83 119.755 178.068 119.318 178.259 118.838L178.759 117.643L174.485 106.424H176.824L179.248 113.632Z" fill="white"/>
<path d="M190.827 110.732C190.741 112.079 190.626 113.192 190.481 114.07C190.335 114.949 190.117 115.674 189.828 116.245H194.536V108.276H190.975L190.827 110.732ZM186.967 116.245C187.52 116.245 187.922 115.792 188.174 114.885C188.425 113.979 188.608 112.594 188.721 110.732L188.998 106.424H196.631V116.245H198.151V121.664H196.056V117.875H187.935V121.664H185.841V116.245H186.967Z" fill="white"/>
<path d="M204.553 116.351C205.312 116.351 205.996 116.157 206.604 115.77C207.214 115.381 207.611 114.937 207.795 114.435V112.573H205.446C204.602 112.573 203.928 112.784 203.421 113.208C202.915 113.632 202.661 114.128 202.661 114.7C202.661 115.209 202.82 115.611 203.138 115.906C203.458 116.203 203.929 116.351 204.553 116.351ZM208.029 117.875C207.958 117.529 207.904 117.224 207.865 116.959C207.825 116.696 207.803 116.428 207.795 116.161C207.406 116.711 206.897 117.171 206.269 117.542C205.643 117.912 204.968 118.097 204.244 118.097C203.046 118.097 202.134 117.793 201.507 117.182C200.88 116.572 200.566 115.73 200.566 114.658C200.566 113.564 201.011 112.709 201.9 112.092C202.79 111.474 203.997 111.166 205.52 111.166H207.795V110.033C207.795 109.362 207.59 108.833 207.179 108.441C206.767 108.049 206.186 107.852 205.436 107.852C204.755 107.852 204.206 108.022 203.787 108.361C203.369 108.699 203.161 109.105 203.161 109.578L201.172 109.6L201.151 109.536C201.101 108.703 201.493 107.942 202.326 107.25C203.158 106.558 204.234 106.212 205.552 106.212C206.856 106.212 207.905 106.542 208.699 107.202C209.492 107.861 209.889 108.813 209.889 110.054V115.568C209.889 115.977 209.91 116.372 209.954 116.753C209.996 117.135 210.074 117.508 210.188 117.875H208.029Z" fill="white"/>
<path d="M221.182 112.361C221.182 111.063 220.924 109.996 220.411 109.16C219.897 108.324 219.14 107.905 218.142 107.905C217.538 107.905 217.025 108.042 216.599 108.314C216.175 108.585 215.831 108.957 215.568 109.43V114.965C215.831 115.437 216.175 115.807 216.599 116.071C217.025 116.335 217.546 116.468 218.163 116.468C219.155 116.468 219.905 116.106 220.415 115.383C220.927 114.66 221.182 113.726 221.182 112.584V112.361ZM223.276 112.584C223.276 114.235 222.879 115.566 222.085 116.578C221.291 117.592 220.196 118.097 218.8 118.097C218.092 118.097 217.47 117.979 216.934 117.743C216.399 117.507 215.944 117.152 215.568 116.679V122.278H213.474V106.424H215.079L215.41 107.905C215.785 107.356 216.252 106.935 216.812 106.646C217.372 106.358 218.024 106.212 218.769 106.212C220.193 106.212 221.3 106.775 222.091 107.901C222.88 109.026 223.276 110.513 223.276 112.361V112.584Z" fill="white"/>
<path d="M230.964 116.468C231.608 116.468 232.171 116.255 232.655 115.827C233.136 115.4 233.376 114.877 233.376 114.256H235.269L235.301 114.319C235.329 115.306 234.904 116.184 234.025 116.949C233.147 117.715 232.126 118.098 230.964 118.098C229.347 118.098 228.1 117.551 227.222 116.457C226.343 115.363 225.903 114.002 225.903 112.372V111.927C225.903 110.312 226.344 108.956 227.226 107.858C228.109 106.761 229.354 106.212 230.964 106.212C232.247 106.212 233.298 106.608 234.116 107.398C234.934 108.188 235.329 109.158 235.301 110.309L235.279 110.372H233.376C233.376 109.673 233.148 109.079 232.691 108.588C232.234 108.098 231.658 107.853 230.964 107.853C229.936 107.853 229.187 108.249 228.715 109.043C228.244 109.837 228.008 110.799 228.008 111.927V112.372C228.008 113.522 228.24 114.492 228.704 115.282C229.169 116.072 229.922 116.468 230.964 116.468Z" fill="white"/>
<path d="M247.199 108.043H243.404V117.875H241.309V108.043H237.568V106.424H247.199V108.043Z" fill="white"/>
<path d="M252.123 112.859V116.266H255.302C256.073 116.266 256.659 116.12 257.056 115.828C257.452 115.535 257.651 115.113 257.651 114.563C257.651 114.02 257.452 113.599 257.056 113.304C256.659 113.007 256.073 112.859 255.302 112.859H252.123ZM252.123 111.261H254.579C255.465 111.261 256.132 111.13 256.582 110.87C257.032 110.608 257.257 110.213 257.257 109.683C257.257 109.14 257.03 108.731 256.578 108.456C256.123 108.181 255.454 108.043 254.568 108.043H252.123V111.261ZM250.029 117.875V106.424H254.568C256.084 106.424 257.261 106.687 258.098 107.213C258.934 107.739 259.352 108.527 259.352 109.577C259.352 110.115 259.189 110.592 258.863 111.012C258.537 111.432 258.076 111.752 257.48 111.97C258.196 112.146 258.754 112.477 259.155 112.959C259.556 113.443 259.755 113.994 259.755 114.616C259.755 115.688 259.364 116.499 258.581 117.05C257.798 117.6 256.705 117.875 255.302 117.875H250.029Z" fill="white"/>
<path d="M267.37 107.853C266.639 107.853 266.036 108.133 265.557 108.695C265.079 109.256 264.787 109.973 264.68 110.848L264.701 110.901H269.889V110.731C269.889 109.899 269.684 109.212 269.272 108.667C268.861 108.124 268.227 107.853 267.37 107.853ZM267.699 118.098C266.047 118.098 264.76 117.572 263.836 116.521C262.91 115.47 262.447 114.087 262.447 112.372V111.906C262.447 110.262 262.924 108.903 263.878 107.826C264.831 106.75 265.995 106.213 267.37 106.213C268.908 106.213 270.061 106.688 270.83 107.642C271.598 108.593 271.983 109.861 271.983 111.441V112.542H264.627L264.595 112.595C264.595 113.745 264.851 114.677 265.36 115.394C265.871 116.11 266.65 116.468 267.699 116.468C268.408 116.468 269.03 116.367 269.565 116.166C270.1 115.965 270.559 115.688 270.941 115.335L271.76 116.689C271.349 117.085 270.807 117.419 270.134 117.69C269.461 117.961 268.648 118.098 267.699 118.098Z" fill="white"/>
<path d="M284.189 117.875H282.095V113.007H276.971V117.875H274.877V106.424H276.971V111.377H282.095V106.424H284.189V117.875Z" fill="white"/>
<path d="M297.107 117.875H295.013V113.007H289.89V117.875H287.796V106.424H289.89V111.377H295.013V106.424H297.107V117.875Z" fill="white"/>
<path d="M314.417 117.876H312.323V106.424H314.417V117.876ZM303.127 112.414V116.245H305.987C306.737 116.245 307.293 116.065 307.651 115.706C308.008 115.346 308.187 114.898 308.187 114.362C308.187 113.839 308.007 113.384 307.645 112.996C307.284 112.608 306.731 112.414 305.987 112.414H303.127ZM303.127 110.784H305.987C307.347 110.784 308.405 111.11 309.16 111.759C309.915 112.408 310.292 113.251 310.292 114.287C310.292 115.331 309.91 116.191 309.15 116.864C308.387 117.539 307.333 117.876 305.987 117.876H301.033V106.424H303.127V110.784Z" fill="white"/>
<path d="M326.229 101.715L326.251 101.778C326.279 102.596 326.006 103.263 325.432 103.779C324.859 104.294 324.086 104.551 323.115 104.551C322.137 104.551 321.361 104.294 320.787 103.779C320.212 103.263 319.943 102.596 319.978 101.778L319.999 101.715H321.605C321.605 102.18 321.726 102.558 321.966 102.847C322.208 103.136 322.59 103.281 323.115 103.281C323.625 103.281 324.004 103.134 324.252 102.842C324.501 102.549 324.624 102.174 324.624 101.715H326.229ZM325.677 106.424H327.77V117.876H325.677V109.748L325.613 109.727L320.532 117.876H318.448V106.424H320.532V114.552L320.595 114.573L325.677 106.424Z" fill="white"/>
<path d="M143.905 140.694L144.277 142.133H144.341L147.169 133.486H149.497L144.66 146.695C144.368 147.463 143.953 148.134 143.41 148.704C142.868 149.276 142.137 149.562 141.215 149.562C141.046 149.562 140.829 149.542 140.567 149.504C140.305 149.465 140.102 149.428 139.961 149.393L140.173 147.752C140.131 147.745 140.256 147.752 140.551 147.773C140.845 147.795 141.031 147.805 141.109 147.805C141.556 147.805 141.92 147.607 142.204 147.212C142.487 146.817 142.725 146.38 142.916 145.9L143.416 144.704L139.142 133.486H141.481L143.905 140.694Z" fill="white"/>
<path d="M161.192 144.937H159.098V140.068H153.975V144.937H151.881V133.486H153.975V138.438H159.098V133.486H161.192V144.937Z" fill="white"/>
<path d="M172.027 133.486H174.121V144.937H172.027V136.809L171.963 136.788L166.882 144.937H164.799V133.486H166.882V141.614L166.945 141.635L172.027 133.486Z" fill="white"/>
<path d="M179.822 139.92V143.328H183C183.772 143.328 184.357 143.182 184.754 142.89C185.151 142.597 185.35 142.174 185.35 141.625C185.35 141.082 185.151 140.661 184.754 140.365C184.357 140.068 183.772 139.92 183 139.92H179.822ZM179.822 138.322H182.278C183.163 138.322 183.831 138.192 184.281 137.932C184.731 137.67 184.956 137.275 184.956 136.745C184.956 136.202 184.729 135.793 184.276 135.518C183.822 135.243 183.152 135.105 182.266 135.105H179.822V138.322ZM177.727 144.937V133.486H182.266C183.783 133.486 184.959 133.748 185.796 134.275C186.632 134.8 187.05 135.588 187.05 136.639C187.05 137.177 186.887 137.655 186.561 138.074C186.236 138.493 185.774 138.813 185.179 139.032C185.895 139.207 186.453 139.539 186.854 140.021C187.254 140.504 187.454 141.056 187.454 141.678C187.454 142.749 187.063 143.561 186.28 144.111C185.497 144.662 184.404 144.937 183 144.937H177.727Z" fill="white"/>
<path d="M195.069 134.915C194.338 134.915 193.735 135.195 193.256 135.757C192.778 136.317 192.485 137.035 192.379 137.91L192.4 137.963H197.588V137.793C197.588 136.961 197.382 136.273 196.971 135.729C196.56 135.186 195.926 134.915 195.069 134.915ZM195.398 145.159C193.746 145.159 192.459 144.634 191.534 143.582C190.608 142.531 190.146 141.148 190.146 139.433V138.968C190.146 137.324 190.623 135.964 191.576 134.888C192.53 133.812 193.694 133.274 195.069 133.274C196.606 133.274 197.759 133.75 198.529 134.704C199.297 135.655 199.682 136.922 199.682 138.503V139.603H192.326L192.294 139.656C192.294 140.806 192.55 141.739 193.059 142.455C193.57 143.172 194.349 143.529 195.398 143.529C196.106 143.529 196.728 143.429 197.264 143.228C197.798 143.027 198.257 142.75 198.64 142.397L199.459 143.751C199.048 144.146 198.506 144.481 197.833 144.751C197.16 145.023 196.347 145.159 195.398 145.159Z" fill="white"/>
<path d="M210.283 139.423C210.283 138.125 210.025 137.058 209.512 136.222C208.998 135.385 208.241 134.967 207.243 134.967C206.639 134.967 206.126 135.104 205.7 135.376C205.276 135.647 204.932 136.019 204.669 136.491V142.027C204.932 142.499 205.276 142.869 205.7 143.133C206.126 143.396 206.647 143.53 207.264 143.53C208.256 143.53 209.006 143.168 209.516 142.445C210.028 141.722 210.283 140.788 210.283 139.646V139.423ZM212.377 139.646C212.377 141.296 211.98 142.628 211.186 143.64C210.392 144.654 209.297 145.159 207.901 145.159C207.193 145.159 206.571 145.041 206.035 144.805C205.5 144.569 205.045 144.214 204.669 143.741V149.34H202.575V133.486H204.18L204.511 134.967C204.886 134.417 205.353 133.997 205.913 133.708C206.473 133.419 207.125 133.274 207.87 133.274C209.294 133.274 210.401 133.837 211.192 134.963C211.981 136.087 212.377 137.575 212.377 139.423V139.646Z" fill="white"/>
<path d="M220.065 143.53C220.709 143.53 221.273 143.317 221.756 142.889C222.237 142.462 222.478 141.939 222.478 141.318H224.37L224.403 141.381C224.43 142.368 224.006 143.246 223.126 144.011C222.248 144.777 221.227 145.16 220.065 145.16C218.449 145.16 217.202 144.613 216.324 143.519C215.444 142.425 215.004 141.064 215.004 139.434V138.989C215.004 137.374 215.445 136.018 216.328 134.92C217.21 133.823 218.456 133.274 220.065 133.274C221.348 133.274 222.399 133.67 223.217 134.46C224.036 135.25 224.43 136.22 224.403 137.371L224.38 137.434H222.478C222.478 136.735 222.249 136.141 221.793 135.65C221.336 135.16 220.759 134.915 220.065 134.915C219.038 134.915 218.288 135.311 217.817 136.105C217.346 136.899 217.11 137.861 217.11 138.989V139.434C217.11 140.584 217.341 141.554 217.806 142.344C218.27 143.134 219.023 143.53 220.065 143.53Z" fill="white"/>
<path d="M234.664 133.486H236.757V144.937H234.664V136.809L234.599 136.788L229.518 144.937H227.435V133.486H229.518V141.614L229.581 141.635L234.664 133.486Z" fill="white"/>
<path d="M249.218 135.105H245.423V144.937H243.329V135.105H239.587V133.486H249.218V135.105Z" fill="white"/>
<path d="M256.28 134.915C255.549 134.915 254.946 135.195 254.467 135.757C253.989 136.317 253.697 137.035 253.59 137.91L253.611 137.963H258.799V137.793C258.799 136.961 258.594 136.273 258.182 135.729C257.771 135.186 257.137 134.915 256.28 134.915ZM256.609 145.159C254.957 145.159 253.67 144.634 252.745 143.582C251.82 142.531 251.357 141.148 251.357 139.433V138.968C251.357 137.324 251.834 135.964 252.787 134.888C253.741 133.812 254.905 133.274 256.28 133.274C257.818 133.274 258.971 133.75 259.74 134.704C260.508 135.655 260.893 136.922 260.893 138.503V139.603H253.537L253.505 139.656C253.505 140.806 253.761 141.739 254.27 142.455C254.781 143.172 255.56 143.529 256.609 143.529C257.318 143.529 257.94 143.429 258.475 143.228C259.009 143.027 259.468 142.75 259.851 142.397L260.67 143.751C260.259 144.146 259.717 144.481 259.044 144.751C258.371 145.023 257.558 145.159 256.609 145.159Z" fill="white"/>
<path d="M272.536 135.105H268.741V144.937H266.647V135.105H262.905V133.486H272.536V135.105Z" fill="white"/>
<path d="M143.98 170.474C144.738 170.474 145.421 170.28 146.031 169.893C146.64 169.504 147.037 169.06 147.221 168.558V166.696H144.872C144.028 166.696 143.354 166.907 142.848 167.331C142.341 167.755 142.087 168.251 142.087 168.823C142.087 169.332 142.247 169.734 142.565 170.029C142.884 170.326 143.355 170.474 143.98 170.474ZM147.455 171.998C147.384 171.652 147.33 171.347 147.291 171.082C147.251 170.819 147.229 170.551 147.221 170.284C146.832 170.834 146.323 171.294 145.696 171.665C145.069 172.035 144.394 172.22 143.67 172.22C142.473 172.22 141.56 171.916 140.933 171.305C140.307 170.695 139.993 169.853 139.993 168.781C139.993 167.687 140.437 166.832 141.327 166.215C142.217 165.597 143.423 165.289 144.946 165.289H147.221V164.156C147.221 163.485 147.016 162.956 146.605 162.564C146.194 162.172 145.613 161.975 144.862 161.975C144.181 161.975 143.633 162.145 143.214 162.484C142.796 162.822 142.587 163.228 142.587 163.701L140.598 163.723L140.577 163.659C140.527 162.826 140.92 162.065 141.752 161.373C142.585 160.681 143.66 160.335 144.979 160.335C146.282 160.335 147.331 160.665 148.125 161.325C148.919 161.984 149.316 162.936 149.316 164.177V169.691C149.316 170.1 149.337 170.495 149.38 170.876C149.422 171.258 149.501 171.631 149.614 171.998H147.455Z" fill="white"/>
<path d="M156.909 161.976C156.257 161.976 155.677 162.191 155.17 162.622C154.664 163.052 154.411 163.574 154.411 164.188H152.518L152.496 164.124C152.454 163.144 152.884 162.267 153.789 161.495C154.691 160.722 155.732 160.336 156.909 160.336C158.468 160.336 159.699 160.888 160.603 161.993C161.506 163.096 161.959 164.448 161.959 166.05V166.495C161.959 168.104 161.504 169.46 160.597 170.564C159.69 171.669 158.461 172.221 156.909 172.221C155.612 172.221 154.542 171.827 153.698 171.041C152.854 170.254 152.451 169.286 152.486 168.135L152.507 168.072H154.411C154.411 168.771 154.649 169.364 155.127 169.856C155.606 170.346 156.199 170.591 156.909 170.591C157.801 170.591 158.493 170.245 158.981 169.553C159.471 168.862 159.744 168.022 159.8 167.034L159.768 166.981H155.676V165.352H159.747L159.768 165.299C159.697 164.376 159.419 163.59 158.933 162.945C158.449 162.299 157.772 161.976 156.909 161.976Z" fill="white"/>
<path d="M172.867 166.484C172.867 165.186 172.61 164.119 172.097 163.283C171.582 162.447 170.826 162.028 169.827 162.028C169.224 162.028 168.711 162.165 168.285 162.437C167.86 162.708 167.517 163.08 167.254 163.553V169.088C167.517 169.56 167.86 169.93 168.285 170.194C168.711 170.459 169.232 170.591 169.848 170.591C170.841 170.591 171.591 170.229 172.101 169.506C172.612 168.783 172.867 167.849 172.867 166.707V166.484ZM174.962 166.707C174.962 168.358 174.565 169.689 173.771 170.701C172.977 171.715 171.882 172.221 170.486 172.221C169.777 172.221 169.155 172.102 168.62 171.866C168.084 171.63 167.63 171.275 167.254 170.802V176.401H165.16V160.547H166.765L167.095 162.028C167.47 161.479 167.938 161.058 168.498 160.769C169.058 160.481 169.71 160.335 170.455 160.335C171.878 160.335 172.986 160.898 173.776 162.024C174.566 163.149 174.962 164.636 174.962 166.484V166.707Z" fill="white"/>
<path d="M179.684 166.4C179.684 167.613 179.941 168.615 180.454 169.405C180.969 170.196 181.731 170.591 182.746 170.591C183.745 170.591 184.503 170.196 185.02 169.405C185.537 168.615 185.797 167.613 185.797 166.4V166.167C185.797 164.967 185.536 163.969 185.015 163.172C184.494 162.374 183.73 161.976 182.724 161.976C181.725 161.976 180.969 162.374 180.454 163.172C179.941 163.969 179.684 164.967 179.684 166.167V166.4ZM177.589 166.167C177.589 164.474 178.05 163.079 178.972 161.982C179.893 160.884 181.144 160.335 182.724 160.335C184.319 160.335 185.578 160.882 186.503 161.976C187.428 163.07 187.891 164.467 187.891 166.167V166.4C187.891 168.107 187.43 169.505 186.509 170.591C185.587 171.677 184.332 172.221 182.746 172.221C181.158 172.221 179.902 171.676 178.977 170.585C178.052 169.496 177.589 168.1 177.589 166.4V166.167Z" fill="white"/>
<path d="M194.271 167.14H193.197V171.998H191.103V160.548H193.197V165.384H194.09L198.204 160.548H200.66L200.681 160.6L195.908 166.04L201.042 171.946L201.021 171.998H198.448L194.271 167.14Z" fill="white"/>
<path d="M204.829 166.4C204.829 167.613 205.086 168.615 205.6 169.405C206.114 170.196 206.877 170.591 207.891 170.591C208.89 170.591 209.648 170.196 210.165 169.405C210.683 168.615 210.942 167.613 210.942 166.4V166.167C210.942 164.967 210.682 163.969 210.161 163.172C209.64 162.374 208.876 161.976 207.869 161.976C206.87 161.976 206.114 162.374 205.6 163.172C205.086 163.969 204.829 164.967 204.829 166.167V166.4ZM202.735 166.167C202.735 164.474 203.196 163.079 204.117 161.982C205.039 160.884 206.289 160.335 207.869 160.335C209.464 160.335 210.724 160.882 211.649 161.976C212.573 163.07 213.037 164.467 213.037 166.167V166.4C213.037 168.107 212.575 169.505 211.654 170.591C210.733 171.677 209.478 172.221 207.891 172.221C206.304 172.221 205.047 171.676 204.123 170.585C203.197 169.496 202.735 168.1 202.735 166.4V166.167Z" fill="white"/>
<path d="M220.714 170.591C221.358 170.591 221.921 170.378 222.405 169.951C222.886 169.523 223.126 169 223.126 168.379H225.019L225.051 168.442C225.079 169.43 224.654 170.307 223.775 171.072C222.897 171.838 221.876 172.221 220.714 172.221C219.098 172.221 217.85 171.675 216.972 170.58C216.093 169.486 215.653 168.125 215.653 166.495V166.05C215.653 164.435 216.094 163.079 216.977 161.982C217.859 160.884 219.104 160.335 220.714 160.335C221.997 160.335 223.048 160.731 223.866 161.521C224.684 162.312 225.079 163.281 225.051 164.432L225.029 164.495H223.126C223.126 163.796 222.898 163.201 222.441 162.711C221.985 162.221 221.408 161.976 220.714 161.976C219.686 161.976 218.937 162.372 218.466 163.166C217.994 163.961 217.758 164.922 217.758 166.05V166.495C217.758 167.645 217.99 168.615 218.455 169.405C218.919 170.196 219.672 170.591 220.714 170.591Z" fill="white"/>
<path d="M234.631 169.268H234.694L238.458 160.547H241.074V171.998H238.98V164.05L238.915 164.029L235.386 171.998H233.941L230.347 163.849L230.283 163.87V171.998H228.189V160.547H230.889L234.631 169.268Z" fill="white"/>
<path d="M252.1 160.547H254.193V171.999H252.1V163.871L252.036 163.85L246.955 171.999H244.872V160.547H246.955V168.675L247.018 168.696L252.1 160.547Z" fill="white"/>
<path d="M266.772 171.998H264.677V167.902C264.274 168.008 263.859 168.088 263.434 168.141C263.009 168.194 262.555 168.22 262.073 168.22C260.684 168.22 259.594 167.857 258.805 167.13C258.013 166.403 257.618 165.327 257.618 163.902V160.537H259.713V163.902C259.713 164.82 259.911 165.493 260.308 165.923C260.705 166.354 261.294 166.569 262.073 166.569C262.541 166.569 262.987 166.542 263.412 166.489C263.838 166.436 264.259 166.358 264.677 166.252V160.547H266.772V171.998Z" fill="white"/>
<path d="M274.79 161.976C274.06 161.976 273.456 162.256 272.978 162.818C272.5 163.379 272.207 164.096 272.101 164.972L272.122 165.025H277.309V164.855C277.309 164.022 277.104 163.335 276.693 162.791C276.281 162.248 275.647 161.976 274.79 161.976ZM275.119 172.221C273.468 172.221 272.18 171.696 271.256 170.644C270.33 169.593 269.868 168.21 269.868 166.495V166.029C269.868 164.385 270.344 163.026 271.298 161.95C272.251 160.873 273.415 160.336 274.79 160.336C276.328 160.336 277.481 160.812 278.25 161.764C279.019 162.717 279.403 163.984 279.403 165.564V166.665H272.047L272.015 166.718C272.015 167.868 272.271 168.8 272.78 169.517C273.291 170.233 274.071 170.591 275.119 170.591C275.828 170.591 276.45 170.49 276.985 170.289C277.52 170.089 277.979 169.811 278.361 169.458L279.181 170.813C278.769 171.208 278.227 171.542 277.554 171.813C276.881 172.084 276.069 172.221 275.119 172.221Z" fill="white"/>
<path d="M286.868 170.591C287.512 170.591 288.076 170.378 288.559 169.951C289.04 169.523 289.281 169 289.281 168.379H291.173L291.205 168.442C291.233 169.43 290.809 170.307 289.929 171.072C289.051 171.838 288.03 172.221 286.868 172.221C285.252 172.221 284.005 171.675 283.126 170.58C282.247 169.486 281.807 168.125 281.807 166.495V166.05C281.807 164.435 282.248 163.079 283.131 161.982C284.013 160.884 285.258 160.335 286.868 160.335C288.151 160.335 289.202 160.731 290.02 161.521C290.838 162.312 291.233 163.281 291.205 164.432L291.183 164.495H289.281C289.281 163.796 289.052 163.201 288.596 162.711C288.139 162.221 287.562 161.976 286.868 161.976C285.841 161.976 285.091 162.372 284.62 163.166C284.149 163.961 283.913 164.922 283.913 166.05V166.495C283.913 167.645 284.144 168.615 284.609 169.405C285.073 170.196 285.826 170.591 286.868 170.591Z" fill="white"/>
<path d="M297.511 167.14H296.438V171.998H294.344V160.548H296.438V165.384H297.331L301.445 160.548H303.901L303.922 160.6L299.149 166.04L304.283 171.946L304.262 171.998H301.689L297.511 167.14Z" fill="white"/>
<path d="M308.07 166.4C308.07 167.613 308.327 168.615 308.84 169.405C309.355 170.196 310.118 170.591 311.132 170.591C312.131 170.591 312.889 170.196 313.406 169.405C313.924 168.615 314.183 167.613 314.183 166.4V166.167C314.183 164.967 313.923 163.969 313.402 163.172C312.88 162.374 312.117 161.976 311.11 161.976C310.111 161.976 309.355 162.374 308.84 163.172C308.327 163.969 308.07 164.967 308.07 166.167V166.4ZM305.976 166.167C305.976 164.474 306.437 163.079 307.358 161.982C308.279 160.884 309.53 160.335 311.11 160.335C312.705 160.335 313.965 160.882 314.889 161.976C315.814 163.07 316.277 164.467 316.277 166.167V166.4C316.277 168.107 315.816 169.505 314.895 170.591C313.974 171.677 312.719 172.221 311.132 172.221C309.544 172.221 308.288 171.676 307.364 170.585C306.438 169.496 305.976 168.1 305.976 166.4V166.167Z" fill="white"/>
<path d="M326.697 162.198H321.478V171.999H319.383V160.547H326.697V162.198Z" fill="white"/>
<path d="M330.345 166.4C330.345 167.613 330.603 168.615 331.116 169.405C331.63 170.196 332.393 170.591 333.408 170.591C334.407 170.591 335.165 170.196 335.682 169.405C336.199 168.615 336.459 167.613 336.459 166.4V166.167C336.459 164.967 336.198 163.969 335.677 163.172C335.156 162.374 334.392 161.976 333.385 161.976C332.387 161.976 331.63 162.374 331.116 163.172C330.603 163.969 330.345 164.967 330.345 166.167V166.4ZM328.251 166.167C328.251 164.474 328.712 163.079 329.634 161.982C330.555 160.884 331.806 160.335 333.385 160.335C334.981 160.335 336.24 160.882 337.165 161.976C338.09 163.07 338.552 164.467 338.552 166.167V166.4C338.552 168.107 338.092 169.505 337.17 170.591C336.249 171.677 334.994 172.221 333.408 172.221C331.82 172.221 330.564 171.676 329.639 170.585C328.713 169.496 328.251 168.1 328.251 166.4V166.167Z" fill="white"/>
<path d="M149.709 199.06H147.616V189.26H142.48V199.06H140.386V187.609H149.709V199.06Z" fill="white"/>
<path d="M161.012 193.546C161.012 192.248 160.755 191.181 160.241 190.345C159.727 189.508 158.971 189.09 157.972 189.09C157.369 189.09 156.856 189.227 156.43 189.499C156.005 189.77 155.661 190.142 155.399 190.614V196.15C155.661 196.622 156.005 196.992 156.43 197.256C156.856 197.521 157.377 197.653 157.993 197.653C158.985 197.653 159.736 197.291 160.246 196.568C160.757 195.845 161.012 194.911 161.012 193.769V193.546ZM163.106 193.769C163.106 195.42 162.709 196.751 161.916 197.763C161.122 198.777 160.026 199.282 158.631 199.282C157.922 199.282 157.3 199.164 156.765 198.928C156.229 198.692 155.775 198.337 155.399 197.864V203.463H153.304V187.609H154.91L155.24 189.09C155.615 188.54 156.083 188.12 156.643 187.831C157.203 187.543 157.854 187.397 158.6 187.397C160.023 187.397 161.131 187.96 161.921 189.086C162.711 190.21 163.106 191.698 163.106 193.546V193.769Z" fill="white"/>
<path d="M173.452 187.609H175.545V199.06H173.452V190.933L173.388 190.912L168.306 199.06H166.223V187.609H168.306V195.737L168.37 195.758L173.452 187.609Z" fill="white"/>
<path d="M183.787 189.038C182.788 189.038 182.033 189.436 181.523 190.234C181.012 191.031 180.757 192.03 180.757 193.229V193.461C180.757 194.676 181.012 195.678 181.523 196.467C182.033 197.257 182.795 197.652 183.808 197.652C184.807 197.652 185.565 197.257 186.083 196.467C186.601 195.678 186.859 194.676 186.859 193.461V193.229C186.859 192.03 186.598 191.031 186.077 190.234C185.556 189.436 184.792 189.038 183.787 189.038ZM184.201 187.398C185.669 187.398 186.827 187.945 187.678 189.038C188.529 190.131 188.953 191.529 188.953 193.229V193.461C188.953 195.169 188.493 196.566 187.572 197.652C186.649 198.74 185.396 199.283 183.808 199.283C182.22 199.283 180.964 198.737 180.039 197.647C179.115 196.557 178.652 195.161 178.652 193.461V193.086C178.652 193.048 178.656 193.003 178.662 192.954V190.466C178.662 188.294 179.1 186.693 179.975 185.667C180.851 184.64 182.139 184.082 183.84 183.989C184.818 183.94 185.573 183.818 186.105 183.625C186.636 183.431 186.901 183.097 186.901 182.624H188.506L188.529 182.688C188.564 183.803 188.192 184.584 187.412 185.032C186.633 185.48 185.502 185.718 184.021 185.746C182.943 185.775 182.078 186.071 181.426 186.636C180.775 187.2 180.46 188.037 180.481 189.144L180.513 189.197C180.931 188.667 181.466 188.235 182.118 187.9C182.769 187.565 183.464 187.398 184.201 187.398Z" fill="white"/>
<path d="M193.335 193.462C193.335 194.675 193.592 195.677 194.105 196.467C194.62 197.257 195.383 197.653 196.397 197.653C197.396 197.653 198.154 197.257 198.671 196.467C199.189 195.677 199.448 194.675 199.448 193.462V193.229C199.448 192.029 199.188 191.031 198.667 190.234C198.145 189.436 197.382 189.038 196.375 189.038C195.376 189.038 194.62 189.436 194.105 190.234C193.592 191.031 193.335 192.029 193.335 193.229V193.462ZM191.241 193.229C191.241 191.536 191.702 190.141 192.623 189.043C193.544 187.946 194.795 187.397 196.375 187.397C197.97 187.397 199.23 187.944 200.154 189.038C201.079 190.132 201.542 191.529 201.542 193.229V193.462C201.542 195.169 201.081 196.567 200.16 197.653C199.239 198.739 197.984 199.283 196.397 199.283C194.809 199.283 193.553 198.738 192.629 197.647C191.703 196.558 191.241 195.162 191.241 193.462V193.229Z" fill="white"/>
<path d="M212.356 193.546C212.356 192.248 212.098 191.181 211.585 190.345C211.071 189.508 210.315 189.09 209.316 189.09C208.713 189.09 208.199 189.227 207.773 189.499C207.349 189.77 207.005 190.142 206.742 190.614V196.15C207.005 196.622 207.349 196.992 207.773 197.256C208.199 197.521 208.72 197.653 209.337 197.653C210.329 197.653 211.08 197.291 211.59 196.568C212.101 195.845 212.356 194.911 212.356 193.769V193.546ZM214.45 193.769C214.45 195.42 214.053 196.751 213.259 197.763C212.465 198.777 211.37 199.282 209.974 199.282C209.266 199.282 208.644 199.164 208.108 198.928C207.573 198.692 207.118 198.337 206.742 197.864V203.463H204.648V187.609H206.253L206.584 189.09C206.959 188.54 207.426 188.12 207.986 187.831C208.546 187.543 209.198 187.397 209.943 187.397C211.367 187.397 212.474 187.96 213.265 189.086C214.054 190.21 214.45 191.698 214.45 193.546V193.769Z" fill="white"/>
<path d="M219.172 193.462C219.172 194.675 219.429 195.677 219.943 196.467C220.457 197.257 221.22 197.653 222.234 197.653C223.233 197.653 223.991 197.257 224.508 196.467C225.026 195.677 225.285 194.675 225.285 193.462V193.229C225.285 192.029 225.025 191.031 224.504 190.234C223.983 189.436 223.219 189.038 222.212 189.038C221.213 189.038 220.457 189.436 219.943 190.234C219.429 191.031 219.172 192.029 219.172 193.229V193.462ZM217.078 193.229C217.078 191.536 217.539 190.141 218.46 189.043C219.382 187.946 220.632 187.397 222.212 187.397C223.807 187.397 225.067 187.944 225.991 189.038C226.916 190.132 227.38 191.529 227.38 193.229V193.462C227.38 195.169 226.918 196.567 225.997 197.653C225.076 198.739 223.821 199.283 222.234 199.283C220.647 199.283 219.39 198.738 218.466 197.647C217.54 196.558 217.078 195.162 217.078 193.462V193.229Z" fill="white"/>
<path d="M235.057 197.653C235.701 197.653 236.264 197.44 236.748 197.012C237.229 196.585 237.47 196.062 237.47 195.441H239.362L239.394 195.504C239.422 196.492 238.997 197.369 238.118 198.134C237.24 198.9 236.219 199.283 235.057 199.283C233.441 199.283 232.193 198.737 231.315 197.642C230.436 196.548 229.996 195.187 229.996 193.557V193.112C229.996 191.497 230.437 190.141 231.32 189.043C232.202 187.946 233.447 187.397 235.057 187.397C236.34 187.397 237.391 187.793 238.209 188.583C239.027 189.374 239.422 190.343 239.394 191.494L239.372 191.557H237.47C237.47 190.858 237.241 190.264 236.784 189.773C236.328 189.283 235.751 189.038 235.057 189.038C234.029 189.038 233.28 189.434 232.809 190.229C232.337 191.022 232.101 191.984 232.101 193.112V193.557C232.101 194.707 232.333 195.677 232.798 196.467C233.262 197.257 234.015 197.653 235.057 197.653Z" fill="white"/>
<path d="M251.291 189.228H247.496V199.06H245.402V189.228H241.66V187.609H251.291V189.228Z" fill="white"/>
<path d="M261.818 193.546C261.818 192.248 261.561 191.181 261.048 190.345C260.533 189.508 259.777 189.09 258.778 189.09C258.175 189.09 257.662 189.227 257.236 189.499C256.811 189.77 256.468 190.142 256.205 190.614V196.15C256.468 196.622 256.811 196.992 257.236 197.256C257.662 197.521 258.183 197.653 258.799 197.653C259.791 197.653 260.542 197.291 261.052 196.568C261.563 195.845 261.818 194.911 261.818 193.769V193.546ZM263.912 193.769C263.912 195.42 263.515 196.751 262.722 197.763C261.928 198.777 260.832 199.282 259.437 199.282C258.728 199.282 258.106 199.164 257.571 198.928C257.035 198.692 256.581 198.337 256.205 197.864V203.463H254.11V187.609H255.716L256.046 189.09C256.421 188.54 256.889 188.12 257.449 187.831C258.009 187.543 258.661 187.397 259.406 187.397C260.829 187.397 261.937 187.96 262.727 189.086C263.517 190.21 263.912 191.698 263.912 193.546V193.769Z" fill="white"/>
<path d="M268.634 193.462C268.634 194.675 268.892 195.677 269.405 196.467C269.919 197.257 270.682 197.653 271.697 197.653C272.695 197.653 273.454 197.257 273.97 196.467C274.488 195.677 274.748 194.675 274.748 193.462V193.229C274.748 192.029 274.487 191.031 273.966 190.234C273.445 189.436 272.681 189.038 271.674 189.038C270.675 189.038 269.919 189.436 269.405 190.234C268.892 191.031 268.634 192.029 268.634 193.229V193.462ZM266.54 193.229C266.54 191.536 267.001 190.141 267.923 189.043C268.844 187.946 270.094 187.397 271.674 187.397C273.27 187.397 274.529 187.944 275.454 189.038C276.378 190.132 276.842 191.529 276.842 193.229V193.462C276.842 195.169 276.381 196.567 275.459 197.653C274.538 198.739 273.283 199.283 271.697 199.283C270.109 199.283 268.853 198.738 267.928 197.647C267.002 196.558 266.54 195.162 266.54 193.462V193.229Z" fill="white"/>
<path d="M284.381 189.038C283.651 189.038 283.047 189.318 282.568 189.88C282.091 190.441 281.798 191.158 281.692 192.033L281.713 192.086H286.9V191.916C286.9 191.084 286.695 190.396 286.284 189.852C285.872 189.309 285.238 189.038 284.381 189.038ZM284.71 199.283C283.059 199.283 281.771 198.757 280.847 197.705C279.921 196.655 279.459 195.272 279.459 193.556V193.091C279.459 191.447 279.935 190.087 280.889 189.011C281.842 187.935 283.006 187.398 284.381 187.398C285.919 187.398 287.072 187.873 287.841 188.827C288.61 189.778 288.994 191.045 288.994 192.626V193.726H281.638L281.606 193.779C281.606 194.929 281.862 195.862 282.371 196.578C282.882 197.295 283.662 197.652 284.71 197.652C285.419 197.652 286.041 197.552 286.576 197.351C287.111 197.15 287.57 196.873 287.952 196.52L288.772 197.874C288.36 198.27 287.818 198.604 287.145 198.875C286.472 199.146 285.659 199.283 284.71 199.283Z" fill="white"/>
<path d="M301.2 199.06H299.106V194.192H293.983V199.06H291.888V187.609H293.983V192.561H299.106V187.609H301.2V199.06Z" fill="white"/>
<path d="M312.036 187.609H314.129V199.06H312.036V190.933L311.971 190.912L306.89 199.06H304.807V187.609H306.89V195.737L306.953 195.758L312.036 187.609Z" fill="white"/>
<path d="M319.777 191.133C319.777 191.641 319.95 192.076 320.297 192.435C320.645 192.794 321.166 192.974 321.86 192.974H324.848V189.228H322.083C321.326 189.228 320.752 189.417 320.361 189.794C319.971 190.172 319.777 190.618 319.777 191.133ZM326.942 187.609V199.06H324.848V194.616H322.009L319.288 199.06H317.034L319.947 194.309C319.217 194.047 318.655 193.634 318.261 193.07C317.868 192.505 317.672 191.853 317.672 191.112C317.672 190.082 318.063 189.24 318.847 188.588C319.63 187.936 320.708 187.609 322.083 187.609H326.942Z" fill="white"/>
<path d="M140.76 51.056V76.1406H149.855V50.7889C149.855 48.3905 151.809 46.4457 154.218 46.4457H167.189V37.3906H154.486C146.905 37.3906 140.76 43.5086 140.76 51.056Z" fill="white"/>
<path d="M199.846 37.3903L190.761 54.644L180.72 37.3903H170.215L185.752 64.1041L184.779 65.8425C184.279 66.7873 183.301 67.3745 182.231 67.3745H175.799V76.4295H182.231C186.688 76.4295 190.748 73.9914 192.825 70.0643L210.176 37.3903H199.846Z" fill="white"/>
<path d="M219.426 60.0134L225.036 49.3414C225.875 47.582 227.683 46.4463 229.639 46.4463H232.349C232.98 46.4463 233.492 46.9551 233.492 47.5843V60.0134H219.426ZM235.725 37.3901H229.639C224.192 37.3901 219.16 40.5546 216.9 45.2984L200.677 76.1589H210.939L214.666 69.0685H233.492V76.1589H242.589V44.2234C242.589 40.4497 239.516 37.3901 235.725 37.3901Z" fill="white"/>
<path d="M279.428 37.3903H258.832C255.041 37.3903 251.968 40.4499 251.968 44.2236V76.073H261.065V47.5756C261.065 46.952 261.573 46.4454 262.199 46.4454H276.061C276.687 46.4454 277.195 46.952 277.195 47.5756V76.0554H286.292V44.2236C286.292 40.4499 283.219 37.3903 279.428 37.3903Z" fill="white"/>
<path d="M53.8776 41.5172C41.2375 41.6783 0 43.2643 0 56.9109C0 71.5818 47.6191 72.3247 57.1659 72.3247C66.7117 72.3247 114.331 71.5818 114.331 56.9109C114.331 50.4055 105.738 47.4265 99.2771 45.7521C92.2292 43.9266 82.7089 42.601 72.1975 41.9531C72.3693 44.7334 72.4902 47.5878 72.5644 50.4906C91.7724 51.7378 101.931 54.9629 105.054 56.9232C100.825 59.6428 84.5161 63.8192 57.1659 63.8192C29.7671 63.8192 13.4494 59.6273 9.25307 56.9077C13.2366 54.3051 28.1639 50.3504 53.9862 50.0214C56.3455 49.9916 58.2336 48.0634 58.2026 45.7158C58.1726 43.3847 56.2668 41.5172 53.933 41.5172C53.9142 41.5172 53.8964 41.5172 53.8776 41.5172" fill="white"/>
<path d="M41.6833 56.9105C41.6833 66.4126 42.4294 113.82 57.1661 113.82C63.6973 113.82 66.6897 105.272 68.3715 98.8415C70.2075 91.8217 71.539 82.3351 72.1898 71.8628C69.0246 72.0504 66.0976 72.1653 63.6153 72.2316C62.3636 91.3604 59.1229 101.476 57.1539 104.585C54.421 100.373 50.2246 84.1386 50.2246 56.9105C50.2246 29.6537 54.4298 13.4134 57.1616 9.22141C59.7848 13.2898 63.8725 28.7939 64.0964 54.7704C64.1164 57.1059 66.0245 58.9855 68.3671 58.9855H68.4048C70.763 58.9656 72.6588 57.0451 72.6389 54.6975C72.5191 40.807 71.2663 27.7929 69.111 18.0513C66.3859 5.73581 62.5898 0.000790765 57.1661 0.000790765C42.4294 0.000790765 41.6833 47.4062 41.6833 56.9105" fill="white"/>
</svg>
