<svg width="284" height="115" viewBox="0 0 284 115" fill="none" xmlns="http://www.w3.org/2000/svg">
<path d="M151.469 38.2812V39.8242H144.613V52.5H142.738V38.2812H151.469ZM155.492 51.4062L158.431 41.9336H160.365L156.127 54.1309C156.029 54.3913 155.899 54.6712 155.736 54.9707C155.58 55.2767 155.378 55.5664 155.13 55.8398C154.883 56.1133 154.584 56.3346 154.232 56.5039C153.887 56.6797 153.474 56.7676 152.992 56.7676C152.849 56.7676 152.666 56.748 152.445 56.709C152.224 56.6699 152.067 56.6374 151.976 56.6113L151.966 55.1465C152.018 55.153 152.1 55.1595 152.211 55.166C152.328 55.179 152.409 55.1855 152.455 55.1855C152.865 55.1855 153.213 55.1302 153.5 55.0195C153.786 54.9154 154.027 54.7363 154.222 54.4824C154.424 54.235 154.597 53.8932 154.74 53.457L155.492 51.4062ZM153.334 41.9336L156.078 50.1367L156.546 52.041L155.248 52.7051L151.361 41.9336H153.334ZM168.47 50.0977L172.064 41.9336H173.802L169.095 52.5H167.845L163.157 41.9336H164.896L168.47 50.0977ZM164.368 41.9336V52.5H162.562V41.9336H164.368ZM172.513 52.5V41.9336H174.329V52.5H172.513ZM183.87 50.6934V45.2539C183.87 44.8372 183.785 44.4759 183.616 44.1699C183.453 43.8574 183.206 43.6165 182.874 43.4473C182.542 43.278 182.132 43.1934 181.643 43.1934C181.188 43.1934 180.787 43.2715 180.442 43.4277C180.104 43.584 179.837 43.7891 179.641 44.043C179.453 44.2969 179.358 44.5703 179.358 44.8633H177.552C177.552 44.4857 177.649 44.1113 177.845 43.7402C178.04 43.3691 178.32 43.0339 178.684 42.7344C179.055 42.4284 179.498 42.1875 180.013 42.0117C180.533 41.8294 181.113 41.7383 181.751 41.7383C182.519 41.7383 183.196 41.8685 183.782 42.1289C184.374 42.3893 184.837 42.7832 185.169 43.3105C185.507 43.8314 185.677 44.4857 185.677 45.2734V50.1953C185.677 50.5469 185.706 50.9212 185.764 51.3184C185.83 51.7155 185.924 52.0573 186.048 52.3438V52.5H184.163C184.072 52.2917 184 52.015 183.948 51.6699C183.896 51.3184 183.87 50.9928 183.87 50.6934ZM184.182 46.0938L184.202 47.3633H182.376C181.861 47.3633 181.402 47.4056 180.999 47.4902C180.595 47.5684 180.257 47.6888 179.983 47.8516C179.71 48.0143 179.501 48.2194 179.358 48.4668C179.215 48.7077 179.143 48.9909 179.143 49.3164C179.143 49.6484 179.218 49.9512 179.368 50.2246C179.518 50.498 179.742 50.7161 180.042 50.8789C180.348 51.0352 180.722 51.1133 181.165 51.1133C181.718 51.1133 182.207 50.9961 182.63 50.7617C183.053 50.5273 183.388 50.2409 183.636 49.9023C183.889 49.5638 184.026 49.235 184.046 48.916L184.817 49.7852C184.772 50.0586 184.648 50.3613 184.446 50.6934C184.244 51.0254 183.974 51.3444 183.636 51.6504C183.304 51.9499 182.906 52.2005 182.444 52.4023C181.988 52.5977 181.474 52.6953 180.901 52.6953C180.185 52.6953 179.557 52.5553 179.016 52.2754C178.483 51.9954 178.066 51.6211 177.766 51.1523C177.473 50.6771 177.327 50.1465 177.327 49.5605C177.327 48.9941 177.438 48.4961 177.659 48.0664C177.88 47.6302 178.199 47.2689 178.616 46.9824C179.033 46.6895 179.534 46.4681 180.12 46.3184C180.706 46.1686 181.36 46.0938 182.083 46.0938H184.182ZM196.086 46.5137V47.9785H190.5V46.5137H196.086ZM190.881 41.9336V52.5H189.075V41.9336H190.881ZM197.551 41.9336V52.5H195.735V41.9336H197.551ZM202.814 49.6387L207.688 41.9336H209.504V52.5H207.688V44.7949L202.814 52.5H201.018V41.9336H202.814V49.6387ZM217.111 41.9336V52.5H215.295V41.9336H217.111ZM220.656 41.9336V43.3984H211.818V41.9336H220.656ZM228.907 50.6934V45.2539C228.907 44.8372 228.823 44.4759 228.654 44.1699C228.491 43.8574 228.243 43.6165 227.911 43.4473C227.579 43.278 227.169 43.1934 226.681 43.1934C226.225 43.1934 225.825 43.2715 225.48 43.4277C225.141 43.584 224.874 43.7891 224.679 44.043C224.49 44.2969 224.396 44.5703 224.396 44.8633H222.589C222.589 44.4857 222.687 44.1113 222.882 43.7402C223.077 43.3691 223.357 43.0339 223.722 42.7344C224.093 42.4284 224.536 42.1875 225.05 42.0117C225.571 41.8294 226.15 41.7383 226.788 41.7383C227.557 41.7383 228.234 41.8685 228.82 42.1289C229.412 42.3893 229.874 42.7832 230.206 43.3105C230.545 43.8314 230.714 44.4857 230.714 45.2734V50.1953C230.714 50.5469 230.743 50.9212 230.802 51.3184C230.867 51.7155 230.961 52.0573 231.085 52.3438V52.5H229.2C229.109 52.2917 229.038 52.015 228.986 51.6699C228.933 51.3184 228.907 50.9928 228.907 50.6934ZM229.22 46.0938L229.239 47.3633H227.413C226.899 47.3633 226.44 47.4056 226.036 47.4902C225.633 47.5684 225.294 47.6888 225.021 47.8516C224.747 48.0143 224.539 48.2194 224.396 48.4668C224.252 48.7077 224.181 48.9909 224.181 49.3164C224.181 49.6484 224.256 49.9512 224.405 50.2246C224.555 50.498 224.78 50.7161 225.079 50.8789C225.385 51.0352 225.76 51.1133 226.202 51.1133C226.756 51.1133 227.244 50.9961 227.667 50.7617C228.09 50.5273 228.426 50.2409 228.673 49.9023C228.927 49.5638 229.064 49.235 229.083 48.916L229.855 49.7852C229.809 50.0586 229.685 50.3613 229.484 50.6934C229.282 51.0254 229.012 51.3444 228.673 51.6504C228.341 51.9499 227.944 52.2005 227.482 52.4023C227.026 52.5977 226.512 52.6953 225.939 52.6953C225.223 52.6953 224.594 52.5553 224.054 52.2754C223.52 51.9954 223.103 51.6211 222.804 51.1523C222.511 50.6771 222.364 50.1465 222.364 49.5605C222.364 48.9941 222.475 48.4961 222.696 48.0664C222.918 47.6302 223.237 47.2689 223.654 46.9824C224.07 46.6895 224.571 46.4681 225.157 46.3184C225.743 46.1686 226.398 46.0938 227.12 46.0938H229.22ZM235.762 43.9648V56.5625H233.946V41.9336H235.606L235.762 43.9648ZM242.882 47.1289V47.334C242.882 48.1022 242.79 48.8151 242.608 49.4727C242.426 50.1237 242.159 50.6901 241.807 51.1719C241.462 51.6536 241.036 52.028 240.528 52.2949C240.02 52.5618 239.438 52.6953 238.78 52.6953C238.11 52.6953 237.517 52.5846 237.003 52.3633C236.488 52.1419 236.052 51.8197 235.694 51.3965C235.336 50.9733 235.05 50.4655 234.835 49.873C234.626 49.2806 234.483 48.6133 234.405 47.8711V46.7773C234.483 45.9961 234.63 45.2962 234.845 44.6777C235.059 44.0592 235.343 43.5319 235.694 43.0957C236.052 42.653 236.485 42.3177 236.993 42.0898C237.501 41.8555 238.087 41.7383 238.751 41.7383C239.415 41.7383 240.004 41.8685 240.518 42.1289C241.033 42.3828 241.466 42.7474 241.817 43.2227C242.169 43.6979 242.432 44.2676 242.608 44.9316C242.79 45.5892 242.882 46.3216 242.882 47.1289ZM241.065 47.334V47.1289C241.065 46.6016 241.01 46.1068 240.899 45.6445C240.789 45.1758 240.616 44.7656 240.382 44.4141C240.154 44.056 239.861 43.776 239.503 43.5742C239.145 43.3659 238.718 43.2617 238.223 43.2617C237.768 43.2617 237.371 43.3398 237.032 43.4961C236.7 43.6523 236.417 43.8639 236.182 44.1309C235.948 44.3913 235.756 44.6908 235.606 45.0293C235.463 45.3613 235.356 45.7064 235.284 46.0645V48.5938C235.414 49.0495 235.596 49.4792 235.831 49.8828C236.065 50.2799 236.378 50.6022 236.768 50.8496C237.159 51.0905 237.651 51.2109 238.243 51.2109C238.731 51.2109 239.151 51.11 239.503 50.9082C239.861 50.6999 240.154 50.4167 240.382 50.0586C240.616 49.7005 240.789 49.2904 240.899 48.8281C241.01 48.3594 241.065 47.8613 241.065 47.334ZM252.754 46.5137V47.9785H247.168V46.5137H252.754ZM247.549 41.9336V52.5H245.743V41.9336H247.549ZM254.219 41.9336V52.5H252.403V41.9336H254.219ZM259.014 45.5664H262.188C263.04 45.5664 263.76 45.7161 264.346 46.0156C264.932 46.3086 265.374 46.7155 265.674 47.2363C265.98 47.7507 266.133 48.3366 266.133 48.9941C266.133 49.4824 266.048 49.9414 265.879 50.3711C265.71 50.7943 265.456 51.1654 265.117 51.4844C264.785 51.8034 264.372 52.054 263.877 52.2363C263.389 52.4121 262.826 52.5 262.188 52.5H257.695V41.9336H259.502V51.0156H262.188C262.708 51.0156 263.125 50.9212 263.438 50.7324C263.75 50.5436 263.975 50.2995 264.111 50C264.248 49.7005 264.316 49.388 264.316 49.0625C264.316 48.7435 264.248 48.431 264.111 48.125C263.975 47.819 263.75 47.5651 263.438 47.3633C263.125 47.1549 262.708 47.0508 262.188 47.0508H259.014V45.5664ZM269.893 41.9336V52.5H268.086V41.9336H269.893ZM275.41 49.6387L280.283 41.9336H282.099V52.5H280.283V44.7949L275.41 52.5H273.613V41.9336H275.41V49.6387ZM279.296 38.1055H280.761C280.761 38.6133 280.644 39.0658 280.41 39.4629C280.175 39.8535 279.84 40.1595 279.404 40.3809C278.968 40.6022 278.45 40.7129 277.851 40.7129C276.946 40.7129 276.23 40.472 275.703 39.9902C275.182 39.502 274.921 38.8737 274.921 38.1055H276.386C276.386 38.4896 276.497 38.8281 276.718 39.1211C276.94 39.4141 277.317 39.5605 277.851 39.5605C278.372 39.5605 278.743 39.4141 278.964 39.1211C279.186 38.8281 279.296 38.4896 279.296 38.1055ZM154.525 71.4023V71.6074C154.525 72.3496 154.444 73.0332 154.281 73.6582C154.118 74.2767 153.874 74.8138 153.549 75.2695C153.23 75.7253 152.833 76.0801 152.357 76.334C151.882 76.5814 151.332 76.7051 150.707 76.7051C150.193 76.7051 149.74 76.6367 149.35 76.5C148.959 76.3568 148.627 76.1517 148.354 75.8848C148.087 75.6178 147.872 75.2988 147.709 74.9277C147.553 74.5501 147.445 74.127 147.387 73.6582V68.9707C147.445 68.4694 147.553 68.0202 147.709 67.623C147.872 67.2259 148.087 66.8874 148.354 66.6074C148.627 66.3275 148.956 66.1126 149.34 65.9629C149.724 65.8132 150.173 65.7383 150.688 65.7383C151.195 65.7383 151.651 65.8294 152.055 66.0117C152.465 66.1875 152.823 66.4414 153.129 66.7734C153.441 67.1055 153.699 67.5059 153.9 67.9746C154.109 68.4368 154.265 68.9577 154.369 69.5371C154.473 70.1165 154.525 70.7383 154.525 71.4023ZM152.719 71.6074V71.4023C152.719 70.9466 152.686 70.5137 152.621 70.1035C152.562 69.6868 152.468 69.306 152.338 68.9609C152.214 68.6094 152.051 68.3034 151.85 68.043C151.648 67.7826 151.404 67.5807 151.117 67.4375C150.837 67.2943 150.515 67.2227 150.15 67.2227C149.76 67.2227 149.434 67.2715 149.174 67.3691C148.92 67.4668 148.721 67.597 148.578 67.7598C148.435 67.916 148.331 68.082 148.266 68.2578V74.3809C148.344 74.5241 148.458 74.6608 148.607 74.791C148.757 74.9147 148.959 75.0189 149.213 75.1035C149.467 75.1816 149.786 75.2207 150.17 75.2207C150.626 75.2207 151.013 75.1296 151.332 74.9473C151.658 74.7585 151.921 74.498 152.123 74.166C152.331 73.834 152.481 73.4499 152.572 73.0137C152.67 72.5775 152.719 72.1087 152.719 71.6074ZM141.977 71.6074V71.4023C141.977 70.7383 142.029 70.1165 142.133 69.5371C142.237 68.9577 142.393 68.4368 142.602 67.9746C142.81 67.5059 143.067 67.1055 143.373 66.7734C143.686 66.4414 144.044 66.1875 144.447 66.0117C144.857 65.8294 145.316 65.7383 145.824 65.7383C146.326 65.7383 146.762 65.8132 147.133 65.9629C147.51 66.1126 147.829 66.3275 148.09 66.6074C148.35 66.8874 148.559 67.2259 148.715 67.623C148.871 68.0202 148.982 68.4694 149.047 68.9707V73.4727C148.988 73.9674 148.881 74.4134 148.725 74.8105C148.568 75.2077 148.36 75.5495 148.1 75.8359C147.839 76.1159 147.517 76.3307 147.133 76.4805C146.755 76.6302 146.312 76.7051 145.805 76.7051C145.18 76.7051 144.63 76.5814 144.154 76.334C143.679 76.0801 143.279 75.7253 142.953 75.2695C142.634 74.8138 142.39 74.2767 142.221 73.6582C142.058 73.0332 141.977 72.3496 141.977 71.6074ZM143.793 71.4023V71.6074C143.793 72.1087 143.835 72.5775 143.92 73.0137C144.011 73.4499 144.151 73.834 144.34 74.166C144.535 74.498 144.789 74.7585 145.102 74.9473C145.414 75.1296 145.798 75.2207 146.254 75.2207C146.645 75.2207 146.967 75.1719 147.221 75.0742C147.475 74.9766 147.676 74.8496 147.826 74.6934C147.976 74.5371 148.09 74.3743 148.168 74.2051V68.2578C148.103 68.082 147.995 67.916 147.846 67.7598C147.702 67.597 147.504 67.4668 147.25 67.3691C146.996 67.2715 146.671 67.2227 146.273 67.2227C145.818 67.2227 145.43 67.3333 145.111 67.5547C144.792 67.776 144.535 68.0788 144.34 68.4629C144.151 68.847 144.011 69.293 143.92 69.8008C143.835 70.3021 143.793 70.8359 143.793 71.4023ZM147.27 80.5625V61.5H149.086V80.5625H147.27ZM163.519 74.6934V69.2539C163.519 68.8372 163.435 68.4759 163.265 68.1699C163.102 67.8574 162.855 67.6165 162.523 67.4473C162.191 67.278 161.781 67.1934 161.293 67.1934C160.837 67.1934 160.436 67.2715 160.091 67.4277C159.753 67.584 159.486 67.7891 159.291 68.043C159.102 68.2969 159.007 68.5703 159.007 68.8633H157.201C157.201 68.4857 157.298 68.1113 157.494 67.7402C157.689 67.3691 157.969 67.0339 158.334 66.7344C158.705 66.4284 159.147 66.1875 159.662 66.0117C160.183 65.8294 160.762 65.7383 161.4 65.7383C162.168 65.7383 162.845 65.8685 163.431 66.1289C164.024 66.3893 164.486 66.7832 164.818 67.3105C165.157 67.8314 165.326 68.4857 165.326 69.2734V74.1953C165.326 74.5469 165.355 74.9212 165.414 75.3184C165.479 75.7155 165.573 76.0573 165.697 76.3438V76.5H163.812C163.721 76.2917 163.649 76.015 163.597 75.6699C163.545 75.3184 163.519 74.9928 163.519 74.6934ZM163.832 70.0938L163.851 71.3633H162.025C161.511 71.3633 161.052 71.4056 160.648 71.4902C160.244 71.5684 159.906 71.6888 159.632 71.8516C159.359 72.0143 159.151 72.2194 159.007 72.4668C158.864 72.7077 158.793 72.9909 158.793 73.3164C158.793 73.6484 158.867 73.9512 159.017 74.2246C159.167 74.498 159.392 74.7161 159.691 74.8789C159.997 75.0352 160.371 75.1133 160.814 75.1133C161.367 75.1133 161.856 74.9961 162.279 74.7617C162.702 74.5273 163.037 74.2409 163.285 73.9023C163.539 73.5638 163.675 73.235 163.695 72.916L164.466 73.7852C164.421 74.0586 164.297 74.3613 164.095 74.6934C163.893 75.0254 163.623 75.3444 163.285 75.6504C162.953 75.9499 162.556 76.2005 162.093 76.4023C161.638 76.5977 161.123 76.6953 160.55 76.6953C159.834 76.6953 159.206 76.5553 158.666 76.2754C158.132 75.9954 157.715 75.6211 157.416 75.1523C157.123 74.6771 156.976 74.1465 156.976 73.5605C156.976 72.9941 157.087 72.4961 157.308 72.0664C157.53 71.6302 157.849 71.2689 158.265 70.9824C158.682 70.6895 159.183 70.4681 159.769 70.3184C160.355 70.1686 161.009 70.0938 161.732 70.0938H163.832ZM170.53 65.9336V76.5H168.724V65.9336H170.53ZM177.464 65.9336L172.454 71.9883H169.925L169.652 70.4062H171.722L175.267 65.9336H177.464ZM175.521 76.5L171.634 71.7148L172.796 70.4062L177.816 76.5H175.521ZM182.757 75.4062L185.696 65.9336H187.63L183.391 78.1309C183.294 78.3913 183.164 78.6712 183.001 78.9707C182.845 79.2767 182.643 79.5664 182.395 79.8398C182.148 80.1133 181.848 80.3346 181.497 80.5039C181.152 80.6797 180.738 80.7676 180.257 80.7676C180.113 80.7676 179.931 80.748 179.71 80.709C179.488 80.6699 179.332 80.6374 179.241 80.6113L179.231 79.1465C179.283 79.153 179.365 79.1595 179.475 79.166C179.593 79.179 179.674 79.1855 179.72 79.1855C180.13 79.1855 180.478 79.1302 180.764 79.0195C181.051 78.9154 181.292 78.7363 181.487 78.4824C181.689 78.235 181.861 77.8932 182.005 77.457L182.757 75.4062ZM180.598 65.9336L183.343 74.1367L183.811 76.041L182.513 76.7051L178.626 65.9336H180.598ZM196.311 65.9336V67.4277H191.204V65.9336H196.311ZM197.903 65.9336V76.5H196.096V65.9336H197.903ZM190.764 65.9336H192.58L192.307 71.0312C192.261 71.819 192.187 72.5156 192.082 73.1211C191.985 73.7201 191.848 74.2344 191.672 74.6641C191.503 75.0938 191.288 75.4453 191.028 75.7188C190.774 75.9857 190.468 76.1842 190.11 76.3145C189.752 76.4382 189.338 76.5 188.87 76.5H188.303V74.9082L188.694 74.8789C188.974 74.8594 189.211 74.7943 189.407 74.6836C189.608 74.5729 189.778 74.4102 189.914 74.1953C190.051 73.974 190.162 73.6908 190.246 73.3457C190.338 73.0007 190.406 72.5905 190.452 72.1152C190.504 71.64 190.543 71.0866 190.569 70.4551L190.764 65.9336ZM202.697 69.5664H205.871C206.724 69.5664 207.443 69.7161 208.029 70.0156C208.615 70.3086 209.058 70.7155 209.357 71.2363C209.663 71.7507 209.816 72.3366 209.816 72.9941C209.816 73.4824 209.732 73.9414 209.562 74.3711C209.393 74.7943 209.139 75.1654 208.801 75.4844C208.469 75.8034 208.055 76.054 207.561 76.2363C207.072 76.4121 206.509 76.5 205.871 76.5H201.379V65.9336H203.186V75.0156H205.871C206.392 75.0156 206.809 74.9212 207.121 74.7324C207.434 74.5436 207.658 74.2995 207.795 74C207.932 73.7005 208 73.388 208 73.0625C208 72.7435 207.932 72.431 207.795 72.125C207.658 71.819 207.434 71.5651 207.121 71.3633C206.809 71.1549 206.392 71.0508 205.871 71.0508H202.697V69.5664ZM216.095 65.9336V76.5H214.279V65.9336H216.095ZM219.64 65.9336V67.3984H210.802V65.9336H219.64ZM225.421 76.6953C224.685 76.6953 224.018 76.5716 223.419 76.3242C222.827 76.0703 222.316 75.7155 221.886 75.2598C221.463 74.804 221.137 74.2637 220.909 73.6387C220.682 73.0137 220.568 72.3301 220.568 71.5879V71.1777C220.568 70.3184 220.695 69.5534 220.948 68.8828C221.202 68.2057 221.547 67.6328 221.984 67.1641C222.42 66.6953 222.915 66.3405 223.468 66.0996C224.021 65.8587 224.594 65.7383 225.187 65.7383C225.942 65.7383 226.593 65.8685 227.14 66.1289C227.693 66.3893 228.146 66.7539 228.497 67.2227C228.849 67.6849 229.109 68.2318 229.279 68.8633C229.448 69.4883 229.532 70.1719 229.532 70.9141V71.7246H221.642V70.25H227.726V70.1133C227.7 69.6445 227.602 69.1888 227.433 68.7461C227.27 68.3034 227.01 67.9388 226.652 67.6523C226.293 67.3659 225.805 67.2227 225.187 67.2227C224.777 67.2227 224.399 67.3105 224.054 67.4863C223.709 67.6556 223.413 67.9095 223.165 68.248C222.918 68.5866 222.726 69 222.589 69.4883C222.452 69.9766 222.384 70.5397 222.384 71.1777V71.5879C222.384 72.0892 222.452 72.5612 222.589 73.0039C222.732 73.4401 222.937 73.8242 223.204 74.1562C223.478 74.4883 223.807 74.7487 224.191 74.9375C224.581 75.1263 225.024 75.2207 225.519 75.2207C226.157 75.2207 226.697 75.0905 227.14 74.8301C227.583 74.5697 227.97 74.2214 228.302 73.7852L229.396 74.6543C229.168 74.9993 228.878 75.3281 228.527 75.6406C228.175 75.9531 227.742 76.207 227.228 76.4023C226.72 76.5977 226.118 76.6953 225.421 76.6953ZM236.231 65.9336V76.5H234.415V65.9336H236.231ZM239.776 65.9336V67.3984H230.938V65.9336H239.776Z" fill="#005AAA"/>
<path d="M113.059 1.25081C112.007 0.231599 110.512 -0.20126 109.065 0.0880492C104.956 0.916225 68.0359 9.04892 37.4906 39.2573C21.2398 55.3295 13.1083 69.7355 13.3216 82.0753C13.3997 86.626 14.6268 90.0014 15.8728 92.2806L1.25104 106.742C-0.417014 108.391 -0.417014 111.077 1.25104 112.727C2.0594 113.526 3.13235 113.965 4.27567 113.965C5.41784 113.965 6.49191 113.526 7.29915 112.727L60.2383 60.3684C61.0478 59.5687 61.4921 58.5075 61.4921 57.3768C61.4921 56.2473 61.0478 55.1848 60.2383 54.3855C58.5724 52.737 55.8581 52.7348 54.1902 54.3855L22.4233 85.8033C22.123 84.7364 21.9008 83.4524 21.8751 81.9306C21.7568 75.0843 25.42 63.1609 43.5396 45.2402C66.2563 22.7734 92.7699 13.2671 104.456 9.95C103.276 14.4994 101.185 21.7686 97.5954 32.2919L84.5969 32.5835C83.1725 32.6145 81.8413 33.3276 81.0341 34.4883C80.2269 35.6478 80.0304 37.1286 80.5073 38.4457L85.4354 52.2122C82.6109 56.3532 72.5746 69.2938 49.3903 83.4423C47.3829 84.6669 46.7574 87.2784 47.9959 89.264C49.2328 91.2481 51.8746 91.8654 53.8829 90.6418C83.0987 72.813 92.8347 56.6457 93.8473 54.8635C94.4846 53.7451 94.5987 52.4223 94.162 51.2407L90.4663 40.915L100.652 40.6876C102.498 40.65 104.15 39.4573 104.766 37.7159C112.076 16.6516 114.01 6.90891 114.322 5.17197C114.585 3.73425 114.112 2.27002 113.059 1.25081Z" fill="url(#paint0_linear_23_28)"/>
<defs>
<linearGradient id="paint0_linear_23_28" x1="9.80587e-07" y1="74.6932" x2="114.394" y2="74.7434" gradientUnits="userSpaceOnUse">
<stop stop-color="#005AAA"/>
<stop offset="0.504094" stop-color="#0088AA"/>
<stop offset="1" stop-color="#F2671F"/>
</linearGradient>
</defs>
</svg>
