<svg width="317" height="115" viewBox="0 0 317 115" fill="none" xmlns="http://www.w3.org/2000/svg">
<path d="M144.613 25.2383L151.615 14.2812H153.5V28.5H151.615V17.5332L144.613 28.5H142.738V14.2812H144.613V25.2383ZM164.222 22.5137V23.9785H158.636V22.5137H164.222ZM159.017 17.9336V28.5H157.211V17.9336H159.017ZM165.687 17.9336V28.5H163.871V17.9336H165.687ZM173.226 27.2109C173.655 27.2109 174.053 27.123 174.417 26.9473C174.782 26.7715 175.081 26.5306 175.316 26.2246C175.55 25.9121 175.683 25.5573 175.716 25.1602H177.435C177.402 25.7852 177.191 26.3678 176.8 26.9082C176.416 27.4421 175.911 27.875 175.286 28.207C174.661 28.5326 173.974 28.6953 173.226 28.6953C172.432 28.6953 171.738 28.5553 171.146 28.2754C170.56 27.9954 170.071 27.6113 169.681 27.123C169.297 26.6348 169.007 26.0749 168.812 25.4434C168.623 24.8053 168.529 24.1315 168.529 23.4219V23.0117C168.529 22.3021 168.623 21.6315 168.812 21C169.007 20.362 169.297 19.7988 169.681 19.3105C170.071 18.8223 170.56 18.4382 171.146 18.1582C171.738 17.8783 172.432 17.7383 173.226 17.7383C174.053 17.7383 174.775 17.9076 175.394 18.2461C176.012 18.5781 176.497 19.0339 176.849 19.6133C177.207 20.1862 177.402 20.8372 177.435 21.5664H175.716C175.683 21.1302 175.56 20.7363 175.345 20.3848C175.137 20.0332 174.85 19.7533 174.486 19.5449C174.127 19.3301 173.708 19.2227 173.226 19.2227C172.672 19.2227 172.207 19.3333 171.829 19.5547C171.458 19.7695 171.162 20.0625 170.941 20.4336C170.726 20.7982 170.57 21.2051 170.472 21.6543C170.381 22.097 170.335 22.5495 170.335 23.0117V23.4219C170.335 23.8841 170.381 24.3398 170.472 24.7891C170.563 25.2383 170.716 25.6452 170.931 26.0098C171.152 26.3743 171.448 26.6673 171.82 26.8887C172.197 27.1035 172.666 27.2109 173.226 27.2109ZM184.173 17.9336V28.5H182.356V17.9336H184.173ZM187.718 17.9336V19.3984H178.88V17.9336H187.718ZM191.848 25.6387L196.721 17.9336H198.537V28.5H196.721V20.7949L191.848 28.5H190.051V17.9336H191.848V25.6387ZM206.145 17.9336V28.5H204.328V17.9336H206.145ZM209.689 17.9336V19.3984H200.852V17.9336H209.689ZM214.953 27.4062L217.892 17.9336H219.826L215.588 30.1309C215.49 30.3913 215.36 30.6712 215.197 30.9707C215.041 31.2767 214.839 31.5664 214.591 31.8398C214.344 32.1133 214.045 32.3346 213.693 32.5039C213.348 32.6797 212.935 32.7676 212.453 32.7676C212.31 32.7676 212.127 32.748 211.906 32.709C211.685 32.6699 211.528 32.6374 211.437 32.6113L211.427 31.1465C211.479 31.153 211.561 31.1595 211.671 31.166C211.789 31.179 211.87 31.1855 211.916 31.1855C212.326 31.1855 212.674 31.1302 212.961 31.0195C213.247 30.9154 213.488 30.7363 213.683 30.4824C213.885 30.235 214.058 29.8932 214.201 29.457L214.953 27.4062ZM212.795 17.9336L215.539 26.1367L216.007 28.041L214.709 28.7051L210.822 17.9336H212.795ZM226.163 17.9336V28.5H224.347V17.9336H226.163ZM229.708 17.9336V19.3984H220.87V17.9336H229.708ZM148.607 50.6934V45.2539C148.607 44.8372 148.523 44.4759 148.354 44.1699C148.191 43.8574 147.943 43.6165 147.611 43.4473C147.279 43.278 146.869 43.1934 146.381 43.1934C145.925 43.1934 145.525 43.2715 145.18 43.4277C144.841 43.584 144.574 43.7891 144.379 44.043C144.19 44.2969 144.096 44.5703 144.096 44.8633H142.289C142.289 44.4857 142.387 44.1113 142.582 43.7402C142.777 43.3691 143.057 43.0339 143.422 42.7344C143.793 42.4284 144.236 42.1875 144.75 42.0117C145.271 41.8294 145.85 41.7383 146.488 41.7383C147.257 41.7383 147.934 41.8685 148.52 42.1289C149.112 42.3893 149.574 42.7832 149.906 43.3105C150.245 43.8314 150.414 44.4857 150.414 45.2734V50.1953C150.414 50.5469 150.443 50.9212 150.502 51.3184C150.567 51.7155 150.661 52.0573 150.785 52.3438V52.5H148.9C148.809 52.2917 148.738 52.015 148.686 51.6699C148.633 51.3184 148.607 50.9928 148.607 50.6934ZM148.92 46.0938L148.939 47.3633H147.113C146.599 47.3633 146.14 47.4056 145.736 47.4902C145.333 47.5684 144.994 47.6888 144.721 47.8516C144.447 48.0143 144.239 48.2194 144.096 48.4668C143.952 48.7077 143.881 48.9909 143.881 49.3164C143.881 49.6484 143.956 49.9512 144.105 50.2246C144.255 50.498 144.48 50.7161 144.779 50.8789C145.085 51.0352 145.46 51.1133 145.902 51.1133C146.456 51.1133 146.944 50.9961 147.367 50.7617C147.79 50.5273 148.126 50.2409 148.373 49.9023C148.627 49.5638 148.764 49.235 148.783 48.916L149.555 49.7852C149.509 50.0586 149.385 50.3613 149.184 50.6934C148.982 51.0254 148.712 51.3444 148.373 51.6504C148.041 51.9499 147.644 52.2005 147.182 52.4023C146.726 52.5977 146.212 52.6953 145.639 52.6953C144.923 52.6953 144.294 52.5553 143.754 52.2754C143.22 51.9954 142.803 51.6211 142.504 51.1523C142.211 50.6771 142.064 50.1465 142.064 49.5605C142.064 48.9941 142.175 48.4961 142.396 48.0664C142.618 47.6302 142.937 47.2689 143.354 46.9824C143.77 46.6895 144.271 46.4681 144.857 46.3184C145.443 46.1686 146.098 46.0938 146.82 46.0938H148.92ZM157.357 43.2227C156.96 43.2227 156.579 43.3105 156.214 43.4863C155.856 43.6621 155.56 43.9062 155.326 44.2188C155.098 44.5247 154.984 44.8796 154.984 45.2832H153.255C153.255 44.6517 153.451 44.069 153.841 43.5352C154.232 42.9948 154.74 42.5618 155.365 42.2363C155.99 41.9043 156.654 41.7383 157.357 41.7383C158.099 41.7383 158.757 41.8783 159.33 42.1582C159.903 42.4382 160.384 42.8223 160.775 43.3105C161.172 43.7988 161.472 44.362 161.673 45C161.875 45.6315 161.976 46.3021 161.976 47.0117V47.4219C161.976 48.1315 161.872 48.8053 161.664 49.4434C161.462 50.0749 161.162 50.638 160.765 51.1328C160.375 51.6211 159.893 52.0052 159.32 52.2852C158.754 52.5651 158.102 52.7051 157.367 52.7051C156.579 52.7051 155.873 52.5358 155.248 52.1973C154.629 51.8587 154.141 51.403 153.783 50.8301C153.431 50.2507 153.255 49.5996 153.255 48.877H154.984C154.984 49.3132 155.088 49.7103 155.296 50.0684C155.511 50.4199 155.798 50.6999 156.156 50.9082C156.514 51.1165 156.918 51.2207 157.367 51.2207C157.855 51.2207 158.275 51.11 158.627 50.8887C158.985 50.6673 159.278 50.3743 159.505 50.0098C159.733 49.6452 159.899 49.2383 160.004 48.7891C160.114 48.3333 160.17 47.8776 160.17 47.4219V47.0117C160.17 46.5495 160.114 46.0938 160.004 45.6445C159.899 45.1953 159.733 44.7884 159.505 44.4238C159.284 44.0592 158.994 43.7695 158.636 43.5547C158.285 43.3333 157.858 43.2227 157.357 43.2227ZM161.048 46.377V47.8516H156.175V46.377H161.048ZM166.624 43.9648V56.5625H164.808V41.9336H166.468L166.624 43.9648ZM173.743 47.1289V47.334C173.743 48.1022 173.652 48.8151 173.47 49.4727C173.288 50.1237 173.021 50.6901 172.669 51.1719C172.324 51.6536 171.898 52.028 171.39 52.2949C170.882 52.5618 170.299 52.6953 169.642 52.6953C168.971 52.6953 168.379 52.5846 167.864 52.3633C167.35 52.1419 166.914 51.8197 166.556 51.3965C166.198 50.9733 165.911 50.4655 165.696 49.873C165.488 49.2806 165.345 48.6133 165.267 47.8711V46.7773C165.345 45.9961 165.491 45.2962 165.706 44.6777C165.921 44.0592 166.204 43.5319 166.556 43.0957C166.914 42.653 167.347 42.3177 167.855 42.0898C168.362 41.8555 168.948 41.7383 169.612 41.7383C170.277 41.7383 170.866 41.8685 171.38 42.1289C171.894 42.3828 172.327 42.7474 172.679 43.2227C173.03 43.6979 173.294 44.2676 173.47 44.9316C173.652 45.5892 173.743 46.3216 173.743 47.1289ZM171.927 47.334V47.1289C171.927 46.6016 171.872 46.1068 171.761 45.6445C171.65 45.1758 171.478 44.7656 171.243 44.4141C171.015 44.056 170.723 43.776 170.364 43.5742C170.006 43.3659 169.58 43.2617 169.085 43.2617C168.629 43.2617 168.232 43.3398 167.894 43.4961C167.562 43.6523 167.279 43.8639 167.044 44.1309C166.81 44.3913 166.618 44.6908 166.468 45.0293C166.325 45.3613 166.217 45.7064 166.146 46.0645V48.5938C166.276 49.0495 166.458 49.4792 166.693 49.8828C166.927 50.2799 167.239 50.6022 167.63 50.8496C168.021 51.0905 168.512 51.2109 169.105 51.2109C169.593 51.2109 170.013 51.11 170.364 50.9082C170.723 50.6999 171.015 50.4167 171.243 50.0586C171.478 49.7005 171.65 49.2904 171.761 48.8281C171.872 48.3594 171.927 47.8613 171.927 47.334ZM175.97 47.334V47.1094C175.97 46.3477 176.08 45.6413 176.302 44.9902C176.523 44.3327 176.842 43.763 177.259 43.2812C177.675 42.793 178.18 42.4154 178.772 42.1484C179.365 41.875 180.029 41.7383 180.764 41.7383C181.507 41.7383 182.174 41.875 182.766 42.1484C183.365 42.4154 183.873 42.793 184.29 43.2812C184.713 43.763 185.035 44.3327 185.257 44.9902C185.478 45.6413 185.589 46.3477 185.589 47.1094V47.334C185.589 48.0957 185.478 48.8021 185.257 49.4531C185.035 50.1042 184.713 50.6738 184.29 51.1621C183.873 51.6439 183.369 52.0215 182.776 52.2949C182.19 52.5618 181.526 52.6953 180.784 52.6953C180.042 52.6953 179.374 52.5618 178.782 52.2949C178.19 52.0215 177.682 51.6439 177.259 51.1621C176.842 50.6738 176.523 50.1042 176.302 49.4531C176.08 48.8021 175.97 48.0957 175.97 47.334ZM177.776 47.1094V47.334C177.776 47.8613 177.838 48.3594 177.962 48.8281C178.085 49.2904 178.271 49.7005 178.518 50.0586C178.772 50.4167 179.088 50.6999 179.466 50.9082C179.843 51.11 180.283 51.2109 180.784 51.2109C181.279 51.2109 181.712 51.11 182.083 50.9082C182.46 50.6999 182.773 50.4167 183.02 50.0586C183.268 49.7005 183.453 49.2904 183.577 48.8281C183.707 48.3594 183.772 47.8613 183.772 47.334V47.1094C183.772 46.5885 183.707 46.097 183.577 45.6348C183.453 45.166 183.264 44.7526 183.011 44.3945C182.763 44.0299 182.451 43.7435 182.073 43.5352C181.702 43.3268 181.266 43.2227 180.764 43.2227C180.27 43.2227 179.833 43.3268 179.456 43.5352C179.085 43.7435 178.772 44.0299 178.518 44.3945C178.271 44.7526 178.085 45.166 177.962 45.6348C177.838 46.097 177.776 46.5885 177.776 47.1094ZM190.217 41.9336V52.5H188.411V41.9336H190.217ZM197.151 41.9336L192.141 47.9883H189.612L189.338 46.4062H191.409L194.954 41.9336H197.151ZM195.207 52.5L191.321 47.7148L192.483 46.4062L197.502 52.5H195.207ZM198.781 47.334V47.1094C198.781 46.3477 198.892 45.6413 199.113 44.9902C199.335 44.3327 199.654 43.763 200.07 43.2812C200.487 42.793 200.992 42.4154 201.584 42.1484C202.176 41.875 202.84 41.7383 203.576 41.7383C204.318 41.7383 204.986 41.875 205.578 42.1484C206.177 42.4154 206.685 42.793 207.102 43.2812C207.525 43.763 207.847 44.3327 208.068 44.9902C208.29 45.6413 208.4 46.3477 208.4 47.1094V47.334C208.4 48.0957 208.29 48.8021 208.068 49.4531C207.847 50.1042 207.525 50.6738 207.102 51.1621C206.685 51.6439 206.18 52.0215 205.588 52.2949C205.002 52.5618 204.338 52.6953 203.596 52.6953C202.854 52.6953 202.186 52.5618 201.594 52.2949C201.001 52.0215 200.493 51.6439 200.07 51.1621C199.654 50.6738 199.335 50.1042 199.113 49.4531C198.892 48.8021 198.781 48.0957 198.781 47.334ZM200.588 47.1094V47.334C200.588 47.8613 200.65 48.3594 200.773 48.8281C200.897 49.2904 201.083 49.7005 201.33 50.0586C201.584 50.4167 201.9 50.6999 202.277 50.9082C202.655 51.11 203.094 51.2109 203.596 51.2109C204.09 51.2109 204.523 51.11 204.895 50.9082C205.272 50.6999 205.585 50.4167 205.832 50.0586C206.079 49.7005 206.265 49.2904 206.389 48.8281C206.519 48.3594 206.584 47.8613 206.584 47.334V47.1094C206.584 46.5885 206.519 46.097 206.389 45.6348C206.265 45.166 206.076 44.7526 205.822 44.3945C205.575 44.0299 205.262 43.7435 204.885 43.5352C204.514 43.3268 204.077 43.2227 203.576 43.2227C203.081 43.2227 202.645 43.3268 202.268 43.5352C201.896 43.7435 201.584 44.0299 201.33 44.3945C201.083 44.7526 200.897 45.166 200.773 45.6348C200.65 46.097 200.588 46.5885 200.588 47.1094ZM215.295 51.2109C215.724 51.2109 216.121 51.123 216.486 50.9473C216.851 50.7715 217.15 50.5306 217.384 50.2246C217.619 49.9121 217.752 49.5573 217.785 49.1602H219.504C219.471 49.7852 219.259 50.3678 218.869 50.9082C218.485 51.4421 217.98 51.875 217.355 52.207C216.73 52.5326 216.043 52.6953 215.295 52.6953C214.5 52.6953 213.807 52.5553 213.214 52.2754C212.629 51.9954 212.14 51.6113 211.75 51.123C211.365 50.6348 211.076 50.0749 210.88 49.4434C210.692 48.8053 210.597 48.1315 210.597 47.4219V47.0117C210.597 46.3021 210.692 45.6315 210.88 45C211.076 44.362 211.365 43.7988 211.75 43.3105C212.14 42.8223 212.629 42.4382 213.214 42.1582C213.807 41.8783 214.5 41.7383 215.295 41.7383C216.121 41.7383 216.844 41.9076 217.463 42.2461C218.081 42.5781 218.566 43.0339 218.918 43.6133C219.276 44.1862 219.471 44.8372 219.504 45.5664H217.785C217.752 45.1302 217.629 44.7363 217.414 44.3848C217.205 44.0332 216.919 43.7533 216.554 43.5449C216.196 43.3301 215.776 43.2227 215.295 43.2227C214.741 43.2227 214.276 43.3333 213.898 43.5547C213.527 43.7695 213.231 44.0625 213.009 44.4336C212.795 44.7982 212.638 45.2051 212.541 45.6543C212.449 46.097 212.404 46.5495 212.404 47.0117V47.4219C212.404 47.8841 212.449 48.3398 212.541 48.7891C212.632 49.2383 212.785 49.6452 213 50.0098C213.221 50.3743 213.517 50.6673 213.888 50.8887C214.266 51.1035 214.735 51.2109 215.295 51.2109ZM228.009 50.0977L231.603 41.9336H233.341L228.634 52.5H227.384L222.696 41.9336H224.435L228.009 50.0977ZM223.907 41.9336V52.5H222.101V41.9336H223.907ZM232.052 52.5V41.9336H233.868V52.5H232.052ZM239.132 49.6387L244.005 41.9336H245.821V52.5H244.005V44.7949L239.132 52.5H237.335V41.9336H239.132V49.6387ZM257.09 41.9336V52.5H255.284V41.9336H257.09ZM256.475 46.7871V48.2715C256.11 48.4082 255.739 48.5319 255.362 48.6426C254.991 48.7467 254.597 48.8314 254.18 48.8965C253.77 48.9551 253.324 48.9844 252.842 48.9844C252.009 48.9844 251.286 48.8411 250.674 48.5547C250.062 48.2617 249.59 47.8223 249.258 47.2363C248.926 46.6439 248.76 45.8984 248.76 45V41.9141H250.567V45C250.567 45.5859 250.655 46.0612 250.83 46.4258C251.006 46.7904 251.263 47.0605 251.602 47.2363C251.94 47.4056 252.354 47.4902 252.842 47.4902C253.311 47.4902 253.75 47.4609 254.161 47.4023C254.577 47.3372 254.974 47.2526 255.352 47.1484C255.736 47.0443 256.11 46.9238 256.475 46.7871ZM264.785 52.6953C264.049 52.6953 263.382 52.5716 262.783 52.3242C262.191 52.0703 261.68 51.7155 261.25 51.2598C260.827 50.804 260.501 50.2637 260.273 49.6387C260.046 49.0137 259.932 48.3301 259.932 47.5879V47.1777C259.932 46.3184 260.059 45.5534 260.312 44.8828C260.566 44.2057 260.911 43.6328 261.348 43.1641C261.784 42.6953 262.279 42.3405 262.832 42.0996C263.385 41.8587 263.958 41.7383 264.551 41.7383C265.306 41.7383 265.957 41.8685 266.504 42.1289C267.057 42.3893 267.51 42.7539 267.861 43.2227C268.213 43.6849 268.473 44.2318 268.643 44.8633C268.812 45.4883 268.896 46.1719 268.896 46.9141V47.7246H261.006V46.25H267.09V46.1133C267.064 45.6445 266.966 45.1888 266.797 44.7461C266.634 44.3034 266.374 43.9388 266.016 43.6523C265.658 43.3659 265.169 43.2227 264.551 43.2227C264.141 43.2227 263.763 43.3105 263.418 43.4863C263.073 43.6556 262.777 43.9095 262.529 44.248C262.282 44.5866 262.09 45 261.953 45.4883C261.816 45.9766 261.748 46.5397 261.748 47.1777V47.5879C261.748 48.0892 261.816 48.5612 261.953 49.0039C262.096 49.4401 262.301 49.8242 262.568 50.1562C262.842 50.4883 263.171 50.7487 263.555 50.9375C263.945 51.1263 264.388 51.2207 264.883 51.2207C265.521 51.2207 266.061 51.0905 266.504 50.8301C266.947 50.5697 267.334 50.2214 267.666 49.7852L268.76 50.6543C268.532 50.9993 268.242 51.3281 267.891 51.6406C267.539 51.9531 267.106 52.207 266.592 52.4023C266.084 52.5977 265.482 52.6953 264.785 52.6953ZM275.634 51.2109C276.064 51.2109 276.461 51.123 276.826 50.9473C277.19 50.7715 277.49 50.5306 277.724 50.2246C277.959 49.9121 278.092 49.5573 278.125 49.1602H279.843C279.811 49.7852 279.599 50.3678 279.209 50.9082C278.824 51.4421 278.32 51.875 277.695 52.207C277.07 52.5326 276.383 52.6953 275.634 52.6953C274.84 52.6953 274.147 52.5553 273.554 52.2754C272.968 51.9954 272.48 51.6113 272.089 51.123C271.705 50.6348 271.416 50.0749 271.22 49.4434C271.032 48.8053 270.937 48.1315 270.937 47.4219V47.0117C270.937 46.3021 271.032 45.6315 271.22 45C271.416 44.362 271.705 43.7988 272.089 43.3105C272.48 42.8223 272.968 42.4382 273.554 42.1582C274.147 41.8783 274.84 41.7383 275.634 41.7383C276.461 41.7383 277.184 41.9076 277.802 42.2461C278.421 42.5781 278.906 43.0339 279.257 43.6133C279.615 44.1862 279.811 44.8372 279.843 45.5664H278.125C278.092 45.1302 277.968 44.7363 277.754 44.3848C277.545 44.0332 277.259 43.7533 276.894 43.5449C276.536 43.3301 276.116 43.2227 275.634 43.2227C275.081 43.2227 274.615 43.3333 274.238 43.5547C273.867 43.7695 273.571 44.0625 273.349 44.4336C273.134 44.7982 272.978 45.2051 272.88 45.6543C272.789 46.097 272.744 46.5495 272.744 47.0117V47.4219C272.744 47.8841 272.789 48.3398 272.88 48.7891C272.972 49.2383 273.125 49.6452 273.339 50.0098C273.561 50.3743 273.857 50.6673 274.228 50.8887C274.606 51.1035 275.074 51.2109 275.634 51.2109ZM284.238 41.9336V52.5H282.431V41.9336H284.238ZM291.171 41.9336L286.161 47.9883H283.632L283.359 46.4062H285.429L288.974 41.9336H291.171ZM289.228 52.5L285.341 47.7148L286.503 46.4062L291.523 52.5H289.228ZM295.448 49.6387L300.321 41.9336H302.137V52.5H300.321V44.7949L295.448 52.5H293.651V41.9336H295.448V49.6387ZM306.659 41.9336L308.973 45.7812L311.317 41.9336H313.436L309.979 47.1484L313.543 52.5H311.454L309.012 48.5352L306.571 52.5H304.471L308.026 47.1484L304.579 41.9336H306.659ZM149.418 65.9336V67.4277H144.076V65.9336H149.418ZM144.34 65.9336V76.5H142.533V65.9336H144.34ZM151.02 65.9336V76.5H149.203V65.9336H151.02ZM156.127 67.9648V80.5625H154.31V65.9336H155.97L156.127 67.9648ZM163.246 71.1289V71.334C163.246 72.1022 163.155 72.8151 162.972 73.4727C162.79 74.1237 162.523 74.6901 162.171 75.1719C161.826 75.6536 161.4 76.028 160.892 76.2949C160.384 76.5618 159.802 76.6953 159.144 76.6953C158.474 76.6953 157.881 76.5846 157.367 76.3633C156.852 76.1419 156.416 75.8197 156.058 75.3965C155.7 74.9733 155.414 74.4655 155.199 73.873C154.99 73.2806 154.847 72.6133 154.769 71.8711V70.7773C154.847 69.9961 154.994 69.2962 155.209 68.6777C155.423 68.0592 155.707 67.5319 156.058 67.0957C156.416 66.653 156.849 66.3177 157.357 66.0898C157.865 65.8555 158.451 65.7383 159.115 65.7383C159.779 65.7383 160.368 65.8685 160.882 66.1289C161.397 66.3828 161.83 66.7474 162.181 67.2227C162.533 67.6979 162.796 68.2676 162.972 68.9316C163.155 69.5892 163.246 70.3216 163.246 71.1289ZM161.429 71.334V71.1289C161.429 70.6016 161.374 70.1068 161.263 69.6445C161.153 69.1758 160.98 68.7656 160.746 68.4141C160.518 68.056 160.225 67.776 159.867 67.5742C159.509 67.3659 159.082 67.2617 158.587 67.2617C158.132 67.2617 157.735 67.3398 157.396 67.4961C157.064 67.6523 156.781 67.8639 156.546 68.1309C156.312 68.3913 156.12 68.6908 155.97 69.0293C155.827 69.3613 155.72 69.7064 155.648 70.0645V72.5938C155.778 73.0495 155.961 73.4792 156.195 73.8828C156.429 74.2799 156.742 74.6022 157.132 74.8496C157.523 75.0905 158.015 75.2109 158.607 75.2109C159.095 75.2109 159.515 75.11 159.867 74.9082C160.225 74.6999 160.518 74.4167 160.746 74.0586C160.98 73.7005 161.153 73.2904 161.263 72.8281C161.374 72.3594 161.429 71.8613 161.429 71.334ZM167.904 73.6387L172.777 65.9336H174.593V76.5H172.777V68.7949L167.904 76.5H166.107V65.9336H167.904V73.6387ZM184.671 61.334H186.155C186.155 61.972 186.057 62.4798 185.862 62.8574C185.667 63.2285 185.4 63.515 185.061 63.7168C184.729 63.9186 184.352 64.0716 183.929 64.1758C183.512 64.2799 183.079 64.3809 182.63 64.4785C182.07 64.5957 181.549 64.7812 181.067 65.0352C180.592 65.2826 180.182 65.6341 179.837 66.0898C179.498 66.5456 179.248 67.138 179.085 67.8672C178.929 68.5964 178.886 69.498 178.958 70.5723V71.4707H177.473V70.5723C177.473 69.3678 177.587 68.3164 177.815 67.418C178.05 66.5195 178.378 65.7611 178.802 65.1426C179.225 64.5241 179.726 64.0326 180.305 63.668C180.891 63.3034 181.536 63.0527 182.239 62.916C182.747 62.8184 183.183 62.7142 183.548 62.6035C183.912 62.4863 184.189 62.3301 184.378 62.1348C184.573 61.9395 184.671 61.6725 184.671 61.334ZM182.532 66.5391C183.222 66.5391 183.837 66.6595 184.378 66.9004C184.918 67.1413 185.377 67.4766 185.755 67.9062C186.132 68.3359 186.419 68.8438 186.614 69.4297C186.816 70.0091 186.917 70.6406 186.917 71.3242V71.5391C186.917 72.2747 186.809 72.9583 186.595 73.5898C186.386 74.2148 186.077 74.7617 185.667 75.2305C185.263 75.6927 184.768 76.054 184.182 76.3145C183.603 76.5749 182.942 76.7051 182.2 76.7051C181.458 76.7051 180.794 76.5749 180.208 76.3145C179.628 76.054 179.134 75.6927 178.723 75.2305C178.313 74.7617 178.001 74.2148 177.786 73.5898C177.578 72.9583 177.473 72.2747 177.473 71.5391V71.3242C177.473 71.1615 177.503 71.002 177.561 70.8457C177.62 70.6895 177.692 70.5299 177.776 70.3672C177.867 70.2044 177.949 70.0319 178.02 69.8496C178.261 69.2637 178.59 68.7201 179.007 68.2188C179.43 67.7174 179.934 67.3138 180.52 67.0078C181.113 66.6953 181.783 66.5391 182.532 66.5391ZM182.18 68.0137C181.516 68.0137 180.97 68.1667 180.54 68.4727C180.117 68.7786 179.801 69.1855 179.593 69.6934C179.384 70.1947 179.28 70.7383 179.28 71.3242V71.5391C179.28 72.0339 179.339 72.5026 179.456 72.9453C179.573 73.388 179.749 73.7819 179.983 74.127C180.224 74.4655 180.527 74.7324 180.891 74.9277C181.263 75.123 181.699 75.2207 182.2 75.2207C182.701 75.2207 183.134 75.123 183.499 74.9277C183.863 74.7324 184.163 74.4655 184.397 74.127C184.632 73.7819 184.807 73.388 184.925 72.9453C185.042 72.5026 185.1 72.0339 185.1 71.5391V71.3242C185.1 70.8815 185.042 70.4616 184.925 70.0645C184.807 69.6673 184.628 69.3158 184.388 69.0098C184.153 68.7038 183.85 68.4629 183.479 68.2871C183.115 68.1048 182.682 68.0137 182.18 68.0137ZM188.889 71.334V71.1094C188.889 70.3477 189 69.6413 189.221 68.9902C189.442 68.3327 189.761 67.763 190.178 67.2812C190.595 66.793 191.099 66.4154 191.692 66.1484C192.284 65.875 192.948 65.7383 193.684 65.7383C194.426 65.7383 195.093 65.875 195.686 66.1484C196.285 66.4154 196.793 66.793 197.209 67.2812C197.633 67.763 197.955 68.3327 198.176 68.9902C198.398 69.6413 198.508 70.3477 198.508 71.1094V71.334C198.508 72.0957 198.398 72.8021 198.176 73.4531C197.955 74.1042 197.633 74.6738 197.209 75.1621C196.793 75.6439 196.288 76.0215 195.696 76.2949C195.11 76.5618 194.446 76.6953 193.704 76.6953C192.961 76.6953 192.294 76.5618 191.702 76.2949C191.109 76.0215 190.601 75.6439 190.178 75.1621C189.761 74.6738 189.442 74.1042 189.221 73.4531C189 72.8021 188.889 72.0957 188.889 71.334ZM190.696 71.1094V71.334C190.696 71.8613 190.758 72.3594 190.881 72.8281C191.005 73.2904 191.19 73.7005 191.438 74.0586C191.692 74.4167 192.008 74.6999 192.385 74.9082C192.763 75.11 193.202 75.2109 193.704 75.2109C194.198 75.2109 194.631 75.11 195.002 74.9082C195.38 74.6999 195.692 74.4167 195.94 74.0586C196.187 73.7005 196.373 73.2904 196.496 72.8281C196.627 72.3594 196.692 71.8613 196.692 71.334V71.1094C196.692 70.5885 196.627 70.097 196.496 69.6348C196.373 69.166 196.184 68.7526 195.93 68.3945C195.683 68.0299 195.37 67.7435 194.993 67.5352C194.621 67.3268 194.185 67.2227 193.684 67.2227C193.189 67.2227 192.753 67.3268 192.375 67.5352C192.004 67.7435 191.692 68.0299 191.438 68.3945C191.19 68.7526 191.005 69.166 190.881 69.6348C190.758 70.097 190.696 70.5885 190.696 71.1094ZM202.98 67.9648V80.5625H201.164V65.9336H202.824L202.98 67.9648ZM210.1 71.1289V71.334C210.1 72.1022 210.008 72.8151 209.826 73.4727C209.644 74.1237 209.377 74.6901 209.025 75.1719C208.68 75.6536 208.254 76.028 207.746 76.2949C207.238 76.5618 206.656 76.6953 205.998 76.6953C205.327 76.6953 204.735 76.5846 204.221 76.3633C203.706 76.1419 203.27 75.8197 202.912 75.3965C202.554 74.9733 202.268 74.4655 202.053 73.873C201.844 73.2806 201.701 72.6133 201.623 71.8711V70.7773C201.701 69.9961 201.848 69.2962 202.062 68.6777C202.277 68.0592 202.561 67.5319 202.912 67.0957C203.27 66.653 203.703 66.3177 204.211 66.0898C204.719 65.8555 205.305 65.7383 205.969 65.7383C206.633 65.7383 207.222 65.8685 207.736 66.1289C208.251 66.3828 208.684 66.7474 209.035 67.2227C209.387 67.6979 209.65 68.2676 209.826 68.9316C210.008 69.5892 210.1 70.3216 210.1 71.1289ZM208.283 71.334V71.1289C208.283 70.6016 208.228 70.1068 208.117 69.6445C208.007 69.1758 207.834 68.7656 207.6 68.4141C207.372 68.056 207.079 67.776 206.721 67.5742C206.363 67.3659 205.936 67.2617 205.441 67.2617C204.986 67.2617 204.589 67.3398 204.25 67.4961C203.918 67.6523 203.635 67.8639 203.4 68.1309C203.166 68.3913 202.974 68.6908 202.824 69.0293C202.681 69.3613 202.574 69.7064 202.502 70.0645V72.5938C202.632 73.0495 202.814 73.4792 203.049 73.8828C203.283 74.2799 203.596 74.6022 203.986 74.8496C204.377 75.0905 204.868 75.2109 205.461 75.2109C205.949 75.2109 206.369 75.11 206.721 74.9082C207.079 74.6999 207.372 74.4167 207.6 74.0586C207.834 73.7005 208.007 73.2904 208.117 72.8281C208.228 72.3594 208.283 71.8613 208.283 71.334ZM212.326 71.334V71.1094C212.326 70.3477 212.436 69.6413 212.658 68.9902C212.879 68.3327 213.198 67.763 213.615 67.2812C214.032 66.793 214.536 66.4154 215.129 66.1484C215.721 65.875 216.385 65.7383 217.121 65.7383C217.863 65.7383 218.53 65.875 219.123 66.1484C219.722 66.4154 220.229 66.793 220.646 67.2812C221.069 67.763 221.392 68.3327 221.613 68.9902C221.834 69.6413 221.945 70.3477 221.945 71.1094V71.334C221.945 72.0957 221.834 72.8021 221.613 73.4531C221.392 74.1042 221.069 74.6738 220.646 75.1621C220.229 75.6439 219.725 76.0215 219.132 76.2949C218.546 76.5618 217.882 76.6953 217.14 76.6953C216.398 76.6953 215.731 76.5618 215.138 76.2949C214.546 76.0215 214.038 75.6439 213.615 75.1621C213.198 74.6738 212.879 74.1042 212.658 73.4531C212.436 72.8021 212.326 72.0957 212.326 71.334ZM214.132 71.1094V71.334C214.132 71.8613 214.194 72.3594 214.318 72.8281C214.442 73.2904 214.627 73.7005 214.875 74.0586C215.129 74.4167 215.444 74.6999 215.822 74.9082C216.199 75.11 216.639 75.2109 217.14 75.2109C217.635 75.2109 218.068 75.11 218.439 74.9082C218.817 74.6999 219.129 74.4167 219.377 74.0586C219.624 73.7005 219.81 73.2904 219.933 72.8281C220.063 72.3594 220.129 71.8613 220.129 71.334V71.1094C220.129 70.5885 220.063 70.097 219.933 69.6348C219.81 69.166 219.621 68.7526 219.367 68.3945C219.119 68.0299 218.807 67.7435 218.429 67.5352C218.058 67.3268 217.622 67.2227 217.121 67.2227C216.626 67.2227 216.19 67.3268 215.812 67.5352C215.441 67.7435 215.129 68.0299 214.875 68.3945C214.627 68.7526 214.442 69.166 214.318 69.6348C214.194 70.097 214.132 70.5885 214.132 71.1094ZM229.571 71.8516H226.105L226.085 70.4062H228.917C229.477 70.4062 229.943 70.3509 230.314 70.2402C230.691 70.1296 230.974 69.9635 231.163 69.7422C231.352 69.5208 231.446 69.2474 231.446 68.9219C231.446 68.668 231.391 68.4466 231.28 68.2578C231.176 68.0625 231.017 67.903 230.802 67.7793C230.587 67.6491 230.32 67.5547 230.001 67.4961C229.689 67.431 229.321 67.3984 228.898 67.3984H226.583V76.5H224.777V65.9336H228.898C229.568 65.9336 230.17 65.9922 230.704 66.1094C231.245 66.2266 231.704 66.4056 232.081 66.6465C232.465 66.8809 232.758 67.1803 232.96 67.5449C233.162 67.9095 233.263 68.3392 233.263 68.834C233.263 69.153 233.198 69.4557 233.068 69.7422C232.937 70.0286 232.745 70.2826 232.491 70.5039C232.238 70.7253 231.925 70.9076 231.554 71.0508C231.183 71.1875 230.756 71.2754 230.275 71.3145L229.571 71.8516ZM229.571 76.5H225.45L226.349 75.0352H229.571C230.073 75.0352 230.489 74.9733 230.821 74.8496C231.154 74.7194 231.401 74.5371 231.564 74.3027C231.733 74.0618 231.818 73.7754 231.818 73.4434C231.818 73.1113 231.733 72.8281 231.564 72.5938C231.401 72.3529 231.154 72.1706 230.821 72.0469C230.489 71.9167 230.073 71.8516 229.571 71.8516H226.827L226.847 70.4062H230.275L230.929 70.9531C231.508 70.9987 232 71.1419 232.404 71.3828C232.807 71.6237 233.113 71.9297 233.321 72.3008C233.53 72.6654 233.634 73.0625 233.634 73.4922C233.634 73.987 233.54 74.4232 233.351 74.8008C233.168 75.1784 232.902 75.4941 232.55 75.748C232.198 75.9954 231.772 76.1842 231.271 76.3145C230.769 76.4382 230.203 76.5 229.571 76.5ZM144.33 97.6387L149.203 89.9336H151.02V100.5H149.203V92.7949L144.33 100.5H142.533V89.9336H144.33V97.6387ZM163.909 99.2109C164.339 99.2109 164.736 99.123 165.101 98.9473C165.465 98.7715 165.765 98.5306 165.999 98.2246C166.234 97.9121 166.367 97.5573 166.4 97.1602H168.118C168.086 97.7852 167.874 98.3678 167.484 98.9082C167.099 99.4421 166.595 99.875 165.97 100.207C165.345 100.533 164.658 100.695 163.909 100.695C163.115 100.695 162.422 100.555 161.829 100.275C161.243 99.9954 160.755 99.6113 160.364 99.123C159.98 98.6348 159.691 98.0749 159.495 97.4434C159.307 96.8053 159.212 96.1315 159.212 95.4219V95.0117C159.212 94.3021 159.307 93.6315 159.495 93C159.691 92.362 159.98 91.7988 160.364 91.3105C160.755 90.8223 161.243 90.4382 161.829 90.1582C162.422 89.8783 163.115 89.7383 163.909 89.7383C164.736 89.7383 165.459 89.9076 166.077 90.2461C166.696 90.5781 167.181 91.0339 167.532 91.6133C167.89 92.1862 168.086 92.8372 168.118 93.5664H166.4C166.367 93.1302 166.243 92.7363 166.029 92.3848C165.82 92.0332 165.534 91.7533 165.169 91.5449C164.811 91.3301 164.391 91.2227 163.909 91.2227C163.356 91.2227 162.89 91.3333 162.513 91.5547C162.142 91.7695 161.846 92.0625 161.624 92.4336C161.409 92.7982 161.253 93.2051 161.155 93.6543C161.064 94.097 161.019 94.5495 161.019 95.0117V95.4219C161.019 95.8841 161.064 96.3398 161.155 96.7891C161.247 97.2383 161.4 97.6452 161.614 98.0098C161.836 98.3743 162.132 98.6673 162.503 98.8887C162.881 99.1035 163.349 99.2109 163.909 99.2109ZM172.503 97.6387L177.376 89.9336H179.192V100.5H177.376V92.7949L172.503 100.5H170.706V89.9336H172.503V97.6387ZM186.721 99.2109C187.151 99.2109 187.548 99.123 187.912 98.9473C188.277 98.7715 188.577 98.5306 188.811 98.2246C189.045 97.9121 189.179 97.5573 189.211 97.1602H190.93C190.898 97.7852 190.686 98.3678 190.295 98.9082C189.911 99.4421 189.407 99.875 188.782 100.207C188.157 100.533 187.47 100.695 186.721 100.695C185.927 100.695 185.233 100.555 184.641 100.275C184.055 99.9954 183.567 99.6113 183.176 99.123C182.792 98.6348 182.502 98.0749 182.307 97.4434C182.118 96.8053 182.024 96.1315 182.024 95.4219V95.0117C182.024 94.3021 182.118 93.6315 182.307 93C182.502 92.362 182.792 91.7988 183.176 91.3105C183.567 90.8223 184.055 90.4382 184.641 90.1582C185.233 89.8783 185.927 89.7383 186.721 89.7383C187.548 89.7383 188.271 89.9076 188.889 90.2461C189.508 90.5781 189.993 91.0339 190.344 91.6133C190.702 92.1862 190.898 92.8372 190.93 93.5664H189.211C189.179 93.1302 189.055 92.7363 188.84 92.3848C188.632 92.0332 188.345 91.7533 187.981 91.5449C187.623 91.3301 187.203 91.2227 186.721 91.2227C186.168 91.2227 185.702 91.3333 185.325 91.5547C184.954 91.7695 184.657 92.0625 184.436 92.4336C184.221 92.7982 184.065 93.2051 183.967 93.6543C183.876 94.097 183.83 94.5495 183.83 95.0117V95.4219C183.83 95.8841 183.876 96.3398 183.967 96.7891C184.058 97.2383 184.211 97.6452 184.426 98.0098C184.648 98.3743 184.944 98.6673 185.315 98.8887C185.692 99.1035 186.161 99.2109 186.721 99.2109ZM197.668 89.9336V100.5H195.852V89.9336H197.668ZM201.213 89.9336V91.3984H192.375V89.9336H201.213ZM206.994 100.695C206.258 100.695 205.591 100.572 204.992 100.324C204.399 100.07 203.888 99.7155 203.459 99.2598C203.035 98.804 202.71 98.2637 202.482 97.6387C202.254 97.0137 202.14 96.3301 202.14 95.5879V95.1777C202.14 94.3184 202.267 93.5534 202.521 92.8828C202.775 92.2057 203.12 91.6328 203.556 91.1641C203.992 90.6953 204.487 90.3405 205.041 90.0996C205.594 89.8587 206.167 89.7383 206.759 89.7383C207.515 89.7383 208.166 89.8685 208.713 90.1289C209.266 90.3893 209.718 90.7539 210.07 91.2227C210.421 91.6849 210.682 92.2318 210.851 92.8633C211.02 93.4883 211.105 94.1719 211.105 94.9141V95.7246H203.214V94.25H209.298V94.1133C209.272 93.6445 209.175 93.1888 209.005 92.7461C208.843 92.3034 208.582 91.9388 208.224 91.6523C207.866 91.3659 207.378 91.2227 206.759 91.2227C206.349 91.2227 205.972 91.3105 205.627 91.4863C205.282 91.6556 204.985 91.9095 204.738 92.248C204.49 92.5866 204.298 93 204.162 93.4883C204.025 93.9766 203.957 94.5397 203.957 95.1777V95.5879C203.957 96.0892 204.025 96.5612 204.162 97.0039C204.305 97.4401 204.51 97.8242 204.777 98.1562C205.05 98.4883 205.379 98.7487 205.763 98.9375C206.154 99.1263 206.597 99.2207 207.091 99.2207C207.729 99.2207 208.27 99.0905 208.713 98.8301C209.155 98.5697 209.543 98.2214 209.875 97.7852L210.968 98.6543C210.74 98.9993 210.451 99.3281 210.099 99.6406C209.748 99.9531 209.315 100.207 208.8 100.402C208.293 100.598 207.69 100.695 206.994 100.695ZM219.689 98.0977L223.282 89.9336H225.021L220.314 100.5H219.064L214.376 89.9336H216.114L219.689 98.0977ZM215.587 89.9336V100.5H213.78V89.9336H215.587ZM223.732 100.5V89.9336H225.548V100.5H223.732Z" fill="#005AAA"/>
<path d="M98.9566 2.03174C102.963 2.03174 106.727 3.561 109.555 6.33864C112.382 9.1163 113.939 12.8141 113.939 16.7519C113.939 20.6897 112.382 24.3896 109.555 27.1683L90.0994 46.2825C89.2592 47.109 88.1543 47.5224 87.048 47.5224C85.9431 47.5224 84.8391 47.109 83.9957 46.2838C83.1786 45.4808 82.7295 44.4155 82.7295 43.282C82.7295 42.1489 83.1796 41.0836 83.9945 40.2828L103.448 21.1675C104.646 19.9912 105.306 18.4221 105.306 16.7519C105.306 15.0827 104.646 13.5147 103.448 12.3374C100.97 9.90407 96.9393 9.90407 94.4639 12.3374L74.9797 31.4817C73.9029 32.5354 72.3248 32.9636 70.8583 32.5922L24.0259 20.8554L17.9331 26.8423L37.4731 35.8435C38.5203 36.319 39.3144 37.1672 39.7109 38.2316C40.1095 39.296 40.0603 40.4486 39.5738 41.4762C39.0921 42.503 38.2289 43.2833 37.1457 43.6738C36.0615 44.0655 34.8885 44.0181 33.8414 43.5416L8.69366 31.9864C7.4155 31.4042 6.50646 30.2419 6.25784 28.8795C6.00921 27.5149 6.45717 26.1158 7.45604 25.1365L19.6603 13.1477C20.7314 12.0931 22.3119 11.668 23.7806 12.036L70.6107 23.774L88.3568 6.33864C91.1836 3.561 94.9479 2.03174 98.9566 2.03174Z" fill="url(#paint0_linear_23_40)"/>
<path d="M93.59 56.3894C94.5822 56.9686 95.2853 57.893 95.5689 58.9916L103.758 90.6241C104.129 92.0695 103.696 93.6192 102.624 94.6707L90.4224 106.661C89.4257 107.64 88 108.08 86.6133 107.839C85.2247 107.595 84.044 106.699 83.4514 105.443L66.4915 69.4824L56.1527 79.6404L59.5892 96.5217C59.8742 97.9154 59.434 99.3489 58.4099 100.356L46.8508 111.714C46.0336 112.516 44.9341 112.956 43.7994 112.956C43.5487 112.956 43.2944 112.934 43.0414 112.889C41.6537 112.647 40.4708 111.753 39.8782 110.497L28.3773 86.104L3.55044 74.8009C2.27229 74.2177 1.36324 73.0554 1.11681 71.6918C0.869298 70.3314 1.31615 68.9315 2.31391 67.95L13.8752 56.5941C14.8993 55.5865 16.3603 55.154 17.7754 55.4327L34.9431 58.8205L49.039 44.9711C50.6688 43.3709 53.5153 43.3674 55.1461 44.972C55.961 45.7728 56.4098 46.8384 56.4098 47.9716C56.4098 49.1038 55.961 50.1691 55.1461 50.9708L39.4151 66.427C38.39 67.4333 36.9311 67.8671 35.514 67.5884L18.3449 64.2006L12.7909 69.6569L33.4418 79.0604C34.3717 79.4835 35.1185 80.2186 35.5447 81.1289L45.1146 101.418L50.6688 95.9611L47.2328 79.0789C46.9482 77.684 47.3897 76.2517 48.4125 75.2466L64.7556 59.1865C65.7533 58.2062 67.1773 57.768 68.566 58.0091C69.9536 58.2524 71.1353 59.1488 71.7269 60.4038L88.6878 96.3644L94.7828 90.3745L87.2004 61.0827C86.9177 59.9841 87.0854 58.8431 87.6745 57.8691C88.2639 56.8954 89.2037 56.2055 90.3217 55.9268C91.4366 55.6458 92.5987 55.8094 93.59 56.3894Z" fill="url(#paint1_linear_23_40)"/>
<defs>
<linearGradient id="paint0_linear_23_40" x1="1.0498" y1="89.115" x2="103.89" y2="89.1817" gradientUnits="userSpaceOnUse">
<stop stop-color="#502D7F"/>
<stop offset="1" stop-color="#00BEF3"/>
</linearGradient>
<linearGradient id="paint1_linear_23_40" x1="1.0498" y1="89.115" x2="103.89" y2="89.1817" gradientUnits="userSpaceOnUse">
<stop stop-color="#502D7F"/>
<stop offset="1" stop-color="#00BEF3"/>
</linearGradient>
</defs>
</svg>
