<svg width="407" height="115" viewBox="0 0 407 115" fill="none" xmlns="http://www.w3.org/2000/svg">
<path d="M144.613 25.2383L151.615 14.2812H153.5V28.5H151.615V17.5332L144.613 28.5H142.738V14.2812H144.613V25.2383ZM164.222 22.5137V23.9785H158.636V22.5137H164.222ZM159.017 17.9336V28.5H157.211V17.9336H159.017ZM165.687 17.9336V28.5H163.871V17.9336H165.687ZM173.226 27.2109C173.655 27.2109 174.053 27.123 174.417 26.9473C174.782 26.7715 175.081 26.5306 175.316 26.2246C175.55 25.9121 175.683 25.5573 175.716 25.1602H177.435C177.402 25.7852 177.191 26.3678 176.8 26.9082C176.416 27.4421 175.911 27.875 175.286 28.207C174.661 28.5326 173.974 28.6953 173.226 28.6953C172.432 28.6953 171.738 28.5553 171.146 28.2754C170.56 27.9954 170.071 27.6113 169.681 27.123C169.297 26.6348 169.007 26.0749 168.812 25.4434C168.623 24.8053 168.529 24.1315 168.529 23.4219V23.0117C168.529 22.3021 168.623 21.6315 168.812 21C169.007 20.362 169.297 19.7988 169.681 19.3105C170.071 18.8223 170.56 18.4382 171.146 18.1582C171.738 17.8783 172.432 17.7383 173.226 17.7383C174.053 17.7383 174.775 17.9076 175.394 18.2461C176.012 18.5781 176.497 19.0339 176.849 19.6133C177.207 20.1862 177.402 20.8372 177.435 21.5664H175.716C175.683 21.1302 175.56 20.7363 175.345 20.3848C175.137 20.0332 174.85 19.7533 174.486 19.5449C174.127 19.3301 173.708 19.2227 173.226 19.2227C172.672 19.2227 172.207 19.3333 171.829 19.5547C171.458 19.7695 171.162 20.0625 170.941 20.4336C170.726 20.7982 170.57 21.2051 170.472 21.6543C170.381 22.097 170.335 22.5495 170.335 23.0117V23.4219C170.335 23.8841 170.381 24.3398 170.472 24.7891C170.563 25.2383 170.716 25.6452 170.931 26.0098C171.152 26.3743 171.448 26.6673 171.82 26.8887C172.197 27.1035 172.666 27.2109 173.226 27.2109ZM184.173 17.9336V28.5H182.356V17.9336H184.173ZM187.718 17.9336V19.3984H178.88V17.9336H187.718ZM191.848 25.6387L196.721 17.9336H198.537V28.5H196.721V20.7949L191.848 28.5H190.051V17.9336H191.848V25.6387ZM206.145 17.9336V28.5H204.328V17.9336H206.145ZM209.689 17.9336V19.3984H200.852V17.9336H209.689ZM214.953 27.4062L217.892 17.9336H219.826L215.588 30.1309C215.49 30.3913 215.36 30.6712 215.197 30.9707C215.041 31.2767 214.839 31.5664 214.591 31.8398C214.344 32.1133 214.045 32.3346 213.693 32.5039C213.348 32.6797 212.935 32.7676 212.453 32.7676C212.31 32.7676 212.127 32.748 211.906 32.709C211.685 32.6699 211.528 32.6374 211.437 32.6113L211.427 31.1465C211.479 31.153 211.561 31.1595 211.671 31.166C211.789 31.179 211.87 31.1855 211.916 31.1855C212.326 31.1855 212.674 31.1302 212.961 31.0195C213.247 30.9154 213.488 30.7363 213.683 30.4824C213.885 30.235 214.058 29.8932 214.201 29.457L214.953 27.4062ZM212.795 17.9336L215.539 26.1367L216.007 28.041L214.709 28.7051L210.822 17.9336H212.795ZM226.163 17.9336V28.5H224.347V17.9336H226.163ZM229.708 17.9336V19.3984H220.87V17.9336H229.708ZM144.184 43.9648V56.5625H142.367V41.9336H144.027L144.184 43.9648ZM151.303 47.1289V47.334C151.303 48.1022 151.212 48.8151 151.029 49.4727C150.847 50.1237 150.58 50.6901 150.229 51.1719C149.883 51.6536 149.457 52.028 148.949 52.2949C148.441 52.5618 147.859 52.6953 147.201 52.6953C146.531 52.6953 145.938 52.5846 145.424 52.3633C144.91 52.1419 144.473 51.8197 144.115 51.3965C143.757 50.9733 143.471 50.4655 143.256 49.873C143.048 49.2806 142.904 48.6133 142.826 47.8711V46.7773C142.904 45.9961 143.051 45.2962 143.266 44.6777C143.48 44.0592 143.764 43.5319 144.115 43.0957C144.473 42.653 144.906 42.3177 145.414 42.0898C145.922 41.8555 146.508 41.7383 147.172 41.7383C147.836 41.7383 148.425 41.8685 148.939 42.1289C149.454 42.3828 149.887 42.7474 150.238 43.2227C150.59 43.6979 150.854 44.2676 151.029 44.9316C151.212 45.5892 151.303 46.3216 151.303 47.1289ZM149.486 47.334V47.1289C149.486 46.6016 149.431 46.1068 149.32 45.6445C149.21 45.1758 149.037 44.7656 148.803 44.4141C148.575 44.056 148.282 43.776 147.924 43.5742C147.566 43.3659 147.139 43.2617 146.645 43.2617C146.189 43.2617 145.792 43.3398 145.453 43.4961C145.121 43.6523 144.838 43.8639 144.604 44.1309C144.369 44.3913 144.177 44.6908 144.027 45.0293C143.884 45.3613 143.777 45.7064 143.705 46.0645V48.5938C143.835 49.0495 144.018 49.4792 144.252 49.8828C144.486 50.2799 144.799 50.6022 145.189 50.8496C145.58 51.0905 146.072 51.2109 146.664 51.2109C147.152 51.2109 147.572 51.11 147.924 50.9082C148.282 50.6999 148.575 50.4167 148.803 50.0586C149.037 49.7005 149.21 49.2904 149.32 48.8281C149.431 48.3594 149.486 47.8613 149.486 47.334ZM160.238 50.6934V45.2539C160.238 44.8372 160.153 44.4759 159.984 44.1699C159.821 43.8574 159.574 43.6165 159.242 43.4473C158.91 43.278 158.5 43.1934 158.011 43.1934C157.556 43.1934 157.155 43.2715 156.81 43.4277C156.472 43.584 156.205 43.7891 156.009 44.043C155.821 44.2969 155.726 44.5703 155.726 44.8633H153.92C153.92 44.4857 154.017 44.1113 154.212 43.7402C154.408 43.3691 154.688 43.0339 155.052 42.7344C155.423 42.4284 155.866 42.1875 156.38 42.0117C156.901 41.8294 157.481 41.7383 158.119 41.7383C158.887 41.7383 159.564 41.8685 160.15 42.1289C160.742 42.3893 161.205 42.7832 161.537 43.3105C161.875 43.8314 162.045 44.4857 162.045 45.2734V50.1953C162.045 50.5469 162.074 50.9212 162.132 51.3184C162.198 51.7155 162.292 52.0573 162.416 52.3438V52.5H160.531C160.44 52.2917 160.368 52.015 160.316 51.6699C160.264 51.3184 160.238 50.9928 160.238 50.6934ZM160.55 46.0938L160.57 47.3633H158.744C158.229 47.3633 157.77 47.4056 157.367 47.4902C156.963 47.5684 156.625 47.6888 156.351 47.8516C156.078 48.0143 155.869 48.2194 155.726 48.4668C155.583 48.7077 155.511 48.9909 155.511 49.3164C155.511 49.6484 155.586 49.9512 155.736 50.2246C155.886 50.498 156.11 50.7161 156.41 50.8789C156.716 51.0352 157.09 51.1133 157.533 51.1133C158.086 51.1133 158.574 50.9961 158.998 50.7617C159.421 50.5273 159.756 50.2409 160.004 49.9023C160.257 49.5638 160.394 49.235 160.414 48.916L161.185 49.7852C161.14 50.0586 161.016 50.3613 160.814 50.6934C160.612 51.0254 160.342 51.3444 160.004 51.6504C159.671 51.9499 159.274 52.2005 158.812 52.4023C158.356 52.5977 157.842 52.6953 157.269 52.6953C156.553 52.6953 155.925 52.5553 155.384 52.2754C154.851 51.9954 154.434 51.6211 154.134 51.1523C153.841 50.6771 153.695 50.1465 153.695 49.5605C153.695 48.9941 153.806 48.4961 154.027 48.0664C154.248 47.6302 154.567 47.2689 154.984 46.9824C155.401 46.6895 155.902 46.4681 156.488 46.3184C157.074 46.1686 157.728 46.0938 158.451 46.0938H160.55ZM167.191 41.9336H168.997L168.841 45.8887C168.802 46.8913 168.688 47.7572 168.499 48.4863C168.31 49.2155 168.07 49.8372 167.777 50.3516C167.484 50.8594 167.155 51.2858 166.79 51.6309C166.432 51.9759 166.061 52.2656 165.677 52.5H164.779L164.827 51.0254L165.198 51.0156C165.413 50.7617 165.622 50.5013 165.823 50.2344C166.025 49.9609 166.211 49.6387 166.38 49.2676C166.549 48.89 166.689 48.431 166.8 47.8906C166.917 47.3438 166.992 46.6764 167.025 45.8887L167.191 41.9336ZM167.64 41.9336H173.997V52.5H172.191V43.6035H167.64V41.9336ZM164.368 51.0156H175.355V55.6152H173.548V52.5H166.175V55.6152H164.359L164.368 51.0156ZM179.71 49.6387L184.583 41.9336H186.399V52.5H184.583V44.7949L179.71 52.5H177.913V41.9336H179.71V49.6387ZM189.221 47.334V47.1094C189.221 46.3477 189.332 45.6413 189.553 44.9902C189.774 44.3327 190.093 43.763 190.51 43.2812C190.927 42.793 191.431 42.4154 192.024 42.1484C192.616 41.875 193.28 41.7383 194.016 41.7383C194.758 41.7383 195.426 41.875 196.018 42.1484C196.617 42.4154 197.125 42.793 197.541 43.2812C197.965 43.763 198.287 44.3327 198.508 44.9902C198.73 45.6413 198.84 46.3477 198.84 47.1094V47.334C198.84 48.0957 198.73 48.8021 198.508 49.4531C198.287 50.1042 197.965 50.6738 197.541 51.1621C197.125 51.6439 196.62 52.0215 196.028 52.2949C195.442 52.5618 194.778 52.6953 194.036 52.6953C193.293 52.6953 192.626 52.5618 192.034 52.2949C191.441 52.0215 190.933 51.6439 190.51 51.1621C190.093 50.6738 189.774 50.1042 189.553 49.4531C189.332 48.8021 189.221 48.0957 189.221 47.334ZM191.028 47.1094V47.334C191.028 47.8613 191.09 48.3594 191.213 48.8281C191.337 49.2904 191.523 49.7005 191.77 50.0586C192.024 50.4167 192.34 50.6999 192.717 50.9082C193.095 51.11 193.534 51.2109 194.036 51.2109C194.53 51.2109 194.963 51.11 195.334 50.9082C195.712 50.6999 196.024 50.4167 196.272 50.0586C196.519 49.7005 196.705 49.2904 196.829 48.8281C196.959 48.3594 197.024 47.8613 197.024 47.334V47.1094C197.024 46.5885 196.959 46.097 196.829 45.6348C196.705 45.166 196.516 44.7526 196.262 44.3945C196.015 44.0299 195.702 43.7435 195.325 43.5352C194.954 43.3268 194.517 43.2227 194.016 43.2227C193.521 43.2227 193.085 43.3268 192.707 43.5352C192.336 43.7435 192.024 44.0299 191.77 44.3945C191.523 44.7526 191.337 45.166 191.213 45.6348C191.09 46.097 191.028 46.5885 191.028 47.1094ZM205.598 41.9336V52.5H203.781V41.9336H205.598ZM209.143 41.9336V43.3984H200.305V41.9336H209.143ZM214.923 52.6953C214.188 52.6953 213.52 52.5716 212.921 52.3242C212.329 52.0703 211.818 51.7155 211.388 51.2598C210.965 50.804 210.64 50.2637 210.412 49.6387C210.184 49.0137 210.07 48.3301 210.07 47.5879V47.1777C210.07 46.3184 210.197 45.5534 210.451 44.8828C210.705 44.2057 211.05 43.6328 211.486 43.1641C211.922 42.6953 212.417 42.3405 212.97 42.0996C213.524 41.8587 214.097 41.7383 214.689 41.7383C215.444 41.7383 216.095 41.8685 216.642 42.1289C217.196 42.3893 217.648 42.7539 218 43.2227C218.351 43.6849 218.612 44.2318 218.781 44.8633C218.95 45.4883 219.035 46.1719 219.035 46.9141V47.7246H211.144V46.25H217.228V46.1133C217.202 45.6445 217.104 45.1888 216.935 44.7461C216.772 44.3034 216.512 43.9388 216.154 43.6523C215.796 43.3659 215.308 43.2227 214.689 43.2227C214.279 43.2227 213.901 43.3105 213.556 43.4863C213.211 43.6556 212.915 43.9095 212.668 44.248C212.42 44.5866 212.228 45 212.091 45.4883C211.955 45.9766 211.886 46.5397 211.886 47.1777V47.5879C211.886 48.0892 211.955 48.5612 212.091 49.0039C212.235 49.4401 212.44 49.8242 212.707 50.1562C212.98 50.4883 213.309 50.7487 213.693 50.9375C214.084 51.1263 214.526 51.2207 215.021 51.2207C215.659 51.2207 216.199 51.0905 216.642 50.8301C217.085 50.5697 217.472 50.2214 217.804 49.7852L218.898 50.6543C218.67 50.9993 218.38 51.3281 218.029 51.6406C217.677 51.9531 217.244 52.207 216.73 52.4023C216.222 52.5977 215.62 52.6953 214.923 52.6953ZM222.765 41.9336L225.079 45.7812L227.423 41.9336H229.542L226.085 47.1484L229.65 52.5H227.56L225.118 48.5352L222.677 52.5H220.577L224.132 47.1484L220.685 41.9336H222.765ZM239.034 46.5137V47.9785H233.448V46.5137H239.034ZM233.829 41.9336V52.5H232.022V41.9336H233.829ZM240.499 41.9336V52.5H238.682V41.9336H240.499ZM245.762 49.6387L250.635 41.9336H252.452V52.5H250.635V44.7949L245.762 52.5H243.965V41.9336H245.762V49.6387ZM257.715 41.9336V52.5H255.908V41.9336H257.715ZM264.648 41.9336L259.639 47.9883H257.109L256.836 46.4062H258.906L262.451 41.9336H264.648ZM262.705 52.5L258.818 47.7148L259.98 46.4062L265 52.5H262.705ZM268.925 49.6387L273.798 41.9336H275.615V52.5H273.798V44.7949L268.925 52.5H267.129V41.9336H268.925V49.6387ZM144.33 73.6387L149.203 65.9336H151.02V76.5H149.203V68.7949L144.33 76.5H142.533V65.9336H144.33V73.6387ZM161.634 73.6387L166.507 65.9336H168.323V76.5H166.507V68.7949L161.634 76.5H159.837V65.9336H161.634V73.6387ZM178.792 70.5137V71.9785H173.206V70.5137H178.792ZM173.587 65.9336V76.5H171.78V65.9336H173.587ZM180.257 65.9336V76.5H178.44V65.9336H180.257ZM195.715 71.4023V71.6074C195.715 72.3496 195.634 73.0332 195.471 73.6582C195.308 74.2767 195.064 74.8138 194.739 75.2695C194.42 75.7253 194.023 76.0801 193.547 76.334C193.072 76.5814 192.522 76.7051 191.897 76.7051C191.383 76.7051 190.93 76.6367 190.539 76.5C190.149 76.3568 189.817 76.1517 189.543 75.8848C189.276 75.6178 189.062 75.2988 188.899 74.9277C188.743 74.5501 188.635 74.127 188.577 73.6582V68.9707C188.635 68.4694 188.743 68.0202 188.899 67.623C189.062 67.2259 189.276 66.8874 189.543 66.6074C189.817 66.3275 190.146 66.1126 190.53 65.9629C190.914 65.8132 191.363 65.7383 191.877 65.7383C192.385 65.7383 192.841 65.8294 193.245 66.0117C193.655 66.1875 194.013 66.4414 194.319 66.7734C194.631 67.1055 194.888 67.5059 195.09 67.9746C195.299 68.4368 195.455 68.9577 195.559 69.5371C195.663 70.1165 195.715 70.7383 195.715 71.4023ZM193.909 71.6074V71.4023C193.909 70.9466 193.876 70.5137 193.811 70.1035C193.752 69.6868 193.658 69.306 193.528 68.9609C193.404 68.6094 193.241 68.3034 193.039 68.043C192.838 67.7826 192.593 67.5807 192.307 67.4375C192.027 67.2943 191.705 67.2227 191.34 67.2227C190.95 67.2227 190.624 67.2715 190.364 67.3691C190.11 67.4668 189.911 67.597 189.768 67.7598C189.625 67.916 189.521 68.082 189.455 68.2578V74.3809C189.534 74.5241 189.648 74.6608 189.797 74.791C189.947 74.9147 190.149 75.0189 190.403 75.1035C190.657 75.1816 190.976 75.2207 191.36 75.2207C191.815 75.2207 192.203 75.1296 192.522 74.9473C192.847 74.7585 193.111 74.498 193.313 74.166C193.521 73.834 193.671 73.4499 193.762 73.0137C193.86 72.5775 193.909 72.1087 193.909 71.6074ZM183.166 71.6074V71.4023C183.166 70.7383 183.218 70.1165 183.323 69.5371C183.427 68.9577 183.583 68.4368 183.791 67.9746C184 67.5059 184.257 67.1055 184.563 66.7734C184.875 66.4414 185.233 66.1875 185.637 66.0117C186.047 65.8294 186.506 65.7383 187.014 65.7383C187.515 65.7383 187.952 65.8132 188.323 65.9629C188.7 66.1126 189.019 66.3275 189.28 66.6074C189.54 66.8874 189.748 67.2259 189.905 67.623C190.061 68.0202 190.172 68.4694 190.237 68.9707V73.4727C190.178 73.9674 190.071 74.4134 189.914 74.8105C189.758 75.2077 189.55 75.5495 189.289 75.8359C189.029 76.1159 188.707 76.3307 188.323 76.4805C187.945 76.6302 187.502 76.7051 186.995 76.7051C186.37 76.7051 185.819 76.5814 185.344 76.334C184.869 76.0801 184.468 75.7253 184.143 75.2695C183.824 74.8138 183.58 74.2767 183.411 73.6582C183.248 73.0332 183.166 72.3496 183.166 71.6074ZM184.983 71.4023V71.6074C184.983 72.1087 185.025 72.5775 185.11 73.0137C185.201 73.4499 185.341 73.834 185.53 74.166C185.725 74.498 185.979 74.7585 186.291 74.9473C186.604 75.1296 186.988 75.2207 187.444 75.2207C187.834 75.2207 188.157 75.1719 188.411 75.0742C188.664 74.9766 188.866 74.8496 189.016 74.6934C189.166 74.5371 189.28 74.3743 189.358 74.2051V68.2578C189.293 68.082 189.185 67.916 189.036 67.7598C188.892 67.597 188.694 67.4668 188.44 67.3691C188.186 67.2715 187.86 67.2227 187.463 67.2227C187.008 67.2227 186.62 67.3333 186.301 67.5547C185.982 67.776 185.725 68.0788 185.53 68.4629C185.341 68.847 185.201 69.293 185.11 69.8008C185.025 70.3021 184.983 70.8359 184.983 71.4023ZM188.459 80.5625V61.5H190.276V80.5625H188.459ZM198 71.334V71.1094C198 70.3477 198.111 69.6413 198.332 68.9902C198.553 68.3327 198.872 67.763 199.289 67.2812C199.706 66.793 200.21 66.4154 200.803 66.1484C201.395 65.875 202.059 65.7383 202.795 65.7383C203.537 65.7383 204.204 65.875 204.797 66.1484C205.396 66.4154 205.904 66.793 206.32 67.2812C206.743 67.763 207.066 68.3327 207.287 68.9902C207.508 69.6413 207.619 70.3477 207.619 71.1094V71.334C207.619 72.0957 207.508 72.8021 207.287 73.4531C207.066 74.1042 206.743 74.6738 206.32 75.1621C205.904 75.6439 205.399 76.0215 204.807 76.2949C204.221 76.5618 203.557 76.6953 202.814 76.6953C202.072 76.6953 201.405 76.5618 200.812 76.2949C200.22 76.0215 199.712 75.6439 199.289 75.1621C198.872 74.6738 198.553 74.1042 198.332 73.4531C198.111 72.8021 198 72.0957 198 71.334ZM199.807 71.1094V71.334C199.807 71.8613 199.868 72.3594 199.992 72.8281C200.116 73.2904 200.301 73.7005 200.549 74.0586C200.803 74.4167 201.118 74.6999 201.496 74.9082C201.874 75.11 202.313 75.2109 202.814 75.2109C203.309 75.2109 203.742 75.11 204.113 74.9082C204.491 74.6999 204.803 74.4167 205.051 74.0586C205.298 73.7005 205.484 73.2904 205.607 72.8281C205.738 72.3594 205.803 71.8613 205.803 71.334V71.1094C205.803 70.5885 205.738 70.097 205.607 69.6348C205.484 69.166 205.295 68.7526 205.041 68.3945C204.794 68.0299 204.481 67.7435 204.104 67.5352C203.732 67.3268 203.296 67.2227 202.795 67.2227C202.3 67.2227 201.864 67.3268 201.486 67.5352C201.115 67.7435 200.803 68.0299 200.549 68.3945C200.301 68.7526 200.116 69.166 199.992 69.6348C199.868 70.097 199.807 70.5885 199.807 71.1094ZM212.248 65.9336V76.5H210.441V65.9336H212.248ZM219.181 65.9336L214.171 71.9883H211.642L211.369 70.4062H213.439L216.984 65.9336H219.181ZM217.238 76.5L213.351 71.7148L214.513 70.4062L219.533 76.5H217.238ZM220.812 71.334V71.1094C220.812 70.3477 220.922 69.6413 221.144 68.9902C221.365 68.3327 221.684 67.763 222.101 67.2812C222.517 66.793 223.022 66.4154 223.614 66.1484C224.207 65.875 224.871 65.7383 225.607 65.7383C226.349 65.7383 227.016 65.875 227.609 66.1484C228.208 66.4154 228.715 66.793 229.132 67.2812C229.555 67.763 229.877 68.3327 230.099 68.9902C230.32 69.6413 230.431 70.3477 230.431 71.1094V71.334C230.431 72.0957 230.32 72.8021 230.099 73.4531C229.877 74.1042 229.555 74.6738 229.132 75.1621C228.715 75.6439 228.211 76.0215 227.618 76.2949C227.032 76.5618 226.368 76.6953 225.626 76.6953C224.884 76.6953 224.217 76.5618 223.624 76.2949C223.032 76.0215 222.524 75.6439 222.101 75.1621C221.684 74.6738 221.365 74.1042 221.144 73.4531C220.922 72.8021 220.812 72.0957 220.812 71.334ZM222.618 71.1094V71.334C222.618 71.8613 222.68 72.3594 222.804 72.8281C222.928 73.2904 223.113 73.7005 223.361 74.0586C223.614 74.4167 223.93 74.6999 224.308 74.9082C224.685 75.11 225.125 75.2109 225.626 75.2109C226.121 75.2109 226.554 75.11 226.925 74.9082C227.303 74.6999 227.615 74.4167 227.863 74.0586C228.11 73.7005 228.295 73.2904 228.419 72.8281C228.549 72.3594 228.614 71.8613 228.614 71.334V71.1094C228.614 70.5885 228.549 70.097 228.419 69.6348C228.295 69.166 228.107 68.7526 227.853 68.3945C227.605 68.0299 227.293 67.7435 226.915 67.5352C226.544 67.3268 226.108 67.2227 225.607 67.2227C225.112 67.2227 224.676 67.3268 224.298 67.5352C223.927 67.7435 223.614 68.0299 223.361 68.3945C223.113 68.7526 222.928 69.166 222.804 69.6348C222.68 70.097 222.618 70.5885 222.618 71.1094ZM239.171 74.0977L242.764 65.9336H244.503L239.796 76.5H238.546L233.858 65.9336H235.596L239.171 74.0977ZM235.069 65.9336V76.5H233.262V65.9336H235.069ZM243.214 76.5V65.9336H245.03V76.5H243.214ZM254.414 74.0977L258.008 65.9336H259.746L255.039 76.5H253.789L249.102 65.9336H250.84L254.414 74.0977ZM250.313 65.9336V76.5H248.506V65.9336H250.313ZM258.457 76.5V65.9336H260.274V76.5H258.457ZM266.553 75.4062L269.492 65.9336H271.426L267.188 78.1309C267.09 78.3913 266.96 78.6712 266.797 78.9707C266.641 79.2767 266.439 79.5664 266.191 79.8398C265.944 80.1133 265.645 80.3346 265.293 80.5039C264.948 80.6797 264.535 80.7676 264.053 80.7676C263.91 80.7676 263.727 80.748 263.506 80.709C263.285 80.6699 263.128 80.6374 263.037 80.6113L263.027 79.1465C263.079 79.153 263.161 79.1595 263.271 79.166C263.389 79.179 263.47 79.1855 263.516 79.1855C263.926 79.1855 264.274 79.1302 264.561 79.0195C264.847 78.9154 265.088 78.7363 265.283 78.4824C265.485 78.235 265.658 77.8932 265.801 77.457L266.553 75.4062ZM264.395 65.9336L267.139 74.1367L267.607 76.041L266.309 76.7051L262.422 65.9336H264.395ZM280.625 70.5137V71.9785H275.039V70.5137H280.625ZM275.42 65.9336V76.5H273.613V65.9336H275.42ZM282.089 65.9336V76.5H280.273V65.9336H282.089ZM287.353 73.6387L292.226 65.9336H294.042V76.5H292.226V68.7949L287.353 76.5H285.556V65.9336H287.353V73.6387ZM299.305 65.9336V76.5H297.499V65.9336H299.305ZM306.239 65.9336L301.229 71.9883H298.7L298.427 70.4062H300.497L304.042 65.9336H306.239ZM304.296 76.5L300.409 71.7148L301.571 70.4062L306.591 76.5H304.296ZM314.793 74.6934V69.2539C314.793 68.8372 314.709 68.4759 314.539 68.1699C314.377 67.8574 314.129 67.6165 313.797 67.4473C313.465 67.278 313.055 67.1934 312.567 67.1934C312.111 67.1934 311.711 67.2715 311.366 67.4277C311.027 67.584 310.76 67.7891 310.565 68.043C310.376 68.2969 310.282 68.5703 310.282 68.8633H308.475C308.475 68.4857 308.573 68.1113 308.768 67.7402C308.963 67.3691 309.243 67.0339 309.608 66.7344C309.979 66.4284 310.422 66.1875 310.936 66.0117C311.457 65.8294 312.036 65.7383 312.674 65.7383C313.442 65.7383 314.12 65.8685 314.705 66.1289C315.298 66.3893 315.76 66.7832 316.092 67.3105C316.431 67.8314 316.6 68.4857 316.6 69.2734V74.1953C316.6 74.5469 316.629 74.9212 316.688 75.3184C316.753 75.7155 316.847 76.0573 316.971 76.3438V76.5H315.086C314.995 76.2917 314.924 76.015 314.871 75.6699C314.819 75.3184 314.793 74.9928 314.793 74.6934ZM315.106 70.0938L315.125 71.3633H313.299C312.785 71.3633 312.326 71.4056 311.922 71.4902C311.519 71.5684 311.18 71.6888 310.907 71.8516C310.633 72.0143 310.425 72.2194 310.282 72.4668C310.138 72.7077 310.067 72.9909 310.067 73.3164C310.067 73.6484 310.142 73.9512 310.291 74.2246C310.441 74.498 310.666 74.7161 310.965 74.8789C311.271 75.0352 311.646 75.1133 312.088 75.1133C312.642 75.1133 313.13 74.9961 313.553 74.7617C313.976 74.5273 314.312 74.2409 314.559 73.9023C314.813 73.5638 314.95 73.235 314.969 72.916L315.741 73.7852C315.695 74.0586 315.571 74.3613 315.37 74.6934C315.168 75.0254 314.898 75.3444 314.559 75.6504C314.227 75.9499 313.83 76.2005 313.368 76.4023C312.912 76.5977 312.398 76.6953 311.825 76.6953C311.108 76.6953 310.48 76.5553 309.94 76.2754C309.406 75.9954 308.989 75.6211 308.69 75.1523C308.397 74.6771 308.25 74.1465 308.25 73.5605C308.25 72.9941 308.361 72.4961 308.582 72.0664C308.804 71.6302 309.123 71.2689 309.539 70.9824C309.956 70.6895 310.457 70.4681 311.043 70.3184C311.629 70.1686 312.284 70.0938 313.006 70.0938H315.106ZM319.998 76.5V65.9336H321.805V75.0156H326.668V65.9336H328.484V76.5H319.998ZM329.734 75.0156L329.559 79.6348H327.947V76.5H326.57V75.0156H329.734ZM334.05 73.6387L338.923 65.9336H340.74V76.5H338.923V68.7949L334.05 76.5H332.254V65.9336H334.05V73.6387ZM343.562 71.334V71.1094C343.562 70.3477 343.672 69.6413 343.894 68.9902C344.115 68.3327 344.434 67.763 344.851 67.2812C345.267 66.793 345.772 66.4154 346.364 66.1484C346.957 65.875 347.621 65.7383 348.357 65.7383C349.099 65.7383 349.766 65.875 350.359 66.1484C350.958 66.4154 351.465 66.793 351.882 67.2812C352.305 67.763 352.627 68.3327 352.849 68.9902C353.07 69.6413 353.181 70.3477 353.181 71.1094V71.334C353.181 72.0957 353.07 72.8021 352.849 73.4531C352.627 74.1042 352.305 74.6738 351.882 75.1621C351.465 75.6439 350.961 76.0215 350.368 76.2949C349.782 76.5618 349.118 76.6953 348.376 76.6953C347.634 76.6953 346.967 76.5618 346.374 76.2949C345.782 76.0215 345.274 75.6439 344.851 75.1621C344.434 74.6738 344.115 74.1042 343.894 73.4531C343.672 72.8021 343.562 72.0957 343.562 71.334ZM345.368 71.1094V71.334C345.368 71.8613 345.43 72.3594 345.554 72.8281C345.678 73.2904 345.863 73.7005 346.111 74.0586C346.364 74.4167 346.68 74.6999 347.058 74.9082C347.435 75.11 347.875 75.2109 348.376 75.2109C348.871 75.2109 349.304 75.11 349.675 74.9082C350.053 74.6999 350.365 74.4167 350.613 74.0586C350.86 73.7005 351.045 73.2904 351.169 72.8281C351.299 72.3594 351.364 71.8613 351.364 71.334V71.1094C351.364 70.5885 351.299 70.097 351.169 69.6348C351.045 69.166 350.857 68.7526 350.603 68.3945C350.355 68.0299 350.043 67.7435 349.665 67.5352C349.294 67.3268 348.858 67.2227 348.357 67.2227C347.862 67.2227 347.426 67.3268 347.048 67.5352C346.677 67.7435 346.364 68.0299 346.111 68.3945C345.863 68.7526 345.678 69.166 345.554 69.6348C345.43 70.097 345.368 70.5885 345.368 71.1094ZM363.014 70.5137V71.9785H357.429V70.5137H363.014ZM357.809 65.9336V76.5H356.003V65.9336H357.809ZM364.479 65.9336V76.5H362.663V65.9336H364.479ZM374.957 70.5137V71.9785H369.371V70.5137H374.957ZM369.752 65.9336V76.5H367.946V65.9336H369.752ZM376.422 65.9336V76.5H374.606V65.9336H376.422ZM381.217 69.5664H384.391C385.243 69.5664 385.963 69.7161 386.549 70.0156C387.135 70.3086 387.577 70.7155 387.877 71.2363C388.183 71.7507 388.336 72.3366 388.336 72.9941C388.336 73.4824 388.251 73.9414 388.082 74.3711C387.913 74.7943 387.659 75.1654 387.32 75.4844C386.988 75.8034 386.575 76.054 386.08 76.2363C385.592 76.4121 385.029 76.5 384.391 76.5H379.898V65.9336H381.705V75.0156H384.391C384.911 75.0156 385.328 74.9212 385.641 74.7324C385.953 74.5436 386.178 74.2995 386.314 74C386.451 73.7005 386.52 73.388 386.52 73.0625C386.52 72.7435 386.451 72.431 386.314 72.125C386.178 71.819 385.953 71.5651 385.641 71.3633C385.328 71.1549 384.911 71.0508 384.391 71.0508H381.217V69.5664ZM392.096 65.9336V76.5H390.289V65.9336H392.096ZM396.88 65.9336L399.195 69.7812L401.539 65.9336H403.658L400.201 71.1484L403.765 76.5H401.675L399.234 72.5352L396.793 76.5H394.693L398.248 71.1484L394.8 65.9336H396.88ZM146.684 89.9336V100.5H144.867V89.9336H146.684ZM150.229 89.9336V91.3984H141.391V89.9336H150.229ZM156.009 100.695C155.274 100.695 154.606 100.572 154.007 100.324C153.415 100.07 152.904 99.7155 152.474 99.2598C152.051 98.804 151.726 98.2637 151.498 97.6387C151.27 97.0137 151.156 96.3301 151.156 95.5879V95.1777C151.156 94.3184 151.283 93.5534 151.537 92.8828C151.791 92.2057 152.136 91.6328 152.572 91.1641C153.008 90.6953 153.503 90.3405 154.056 90.0996C154.61 89.8587 155.183 89.7383 155.775 89.7383C156.53 89.7383 157.181 89.8685 157.728 90.1289C158.282 90.3893 158.734 90.7539 159.086 91.2227C159.437 91.6849 159.698 92.2318 159.867 92.8633C160.036 93.4883 160.121 94.1719 160.121 94.9141V95.7246H152.23V94.25H158.314V94.1133C158.288 93.6445 158.19 93.1888 158.021 92.7461C157.858 92.3034 157.598 91.9388 157.24 91.6523C156.882 91.3659 156.393 91.2227 155.775 91.2227C155.365 91.2227 154.987 91.3105 154.642 91.4863C154.297 91.6556 154.001 91.9095 153.754 92.248C153.506 92.5866 153.314 93 153.177 93.4883C153.041 93.9766 152.972 94.5397 152.972 95.1777V95.5879C152.972 96.0892 153.041 96.5612 153.177 97.0039C153.321 97.4401 153.526 97.8242 153.793 98.1562C154.066 98.4883 154.395 98.7487 154.779 98.9375C155.17 99.1263 155.612 99.2207 156.107 99.2207C156.745 99.2207 157.285 99.0905 157.728 98.8301C158.171 98.5697 158.558 98.2214 158.89 97.7852L159.984 98.6543C159.756 98.9993 159.466 99.3281 159.115 99.6406C158.763 99.9531 158.33 100.207 157.816 100.402C157.308 100.598 156.706 100.695 156.009 100.695ZM163.851 89.9336L166.165 93.7812L168.509 89.9336H170.628L167.171 95.1484L170.736 100.5H168.646L166.204 96.5352L163.763 100.5H161.663L165.218 95.1484L161.771 89.9336H163.851ZM180.12 94.5137V95.9785H174.534V94.5137H180.12ZM174.915 89.9336V100.5H173.108V89.9336H174.915ZM181.585 89.9336V100.5H179.768V89.9336H181.585ZM184.416 95.334V95.1094C184.416 94.3477 184.527 93.6413 184.748 92.9902C184.97 92.3327 185.289 91.763 185.705 91.2812C186.122 90.793 186.627 90.4154 187.219 90.1484C187.812 89.875 188.476 89.7383 189.211 89.7383C189.954 89.7383 190.621 89.875 191.213 90.1484C191.812 90.4154 192.32 90.793 192.737 91.2812C193.16 91.763 193.482 92.3327 193.704 92.9902C193.925 93.6413 194.036 94.3477 194.036 95.1094V95.334C194.036 96.0957 193.925 96.8021 193.704 97.4531C193.482 98.1042 193.16 98.6738 192.737 99.1621C192.32 99.6439 191.815 100.021 191.223 100.295C190.637 100.562 189.973 100.695 189.231 100.695C188.489 100.695 187.821 100.562 187.229 100.295C186.636 100.021 186.129 99.6439 185.705 99.1621C185.289 98.6738 184.97 98.1042 184.748 97.4531C184.527 96.8021 184.416 96.0957 184.416 95.334ZM186.223 95.1094V95.334C186.223 95.8613 186.285 96.3594 186.409 96.8281C186.532 97.2904 186.718 97.7005 186.965 98.0586C187.219 98.4167 187.535 98.6999 187.912 98.9082C188.29 99.11 188.73 99.2109 189.231 99.2109C189.726 99.2109 190.159 99.11 190.53 98.9082C190.907 98.6999 191.22 98.4167 191.467 98.0586C191.715 97.7005 191.9 97.2904 192.024 96.8281C192.154 96.3594 192.219 95.8613 192.219 95.334V95.1094C192.219 94.5885 192.154 94.097 192.024 93.6348C191.9 93.166 191.711 92.7526 191.457 92.3945C191.21 92.0299 190.898 91.7435 190.52 91.5352C190.149 91.3268 189.713 91.2227 189.211 91.2227C188.717 91.2227 188.28 91.3268 187.903 91.5352C187.532 91.7435 187.219 92.0299 186.965 92.3945C186.718 92.7526 186.532 93.166 186.409 93.6348C186.285 94.097 186.223 94.5885 186.223 95.1094ZM203.605 89.9336V91.4277H198.498V89.9336H203.605ZM205.197 89.9336V100.5H203.391V89.9336H205.197ZM198.059 89.9336H199.875L199.602 95.0312C199.556 95.819 199.481 96.5156 199.377 97.1211C199.279 97.7201 199.143 98.2344 198.967 98.6641C198.798 99.0938 198.583 99.4453 198.322 99.7188C198.068 99.9857 197.762 100.184 197.404 100.314C197.046 100.438 196.633 100.5 196.164 100.5H195.598V98.9082L195.988 98.8789C196.268 98.8594 196.506 98.7943 196.701 98.6836C196.903 98.5729 197.072 98.4102 197.209 98.1953C197.346 97.974 197.456 97.6908 197.541 97.3457C197.632 97.0007 197.701 96.5905 197.746 96.1152C197.798 95.64 197.837 95.0866 197.863 94.4551L198.059 89.9336ZM208.029 95.334V95.1094C208.029 94.3477 208.14 93.6413 208.361 92.9902C208.582 92.3327 208.901 91.763 209.318 91.2812C209.735 90.793 210.239 90.4154 210.832 90.1484C211.424 89.875 212.088 89.7383 212.824 89.7383C213.566 89.7383 214.233 89.875 214.826 90.1484C215.425 90.4154 215.933 90.793 216.349 91.2812C216.772 91.763 217.095 92.3327 217.316 92.9902C217.537 93.6413 217.648 94.3477 217.648 95.1094V95.334C217.648 96.0957 217.537 96.8021 217.316 97.4531C217.095 98.1042 216.772 98.6738 216.349 99.1621C215.933 99.6439 215.428 100.021 214.836 100.295C214.25 100.562 213.586 100.695 212.843 100.695C212.101 100.695 211.434 100.562 210.841 100.295C210.249 100.021 209.741 99.6439 209.318 99.1621C208.901 98.6738 208.582 98.1042 208.361 97.4531C208.14 96.8021 208.029 96.0957 208.029 95.334ZM209.836 95.1094V95.334C209.836 95.8613 209.897 96.3594 210.021 96.8281C210.145 97.2904 210.33 97.7005 210.578 98.0586C210.832 98.4167 211.147 98.6999 211.525 98.9082C211.903 99.11 212.342 99.2109 212.843 99.2109C213.338 99.2109 213.771 99.11 214.142 98.9082C214.52 98.6999 214.832 98.4167 215.08 98.0586C215.327 97.7005 215.513 97.2904 215.636 96.8281C215.767 96.3594 215.832 95.8613 215.832 95.334V95.1094C215.832 94.5885 215.767 94.097 215.636 93.6348C215.513 93.166 215.324 92.7526 215.07 92.3945C214.823 92.0299 214.51 91.7435 214.132 91.5352C213.761 91.3268 213.325 91.2227 212.824 91.2227C212.329 91.2227 211.893 91.3268 211.515 91.5352C211.144 91.7435 210.832 92.0299 210.578 92.3945C210.33 92.7526 210.145 93.166 210.021 93.6348C209.897 94.097 209.836 94.5885 209.836 95.1094ZM227.14 89.9336V91.4277H222.257V100.5H220.45V89.9336H227.14ZM231.065 97.6387L235.938 89.9336H237.755V100.5H235.938V92.7949L231.065 100.5H229.268V89.9336H231.065V97.6387ZM243.008 97.6387L247.881 89.9336H249.698V100.5H247.881V92.7949L243.008 100.5H241.211V89.9336H243.008V97.6387ZM246.895 86.1055H248.36C248.36 86.6133 248.243 87.0658 248.008 87.4629C247.774 87.8535 247.439 88.1595 247.002 88.3809C246.566 88.6022 246.049 88.7129 245.45 88.7129C244.545 88.7129 243.829 88.472 243.301 87.9902C242.78 87.502 242.52 86.8737 242.52 86.1055H243.985C243.985 86.4896 244.095 86.8281 244.317 87.1211C244.538 87.4141 244.916 87.5605 245.45 87.5605C245.97 87.5605 246.342 87.4141 246.563 87.1211C246.784 86.8281 246.895 86.4896 246.895 86.1055Z" fill="#005AAA"/>
<path fill-rule="evenodd" clip-rule="evenodd" d="M98.219 17.4158L97.7891 16.9872H97.7568C96.0126 15.5744 93.4392 15.6791 91.818 17.2944C90.0876 19.02 90.0876 21.8288 91.8215 23.5588C100.998 32.7088 106.052 44.8746 106.051 57.8141C106.051 70.7546 100.997 82.9194 91.8215 92.0705C90.0908 93.7962 90.0908 96.6049 91.8215 98.3303V98.3316C92.6866 99.1932 93.8232 99.6251 94.9598 99.6251C96.0976 99.6251 97.2342 99.1932 98.1005 98.3316C108.954 87.5083 114.932 73.1192 114.933 57.8141C114.932 42.5645 108.996 28.2245 98.219 17.4158ZM47.2535 47.6352C44.4644 50.4152 42.9269 54.1113 42.9247 58.0421C42.9237 61.9752 44.4577 65.6726 47.2455 68.4536C48.9772 70.179 51.7931 70.1802 53.5238 68.4545C55.2556 66.7291 55.2565 63.9201 53.5248 62.1937C52.4151 61.0859 51.8043 59.614 51.8052 58.0466C51.8052 56.4792 52.4195 55.0051 53.5306 53.8976C55.827 51.6109 59.5585 51.6109 61.8527 53.8963C62.9625 55.0041 63.5733 56.4769 63.5733 58.0434C63.5723 59.6108 62.9593 61.0837 61.8473 62.1924C61.0078 63.0285 60.5456 64.1395 60.5456 65.3241C60.5456 66.5065 61.0075 67.6184 61.846 68.4545C62.7114 69.3183 63.848 69.7493 64.9858 69.7493C66.1224 69.7493 67.259 69.3183 68.1244 68.4558C70.9131 65.6758 72.4506 61.9797 72.4529 58.0479C72.4551 54.1158 70.9198 50.4184 68.1311 47.6352C62.3776 41.8976 53.0111 41.8964 47.2535 47.6352ZM23.1117 23.5587C13.9352 32.7086 8.8818 44.8744 8.8818 57.8139C8.8818 70.8525 14.0077 83.0919 23.3183 92.2751C25.0578 94.0097 25.0667 96.8095 23.3551 98.5362C22.5222 99.3768 21.4102 99.8444 20.2233 99.8511H20.1965C19.0208 99.8511 17.9133 99.3978 17.0759 98.5741L16.8269 98.3257C5.97665 87.5069 0.00111646 73.1203 0 57.8139C0.00111646 42.5087 5.97888 28.1197 16.8325 17.2966C18.5642 15.5721 21.3811 15.571 23.1117 17.2977C23.9502 18.1337 24.4124 19.2448 24.4124 20.4282C24.4124 21.6105 23.9502 22.7226 23.1117 23.5587ZM82.3956 31.2112C81.5315 30.4008 80.4148 29.9689 79.2169 30.0134C78.0323 30.0501 76.9315 30.5455 76.1198 31.4072C75.3046 32.2733 74.8782 33.4033 74.9171 34.59C74.9574 35.7712 75.4544 36.8644 76.3173 37.6649C81.9455 42.9351 85.0438 50.0745 85.0451 57.7671C85.0438 65.1013 82.189 72.0036 77.005 77.2037C75.2835 78.9291 75.288 81.7324 77.014 83.4546L76.9759 83.4279L77.0229 83.4648C77.8605 84.2943 78.9725 84.7507 80.1525 84.7507H80.1672C81.3527 84.7472 82.4659 84.2831 83.3022 83.4448C90.1521 76.5746 93.9247 67.4561 93.9257 57.7671C93.9247 47.7532 89.7221 38.0757 82.3956 31.2112ZM30.2293 57.7663C30.2282 65.1649 33.11 72.0917 38.3441 77.2784L38.4189 77.352C40.1202 79.0484 40.1247 81.8517 38.4042 83.5784C37.5679 84.4177 36.4549 84.8821 35.2679 84.8843H35.2548C34.0744 84.8843 32.9624 84.4279 32.1252 83.5972L32.0459 83.5195C25.147 76.6404 21.3474 67.4951 21.3485 57.7663C21.3474 48.1187 25.0933 39.0265 31.8952 32.1643C32.7289 31.3238 33.8412 30.8563 35.0267 30.8496C36.2169 30.8084 37.3315 31.296 38.1745 32.1276C39.8982 33.8699 39.9094 36.6742 38.2112 38.3886C33.064 43.582 30.2282 50.4643 30.2293 57.7663Z" fill="url(#paint0_linear_23_37)"/>
<defs>
<linearGradient id="paint0_linear_23_37" x1="-2.69925e-07" y1="70.9564" x2="114.934" y2="71.0252" gradientUnits="userSpaceOnUse">
<stop stop-color="#9C3022"/>
<stop offset="1" stop-color="#FF6418"/>
</linearGradient>
</defs>
</svg>
