<svg width="320" height="115" viewBox="0 0 320 115" fill="none" xmlns="http://www.w3.org/2000/svg">
<path d="M144.613 37.2383L151.615 26.2812H153.5V40.5H151.615V29.5332L144.613 40.5H142.738V26.2812H144.613V37.2383ZM164.222 34.5137V35.9785H158.636V34.5137H164.222ZM159.017 29.9336V40.5H157.211V29.9336H159.017ZM165.687 29.9336V40.5H163.871V29.9336H165.687ZM173.226 39.2109C173.655 39.2109 174.053 39.123 174.417 38.9473C174.782 38.7715 175.081 38.5306 175.316 38.2246C175.55 37.9121 175.683 37.5573 175.716 37.1602H177.435C177.402 37.7852 177.191 38.3678 176.8 38.9082C176.416 39.4421 175.911 39.875 175.286 40.207C174.661 40.5326 173.974 40.6953 173.226 40.6953C172.432 40.6953 171.738 40.5553 171.146 40.2754C170.56 39.9954 170.071 39.6113 169.681 39.123C169.297 38.6348 169.007 38.0749 168.812 37.4434C168.623 36.8053 168.529 36.1315 168.529 35.4219V35.0117C168.529 34.3021 168.623 33.6315 168.812 33C169.007 32.362 169.297 31.7988 169.681 31.3105C170.071 30.8223 170.56 30.4382 171.146 30.1582C171.738 29.8783 172.432 29.7383 173.226 29.7383C174.053 29.7383 174.775 29.9076 175.394 30.2461C176.012 30.5781 176.497 31.0339 176.849 31.6133C177.207 32.1862 177.402 32.8372 177.435 33.5664H175.716C175.683 33.1302 175.56 32.7363 175.345 32.3848C175.137 32.0332 174.85 31.7533 174.486 31.5449C174.127 31.3301 173.708 31.2227 173.226 31.2227C172.672 31.2227 172.207 31.3333 171.829 31.5547C171.458 31.7695 171.162 32.0625 170.941 32.4336C170.726 32.7982 170.57 33.2051 170.472 33.6543C170.381 34.097 170.335 34.5495 170.335 35.0117V35.4219C170.335 35.8841 170.381 36.3398 170.472 36.7891C170.563 37.2383 170.716 37.6452 170.931 38.0098C171.152 38.3743 171.448 38.6673 171.82 38.8887C172.197 39.1035 172.666 39.2109 173.226 39.2109ZM184.173 29.9336V40.5H182.356V29.9336H184.173ZM187.718 29.9336V31.3984H178.88V29.9336H187.718ZM191.848 37.6387L196.721 29.9336H198.537V40.5H196.721V32.7949L191.848 40.5H190.051V29.9336H191.848V37.6387ZM206.145 29.9336V40.5H204.328V29.9336H206.145ZM209.689 29.9336V31.3984H200.852V29.9336H209.689ZM214.953 39.4062L217.892 29.9336H219.826L215.588 42.1309C215.49 42.3913 215.36 42.6712 215.197 42.9707C215.041 43.2767 214.839 43.5664 214.591 43.8398C214.344 44.1133 214.045 44.3346 213.693 44.5039C213.348 44.6797 212.935 44.7676 212.453 44.7676C212.31 44.7676 212.127 44.748 211.906 44.709C211.685 44.6699 211.528 44.6374 211.437 44.6113L211.427 43.1465C211.479 43.153 211.561 43.1595 211.671 43.166C211.789 43.179 211.87 43.1855 211.916 43.1855C212.326 43.1855 212.674 43.1302 212.961 43.0195C213.247 42.9154 213.488 42.7363 213.683 42.4824C213.885 42.235 214.058 41.8932 214.201 41.457L214.953 39.4062ZM212.795 29.9336L215.539 38.1367L216.007 40.041L214.709 40.7051L210.822 29.9336H212.795ZM226.163 29.9336V40.5H224.347V29.9336H226.163ZM229.708 29.9336V31.3984H220.87V29.9336H229.708ZM144.34 53.9336V64.5H142.533V53.9336H144.34ZM151.273 53.9336L146.264 59.9883H143.734L143.461 58.4062H145.531L149.076 53.9336H151.273ZM149.33 64.5L145.443 59.7148L146.605 58.4062L151.625 64.5H149.33ZM155.55 61.6387L160.423 53.9336H162.24V64.5H160.423V56.7949L155.55 64.5H153.754V53.9336H155.55V61.6387ZM172.318 49.334H173.802C173.802 49.972 173.704 50.4798 173.509 50.8574C173.314 51.2285 173.047 51.515 172.708 51.7168C172.376 51.9186 171.999 52.0716 171.575 52.1758C171.159 52.2799 170.726 52.3809 170.277 52.4785C169.717 52.5957 169.196 52.7812 168.714 53.0352C168.239 53.2826 167.829 53.6341 167.484 54.0898C167.145 54.5456 166.894 55.138 166.732 55.8672C166.575 56.5964 166.533 57.498 166.605 58.5723V59.4707H165.12V58.5723C165.12 57.3678 165.234 56.3164 165.462 55.418C165.696 54.5195 166.025 53.7611 166.448 53.1426C166.872 52.5241 167.373 52.0326 167.952 51.668C168.538 51.3034 169.183 51.0527 169.886 50.916C170.394 50.8184 170.83 50.7142 171.195 50.6035C171.559 50.4863 171.836 50.3301 172.025 50.1348C172.22 49.9395 172.318 49.6725 172.318 49.334ZM170.179 54.5391C170.869 54.5391 171.484 54.6595 172.025 54.9004C172.565 55.1413 173.024 55.4766 173.402 55.9062C173.779 56.3359 174.066 56.8438 174.261 57.4297C174.463 58.0091 174.564 58.6406 174.564 59.3242V59.5391C174.564 60.2747 174.456 60.9583 174.241 61.5898C174.033 62.2148 173.724 62.7617 173.314 63.2305C172.91 63.6927 172.415 64.054 171.829 64.3145C171.25 64.5749 170.589 64.7051 169.847 64.7051C169.105 64.7051 168.441 64.5749 167.855 64.3145C167.275 64.054 166.78 63.6927 166.37 63.2305C165.96 62.7617 165.648 62.2148 165.433 61.5898C165.224 60.9583 165.12 60.2747 165.12 59.5391V59.3242C165.12 59.1615 165.15 59.002 165.208 58.8457C165.267 58.6895 165.338 58.5299 165.423 58.3672C165.514 58.2044 165.596 58.0319 165.667 57.8496C165.908 57.2637 166.237 56.7201 166.654 56.2188C167.077 55.7174 167.581 55.3138 168.167 55.0078C168.76 54.6953 169.43 54.5391 170.179 54.5391ZM169.827 56.0137C169.163 56.0137 168.616 56.1667 168.187 56.4727C167.764 56.7786 167.448 57.1855 167.239 57.6934C167.031 58.1947 166.927 58.7383 166.927 59.3242V59.5391C166.927 60.0339 166.986 60.5026 167.103 60.9453C167.22 61.388 167.396 61.7819 167.63 62.127C167.871 62.4655 168.174 62.7324 168.538 62.9277C168.909 63.123 169.346 63.2207 169.847 63.2207C170.348 63.2207 170.781 63.123 171.146 62.9277C171.51 62.7324 171.81 62.4655 172.044 62.127C172.279 61.7819 172.454 61.388 172.571 60.9453C172.689 60.5026 172.747 60.0339 172.747 59.5391V59.3242C172.747 58.8815 172.689 58.4616 172.571 58.0645C172.454 57.6673 172.275 57.3158 172.034 57.0098C171.8 56.7038 171.497 56.4629 171.126 56.2871C170.762 56.1048 170.329 56.0137 169.827 56.0137ZM181.399 64.6953C180.664 64.6953 179.996 64.5716 179.397 64.3242C178.805 64.0703 178.294 63.7155 177.864 63.2598C177.441 62.804 177.115 62.2637 176.888 61.6387C176.66 61.0137 176.546 60.3301 176.546 59.5879V59.1777C176.546 58.3184 176.673 57.5534 176.927 56.8828C177.18 56.2057 177.526 55.6328 177.962 55.1641C178.398 54.6953 178.893 54.3405 179.446 54.0996C179.999 53.8587 180.572 53.7383 181.165 53.7383C181.92 53.7383 182.571 53.8685 183.118 54.1289C183.671 54.3893 184.124 54.7539 184.475 55.2227C184.827 55.6849 185.087 56.2318 185.257 56.8633C185.426 57.4883 185.511 58.1719 185.511 58.9141V59.7246H177.62V58.25H183.704V58.1133C183.678 57.6445 183.58 57.1888 183.411 56.7461C183.248 56.3034 182.988 55.9388 182.63 55.6523C182.272 55.3659 181.783 55.2227 181.165 55.2227C180.755 55.2227 180.377 55.3105 180.032 55.4863C179.687 55.6556 179.391 55.9095 179.143 56.248C178.896 56.5866 178.704 57 178.567 57.4883C178.43 57.9766 178.362 58.5397 178.362 59.1777V59.5879C178.362 60.0892 178.43 60.5612 178.567 61.0039C178.71 61.4401 178.915 61.8242 179.182 62.1562C179.456 62.4883 179.785 62.7487 180.169 62.9375C180.559 63.1263 181.002 63.2207 181.497 63.2207C182.135 63.2207 182.675 63.0905 183.118 62.8301C183.561 62.5697 183.948 62.2214 184.28 61.7852L185.374 62.6543C185.146 62.9993 184.856 63.3281 184.505 63.6406C184.153 63.9531 183.72 64.207 183.206 64.4023C182.698 64.5977 182.096 64.6953 181.399 64.6953ZM189.827 55.9648V68.5625H188.01V53.9336H189.67L189.827 55.9648ZM196.946 59.1289V59.334C196.946 60.1022 196.855 60.8151 196.672 61.4727C196.49 62.1237 196.223 62.6901 195.871 63.1719C195.526 63.6536 195.1 64.028 194.592 64.2949C194.084 64.5618 193.502 64.6953 192.844 64.6953C192.174 64.6953 191.581 64.5846 191.067 64.3633C190.552 64.1419 190.116 63.8197 189.758 63.3965C189.4 62.9733 189.114 62.4655 188.899 61.873C188.69 61.2806 188.547 60.6133 188.469 59.8711V58.7773C188.547 57.9961 188.694 57.2962 188.909 56.6777C189.123 56.0592 189.407 55.5319 189.758 55.0957C190.116 54.653 190.549 54.3177 191.057 54.0898C191.565 53.8555 192.151 53.7383 192.815 53.7383C193.479 53.7383 194.068 53.8685 194.582 54.1289C195.097 54.3828 195.53 54.7474 195.881 55.2227C196.233 55.6979 196.496 56.2676 196.672 56.9316C196.855 57.5892 196.946 58.3216 196.946 59.1289ZM195.129 59.334V59.1289C195.129 58.6016 195.074 58.1068 194.963 57.6445C194.853 57.1758 194.68 56.7656 194.446 56.4141C194.218 56.056 193.925 55.776 193.567 55.5742C193.209 55.3659 192.782 55.2617 192.287 55.2617C191.832 55.2617 191.435 55.3398 191.096 55.4961C190.764 55.6523 190.481 55.8639 190.246 56.1309C190.012 56.3913 189.82 56.6908 189.67 57.0293C189.527 57.3613 189.42 57.7064 189.348 58.0645V60.5938C189.478 61.0495 189.661 61.4792 189.895 61.8828C190.129 62.2799 190.442 62.6022 190.832 62.8496C191.223 63.0905 191.715 63.2109 192.307 63.2109C192.795 63.2109 193.215 63.11 193.567 62.9082C193.925 62.6999 194.218 62.4167 194.446 62.0586C194.68 61.7005 194.853 61.2904 194.963 60.8281C195.074 60.3594 195.129 59.8613 195.129 59.334ZM211.799 59.4023V59.6074C211.799 60.3496 211.717 61.0332 211.555 61.6582C211.392 62.2767 211.148 62.8138 210.822 63.2695C210.503 63.7253 210.106 64.0801 209.631 64.334C209.156 64.5814 208.605 64.7051 207.98 64.7051C207.466 64.7051 207.014 64.6367 206.623 64.5C206.232 64.3568 205.9 64.1517 205.627 63.8848C205.36 63.6178 205.145 63.2988 204.982 62.9277C204.826 62.5501 204.719 62.127 204.66 61.6582V56.9707C204.719 56.4694 204.826 56.0202 204.982 55.623C205.145 55.2259 205.36 54.8874 205.627 54.6074C205.9 54.3275 206.229 54.1126 206.613 53.9629C206.997 53.8132 207.447 53.7383 207.961 53.7383C208.469 53.7383 208.924 53.8294 209.328 54.0117C209.738 54.1875 210.096 54.4414 210.402 54.7734C210.715 55.1055 210.972 55.5059 211.174 55.9746C211.382 56.4368 211.538 56.9577 211.643 57.5371C211.747 58.1165 211.799 58.7383 211.799 59.4023ZM209.992 59.6074V59.4023C209.992 58.9466 209.96 58.5137 209.895 58.1035C209.836 57.6868 209.742 57.306 209.611 56.9609C209.488 56.6094 209.325 56.3034 209.123 56.043C208.921 55.7826 208.677 55.5807 208.391 55.4375C208.111 55.2943 207.788 55.2227 207.424 55.2227C207.033 55.2227 206.708 55.2715 206.447 55.3691C206.193 55.4668 205.995 55.597 205.852 55.7598C205.708 55.916 205.604 56.082 205.539 56.2578V62.3809C205.617 62.5241 205.731 62.6608 205.881 62.791C206.031 62.9147 206.232 63.0189 206.486 63.1035C206.74 63.1816 207.059 63.2207 207.443 63.2207C207.899 63.2207 208.286 63.1296 208.605 62.9473C208.931 62.7585 209.195 62.498 209.396 62.166C209.605 61.834 209.755 61.4499 209.846 61.0137C209.943 60.5775 209.992 60.1087 209.992 59.6074ZM199.25 59.6074V59.4023C199.25 58.7383 199.302 58.1165 199.406 57.5371C199.51 56.9577 199.667 56.4368 199.875 55.9746C200.083 55.5059 200.34 55.1055 200.646 54.7734C200.959 54.4414 201.317 54.1875 201.721 54.0117C202.131 53.8294 202.59 53.7383 203.098 53.7383C203.599 53.7383 204.035 53.8132 204.406 53.9629C204.784 54.1126 205.103 54.3275 205.363 54.6074C205.624 54.8874 205.832 55.2259 205.988 55.623C206.145 56.0202 206.255 56.4694 206.32 56.9707V61.4727C206.262 61.9674 206.154 62.4134 205.998 62.8105C205.842 63.2077 205.633 63.5495 205.373 63.8359C205.113 64.1159 204.79 64.3307 204.406 64.4805C204.029 64.6302 203.586 64.7051 203.078 64.7051C202.453 64.7051 201.903 64.5814 201.428 64.334C200.952 64.0801 200.552 63.7253 200.227 63.2695C199.908 62.8138 199.663 62.2767 199.494 61.6582C199.331 61.0332 199.25 60.3496 199.25 59.6074ZM201.066 59.4023V59.6074C201.066 60.1087 201.109 60.5775 201.193 61.0137C201.285 61.4499 201.424 61.834 201.613 62.166C201.809 62.498 202.062 62.7585 202.375 62.9473C202.688 63.1296 203.072 63.2207 203.527 63.2207C203.918 63.2207 204.24 63.1719 204.494 63.0742C204.748 62.9766 204.95 62.8496 205.1 62.6934C205.249 62.5371 205.363 62.3743 205.441 62.2051V56.2578C205.376 56.082 205.269 55.916 205.119 55.7598C204.976 55.597 204.777 55.4668 204.523 55.3691C204.27 55.2715 203.944 55.2227 203.547 55.2227C203.091 55.2227 202.704 55.3333 202.385 55.5547C202.066 55.776 201.809 56.0788 201.613 56.4629C201.424 56.847 201.285 57.293 201.193 57.8008C201.109 58.3021 201.066 58.8359 201.066 59.4023ZM204.543 68.5625V49.5H206.359V68.5625H204.543ZM216.515 61.6387L221.388 53.9336H223.205V64.5H221.388V56.7949L216.515 64.5H214.718V53.9336H216.515V61.6387ZM230.45 59.4512H228.507V58.3379H230.304C230.805 58.3379 231.202 58.276 231.495 58.1523C231.788 58.0221 231.997 57.8431 232.12 57.6152C232.244 57.3874 232.306 57.1204 232.306 56.8145C232.306 56.541 232.234 56.2839 232.091 56.043C231.954 55.7956 231.733 55.597 231.427 55.4473C231.121 55.291 230.711 55.2129 230.196 55.2129C229.78 55.2129 229.402 55.2878 229.064 55.4375C228.725 55.5807 228.455 55.7793 228.253 56.0332C228.058 56.2806 227.96 56.5605 227.96 56.873H226.154C226.154 56.2285 226.336 55.6751 226.7 55.2129C227.071 54.7441 227.563 54.3828 228.175 54.1289C228.793 53.875 229.467 53.748 230.196 53.748C230.808 53.748 231.355 53.8164 231.837 53.9531C232.325 54.0833 232.739 54.2786 233.077 54.5391C233.416 54.793 233.673 55.112 233.849 55.4961C234.031 55.8737 234.122 56.3132 234.122 56.8145C234.122 57.1725 234.038 57.5111 233.868 57.8301C233.699 58.1491 233.455 58.4323 233.136 58.6797C232.817 58.9206 232.43 59.1094 231.974 59.2461C231.525 59.3828 231.017 59.4512 230.45 59.4512ZM228.507 58.7676H230.45C231.082 58.7676 231.639 58.8294 232.12 58.9531C232.602 59.0703 233.006 59.2461 233.331 59.4805C233.657 59.7148 233.901 60.0046 234.064 60.3496C234.233 60.6882 234.318 61.0788 234.318 61.5215C234.318 62.0163 234.217 62.4622 234.015 62.8594C233.82 63.25 233.54 63.582 233.175 63.8555C232.81 64.1289 232.374 64.3372 231.866 64.4805C231.365 64.6237 230.808 64.6953 230.196 64.6953C229.513 64.6953 228.849 64.5781 228.204 64.3438C227.56 64.1094 227.029 63.748 226.613 63.2598C226.196 62.765 225.988 62.1367 225.988 61.375H227.794C227.794 61.694 227.895 61.9967 228.097 62.2832C228.299 62.5697 228.579 62.8008 228.937 62.9766C229.301 63.1523 229.721 63.2402 230.196 63.2402C230.704 63.2402 231.127 63.1621 231.466 63.0059C231.805 62.8496 232.058 62.6413 232.228 62.3809C232.404 62.1204 232.491 61.8372 232.491 61.5312C232.491 61.1341 232.413 60.8151 232.257 60.5742C232.101 60.3333 231.86 60.1576 231.534 60.0469C231.215 59.9297 230.805 59.8711 230.304 59.8711H228.507V58.7676ZM239.014 61.6387L243.887 53.9336H245.704V64.5H243.887V56.7949L239.014 64.5H237.218V53.9336H239.014V61.6387ZM256.973 53.9336V64.5H255.166V53.9336H256.973ZM256.358 58.7871V60.2715C255.993 60.4082 255.622 60.5319 255.245 60.6426C254.873 60.7467 254.48 60.8314 254.063 60.8965C253.653 60.9551 253.207 60.9844 252.725 60.9844C251.892 60.9844 251.169 60.8411 250.557 60.5547C249.945 60.2617 249.473 59.8223 249.141 59.2363C248.809 58.6439 248.643 57.8984 248.643 57V53.9141H250.45V57C250.45 57.5859 250.537 58.0612 250.713 58.4258C250.889 58.7904 251.146 59.0605 251.485 59.2363C251.823 59.4056 252.237 59.4902 252.725 59.4902C253.194 59.4902 253.633 59.4609 254.043 59.4023C254.46 59.3372 254.857 59.2526 255.235 59.1484C255.619 59.0443 255.993 58.9238 256.358 58.7871ZM264.668 64.6953C263.932 64.6953 263.265 64.5716 262.666 64.3242C262.074 64.0703 261.562 63.7155 261.133 63.2598C260.71 62.804 260.384 62.2637 260.156 61.6387C259.928 61.0137 259.814 60.3301 259.814 59.5879V59.1777C259.814 58.3184 259.941 57.5534 260.195 56.8828C260.449 56.2057 260.794 55.6328 261.23 55.1641C261.667 54.6953 262.161 54.3405 262.715 54.0996C263.268 53.8587 263.841 53.7383 264.434 53.7383C265.189 53.7383 265.84 53.8685 266.387 54.1289C266.94 54.3893 267.393 54.7539 267.744 55.2227C268.096 55.6849 268.356 56.2318 268.525 56.8633C268.695 57.4883 268.779 58.1719 268.779 58.9141V59.7246H260.889V58.25H266.973V58.1133C266.947 57.6445 266.849 57.1888 266.68 56.7461C266.517 56.3034 266.257 55.9388 265.898 55.6523C265.54 55.3659 265.052 55.2227 264.434 55.2227C264.023 55.2227 263.646 55.3105 263.301 55.4863C262.956 55.6556 262.66 55.9095 262.412 56.248C262.165 56.5866 261.973 57 261.836 57.4883C261.699 57.9766 261.631 58.5397 261.631 59.1777V59.5879C261.631 60.0892 261.699 60.5612 261.836 61.0039C261.979 61.4401 262.184 61.8242 262.451 62.1562C262.725 62.4883 263.053 62.7487 263.438 62.9375C263.828 63.1263 264.271 63.2207 264.766 63.2207C265.404 63.2207 265.944 63.0905 266.387 62.8301C266.829 62.5697 267.217 62.2214 267.549 61.7852L268.643 62.6543C268.415 62.9993 268.125 63.3281 267.773 63.6406C267.422 63.9531 266.989 64.207 266.475 64.4023C265.967 64.5977 265.365 64.6953 264.668 64.6953ZM275.517 63.2109C275.947 63.2109 276.344 63.123 276.709 62.9473C277.073 62.7715 277.373 62.5306 277.607 62.2246C277.841 61.9121 277.975 61.5573 278.007 61.1602H279.726C279.694 61.7852 279.482 62.3678 279.091 62.9082C278.707 63.4421 278.203 63.875 277.578 64.207C276.953 64.5326 276.266 64.6953 275.517 64.6953C274.723 64.6953 274.03 64.5553 273.437 64.2754C272.851 63.9954 272.363 63.6113 271.972 63.123C271.588 62.6348 271.298 62.0749 271.103 61.4434C270.914 60.8053 270.82 60.1315 270.82 59.4219V59.0117C270.82 58.3021 270.914 57.6315 271.103 57C271.298 56.362 271.588 55.7988 271.972 55.3105C272.363 54.8223 272.851 54.4382 273.437 54.1582C274.03 53.8783 274.723 53.7383 275.517 53.7383C276.344 53.7383 277.067 53.9076 277.685 54.2461C278.304 54.5781 278.789 55.0339 279.14 55.6133C279.498 56.1862 279.694 56.8372 279.726 57.5664H278.007C277.975 57.1302 277.851 56.7363 277.636 56.3848C277.428 56.0332 277.142 55.7533 276.777 55.5449C276.419 55.3301 275.999 55.2227 275.517 55.2227C274.964 55.2227 274.498 55.3333 274.121 55.5547C273.75 55.7695 273.453 56.0625 273.232 56.4336C273.017 56.7982 272.861 57.2051 272.763 57.6543C272.672 58.097 272.627 58.5495 272.627 59.0117V59.4219C272.627 59.8841 272.672 60.3398 272.763 60.7891C272.854 61.2383 273.007 61.6452 273.222 62.0098C273.444 62.3743 273.74 62.6673 274.111 62.8887C274.489 63.1035 274.957 63.2109 275.517 63.2109ZM284.12 53.9336V64.5H282.314V53.9336H284.12ZM291.054 53.9336L286.044 59.9883H283.515L283.241 58.4062H285.312L288.857 53.9336H291.054ZM289.111 64.5L285.224 59.7148L286.386 58.4062L291.405 64.5H289.111ZM295.331 61.6387L300.204 53.9336H302.02V64.5H300.204V56.7949L295.331 64.5H293.534V53.9336H295.331V61.6387ZM306.541 53.9336L308.856 57.7812L311.2 53.9336H313.319L309.862 59.1484L313.426 64.5H311.336L308.895 60.5352L306.454 64.5H304.354L307.909 59.1484L304.461 53.9336H306.541ZM146.605 87.2109C147.035 87.2109 147.432 87.123 147.797 86.9473C148.161 86.7715 148.461 86.5306 148.695 86.2246C148.93 85.9121 149.063 85.5573 149.096 85.1602H150.814C150.782 85.7852 150.57 86.3678 150.18 86.9082C149.796 87.4421 149.291 87.875 148.666 88.207C148.041 88.5326 147.354 88.6953 146.605 88.6953C145.811 88.6953 145.118 88.5553 144.525 88.2754C143.939 87.9954 143.451 87.6113 143.061 87.123C142.676 86.6348 142.387 86.0749 142.191 85.4434C142.003 84.8053 141.908 84.1315 141.908 83.4219V83.0117C141.908 82.3021 142.003 81.6315 142.191 81C142.387 80.362 142.676 79.7988 143.061 79.3105C143.451 78.8223 143.939 78.4382 144.525 78.1582C145.118 77.8783 145.811 77.7383 146.605 77.7383C147.432 77.7383 148.155 77.9076 148.773 78.2461C149.392 78.5781 149.877 79.0339 150.229 79.6133C150.587 80.1862 150.782 80.8372 150.814 81.5664H149.096C149.063 81.1302 148.939 80.7363 148.725 80.3848C148.516 80.0332 148.23 79.7533 147.865 79.5449C147.507 79.3301 147.087 79.2227 146.605 79.2227C146.052 79.2227 145.587 79.3333 145.209 79.5547C144.838 79.7695 144.542 80.0625 144.32 80.4336C144.105 80.7982 143.949 81.2051 143.852 81.6543C143.76 82.097 143.715 82.5495 143.715 83.0117V83.4219C143.715 83.8841 143.76 84.3398 143.852 84.7891C143.943 85.2383 144.096 85.6452 144.311 86.0098C144.532 86.3743 144.828 86.6673 145.199 86.8887C145.577 87.1035 146.046 87.2109 146.605 87.2109ZM155.199 85.6387L160.072 77.9336H161.888V88.5H160.072V80.7949L155.199 88.5H153.402V77.9336H155.199V85.6387ZM169.417 87.2109C169.847 87.2109 170.244 87.123 170.609 86.9473C170.973 86.7715 171.273 86.5306 171.507 86.2246C171.741 85.9121 171.875 85.5573 171.907 85.1602H173.626C173.594 85.7852 173.382 86.3678 172.991 86.9082C172.607 87.4421 172.103 87.875 171.478 88.207C170.853 88.5326 170.166 88.6953 169.417 88.6953C168.623 88.6953 167.93 88.5553 167.337 88.2754C166.751 87.9954 166.263 87.6113 165.872 87.123C165.488 86.6348 165.198 86.0749 165.003 85.4434C164.814 84.8053 164.72 84.1315 164.72 83.4219V83.0117C164.72 82.3021 164.814 81.6315 165.003 81C165.198 80.362 165.488 79.7988 165.872 79.3105C166.263 78.8223 166.751 78.4382 167.337 78.1582C167.93 77.8783 168.623 77.7383 169.417 77.7383C170.244 77.7383 170.967 77.9076 171.585 78.2461C172.204 78.5781 172.689 79.0339 173.04 79.6133C173.398 80.1862 173.594 80.8372 173.626 81.5664H171.907C171.875 81.1302 171.751 80.7363 171.536 80.3848C171.328 80.0332 171.042 79.7533 170.677 79.5449C170.319 79.3301 169.899 79.2227 169.417 79.2227C168.864 79.2227 168.398 79.3333 168.021 79.5547C167.65 79.7695 167.353 80.0625 167.132 80.4336C166.917 80.7982 166.761 81.2051 166.663 81.6543C166.572 82.097 166.527 82.5495 166.527 83.0117V83.4219C166.527 83.8841 166.572 84.3398 166.663 84.7891C166.754 85.2383 166.907 85.6452 167.122 86.0098C167.344 86.3743 167.64 86.6673 168.011 86.8887C168.389 87.1035 168.857 87.2109 169.417 87.2109ZM180.364 77.9336V88.5H178.548V77.9336H180.364ZM183.909 77.9336V79.3984H175.071V77.9336H183.909ZM189.69 88.6953C188.954 88.6953 188.287 88.5716 187.688 88.3242C187.095 88.0703 186.584 87.7155 186.155 87.2598C185.732 86.804 185.406 86.2637 185.178 85.6387C184.95 85.0137 184.836 84.3301 184.836 83.5879V83.1777C184.836 82.3184 184.963 81.5534 185.217 80.8828C185.471 80.2057 185.816 79.6328 186.252 79.1641C186.689 78.6953 187.183 78.3405 187.737 78.0996C188.29 77.8587 188.863 77.7383 189.455 77.7383C190.211 77.7383 190.862 77.8685 191.409 78.1289C191.962 78.3893 192.414 78.7539 192.766 79.2227C193.118 79.6849 193.378 80.2318 193.547 80.8633C193.717 81.4883 193.801 82.1719 193.801 82.9141V83.7246H185.911V82.25H191.995V82.1133C191.968 81.6445 191.871 81.1888 191.702 80.7461C191.539 80.3034 191.278 79.9388 190.92 79.6523C190.562 79.3659 190.074 79.2227 189.455 79.2227C189.045 79.2227 188.668 79.3105 188.323 79.4863C187.978 79.6556 187.681 79.9095 187.434 80.248C187.187 80.5866 186.995 81 186.858 81.4883C186.721 81.9766 186.653 82.5397 186.653 83.1777V83.5879C186.653 84.0892 186.721 84.5612 186.858 85.0039C187.001 85.4401 187.206 85.8242 187.473 86.1562C187.746 86.4883 188.075 86.7487 188.459 86.9375C188.85 87.1263 189.293 87.2207 189.787 87.2207C190.426 87.2207 190.966 87.0905 191.409 86.8301C191.851 86.5697 192.239 86.2214 192.571 85.7852L193.664 86.6543C193.437 86.9993 193.147 87.3281 192.795 87.6406C192.444 87.9531 192.011 88.207 191.496 88.4023C190.989 88.5977 190.386 88.6953 189.69 88.6953ZM202.385 86.0977L205.979 77.9336H207.717L203.01 88.5H201.76L197.072 77.9336H198.811L202.385 86.0977ZM198.283 77.9336V88.5H196.477V77.9336H198.283ZM206.428 88.5V77.9336H208.244V88.5H206.428Z" fill="#005AAA"/>
<path d="M96.5183 76.1682C97.3351 76.9793 98.4008 77.3846 99.4677 77.3846C100.539 77.3846 101.612 76.9748 102.427 76.157C106.792 71.7733 110.768 66.7462 114.244 61.2131C115.098 59.8548 115.098 58.1279 114.244 56.7693C100.359 34.6727 79.6564 22 57.4403 22C46.5831 22 36.1411 24.9682 26.4044 30.8231C24.4281 32.0117 23.7891 34.5788 24.9778 36.555C26.1663 38.5323 28.7336 39.1702 30.7097 37.9827C39.1272 32.9199 48.1212 30.3539 57.4403 30.3539C75.9822 30.3539 93.4529 40.7531 105.723 58.9913C102.939 63.1256 99.845 66.9085 96.5071 70.261C94.8795 71.894 94.884 74.5394 96.5183 76.1682Z" fill="url(#paint0_linear_23_34)"/>
<path d="M71.8293 53.8672C72.4449 55.5695 74.0492 56.6275 75.7595 56.6275C76.2278 56.6275 76.7079 56.5473 77.1762 56.3783C79.3455 55.5954 80.4706 53.2014 79.6873 51.0307C76.1236 41.1553 66.6719 34.5208 56.1673 34.5208C50.0522 34.5208 44.1674 36.7516 39.5952 40.8034C37.8689 42.3339 37.7092 44.9737 39.2396 46.7008C40.7691 48.4267 43.409 48.5865 45.1359 47.056C48.179 44.3593 52.0966 42.8735 56.1673 42.8735C63.1615 42.8735 69.4559 47.2918 71.8293 53.8672Z" fill="url(#paint1_linear_23_34)"/>
<path fill-rule="evenodd" clip-rule="evenodd" d="M44.2007 59.5191C44.2007 66.1182 49.5686 71.4858 56.1674 71.4858C62.7671 71.4858 68.1341 66.1182 68.1341 59.5191C68.1341 52.9202 62.7662 47.5525 56.1674 47.5525C49.5686 47.5525 44.2007 52.9202 44.2007 59.5191ZM52.5545 59.5191C52.5545 57.5274 54.1753 55.9062 56.1674 55.9062C58.1604 55.9062 59.7813 57.5274 59.7803 59.5191C59.7803 61.5112 58.1591 63.1317 56.1674 63.1317C54.1753 63.1317 52.5545 61.5112 52.5545 59.5191Z" fill="url(#paint2_linear_23_34)"/>
<path d="M46.4349 82.5509C46.9677 82.7758 47.5185 82.8806 48.0615 82.8806C49.6891 82.8806 51.2362 81.9245 51.9099 80.3302C52.8094 78.2055 51.815 75.7545 49.6901 74.8565C43.5146 72.2434 39.5234 66.2209 39.5234 59.5171C39.5234 57.2104 37.6543 55.3413 35.3473 55.3413C33.0406 55.3413 31.1694 57.2104 31.1694 59.5171C31.1694 69.5869 37.1618 78.6266 46.4349 82.5509Z" fill="url(#paint3_linear_23_34)"/>
<path d="M66.2692 81.9089C64.8013 81.9089 63.3782 81.1336 62.615 79.7597C61.496 77.7418 62.2196 75.2006 64.2381 74.08C67.1272 72.4735 69.4553 70.0729 70.9701 67.1359C72.0268 65.0847 74.5482 64.282 76.5981 65.3397C78.648 66.3977 79.4526 68.9165 78.3934 70.9667C76.1224 75.3702 72.629 78.9742 68.2935 81.3815C67.6533 81.739 66.9576 81.9089 66.2692 81.9089Z" fill="url(#paint4_linear_23_34)"/>
<path d="M57.4428 95.9821C35.2264 95.9821 14.524 83.3097 0.639275 61.2118C-0.213092 59.8545 -0.213092 58.1276 0.639275 56.7681C4.01858 51.3902 7.87153 46.4859 12.0931 42.1939C13.7096 40.5473 16.355 40.5261 17.9994 42.1437C19.6449 43.7613 19.6672 46.4055 18.0496 48.0499C14.8368 51.3187 11.853 54.9907 9.15956 58.9911C21.4301 77.2282 38.9019 87.6273 57.4428 87.6273C66.6144 87.6273 75.4787 85.1373 83.7868 80.2297C85.7718 79.057 88.3347 79.715 89.5074 81.701C90.6817 83.6864 90.0226 86.2477 88.0373 87.4219C78.4223 93.1026 68.1292 95.9821 57.4428 95.9821Z" fill="url(#paint5_linear_23_34)"/>
<defs>
<linearGradient id="paint0_linear_23_34" x1="24.3799" y1="58.2994" x2="114.886" y2="58.364" gradientUnits="userSpaceOnUse">
<stop stop-color="#8B2346"/>
<stop offset="1" stop-color="#E70F47"/>
</linearGradient>
<linearGradient id="paint1_linear_23_34" x1="24.3799" y1="58.2994" x2="114.886" y2="58.364" gradientUnits="userSpaceOnUse">
<stop stop-color="#8B2346"/>
<stop offset="1" stop-color="#E70F47"/>
</linearGradient>
<linearGradient id="paint2_linear_23_34" x1="24.3799" y1="58.2994" x2="114.886" y2="58.364" gradientUnits="userSpaceOnUse">
<stop stop-color="#8B2346"/>
<stop offset="1" stop-color="#E70F47"/>
</linearGradient>
<linearGradient id="paint3_linear_23_34" x1="24.3799" y1="58.2994" x2="114.886" y2="58.364" gradientUnits="userSpaceOnUse">
<stop stop-color="#8B2346"/>
<stop offset="1" stop-color="#E70F47"/>
</linearGradient>
<linearGradient id="paint4_linear_23_34" x1="24.3799" y1="58.2994" x2="114.886" y2="58.364" gradientUnits="userSpaceOnUse">
<stop stop-color="#8B2346"/>
<stop offset="1" stop-color="#E70F47"/>
</linearGradient>
<linearGradient id="paint5_linear_23_34" x1="24.3799" y1="58.2994" x2="114.886" y2="58.364" gradientUnits="userSpaceOnUse">
<stop stop-color="#8B2346"/>
<stop offset="1" stop-color="#E70F47"/>
</linearGradient>
</defs>
</svg>
