<svg width="350" height="115" viewBox="0 0 350 115" fill="none" xmlns="http://www.w3.org/2000/svg">
<path d="M144.613 25.2383L151.615 14.2812H153.5V28.5H151.615V17.5332L144.613 28.5H142.738V14.2812H144.613V25.2383ZM164.222 22.5137V23.9785H158.636V22.5137H164.222ZM159.017 17.9336V28.5H157.211V17.9336H159.017ZM165.687 17.9336V28.5H163.871V17.9336H165.687ZM173.226 27.2109C173.655 27.2109 174.053 27.123 174.417 26.9473C174.782 26.7715 175.081 26.5306 175.316 26.2246C175.55 25.9121 175.683 25.5573 175.716 25.1602H177.435C177.402 25.7852 177.191 26.3678 176.8 26.9082C176.416 27.4421 175.911 27.875 175.286 28.207C174.661 28.5326 173.974 28.6953 173.226 28.6953C172.432 28.6953 171.738 28.5553 171.146 28.2754C170.56 27.9954 170.071 27.6113 169.681 27.123C169.297 26.6348 169.007 26.0749 168.812 25.4434C168.623 24.8053 168.529 24.1315 168.529 23.4219V23.0117C168.529 22.3021 168.623 21.6315 168.812 21C169.007 20.362 169.297 19.7988 169.681 19.3105C170.071 18.8223 170.56 18.4382 171.146 18.1582C171.738 17.8783 172.432 17.7383 173.226 17.7383C174.053 17.7383 174.775 17.9076 175.394 18.2461C176.012 18.5781 176.497 19.0339 176.849 19.6133C177.207 20.1862 177.402 20.8372 177.435 21.5664H175.716C175.683 21.1302 175.56 20.7363 175.345 20.3848C175.137 20.0332 174.85 19.7533 174.486 19.5449C174.127 19.3301 173.708 19.2227 173.226 19.2227C172.672 19.2227 172.207 19.3333 171.829 19.5547C171.458 19.7695 171.162 20.0625 170.941 20.4336C170.726 20.7982 170.57 21.2051 170.472 21.6543C170.381 22.097 170.335 22.5495 170.335 23.0117V23.4219C170.335 23.8841 170.381 24.3398 170.472 24.7891C170.563 25.2383 170.716 25.6452 170.931 26.0098C171.152 26.3743 171.448 26.6673 171.82 26.8887C172.197 27.1035 172.666 27.2109 173.226 27.2109ZM184.173 17.9336V28.5H182.356V17.9336H184.173ZM187.718 17.9336V19.3984H178.88V17.9336H187.718ZM191.848 25.6387L196.721 17.9336H198.537V28.5H196.721V20.7949L191.848 28.5H190.051V17.9336H191.848V25.6387ZM206.145 17.9336V28.5H204.328V17.9336H206.145ZM209.689 17.9336V19.3984H200.852V17.9336H209.689ZM214.953 27.4062L217.892 17.9336H219.826L215.588 30.1309C215.49 30.3913 215.36 30.6712 215.197 30.9707C215.041 31.2767 214.839 31.5664 214.591 31.8398C214.344 32.1133 214.045 32.3346 213.693 32.5039C213.348 32.6797 212.935 32.7676 212.453 32.7676C212.31 32.7676 212.127 32.748 211.906 32.709C211.685 32.6699 211.528 32.6374 211.437 32.6113L211.427 31.1465C211.479 31.153 211.561 31.1595 211.671 31.166C211.789 31.179 211.87 31.1855 211.916 31.1855C212.326 31.1855 212.674 31.1302 212.961 31.0195C213.247 30.9154 213.488 30.7363 213.683 30.4824C213.885 30.235 214.058 29.8932 214.201 29.457L214.953 27.4062ZM212.795 17.9336L215.539 26.1367L216.007 28.041L214.709 28.7051L210.822 17.9336H212.795ZM226.163 17.9336V28.5H224.347V17.9336H226.163ZM229.708 17.9336V19.3984H220.87V17.9336H229.708ZM144.33 49.6387L149.203 41.9336H151.02V52.5H149.203V44.7949L144.33 52.5H142.533V41.9336H144.33V49.6387ZM161.488 46.5137V47.9785H155.902V46.5137H161.488ZM156.283 41.9336V52.5H154.476V41.9336H156.283ZM162.953 41.9336V52.5H161.136V41.9336H162.953ZM178.411 47.4023V47.6074C178.411 48.3496 178.33 49.0332 178.167 49.6582C178.004 50.2767 177.76 50.8138 177.435 51.2695C177.116 51.7253 176.719 52.0801 176.243 52.334C175.768 52.5814 175.218 52.7051 174.593 52.7051C174.079 52.7051 173.626 52.6367 173.236 52.5C172.845 52.3568 172.513 52.1517 172.239 51.8848C171.973 51.6178 171.758 51.2988 171.595 50.9277C171.439 50.5501 171.331 50.127 171.273 49.6582V44.9707C171.331 44.4694 171.439 44.0202 171.595 43.623C171.758 43.2259 171.973 42.8874 172.239 42.6074C172.513 42.3275 172.842 42.1126 173.226 41.9629C173.61 41.8132 174.059 41.7383 174.573 41.7383C175.081 41.7383 175.537 41.8294 175.941 42.0117C176.351 42.1875 176.709 42.4414 177.015 42.7734C177.327 43.1055 177.585 43.5059 177.786 43.9746C177.995 44.4368 178.151 44.9577 178.255 45.5371C178.359 46.1165 178.411 46.7383 178.411 47.4023ZM176.605 47.6074V47.4023C176.605 46.9466 176.572 46.5137 176.507 46.1035C176.448 45.6868 176.354 45.306 176.224 44.9609C176.1 44.6094 175.937 44.3034 175.736 44.043C175.534 43.7826 175.29 43.5807 175.003 43.4375C174.723 43.2943 174.401 43.2227 174.036 43.2227C173.646 43.2227 173.32 43.2715 173.06 43.3691C172.806 43.4668 172.607 43.597 172.464 43.7598C172.321 43.916 172.217 44.082 172.152 44.2578V50.3809C172.23 50.5241 172.344 50.6608 172.493 50.791C172.643 50.9147 172.845 51.0189 173.099 51.1035C173.353 51.1816 173.672 51.2207 174.056 51.2207C174.512 51.2207 174.899 51.1296 175.218 50.9473C175.543 50.7585 175.807 50.498 176.009 50.166C176.217 49.834 176.367 49.4499 176.458 49.0137C176.556 48.5775 176.605 48.1087 176.605 47.6074ZM165.862 47.6074V47.4023C165.862 46.7383 165.915 46.1165 166.019 45.5371C166.123 44.9577 166.279 44.4368 166.487 43.9746C166.696 43.5059 166.953 43.1055 167.259 42.7734C167.571 42.4414 167.93 42.1875 168.333 42.0117C168.743 41.8294 169.202 41.7383 169.71 41.7383C170.211 41.7383 170.648 41.8132 171.019 41.9629C171.396 42.1126 171.715 42.3275 171.976 42.6074C172.236 42.8874 172.445 43.2259 172.601 43.623C172.757 44.0202 172.868 44.4694 172.933 44.9707V49.4727C172.874 49.9674 172.767 50.4134 172.611 50.8105C172.454 51.2077 172.246 51.5495 171.986 51.8359C171.725 52.1159 171.403 52.3307 171.019 52.4805C170.641 52.6302 170.198 52.7051 169.691 52.7051C169.066 52.7051 168.515 52.5814 168.04 52.334C167.565 52.0801 167.165 51.7253 166.839 51.2695C166.52 50.8138 166.276 50.2767 166.107 49.6582C165.944 49.0332 165.862 48.3496 165.862 47.6074ZM167.679 47.4023V47.6074C167.679 48.1087 167.721 48.5775 167.806 49.0137C167.897 49.4499 168.037 49.834 168.226 50.166C168.421 50.498 168.675 50.7585 168.987 50.9473C169.3 51.1296 169.684 51.2207 170.14 51.2207C170.53 51.2207 170.853 51.1719 171.107 51.0742C171.361 50.9766 171.562 50.8496 171.712 50.6934C171.862 50.5371 171.976 50.3743 172.054 50.2051V44.2578C171.989 44.082 171.881 43.916 171.732 43.7598C171.588 43.597 171.39 43.4668 171.136 43.3691C170.882 43.2715 170.557 43.2227 170.159 43.2227C169.704 43.2227 169.316 43.3333 168.997 43.5547C168.678 43.776 168.421 44.0788 168.226 44.4629C168.037 44.847 167.897 45.293 167.806 45.8008C167.721 46.3021 167.679 46.8359 167.679 47.4023ZM171.155 56.5625V37.5H172.972V56.5625H171.155ZM180.696 47.334V47.1094C180.696 46.3477 180.807 45.6413 181.028 44.9902C181.249 44.3327 181.568 43.763 181.985 43.2812C182.402 42.793 182.906 42.4154 183.499 42.1484C184.091 41.875 184.755 41.7383 185.491 41.7383C186.233 41.7383 186.901 41.875 187.493 42.1484C188.092 42.4154 188.6 42.793 189.016 43.2812C189.44 43.763 189.762 44.3327 189.983 44.9902C190.205 45.6413 190.315 46.3477 190.315 47.1094V47.334C190.315 48.0957 190.205 48.8021 189.983 49.4531C189.762 50.1042 189.44 50.6738 189.016 51.1621C188.6 51.6439 188.095 52.0215 187.503 52.2949C186.917 52.5618 186.253 52.6953 185.511 52.6953C184.768 52.6953 184.101 52.5618 183.509 52.2949C182.916 52.0215 182.408 51.6439 181.985 51.1621C181.568 50.6738 181.249 50.1042 181.028 49.4531C180.807 48.8021 180.696 48.0957 180.696 47.334ZM182.503 47.1094V47.334C182.503 47.8613 182.565 48.3594 182.688 48.8281C182.812 49.2904 182.998 49.7005 183.245 50.0586C183.499 50.4167 183.815 50.6999 184.192 50.9082C184.57 51.11 185.009 51.2109 185.511 51.2109C186.005 51.2109 186.438 51.11 186.809 50.9082C187.187 50.6999 187.499 50.4167 187.747 50.0586C187.994 49.7005 188.18 49.2904 188.304 48.8281C188.434 48.3594 188.499 47.8613 188.499 47.334V47.1094C188.499 46.5885 188.434 46.097 188.304 45.6348C188.18 45.166 187.991 44.7526 187.737 44.3945C187.49 44.0299 187.177 43.7435 186.8 43.5352C186.429 43.3268 185.992 43.2227 185.491 43.2227C184.996 43.2227 184.56 43.3268 184.182 43.5352C183.811 43.7435 183.499 44.0299 183.245 44.3945C182.998 44.7526 182.812 45.166 182.688 45.6348C182.565 46.097 182.503 46.5885 182.503 47.1094ZM194.787 43.9648V56.5625H192.971V41.9336H194.631L194.787 43.9648ZM201.907 47.1289V47.334C201.907 48.1022 201.815 48.8151 201.633 49.4727C201.451 50.1237 201.184 50.6901 200.832 51.1719C200.487 51.6536 200.061 52.028 199.553 52.2949C199.045 52.5618 198.463 52.6953 197.805 52.6953C197.135 52.6953 196.542 52.5846 196.028 52.3633C195.513 52.1419 195.077 51.8197 194.719 51.3965C194.361 50.9733 194.075 50.4655 193.86 49.873C193.651 49.2806 193.508 48.6133 193.43 47.8711V46.7773C193.508 45.9961 193.655 45.2962 193.87 44.6777C194.084 44.0592 194.368 43.5319 194.719 43.0957C195.077 42.653 195.51 42.3177 196.018 42.0898C196.526 41.8555 197.112 41.7383 197.776 41.7383C198.44 41.7383 199.029 41.8685 199.543 42.1289C200.058 42.3828 200.491 42.7474 200.842 43.2227C201.194 43.6979 201.457 44.2676 201.633 44.9316C201.815 45.5892 201.907 46.3216 201.907 47.1289ZM200.09 47.334V47.1289C200.09 46.6016 200.035 46.1068 199.924 45.6445C199.814 45.1758 199.641 44.7656 199.407 44.4141C199.179 44.056 198.886 43.776 198.528 43.5742C198.17 43.3659 197.743 43.2617 197.248 43.2617C196.793 43.2617 196.396 43.3398 196.057 43.4961C195.725 43.6523 195.442 43.8639 195.207 44.1309C194.973 44.3913 194.781 44.6908 194.631 45.0293C194.488 45.3613 194.381 45.7064 194.309 46.0645V48.5938C194.439 49.0495 194.621 49.4792 194.856 49.8828C195.09 50.2799 195.403 50.6022 195.793 50.8496C196.184 51.0905 196.676 51.2109 197.268 51.2109C197.756 51.2109 198.176 51.11 198.528 50.9082C198.886 50.6999 199.179 50.4167 199.407 50.0586C199.641 49.7005 199.814 49.2904 199.924 48.8281C200.035 48.3594 200.09 47.8613 200.09 47.334ZM210.686 50.0977L214.279 41.9336H216.018L211.311 52.5H210.061L205.373 41.9336H207.111L210.686 50.0977ZM206.584 41.9336V52.5H204.777V41.9336H206.584ZM214.729 52.5V41.9336H216.545V52.5H214.729ZM226.086 50.6934V45.2539C226.086 44.8372 226.001 44.4759 225.832 44.1699C225.669 43.8574 225.421 43.6165 225.089 43.4473C224.757 43.278 224.347 43.1934 223.859 43.1934C223.403 43.1934 223.003 43.2715 222.658 43.4277C222.319 43.584 222.052 43.7891 221.857 44.043C221.668 44.2969 221.574 44.5703 221.574 44.8633H219.767C219.767 44.4857 219.865 44.1113 220.06 43.7402C220.255 43.3691 220.535 43.0339 220.9 42.7344C221.271 42.4284 221.714 42.1875 222.228 42.0117C222.749 41.8294 223.328 41.7383 223.966 41.7383C224.735 41.7383 225.412 41.8685 225.998 42.1289C226.59 42.3893 227.052 42.7832 227.384 43.3105C227.723 43.8314 227.892 44.4857 227.892 45.2734V50.1953C227.892 50.5469 227.921 50.9212 227.98 51.3184C228.045 51.7155 228.14 52.0573 228.263 52.3438V52.5H226.379C226.287 52.2917 226.216 52.015 226.164 51.6699C226.112 51.3184 226.086 50.9928 226.086 50.6934ZM226.398 46.0938L226.418 47.3633H224.591C224.077 47.3633 223.618 47.4056 223.214 47.4902C222.811 47.5684 222.472 47.6888 222.199 47.8516C221.925 48.0143 221.717 48.2194 221.574 48.4668C221.431 48.7077 221.359 48.9909 221.359 49.3164C221.359 49.6484 221.434 49.9512 221.584 50.2246C221.733 50.498 221.958 50.7161 222.257 50.8789C222.563 51.0352 222.938 51.1133 223.38 51.1133C223.934 51.1133 224.422 50.9961 224.845 50.7617C225.268 50.5273 225.604 50.2409 225.851 49.9023C226.105 49.5638 226.242 49.235 226.261 48.916L227.033 49.7852C226.987 50.0586 226.864 50.3613 226.662 50.6934C226.46 51.0254 226.19 51.3444 225.851 51.6504C225.519 51.9499 225.122 52.2005 224.66 52.4023C224.204 52.5977 223.69 52.6953 223.117 52.6953C222.401 52.6953 221.772 52.5553 221.232 52.2754C220.698 51.9954 220.282 51.6211 219.982 51.1523C219.689 50.6771 219.543 50.1465 219.543 49.5605C219.543 48.9941 219.653 48.4961 219.875 48.0664C220.096 47.6302 220.415 47.2689 220.832 46.9824C221.248 46.6895 221.75 46.4681 222.336 46.3184C222.921 46.1686 223.576 46.0938 224.298 46.0938H226.398ZM231.29 52.5V41.9336H233.097V51.0156H237.96V41.9336H239.777V52.5H231.29ZM241.027 51.0156L240.851 55.6348H239.239V52.5H237.863V51.0156H241.027ZM245.343 49.6387L250.216 41.9336H252.032V52.5H250.216V44.7949L245.343 52.5H243.546V41.9336H245.343V49.6387ZM254.854 47.334V47.1094C254.854 46.3477 254.965 45.6413 255.186 44.9902C255.407 44.3327 255.726 43.763 256.143 43.2812C256.56 42.793 257.064 42.4154 257.657 42.1484C258.249 41.875 258.913 41.7383 259.649 41.7383C260.391 41.7383 261.058 41.875 261.651 42.1484C262.25 42.4154 262.758 42.793 263.174 43.2812C263.597 43.763 263.92 44.3327 264.141 44.9902C264.362 45.6413 264.473 46.3477 264.473 47.1094V47.334C264.473 48.0957 264.362 48.8021 264.141 49.4531C263.92 50.1042 263.597 50.6738 263.174 51.1621C262.758 51.6439 262.253 52.0215 261.661 52.2949C261.075 52.5618 260.411 52.6953 259.668 52.6953C258.926 52.6953 258.259 52.5618 257.666 52.2949C257.074 52.0215 256.566 51.6439 256.143 51.1621C255.726 50.6738 255.407 50.1042 255.186 49.4531C254.965 48.8021 254.854 48.0957 254.854 47.334ZM256.661 47.1094V47.334C256.661 47.8613 256.722 48.3594 256.846 48.8281C256.97 49.2904 257.155 49.7005 257.403 50.0586C257.657 50.4167 257.972 50.6999 258.35 50.9082C258.728 51.11 259.167 51.2109 259.668 51.2109C260.163 51.2109 260.596 51.11 260.967 50.9082C261.345 50.6999 261.657 50.4167 261.905 50.0586C262.152 49.7005 262.338 49.2904 262.461 48.8281C262.592 48.3594 262.657 47.8613 262.657 47.334V47.1094C262.657 46.5885 262.592 46.097 262.461 45.6348C262.338 45.166 262.149 44.7526 261.895 44.3945C261.648 44.0299 261.335 43.7435 260.957 43.5352C260.586 43.3268 260.15 43.2227 259.649 43.2227C259.154 43.2227 258.718 43.3268 258.34 43.5352C257.969 43.7435 257.657 44.0299 257.403 44.3945C257.155 44.7526 256.97 45.166 256.846 45.6348C256.722 46.097 256.661 46.5885 256.661 47.1094ZM274.307 46.5137V47.9785H268.721V46.5137H274.307ZM269.102 41.9336V52.5H267.295V41.9336H269.102ZM275.771 41.9336V52.5H273.955V41.9336H275.771ZM286.25 46.5137V47.9785H280.664V46.5137H286.25ZM281.045 41.9336V52.5H279.238V41.9336H281.045ZM287.714 41.9336V52.5H285.898V41.9336H287.714ZM292.509 45.5664H295.683C296.536 45.5664 297.255 45.7161 297.841 46.0156C298.427 46.3086 298.87 46.7155 299.169 47.2363C299.475 47.7507 299.628 48.3366 299.628 48.9941C299.628 49.4824 299.543 49.9414 299.374 50.3711C299.205 50.7943 298.951 51.1654 298.613 51.4844C298.28 51.8034 297.867 52.054 297.372 52.2363C296.884 52.4121 296.321 52.5 295.683 52.5H291.191V41.9336H292.997V51.0156H295.683C296.204 51.0156 296.62 50.9212 296.933 50.7324C297.245 50.5436 297.47 50.2995 297.607 50C297.743 49.7005 297.812 49.388 297.812 49.0625C297.812 48.7435 297.743 48.431 297.607 48.125C297.47 47.819 297.245 47.5651 296.933 47.3633C296.62 47.1549 296.204 47.0508 295.683 47.0508H292.509V45.5664ZM303.388 41.9336V52.5H301.581V41.9336H303.388ZM308.173 41.9336L310.487 45.7812L312.831 41.9336H314.95L311.493 47.1484L315.057 52.5H312.968L310.526 48.5352L308.085 52.5H305.985L309.54 47.1484L306.093 41.9336H308.173ZM146.684 65.9336V76.5H144.867V65.9336H146.684ZM150.229 65.9336V67.3984H141.391V65.9336H150.229ZM156.009 76.6953C155.274 76.6953 154.606 76.5716 154.007 76.3242C153.415 76.0703 152.904 75.7155 152.474 75.2598C152.051 74.804 151.726 74.2637 151.498 73.6387C151.27 73.0137 151.156 72.3301 151.156 71.5879V71.1777C151.156 70.3184 151.283 69.5534 151.537 68.8828C151.791 68.2057 152.136 67.6328 152.572 67.1641C153.008 66.6953 153.503 66.3405 154.056 66.0996C154.61 65.8587 155.183 65.7383 155.775 65.7383C156.53 65.7383 157.181 65.8685 157.728 66.1289C158.282 66.3893 158.734 66.7539 159.086 67.2227C159.437 67.6849 159.698 68.2318 159.867 68.8633C160.036 69.4883 160.121 70.1719 160.121 70.9141V71.7246H152.23V70.25H158.314V70.1133C158.288 69.6445 158.19 69.1888 158.021 68.7461C157.858 68.3034 157.598 67.9388 157.24 67.6523C156.882 67.3659 156.393 67.2227 155.775 67.2227C155.365 67.2227 154.987 67.3105 154.642 67.4863C154.297 67.6556 154.001 67.9095 153.754 68.248C153.506 68.5866 153.314 69 153.177 69.4883C153.041 69.9766 152.972 70.5397 152.972 71.1777V71.5879C152.972 72.0892 153.041 72.5612 153.177 73.0039C153.321 73.4401 153.526 73.8242 153.793 74.1562C154.066 74.4883 154.395 74.7487 154.779 74.9375C155.17 75.1263 155.612 75.2207 156.107 75.2207C156.745 75.2207 157.285 75.0905 157.728 74.8301C158.171 74.5697 158.558 74.2214 158.89 73.7852L159.984 74.6543C159.756 74.9993 159.466 75.3281 159.115 75.6406C158.763 75.9531 158.33 76.207 157.816 76.4023C157.308 76.5977 156.706 76.6953 156.009 76.6953ZM163.851 65.9336L166.165 69.7812L168.509 65.9336H170.628L167.171 71.1484L170.736 76.5H168.646L166.204 72.5352L163.763 76.5H161.663L165.218 71.1484L161.771 65.9336H163.851ZM180.12 70.5137V71.9785H174.534V70.5137H180.12ZM174.915 65.9336V76.5H173.108V65.9336H174.915ZM181.585 65.9336V76.5H179.768V65.9336H181.585ZM184.416 71.334V71.1094C184.416 70.3477 184.527 69.6413 184.748 68.9902C184.97 68.3327 185.289 67.763 185.705 67.2812C186.122 66.793 186.627 66.4154 187.219 66.1484C187.812 65.875 188.476 65.7383 189.211 65.7383C189.954 65.7383 190.621 65.875 191.213 66.1484C191.812 66.4154 192.32 66.793 192.737 67.2812C193.16 67.763 193.482 68.3327 193.704 68.9902C193.925 69.6413 194.036 70.3477 194.036 71.1094V71.334C194.036 72.0957 193.925 72.8021 193.704 73.4531C193.482 74.1042 193.16 74.6738 192.737 75.1621C192.32 75.6439 191.815 76.0215 191.223 76.2949C190.637 76.5618 189.973 76.6953 189.231 76.6953C188.489 76.6953 187.821 76.5618 187.229 76.2949C186.636 76.0215 186.129 75.6439 185.705 75.1621C185.289 74.6738 184.97 74.1042 184.748 73.4531C184.527 72.8021 184.416 72.0957 184.416 71.334ZM186.223 71.1094V71.334C186.223 71.8613 186.285 72.3594 186.409 72.8281C186.532 73.2904 186.718 73.7005 186.965 74.0586C187.219 74.4167 187.535 74.6999 187.912 74.9082C188.29 75.11 188.73 75.2109 189.231 75.2109C189.726 75.2109 190.159 75.11 190.53 74.9082C190.907 74.6999 191.22 74.4167 191.467 74.0586C191.715 73.7005 191.9 73.2904 192.024 72.8281C192.154 72.3594 192.219 71.8613 192.219 71.334V71.1094C192.219 70.5885 192.154 70.097 192.024 69.6348C191.9 69.166 191.711 68.7526 191.457 68.3945C191.21 68.0299 190.898 67.7435 190.52 67.5352C190.149 67.3268 189.713 67.2227 189.211 67.2227C188.717 67.2227 188.28 67.3268 187.903 67.5352C187.532 67.7435 187.219 68.0299 186.965 68.3945C186.718 68.7526 186.532 69.166 186.409 69.6348C186.285 70.097 186.223 70.5885 186.223 71.1094ZM203.605 65.9336V67.4277H198.498V65.9336H203.605ZM205.197 65.9336V76.5H203.391V65.9336H205.197ZM198.059 65.9336H199.875L199.602 71.0312C199.556 71.819 199.481 72.5156 199.377 73.1211C199.279 73.7201 199.143 74.2344 198.967 74.6641C198.798 75.0938 198.583 75.4453 198.322 75.7188C198.068 75.9857 197.762 76.1842 197.404 76.3145C197.046 76.4382 196.633 76.5 196.164 76.5H195.598V74.9082L195.988 74.8789C196.268 74.8594 196.506 74.7943 196.701 74.6836C196.903 74.5729 197.072 74.4102 197.209 74.1953C197.346 73.974 197.456 73.6908 197.541 73.3457C197.632 73.0007 197.701 72.5905 197.746 72.1152C197.798 71.64 197.837 71.0866 197.863 70.4551L198.059 65.9336ZM208.029 71.334V71.1094C208.029 70.3477 208.14 69.6413 208.361 68.9902C208.582 68.3327 208.901 67.763 209.318 67.2812C209.735 66.793 210.239 66.4154 210.832 66.1484C211.424 65.875 212.088 65.7383 212.824 65.7383C213.566 65.7383 214.233 65.875 214.826 66.1484C215.425 66.4154 215.933 66.793 216.349 67.2812C216.772 67.763 217.095 68.3327 217.316 68.9902C217.537 69.6413 217.648 70.3477 217.648 71.1094V71.334C217.648 72.0957 217.537 72.8021 217.316 73.4531C217.095 74.1042 216.772 74.6738 216.349 75.1621C215.933 75.6439 215.428 76.0215 214.836 76.2949C214.25 76.5618 213.586 76.6953 212.843 76.6953C212.101 76.6953 211.434 76.5618 210.841 76.2949C210.249 76.0215 209.741 75.6439 209.318 75.1621C208.901 74.6738 208.582 74.1042 208.361 73.4531C208.14 72.8021 208.029 72.0957 208.029 71.334ZM209.836 71.1094V71.334C209.836 71.8613 209.897 72.3594 210.021 72.8281C210.145 73.2904 210.33 73.7005 210.578 74.0586C210.832 74.4167 211.147 74.6999 211.525 74.9082C211.903 75.11 212.342 75.2109 212.843 75.2109C213.338 75.2109 213.771 75.11 214.142 74.9082C214.52 74.6999 214.832 74.4167 215.08 74.0586C215.327 73.7005 215.513 73.2904 215.636 72.8281C215.767 72.3594 215.832 71.8613 215.832 71.334V71.1094C215.832 70.5885 215.767 70.097 215.636 69.6348C215.513 69.166 215.324 68.7526 215.07 68.3945C214.823 68.0299 214.51 67.7435 214.132 67.5352C213.761 67.3268 213.325 67.2227 212.824 67.2227C212.329 67.2227 211.893 67.3268 211.515 67.5352C211.144 67.7435 210.832 68.0299 210.578 68.3945C210.33 68.7526 210.145 69.166 210.021 69.6348C209.897 70.097 209.836 70.5885 209.836 71.1094ZM227.14 65.9336V67.4277H222.257V76.5H220.45V65.9336H227.14ZM231.065 73.6387L235.938 65.9336H237.755V76.5H235.938V68.7949L231.065 76.5H229.268V65.9336H231.065V73.6387ZM243.008 73.6387L247.881 65.9336H249.698V76.5H247.881V68.7949L243.008 76.5H241.211V65.9336H243.008V73.6387ZM246.895 62.1055H248.36C248.36 62.6133 248.243 63.0658 248.008 63.4629C247.774 63.8535 247.439 64.1595 247.002 64.3809C246.566 64.6022 246.049 64.7129 245.45 64.7129C244.545 64.7129 243.829 64.472 243.301 63.9902C242.78 63.502 242.52 62.8737 242.52 62.1055H243.985C243.985 62.4896 244.095 62.8281 244.317 63.1211C244.538 63.4141 244.916 63.5605 245.45 63.5605C245.97 63.5605 246.342 63.4141 246.563 63.1211C246.784 62.8281 246.895 62.4896 246.895 62.1055ZM144.33 97.6387L149.203 89.9336H151.02V100.5H149.203V92.7949L144.33 100.5H142.533V89.9336H144.33V97.6387ZM166.722 89.9336V91.4277H161.38V89.9336H166.722ZM161.644 89.9336V100.5H159.837V89.9336H161.644ZM168.323 89.9336V100.5H166.507V89.9336H168.323ZM173.43 91.9648V104.562H171.614V89.9336H173.274L173.43 91.9648ZM180.55 95.1289V95.334C180.55 96.1022 180.458 96.8151 180.276 97.4727C180.094 98.1237 179.827 98.6901 179.475 99.1719C179.13 99.6536 178.704 100.028 178.196 100.295C177.688 100.562 177.106 100.695 176.448 100.695C175.777 100.695 175.185 100.585 174.671 100.363C174.156 100.142 173.72 99.8197 173.362 99.3965C173.004 98.9733 172.718 98.4655 172.503 97.873C172.294 97.2806 172.151 96.6133 172.073 95.8711V94.7773C172.151 93.9961 172.298 93.2962 172.513 92.6777C172.727 92.0592 173.011 91.5319 173.362 91.0957C173.72 90.653 174.153 90.3177 174.661 90.0898C175.169 89.8555 175.755 89.7383 176.419 89.7383C177.083 89.7383 177.672 89.8685 178.186 90.1289C178.701 90.3828 179.134 90.7474 179.485 91.2227C179.837 91.6979 180.1 92.2676 180.276 92.9316C180.458 93.5892 180.55 94.3216 180.55 95.1289ZM178.733 95.334V95.1289C178.733 94.6016 178.678 94.1068 178.567 93.6445C178.457 93.1758 178.284 92.7656 178.05 92.4141C177.822 92.056 177.529 91.776 177.171 91.5742C176.813 91.3659 176.386 91.2617 175.891 91.2617C175.436 91.2617 175.039 91.3398 174.7 91.4961C174.368 91.6523 174.085 91.8639 173.85 92.1309C173.616 92.3913 173.424 92.6908 173.274 93.0293C173.131 93.3613 173.024 93.7064 172.952 94.0645V96.5938C173.082 97.0495 173.264 97.4792 173.499 97.8828C173.733 98.2799 174.046 98.6022 174.436 98.8496C174.827 99.0905 175.318 99.2109 175.911 99.2109C176.399 99.2109 176.819 99.11 177.171 98.9082C177.529 98.6999 177.822 98.4167 178.05 98.0586C178.284 97.7005 178.457 97.2904 178.567 96.8281C178.678 96.3594 178.733 95.8613 178.733 95.334ZM182.776 95.334V95.1094C182.776 94.3477 182.886 93.6413 183.108 92.9902C183.329 92.3327 183.648 91.763 184.065 91.2812C184.482 90.793 184.986 90.4154 185.579 90.1484C186.171 89.875 186.835 89.7383 187.571 89.7383C188.313 89.7383 188.98 89.875 189.573 90.1484C190.172 90.4154 190.679 90.793 191.096 91.2812C191.519 91.763 191.842 92.3327 192.063 92.9902C192.284 93.6413 192.395 94.3477 192.395 95.1094V95.334C192.395 96.0957 192.284 96.8021 192.063 97.4531C191.842 98.1042 191.519 98.6738 191.096 99.1621C190.679 99.6439 190.175 100.021 189.582 100.295C188.996 100.562 188.332 100.695 187.59 100.695C186.848 100.695 186.181 100.562 185.588 100.295C184.996 100.021 184.488 99.6439 184.065 99.1621C183.648 98.6738 183.329 98.1042 183.108 97.4531C182.886 96.8021 182.776 96.0957 182.776 95.334ZM184.582 95.1094V95.334C184.582 95.8613 184.644 96.3594 184.768 96.8281C184.892 97.2904 185.077 97.7005 185.325 98.0586C185.579 98.4167 185.894 98.6999 186.272 98.9082C186.649 99.11 187.089 99.2109 187.59 99.2109C188.085 99.2109 188.518 99.11 188.889 98.9082C189.267 98.6999 189.579 98.4167 189.827 98.0586C190.074 97.7005 190.26 97.2904 190.383 96.8281C190.513 96.3594 190.579 95.8613 190.579 95.334V95.1094C190.579 94.5885 190.513 94.097 190.383 93.6348C190.26 93.166 190.071 92.7526 189.817 92.3945C189.569 92.0299 189.257 91.7435 188.879 91.5352C188.508 91.3268 188.072 91.2227 187.571 91.2227C187.076 91.2227 186.64 91.3268 186.262 91.5352C185.891 91.7435 185.579 92.0299 185.325 92.3945C185.077 92.7526 184.892 93.166 184.768 93.6348C184.644 94.097 184.582 94.5885 184.582 95.1094ZM201.887 89.9336V91.4277H197.004V100.5H195.197V89.9336H201.887ZM205.666 91.9648V104.562H203.849V89.9336H205.509L205.666 91.9648ZM212.785 95.1289V95.334C212.785 96.1022 212.694 96.8151 212.511 97.4727C212.329 98.1237 212.062 98.6901 211.711 99.1719C211.365 99.6536 210.939 100.028 210.431 100.295C209.923 100.562 209.341 100.695 208.683 100.695C208.013 100.695 207.42 100.585 206.906 100.363C206.392 100.142 205.955 99.8197 205.597 99.3965C205.239 98.9733 204.953 98.4655 204.738 97.873C204.53 97.2806 204.386 96.6133 204.308 95.8711V94.7773C204.386 93.9961 204.533 93.2962 204.748 92.6777C204.963 92.0592 205.246 91.5319 205.597 91.0957C205.955 90.653 206.388 90.3177 206.896 90.0898C207.404 89.8555 207.99 89.7383 208.654 89.7383C209.318 89.7383 209.907 89.8685 210.421 90.1289C210.936 90.3828 211.369 90.7474 211.72 91.2227C212.072 91.6979 212.336 92.2676 212.511 92.9316C212.694 93.5892 212.785 94.3216 212.785 95.1289ZM210.968 95.334V95.1289C210.968 94.6016 210.913 94.1068 210.802 93.6445C210.692 93.1758 210.519 92.7656 210.285 92.4141C210.057 92.056 209.764 91.776 209.406 91.5742C209.048 91.3659 208.621 91.2617 208.127 91.2617C207.671 91.2617 207.274 91.3398 206.935 91.4961C206.603 91.6523 206.32 91.8639 206.086 92.1309C205.851 92.3913 205.659 92.6908 205.509 93.0293C205.366 93.3613 205.259 93.7064 205.187 94.0645V96.5938C205.317 97.0495 205.5 97.4792 205.734 97.8828C205.968 98.2799 206.281 98.6022 206.671 98.8496C207.062 99.0905 207.554 99.2109 208.146 99.2109C208.634 99.2109 209.054 99.11 209.406 98.9082C209.764 98.6999 210.057 98.4167 210.285 98.0586C210.519 97.7005 210.692 97.2904 210.802 96.8281C210.913 96.3594 210.968 95.8613 210.968 95.334ZM221.72 98.6934V93.2539C221.72 92.8372 221.635 92.4759 221.466 92.1699C221.303 91.8574 221.056 91.6165 220.724 91.4473C220.392 91.278 219.982 91.1934 219.493 91.1934C219.038 91.1934 218.637 91.2715 218.292 91.4277C217.954 91.584 217.687 91.7891 217.491 92.043C217.303 92.2969 217.208 92.5703 217.208 92.8633H215.402C215.402 92.4857 215.499 92.1113 215.695 91.7402C215.89 91.3691 216.17 91.0339 216.534 90.7344C216.905 90.4284 217.348 90.1875 217.863 90.0117C218.383 89.8294 218.963 89.7383 219.601 89.7383C220.369 89.7383 221.046 89.8685 221.632 90.1289C222.224 90.3893 222.687 90.7832 223.019 91.3105C223.357 91.8314 223.527 92.4857 223.527 93.2734V98.1953C223.527 98.5469 223.556 98.9212 223.614 99.3184C223.68 99.7155 223.774 100.057 223.898 100.344V100.5H222.013C221.922 100.292 221.85 100.015 221.798 99.6699C221.746 99.3184 221.72 98.9928 221.72 98.6934ZM222.032 94.0938L222.052 95.3633H220.226C219.711 95.3633 219.252 95.4056 218.849 95.4902C218.445 95.5684 218.107 95.6888 217.833 95.8516C217.56 96.0143 217.351 96.2194 217.208 96.4668C217.065 96.7077 216.993 96.9909 216.993 97.3164C216.993 97.6484 217.068 97.9512 217.218 98.2246C217.368 98.498 217.592 98.7161 217.892 98.8789C218.198 99.0352 218.572 99.1133 219.015 99.1133C219.568 99.1133 220.057 98.9961 220.48 98.7617C220.903 98.5273 221.238 98.2409 221.486 97.9023C221.739 97.5638 221.876 97.235 221.896 96.916L222.667 97.7852C222.622 98.0586 222.498 98.3613 222.296 98.6934C222.094 99.0254 221.824 99.3444 221.486 99.6504C221.154 99.9499 220.756 100.201 220.294 100.402C219.838 100.598 219.324 100.695 218.751 100.695C218.035 100.695 217.407 100.555 216.866 100.275C216.333 99.9954 215.916 99.6211 215.616 99.1523C215.323 98.6771 215.177 98.1465 215.177 97.5605C215.177 96.9941 215.288 96.4961 215.509 96.0664C215.73 95.6302 216.049 95.2689 216.466 94.9824C216.883 94.6895 217.384 94.4681 217.97 94.3184C218.556 94.1686 219.21 94.0938 219.933 94.0938H222.032ZM232.843 98.0977L236.436 89.9336H238.175L233.468 100.5H232.218L227.53 89.9336H229.268L232.843 98.0977ZM228.741 89.9336V100.5H226.934V89.9336H228.741ZM236.886 100.5V89.9336H238.702V100.5H236.886ZM248.086 98.0977L251.68 89.9336H253.418L248.711 100.5H247.461L242.774 89.9336H244.512L248.086 98.0977ZM243.985 89.9336V100.5H242.178V89.9336H243.985ZM252.129 100.5V89.9336H253.946V100.5H252.129ZM259.209 97.6387L264.082 89.9336H265.898V100.5H264.082V92.7949L259.209 100.5H257.412V89.9336H259.209V97.6387ZM271.005 91.9648V104.562H269.189V89.9336H270.849L271.005 91.9648ZM278.125 95.1289V95.334C278.125 96.1022 278.033 96.8151 277.851 97.4727C277.669 98.1237 277.402 98.6901 277.05 99.1719C276.705 99.6536 276.279 100.028 275.771 100.295C275.263 100.562 274.681 100.695 274.023 100.695C273.352 100.695 272.76 100.585 272.246 100.363C271.731 100.142 271.295 99.8197 270.937 99.3965C270.579 98.9733 270.293 98.4655 270.078 97.873C269.869 97.2806 269.726 96.6133 269.648 95.8711V94.7773C269.726 93.9961 269.873 93.2962 270.088 92.6777C270.302 92.0592 270.586 91.5319 270.937 91.0957C271.295 90.653 271.728 90.3177 272.236 90.0898C272.744 89.8555 273.33 89.7383 273.994 89.7383C274.658 89.7383 275.247 89.8685 275.761 90.1289C276.276 90.3828 276.709 90.7474 277.06 91.2227C277.412 91.6979 277.675 92.2676 277.851 92.9316C278.033 93.5892 278.125 94.3216 278.125 95.1289ZM276.308 95.334V95.1289C276.308 94.6016 276.253 94.1068 276.142 93.6445C276.032 93.1758 275.859 92.7656 275.625 92.4141C275.397 92.056 275.104 91.776 274.746 91.5742C274.388 91.3659 273.961 91.2617 273.466 91.2617C273.011 91.2617 272.614 91.3398 272.275 91.4961C271.943 91.6523 271.66 91.8639 271.425 92.1309C271.191 92.3913 270.999 92.6908 270.849 93.0293C270.706 93.3613 270.599 93.7064 270.527 94.0645V96.5938C270.657 97.0495 270.839 97.4792 271.074 97.8828C271.308 98.2799 271.621 98.6022 272.011 98.8496C272.402 99.0905 272.893 99.2109 273.486 99.2109C273.974 99.2109 274.394 99.11 274.746 98.9082C275.104 98.6999 275.397 98.4167 275.625 98.0586C275.859 97.7005 276.032 97.2904 276.142 96.8281C276.253 96.3594 276.308 95.8613 276.308 95.334ZM280.351 95.334V95.1094C280.351 94.3477 280.461 93.6413 280.683 92.9902C280.904 92.3327 281.223 91.763 281.64 91.2812C282.057 90.793 282.561 90.4154 283.154 90.1484C283.746 89.875 284.41 89.7383 285.146 89.7383C285.888 89.7383 286.555 89.875 287.148 90.1484C287.747 90.4154 288.254 90.793 288.671 91.2812C289.094 91.763 289.417 92.3327 289.638 92.9902C289.859 93.6413 289.97 94.3477 289.97 95.1094V95.334C289.97 96.0957 289.859 96.8021 289.638 97.4531C289.417 98.1042 289.094 98.6738 288.671 99.1621C288.254 99.6439 287.75 100.021 287.157 100.295C286.571 100.562 285.907 100.695 285.165 100.695C284.423 100.695 283.756 100.562 283.163 100.295C282.571 100.021 282.063 99.6439 281.64 99.1621C281.223 98.6738 280.904 98.1042 280.683 97.4531C280.461 96.8021 280.351 96.0957 280.351 95.334ZM282.157 95.1094V95.334C282.157 95.8613 282.219 96.3594 282.343 96.8281C282.467 97.2904 282.652 97.7005 282.9 98.0586C283.154 98.4167 283.469 98.6999 283.847 98.9082C284.224 99.11 284.664 99.2109 285.165 99.2109C285.66 99.2109 286.093 99.11 286.464 98.9082C286.842 98.6999 287.154 98.4167 287.402 98.0586C287.649 97.7005 287.835 97.2904 287.958 96.8281C288.088 96.3594 288.154 95.8613 288.154 95.334V95.1094C288.154 94.5885 288.088 94.097 287.958 93.6348C287.835 93.166 287.646 92.7526 287.392 92.3945C287.144 92.0299 286.832 91.7435 286.454 91.5352C286.083 91.3268 285.647 91.2227 285.146 91.2227C284.651 91.2227 284.215 91.3268 283.837 91.5352C283.466 91.7435 283.154 92.0299 282.9 92.3945C282.652 92.7526 282.467 93.166 282.343 93.6348C282.219 94.097 282.157 94.5885 282.157 95.1094ZM297.596 95.8516H294.13L294.11 94.4062H296.942C297.502 94.4062 297.968 94.3509 298.339 94.2402C298.716 94.1296 298.999 93.9635 299.188 93.7422C299.377 93.5208 299.471 93.2474 299.471 92.9219C299.471 92.668 299.416 92.4466 299.305 92.2578C299.201 92.0625 299.042 91.903 298.827 91.7793C298.612 91.6491 298.345 91.5547 298.026 91.4961C297.714 91.431 297.346 91.3984 296.923 91.3984H294.608V100.5H292.802V89.9336H296.923C297.593 89.9336 298.195 89.9922 298.729 90.1094C299.27 90.2266 299.729 90.4056 300.106 90.6465C300.49 90.8809 300.783 91.1803 300.985 91.5449C301.187 91.9095 301.288 92.3392 301.288 92.834C301.288 93.153 301.223 93.4557 301.093 93.7422C300.962 94.0286 300.77 94.2826 300.516 94.5039C300.262 94.7253 299.95 94.9076 299.579 95.0508C299.208 95.1875 298.781 95.2754 298.3 95.3145L297.596 95.8516ZM297.596 100.5H293.475L294.374 99.0352H297.596C298.098 99.0352 298.514 98.9733 298.846 98.8496C299.179 98.7194 299.426 98.5371 299.589 98.3027C299.758 98.0618 299.843 97.7754 299.843 97.4434C299.843 97.1113 299.758 96.8281 299.589 96.5938C299.426 96.3529 299.179 96.1706 298.846 96.0469C298.514 95.9167 298.098 95.8516 297.596 95.8516H294.852L294.872 94.4062H298.3L298.954 94.9531C299.533 94.9987 300.025 95.1419 300.429 95.3828C300.832 95.6237 301.138 95.9297 301.346 96.3008C301.555 96.6654 301.659 97.0625 301.659 97.4922C301.659 97.987 301.565 98.4232 301.376 98.8008C301.193 99.1784 300.927 99.4941 300.575 99.748C300.223 99.9954 299.797 100.184 299.296 100.314C298.794 100.438 298.228 100.5 297.596 100.5ZM310.711 98.6934V93.2539C310.711 92.8372 310.627 92.4759 310.457 92.1699C310.295 91.8574 310.047 91.6165 309.715 91.4473C309.383 91.278 308.973 91.1934 308.485 91.1934C308.029 91.1934 307.629 91.2715 307.284 91.4277C306.945 91.584 306.678 91.7891 306.483 92.043C306.294 92.2969 306.2 92.5703 306.2 92.8633H304.393C304.393 92.4857 304.491 92.1113 304.686 91.7402C304.881 91.3691 305.161 91.0339 305.526 90.7344C305.897 90.4284 306.34 90.1875 306.854 90.0117C307.375 89.8294 307.954 89.7383 308.592 89.7383C309.36 89.7383 310.038 89.8685 310.623 90.1289C311.216 90.3893 311.678 90.7832 312.01 91.3105C312.349 91.8314 312.518 92.4857 312.518 93.2734V98.1953C312.518 98.5469 312.547 98.9212 312.606 99.3184C312.671 99.7155 312.765 100.057 312.889 100.344V100.5H311.004C310.913 100.292 310.842 100.015 310.789 99.6699C310.737 99.3184 310.711 98.9928 310.711 98.6934ZM311.024 94.0938L311.043 95.3633H309.217C308.703 95.3633 308.244 95.4056 307.84 95.4902C307.437 95.5684 307.098 95.6888 306.825 95.8516C306.551 96.0143 306.343 96.2194 306.2 96.4668C306.056 96.7077 305.985 96.9909 305.985 97.3164C305.985 97.6484 306.06 97.9512 306.209 98.2246C306.359 98.498 306.584 98.7161 306.883 98.8789C307.189 99.0352 307.564 99.1133 308.006 99.1133C308.56 99.1133 309.048 98.9961 309.471 98.7617C309.894 98.5273 310.23 98.2409 310.477 97.9023C310.731 97.5638 310.868 97.235 310.887 96.916L311.659 97.7852C311.613 98.0586 311.489 98.3613 311.288 98.6934C311.086 99.0254 310.816 99.3444 310.477 99.6504C310.145 99.9499 309.748 100.201 309.286 100.402C308.83 100.598 308.316 100.695 307.743 100.695C307.026 100.695 306.398 100.555 305.858 100.275C305.324 99.9954 304.907 99.6211 304.608 99.1523C304.315 98.6771 304.168 98.1465 304.168 97.5605C304.168 96.9941 304.279 96.4961 304.5 96.0664C304.722 95.6302 305.041 95.2689 305.457 94.9824C305.874 94.6895 306.375 94.4681 306.961 94.3184C307.547 94.1686 308.202 94.0938 308.924 94.0938H311.024ZM322.928 94.5137V95.9785H317.342V94.5137H322.928ZM317.723 89.9336V100.5H315.916V89.9336H317.723ZM324.393 89.9336V100.5H322.576V89.9336H324.393ZM329.656 97.6387L334.529 89.9336H336.345V100.5H334.529V92.7949L329.656 100.5H327.859V89.9336H329.656V97.6387ZM341.784 95.4609H343.738L340.681 100.5H338.728L341.784 95.4609ZM343.298 89.9336H347.712V100.5H345.905V91.3984H343.298C342.784 91.3984 342.364 91.4863 342.038 91.6621C341.713 91.8314 341.475 92.0527 341.325 92.3262C341.176 92.5996 341.101 92.8828 341.101 93.1758C341.101 93.4622 341.169 93.7389 341.306 94.0059C341.443 94.2663 341.657 94.4811 341.95 94.6504C342.243 94.8197 342.621 94.9043 343.083 94.9043H346.394V96.3887H343.083C342.478 96.3887 341.941 96.3073 341.472 96.1445C341.003 95.9818 340.606 95.7572 340.28 95.4707C339.955 95.1777 339.708 94.8359 339.538 94.4453C339.369 94.0482 339.284 93.6185 339.284 93.1562C339.284 92.694 339.372 92.2676 339.548 91.877C339.73 91.4863 339.991 91.1445 340.329 90.8516C340.674 90.5586 341.094 90.334 341.589 90.1777C342.09 90.015 342.66 89.9336 343.298 89.9336Z" fill="#005AAA"/>
<path fill-rule="evenodd" clip-rule="evenodd" d="M13.9796 4.29053H100.847C108.515 4.29053 114.752 10.5179 114.752 18.1707V75.3308C114.752 82.9846 108.515 89.2109 100.847 89.2109H50.5662V96.7438C50.5662 96.8206 50.5562 96.8944 50.5461 96.9684C50.5398 97.0153 50.5334 97.0623 50.5295 97.1102H50.5519C50.5519 99.0262 50.166 100.851 49.4785 102.522H65.8357C65.1482 100.851 64.7624 99.0262 64.7624 97.1102C64.7624 94.6578 66.7541 92.6696 69.2103 92.6696C71.6672 92.6696 73.6586 94.6578 73.6586 97.1102C73.6586 100.094 76.0895 102.519 79.0763 102.522H79.1965C81.653 102.522 83.6444 104.509 83.6444 106.962C83.6444 109.414 81.653 111.402 79.1965 111.402H79.0827H79.0795H79.0741H36.2411H36.2344H35.4773C33.0208 111.402 31.0291 109.414 31.0291 106.962C31.0291 104.509 33.0208 102.522 35.4773 102.522H36.2379C39.2257 102.519 41.6557 100.094 41.6557 97.1102H41.7077C41.7039 97.0611 41.6972 97.0129 41.6904 96.9648C41.6802 96.892 41.67 96.8193 41.67 96.7438V89.2109H13.9796C6.31217 89.2109 0.0748437 82.9846 0.0748437 75.3308V70.6752C0.0748437 70.6729 0.0737305 70.6697 0.0737305 70.6697L0.0748437 70.6643V18.1707C0.0748437 10.5179 6.31217 4.29053 13.9796 4.29053ZM100.847 80.3304C103.608 80.3304 105.856 78.0869 105.856 75.3308V18.1707C105.856 15.4144 103.608 13.171 100.847 13.171H13.9796C11.2173 13.171 8.97104 15.4144 8.97104 18.1707V65.1194H94.3876C96.8445 65.1194 98.8369 67.1076 98.8369 69.5594C98.8369 72.0117 96.8445 74 94.3876 74H8.97104V75.3308C8.97104 78.0869 11.2173 80.3304 13.9796 80.3304H100.847ZM48.4265 19.947L75.7268 35.6809C77.1024 36.4746 77.9508 37.9399 77.9499 39.5262C77.9499 41.1132 77.1014 42.5788 75.7259 43.3714L68.7345 47.3996C66.6073 48.6285 63.8873 47.8979 62.6584 45.7746C61.4307 43.6509 62.1591 40.935 64.2875 39.7093L64.6054 39.5262L50.6508 31.4838L50.6517 47.5682L51.0201 47.3565C53.1485 46.1266 55.8683 46.8578 57.0972 48.9805C58.3251 51.1051 57.5955 53.8204 55.4683 55.0458L48.4281 59.104C47.7397 59.5005 46.9711 59.6991 46.2041 59.6991C45.4355 59.6991 44.6669 59.5005 43.9798 59.104C42.6033 58.3115 41.7558 56.8443 41.7558 55.2592L41.7549 23.7922C41.7549 22.206 42.602 20.7396 43.9789 19.947C45.3553 19.1544 47.0513 19.1544 48.4265 19.947Z" fill="url(#paint0_linear_23_31)"/>
<defs>
<linearGradient id="paint0_linear_23_31" x1="0.0737305" y1="76.663" x2="114.752" y2="76.663" gradientUnits="userSpaceOnUse">
<stop offset="0.0625" stop-color="#502D7F"/>
<stop offset="1" stop-color="#0098AA"/>
</linearGradient>
</defs>
</svg>
