<svg width="367" height="115" viewBox="0 0 367 115" fill="none" xmlns="http://www.w3.org/2000/svg">
<path d="M144.613 37.2383L151.615 26.2812H153.5V40.5H151.615V29.5332L144.613 40.5H142.738V26.2812H144.613V37.2383ZM164.222 34.5137V35.9785H158.636V34.5137H164.222ZM159.017 29.9336V40.5H157.211V29.9336H159.017ZM165.687 29.9336V40.5H163.871V29.9336H165.687ZM173.226 39.2109C173.655 39.2109 174.053 39.123 174.417 38.9473C174.782 38.7715 175.081 38.5306 175.316 38.2246C175.55 37.9121 175.683 37.5573 175.716 37.1602H177.435C177.402 37.7852 177.191 38.3678 176.8 38.9082C176.416 39.4421 175.911 39.875 175.286 40.207C174.661 40.5326 173.974 40.6953 173.226 40.6953C172.432 40.6953 171.738 40.5553 171.146 40.2754C170.56 39.9954 170.071 39.6113 169.681 39.123C169.297 38.6348 169.007 38.0749 168.812 37.4434C168.623 36.8053 168.529 36.1315 168.529 35.4219V35.0117C168.529 34.3021 168.623 33.6315 168.812 33C169.007 32.362 169.297 31.7988 169.681 31.3105C170.071 30.8223 170.56 30.4382 171.146 30.1582C171.738 29.8783 172.432 29.7383 173.226 29.7383C174.053 29.7383 174.775 29.9076 175.394 30.2461C176.012 30.5781 176.497 31.0339 176.849 31.6133C177.207 32.1862 177.402 32.8372 177.435 33.5664H175.716C175.683 33.1302 175.56 32.7363 175.345 32.3848C175.137 32.0332 174.85 31.7533 174.486 31.5449C174.127 31.3301 173.708 31.2227 173.226 31.2227C172.672 31.2227 172.207 31.3333 171.829 31.5547C171.458 31.7695 171.162 32.0625 170.941 32.4336C170.726 32.7982 170.57 33.2051 170.472 33.6543C170.381 34.097 170.335 34.5495 170.335 35.0117V35.4219C170.335 35.8841 170.381 36.3398 170.472 36.7891C170.563 37.2383 170.716 37.6452 170.931 38.0098C171.152 38.3743 171.448 38.6673 171.82 38.8887C172.197 39.1035 172.666 39.2109 173.226 39.2109ZM184.173 29.9336V40.5H182.356V29.9336H184.173ZM187.718 29.9336V31.3984H178.88V29.9336H187.718ZM191.848 37.6387L196.721 29.9336H198.537V40.5H196.721V32.7949L191.848 40.5H190.051V29.9336H191.848V37.6387ZM206.145 29.9336V40.5H204.328V29.9336H206.145ZM209.689 29.9336V31.3984H200.852V29.9336H209.689ZM214.953 39.4062L217.892 29.9336H219.826L215.588 42.1309C215.49 42.3913 215.36 42.6712 215.197 42.9707C215.041 43.2767 214.839 43.5664 214.591 43.8398C214.344 44.1133 214.045 44.3346 213.693 44.5039C213.348 44.6797 212.935 44.7676 212.453 44.7676C212.31 44.7676 212.127 44.748 211.906 44.709C211.685 44.6699 211.528 44.6374 211.437 44.6113L211.427 43.1465C211.479 43.153 211.561 43.1595 211.671 43.166C211.789 43.179 211.87 43.1855 211.916 43.1855C212.326 43.1855 212.674 43.1302 212.961 43.0195C213.247 42.9154 213.488 42.7363 213.683 42.4824C213.885 42.235 214.058 41.8932 214.201 41.457L214.953 39.4062ZM212.795 29.9336L215.539 38.1367L216.007 40.041L214.709 40.7051L210.822 29.9336H212.795ZM226.163 29.9336V40.5H224.347V29.9336H226.163ZM229.708 29.9336V31.3984H220.87V29.9336H229.708ZM241.553 29.9336V40.5H239.737V29.9336H241.553ZM245.098 29.9336V31.3984H236.26V29.9336H245.098ZM250.879 40.6953C250.143 40.6953 249.476 40.5716 248.877 40.3242C248.285 40.0703 247.773 39.7155 247.344 39.2598C246.921 38.804 246.595 38.2637 246.367 37.6387C246.139 37.0137 246.025 36.3301 246.025 35.5879V35.1777C246.025 34.3184 246.152 33.5534 246.406 32.8828C246.66 32.2057 247.005 31.6328 247.441 31.1641C247.878 30.6953 248.372 30.3405 248.926 30.0996C249.479 29.8587 250.052 29.7383 250.645 29.7383C251.4 29.7383 252.051 29.8685 252.598 30.1289C253.151 30.3893 253.604 30.7539 253.955 31.2227C254.307 31.6849 254.567 32.2318 254.736 32.8633C254.906 33.4883 254.99 34.1719 254.99 34.9141V35.7246H247.1V34.25H253.184V34.1133C253.158 33.6445 253.06 33.1888 252.891 32.7461C252.728 32.3034 252.467 31.9388 252.109 31.6523C251.751 31.3659 251.263 31.2227 250.645 31.2227C250.234 31.2227 249.857 31.3105 249.512 31.4863C249.167 31.6556 248.87 31.9095 248.623 32.248C248.376 32.5866 248.184 33 248.047 33.4883C247.91 33.9766 247.842 34.5397 247.842 35.1777V35.5879C247.842 36.0892 247.91 36.5612 248.047 37.0039C248.19 37.4401 248.395 37.8242 248.662 38.1562C248.936 38.4883 249.264 38.7487 249.648 38.9375C250.039 39.1263 250.482 39.2207 250.977 39.2207C251.615 39.2207 252.155 39.0905 252.598 38.8301C253.04 38.5697 253.428 38.2214 253.76 37.7852L254.854 38.6543C254.626 38.9993 254.336 39.3281 253.984 39.6406C253.633 39.9531 253.2 40.207 252.686 40.4023C252.178 40.5977 251.576 40.6953 250.879 40.6953ZM258.72 29.9336L261.035 33.7812L263.379 29.9336H265.498L262.041 35.1484L265.605 40.5H263.515L261.074 36.5352L258.632 40.5H256.533L260.088 35.1484L256.64 29.9336H258.72ZM274.989 34.5137V35.9785H269.404V34.5137H274.989ZM269.784 29.9336V40.5H267.978V29.9336H269.784ZM276.454 29.9336V40.5H274.638V29.9336H276.454ZM279.286 35.334V35.1094C279.286 34.3477 279.397 33.6413 279.618 32.9902C279.839 32.3327 280.158 31.763 280.575 31.2812C280.992 30.793 281.496 30.4154 282.089 30.1484C282.681 29.875 283.345 29.7383 284.081 29.7383C284.823 29.7383 285.49 29.875 286.083 30.1484C286.682 30.4154 287.19 30.793 287.606 31.2812C288.029 31.763 288.352 32.3327 288.573 32.9902C288.794 33.6413 288.905 34.3477 288.905 35.1094V35.334C288.905 36.0957 288.794 36.8021 288.573 37.4531C288.352 38.1042 288.029 38.6738 287.606 39.1621C287.19 39.6439 286.685 40.0215 286.093 40.2949C285.507 40.5618 284.843 40.6953 284.1 40.6953C283.358 40.6953 282.691 40.5618 282.098 40.2949C281.506 40.0215 280.998 39.6439 280.575 39.1621C280.158 38.6738 279.839 38.1042 279.618 37.4531C279.397 36.8021 279.286 36.0957 279.286 35.334ZM281.093 35.1094V35.334C281.093 35.8613 281.154 36.3594 281.278 36.8281C281.402 37.2904 281.587 37.7005 281.835 38.0586C282.089 38.4167 282.404 38.6999 282.782 38.9082C283.16 39.11 283.599 39.2109 284.1 39.2109C284.595 39.2109 285.028 39.11 285.399 38.9082C285.777 38.6999 286.089 38.4167 286.337 38.0586C286.584 37.7005 286.77 37.2904 286.893 36.8281C287.024 36.3594 287.089 35.8613 287.089 35.334V35.1094C287.089 34.5885 287.024 34.097 286.893 33.6348C286.77 33.166 286.581 32.7526 286.327 32.3945C286.08 32.0299 285.767 31.7435 285.389 31.5352C285.018 31.3268 284.582 31.2227 284.081 31.2227C283.586 31.2227 283.15 31.3268 282.772 31.5352C282.401 31.7435 282.089 32.0299 281.835 32.3945C281.587 32.7526 281.402 33.166 281.278 33.6348C281.154 34.097 281.093 34.5885 281.093 35.1094ZM298.475 29.9336V31.4277H293.368V29.9336H298.475ZM300.067 29.9336V40.5H298.26V29.9336H300.067ZM292.928 29.9336H294.745L294.471 35.0312C294.426 35.819 294.351 36.5156 294.246 37.1211C294.149 37.7201 294.012 38.2344 293.836 38.6641C293.667 39.0938 293.452 39.4453 293.192 39.7188C292.938 39.9857 292.632 40.1842 292.274 40.3145C291.916 40.4382 291.502 40.5 291.034 40.5H290.467V38.9082L290.858 38.8789C291.138 38.8594 291.375 38.7943 291.571 38.6836C291.773 38.5729 291.942 38.4102 292.079 38.1953C292.215 37.974 292.326 37.6908 292.411 37.3457C292.502 37.0007 292.57 36.5905 292.616 36.1152C292.668 35.64 292.707 35.0866 292.733 34.4551L292.928 29.9336ZM302.898 35.334V35.1094C302.898 34.3477 303.009 33.6413 303.23 32.9902C303.452 32.3327 303.771 31.763 304.188 31.2812C304.604 30.793 305.109 30.4154 305.701 30.1484C306.294 29.875 306.958 29.7383 307.693 29.7383C308.436 29.7383 309.103 29.875 309.695 30.1484C310.294 30.4154 310.802 30.793 311.219 31.2812C311.642 31.763 311.964 32.3327 312.186 32.9902C312.407 33.6413 312.518 34.3477 312.518 35.1094V35.334C312.518 36.0957 312.407 36.8021 312.186 37.4531C311.964 38.1042 311.642 38.6738 311.219 39.1621C310.802 39.6439 310.298 40.0215 309.705 40.2949C309.119 40.5618 308.455 40.6953 307.713 40.6953C306.971 40.6953 306.303 40.5618 305.711 40.2949C305.118 40.0215 304.611 39.6439 304.188 39.1621C303.771 38.6738 303.452 38.1042 303.23 37.4531C303.009 36.8021 302.898 36.0957 302.898 35.334ZM304.705 35.1094V35.334C304.705 35.8613 304.767 36.3594 304.891 36.8281C305.014 37.2904 305.2 37.7005 305.447 38.0586C305.701 38.4167 306.017 38.6999 306.395 38.9082C306.772 39.11 307.212 39.2109 307.713 39.2109C308.208 39.2109 308.641 39.11 309.012 38.9082C309.389 38.6999 309.702 38.4167 309.949 38.0586C310.197 37.7005 310.382 37.2904 310.506 36.8281C310.636 36.3594 310.701 35.8613 310.701 35.334V35.1094C310.701 34.5885 310.636 34.097 310.506 33.6348C310.382 33.166 310.193 32.7526 309.939 32.3945C309.692 32.0299 309.38 31.7435 309.002 31.5352C308.631 31.3268 308.195 31.2227 307.693 31.2227C307.199 31.2227 306.762 31.3268 306.385 31.5352C306.014 31.7435 305.701 32.0299 305.447 32.3945C305.2 32.7526 305.014 33.166 304.891 33.6348C304.767 34.097 304.705 34.5885 304.705 35.1094ZM322.009 29.9336V31.4277H317.127V40.5H315.32V29.9336H322.009ZM325.935 37.6387L330.808 29.9336H332.624V40.5H330.808V32.7949L325.935 40.5H324.138V29.9336H325.935V37.6387ZM337.878 37.6387L342.751 29.9336H344.567V40.5H342.751V32.7949L337.878 40.5H336.081V29.9336H337.878V37.6387ZM341.764 26.1055H343.229C343.229 26.6133 343.112 27.0658 342.878 27.4629C342.643 27.8535 342.308 28.1595 341.872 28.3809C341.436 28.6022 340.918 28.7129 340.319 28.7129C339.414 28.7129 338.698 28.472 338.171 27.9902C337.65 27.502 337.389 26.8737 337.389 26.1055H338.854C338.854 26.4896 338.965 26.8281 339.186 27.1211C339.408 27.4141 339.785 27.5605 340.319 27.5605C340.84 27.5605 341.211 27.4141 341.432 27.1211C341.654 26.8281 341.764 26.4896 341.764 26.1055ZM149.418 53.9336V55.4277H144.076V53.9336H149.418ZM144.34 53.9336V64.5H142.533V53.9336H144.34ZM151.02 53.9336V64.5H149.203V53.9336H151.02ZM156.127 55.9648V68.5625H154.31V53.9336H155.97L156.127 55.9648ZM163.246 59.1289V59.334C163.246 60.1022 163.155 60.8151 162.972 61.4727C162.79 62.1237 162.523 62.6901 162.171 63.1719C161.826 63.6536 161.4 64.028 160.892 64.2949C160.384 64.5618 159.802 64.6953 159.144 64.6953C158.474 64.6953 157.881 64.5846 157.367 64.3633C156.852 64.1419 156.416 63.8197 156.058 63.3965C155.7 62.9733 155.414 62.4655 155.199 61.873C154.99 61.2806 154.847 60.6133 154.769 59.8711V58.7773C154.847 57.9961 154.994 57.2962 155.209 56.6777C155.423 56.0592 155.707 55.5319 156.058 55.0957C156.416 54.653 156.849 54.3177 157.357 54.0898C157.865 53.8555 158.451 53.7383 159.115 53.7383C159.779 53.7383 160.368 53.8685 160.882 54.1289C161.397 54.3828 161.83 54.7474 162.181 55.2227C162.533 55.6979 162.796 56.2676 162.972 56.9316C163.155 57.5892 163.246 58.3216 163.246 59.1289ZM161.429 59.334V59.1289C161.429 58.6016 161.374 58.1068 161.263 57.6445C161.153 57.1758 160.98 56.7656 160.746 56.4141C160.518 56.056 160.225 55.776 159.867 55.5742C159.509 55.3659 159.082 55.2617 158.587 55.2617C158.132 55.2617 157.735 55.3398 157.396 55.4961C157.064 55.6523 156.781 55.8639 156.546 56.1309C156.312 56.3913 156.12 56.6908 155.97 57.0293C155.827 57.3613 155.72 57.7064 155.648 58.0645V60.5938C155.778 61.0495 155.961 61.4792 156.195 61.8828C156.429 62.2799 156.742 62.6022 157.132 62.8496C157.523 63.0905 158.015 63.2109 158.607 63.2109C159.095 63.2109 159.515 63.11 159.867 62.9082C160.225 62.6999 160.518 62.4167 160.746 62.0586C160.98 61.7005 161.153 61.2904 161.263 60.8281C161.374 60.3594 161.429 59.8613 161.429 59.334ZM170.335 64.6953C169.599 64.6953 168.932 64.5716 168.333 64.3242C167.741 64.0703 167.23 63.7155 166.8 63.2598C166.377 62.804 166.051 62.2637 165.823 61.6387C165.596 61.0137 165.482 60.3301 165.482 59.5879V59.1777C165.482 58.3184 165.609 57.5534 165.862 56.8828C166.116 56.2057 166.461 55.6328 166.898 55.1641C167.334 54.6953 167.829 54.3405 168.382 54.0996C168.935 53.8587 169.508 53.7383 170.101 53.7383C170.856 53.7383 171.507 53.8685 172.054 54.1289C172.607 54.3893 173.06 54.7539 173.411 55.2227C173.763 55.6849 174.023 56.2318 174.193 56.8633C174.362 57.4883 174.446 58.1719 174.446 58.9141V59.7246H166.556V58.25H172.64V58.1133C172.614 57.6445 172.516 57.1888 172.347 56.7461C172.184 56.3034 171.924 55.9388 171.566 55.6523C171.208 55.3659 170.719 55.2227 170.101 55.2227C169.691 55.2227 169.313 55.3105 168.968 55.4863C168.623 55.6556 168.327 55.9095 168.079 56.248C167.832 56.5866 167.64 57 167.503 57.4883C167.366 57.9766 167.298 58.5397 167.298 59.1777V59.5879C167.298 60.0892 167.366 60.5612 167.503 61.0039C167.646 61.4401 167.851 61.8242 168.118 62.1562C168.392 62.4883 168.721 62.7487 169.105 62.9375C169.495 63.1263 169.938 63.2207 170.433 63.2207C171.071 63.2207 171.611 63.0905 172.054 62.8301C172.497 62.5697 172.884 62.2214 173.216 61.7852L174.31 62.6543C174.082 62.9993 173.792 63.3281 173.441 63.6406C173.089 63.9531 172.656 64.207 172.142 64.4023C171.634 64.5977 171.032 64.6953 170.335 64.6953ZM178.86 53.9336H180.667L180.511 57.8887C180.471 58.8913 180.358 59.7572 180.169 60.4863C179.98 61.2155 179.739 61.8372 179.446 62.3516C179.153 62.8594 178.824 63.2858 178.46 63.6309C178.102 63.9759 177.731 64.2656 177.346 64.5H176.448L176.497 63.0254L176.868 63.0156C177.083 62.7617 177.291 62.5013 177.493 62.2344C177.695 61.9609 177.88 61.6387 178.05 61.2676C178.219 60.89 178.359 60.431 178.47 59.8906C178.587 59.3438 178.662 58.6764 178.694 57.8887L178.86 53.9336ZM179.309 53.9336H185.667V64.5H183.86V55.6035H179.309V53.9336ZM176.038 63.0156H187.024V67.6152H185.218V64.5H177.845V67.6152H176.028L176.038 63.0156ZM196.467 53.9336V55.4277H191.125V53.9336H196.467ZM191.389 53.9336V64.5H189.582V53.9336H191.389ZM198.069 53.9336V64.5H196.252V53.9336H198.069ZM203.176 55.9648V68.5625H201.359V53.9336H203.02L203.176 55.9648ZM210.295 59.1289V59.334C210.295 60.1022 210.204 60.8151 210.021 61.4727C209.839 62.1237 209.572 62.6901 209.221 63.1719C208.876 63.6536 208.449 64.028 207.941 64.2949C207.434 64.5618 206.851 64.6953 206.193 64.6953C205.523 64.6953 204.93 64.5846 204.416 64.3633C203.902 64.1419 203.465 63.8197 203.107 63.3965C202.749 62.9733 202.463 62.4655 202.248 61.873C202.04 61.2806 201.896 60.6133 201.818 59.8711V58.7773C201.896 57.9961 202.043 57.2962 202.258 56.6777C202.473 56.0592 202.756 55.5319 203.107 55.0957C203.465 54.653 203.898 54.3177 204.406 54.0898C204.914 53.8555 205.5 53.7383 206.164 53.7383C206.828 53.7383 207.417 53.8685 207.932 54.1289C208.446 54.3828 208.879 54.7474 209.23 55.2227C209.582 55.6979 209.846 56.2676 210.021 56.9316C210.204 57.5892 210.295 58.3216 210.295 59.1289ZM208.479 59.334V59.1289C208.479 58.6016 208.423 58.1068 208.312 57.6445C208.202 57.1758 208.029 56.7656 207.795 56.4141C207.567 56.056 207.274 55.776 206.916 55.5742C206.558 55.3659 206.132 55.2617 205.637 55.2617C205.181 55.2617 204.784 55.3398 204.445 55.4961C204.113 55.6523 203.83 55.8639 203.596 56.1309C203.361 56.3913 203.169 56.6908 203.02 57.0293C202.876 57.3613 202.769 57.7064 202.697 58.0645V60.5938C202.827 61.0495 203.01 61.4792 203.244 61.8828C203.479 62.2799 203.791 62.6022 204.182 62.8496C204.572 63.0905 205.064 63.2109 205.656 63.2109C206.145 63.2109 206.564 63.11 206.916 62.9082C207.274 62.6999 207.567 62.4167 207.795 62.0586C208.029 61.7005 208.202 61.2904 208.312 60.8281C208.423 60.3594 208.479 59.8613 208.479 59.334ZM214.953 61.6387L219.826 53.9336H221.642V64.5H219.826V56.7949L214.953 64.5H213.156V53.9336H214.953V61.6387ZM232.111 58.5137V59.9785H226.525V58.5137H232.111ZM226.905 53.9336V64.5H225.099V53.9336H226.905ZM233.575 53.9336V64.5H231.759V53.9336H233.575ZM238.839 61.6387L243.712 53.9336H245.528V64.5H243.712V56.7949L238.839 64.5H237.042V53.9336H238.839V61.6387ZM254.903 62.0977L258.496 53.9336H260.235L255.528 64.5H254.278L249.59 53.9336H251.329L254.903 62.0977ZM250.801 53.9336V64.5H248.995V53.9336H250.801ZM258.946 64.5V53.9336H260.762V64.5H258.946ZM270.303 62.6934V57.2539C270.303 56.8372 270.218 56.4759 270.049 56.1699C269.886 55.8574 269.639 55.6165 269.307 55.4473C268.975 55.278 268.564 55.1934 268.076 55.1934C267.62 55.1934 267.22 55.2715 266.875 55.4277C266.536 55.584 266.27 55.7891 266.074 56.043C265.885 56.2969 265.791 56.5703 265.791 56.8633H263.984C263.984 56.4857 264.082 56.1113 264.277 55.7402C264.473 55.3691 264.753 55.0339 265.117 54.7344C265.488 54.4284 265.931 54.1875 266.445 54.0117C266.966 53.8294 267.546 53.7383 268.184 53.7383C268.952 53.7383 269.629 53.8685 270.215 54.1289C270.807 54.3893 271.27 54.7832 271.602 55.3105C271.94 55.8314 272.109 56.4857 272.109 57.2734V62.1953C272.109 62.5469 272.139 62.9212 272.197 63.3184C272.262 63.7155 272.357 64.0573 272.48 64.3438V64.5H270.596C270.505 64.2917 270.433 64.015 270.381 63.6699C270.329 63.3184 270.303 62.9928 270.303 62.6934ZM270.615 58.0938L270.635 59.3633H268.809C268.294 59.3633 267.835 59.4056 267.432 59.4902C267.028 59.5684 266.689 59.6888 266.416 59.8516C266.143 60.0143 265.934 60.2194 265.791 60.4668C265.648 60.7077 265.576 60.9909 265.576 61.3164C265.576 61.6484 265.651 61.9512 265.801 62.2246C265.951 62.498 266.175 62.7161 266.475 62.8789C266.781 63.0352 267.155 63.1133 267.598 63.1133C268.151 63.1133 268.639 62.9961 269.062 62.7617C269.486 62.5273 269.821 62.2409 270.068 61.9023C270.322 61.5638 270.459 61.235 270.479 60.916L271.25 61.7852C271.204 62.0586 271.081 62.3613 270.879 62.6934C270.677 63.0254 270.407 63.3444 270.068 63.6504C269.736 63.9499 269.339 64.2005 268.877 64.4023C268.421 64.5977 267.907 64.6953 267.334 64.6953C266.618 64.6953 265.99 64.5553 265.449 64.2754C264.915 63.9954 264.499 63.6211 264.199 63.1523C263.906 62.6771 263.76 62.1465 263.76 61.5605C263.76 60.9941 263.87 60.4961 264.092 60.0664C264.313 59.6302 264.632 59.2689 265.049 58.9824C265.465 58.6895 265.967 58.4681 266.553 58.3184C267.139 58.1686 267.793 58.0938 268.516 58.0938H270.615ZM279.502 53.9336V64.5H277.685V53.9336H279.502ZM283.046 53.9336V55.3984H274.209V53.9336H283.046ZM288.827 64.6953C288.092 64.6953 287.424 64.5716 286.825 64.3242C286.233 64.0703 285.722 63.7155 285.292 63.2598C284.869 62.804 284.543 62.2637 284.316 61.6387C284.088 61.0137 283.974 60.3301 283.974 59.5879V59.1777C283.974 58.3184 284.101 57.5534 284.355 56.8828C284.609 56.2057 284.954 55.6328 285.39 55.1641C285.826 54.6953 286.321 54.3405 286.874 54.0996C287.428 53.8587 288.001 53.7383 288.593 53.7383C289.348 53.7383 289.999 53.8685 290.546 54.1289C291.099 54.3893 291.552 54.7539 291.904 55.2227C292.255 55.6849 292.515 56.2318 292.685 56.8633C292.854 57.4883 292.939 58.1719 292.939 58.9141V59.7246H285.048V58.25H291.132V58.1133C291.106 57.6445 291.008 57.1888 290.839 56.7461C290.676 56.3034 290.416 55.9388 290.058 55.6523C289.7 55.3659 289.211 55.2227 288.593 55.2227C288.183 55.2227 287.805 55.3105 287.46 55.4863C287.115 55.6556 286.819 55.9095 286.571 56.248C286.324 56.5866 286.132 57 285.995 57.4883C285.859 57.9766 285.79 58.5397 285.79 59.1777V59.5879C285.79 60.0892 285.859 60.5612 285.995 61.0039C286.139 61.4401 286.344 61.8242 286.611 62.1562C286.884 62.4883 287.213 62.7487 287.597 62.9375C287.988 63.1263 288.43 63.2207 288.925 63.2207C289.563 63.2207 290.103 63.0905 290.546 62.8301C290.989 62.5697 291.376 62.2214 291.708 61.7852L292.802 62.6543C292.574 62.9993 292.284 63.3281 291.933 63.6406C291.581 63.9531 291.148 64.207 290.634 64.4023C290.126 64.5977 289.524 64.6953 288.827 64.6953ZM302.509 53.9336V55.4277H297.401V53.9336H302.509ZM304.1 53.9336V64.5H302.294V53.9336H304.1ZM296.962 53.9336H298.778L298.505 59.0312C298.459 59.819 298.384 60.5156 298.28 61.1211C298.182 61.7201 298.046 62.2344 297.87 62.6641C297.701 63.0938 297.486 63.4453 297.225 63.7188C296.971 63.9857 296.665 64.1842 296.307 64.3145C295.949 64.4382 295.536 64.5 295.067 64.5H294.501V62.9082L294.891 62.8789C295.171 62.8594 295.409 62.7943 295.604 62.6836C295.806 62.5729 295.975 62.4102 296.112 62.1953C296.249 61.974 296.36 61.6908 296.444 61.3457C296.535 61.0007 296.604 60.5905 296.649 60.1152C296.701 59.64 296.74 59.0866 296.766 58.4551L296.962 53.9336ZM308.895 57.5664H312.069C312.922 57.5664 313.641 57.7161 314.227 58.0156C314.813 58.3086 315.256 58.7155 315.555 59.2363C315.861 59.7507 316.014 60.3366 316.014 60.9941C316.014 61.4824 315.929 61.9414 315.76 62.3711C315.591 62.7943 315.337 63.1654 314.998 63.4844C314.666 63.8034 314.253 64.054 313.758 64.2363C313.27 64.4121 312.707 64.5 312.069 64.5H307.577V53.9336H309.383V63.0156H312.069C312.59 63.0156 313.006 62.9212 313.319 62.7324C313.631 62.5436 313.856 62.2995 313.993 62C314.129 61.7005 314.198 61.388 314.198 61.0625C314.198 60.7435 314.129 60.431 313.993 60.125C313.856 59.819 313.631 59.5651 313.319 59.3633C313.006 59.1549 312.59 59.0508 312.069 59.0508H308.895V57.5664ZM322.898 63.2109C323.328 63.2109 323.725 63.123 324.09 62.9473C324.454 62.7715 324.754 62.5306 324.988 62.2246C325.223 61.9121 325.356 61.5573 325.389 61.1602H327.107C327.075 61.7852 326.863 62.3678 326.473 62.9082C326.089 63.4421 325.584 63.875 324.959 64.207C324.334 64.5326 323.647 64.6953 322.898 64.6953C322.104 64.6953 321.411 64.5553 320.818 64.2754C320.232 63.9954 319.744 63.6113 319.354 63.123C318.969 62.6348 318.68 62.0749 318.484 61.4434C318.296 60.8053 318.201 60.1315 318.201 59.4219V59.0117C318.201 58.3021 318.296 57.6315 318.484 57C318.68 56.362 318.969 55.7988 319.354 55.3105C319.744 54.8223 320.232 54.4382 320.818 54.1582C321.411 53.8783 322.104 53.7383 322.898 53.7383C323.725 53.7383 324.448 53.9076 325.066 54.2461C325.685 54.5781 326.17 55.0339 326.521 55.6133C326.88 56.1862 327.075 56.8372 327.107 57.5664H325.389C325.356 57.1302 325.232 56.7363 325.018 56.3848C324.809 56.0332 324.523 55.7533 324.158 55.5449C323.8 55.3301 323.38 55.2227 322.898 55.2227C322.345 55.2227 321.88 55.3333 321.502 55.5547C321.131 55.7695 320.835 56.0625 320.613 56.4336C320.398 56.7982 320.242 57.2051 320.145 57.6543C320.053 58.097 320.008 58.5495 320.008 59.0117V59.4219C320.008 59.8841 320.053 60.3398 320.145 60.7891C320.236 61.2383 320.389 61.6452 320.604 62.0098C320.825 62.3743 321.121 62.6673 321.492 62.8887C321.87 63.1035 322.339 63.2109 322.898 63.2109ZM333.845 53.9336V64.5H332.029V53.9336H333.845ZM337.39 53.9336V55.3984H328.552V53.9336H337.39ZM344.529 59.8516H341.062L341.042 58.4062H343.874C344.434 58.4062 344.9 58.3509 345.271 58.2402C345.648 58.1296 345.932 57.9635 346.12 57.7422C346.309 57.5208 346.404 57.2474 346.404 56.9219C346.404 56.668 346.348 56.4466 346.238 56.2578C346.133 56.0625 345.974 55.903 345.759 55.7793C345.544 55.6491 345.277 55.5547 344.958 55.4961C344.646 55.431 344.278 55.3984 343.855 55.3984H341.54V64.5H339.734V53.9336H343.855C344.525 53.9336 345.127 53.9922 345.661 54.1094C346.202 54.2266 346.661 54.4056 347.038 54.6465C347.422 54.8809 347.715 55.1803 347.917 55.5449C348.119 55.9095 348.22 56.3392 348.22 56.834C348.22 57.153 348.155 57.4557 348.025 57.7422C347.894 58.0286 347.702 58.2826 347.448 58.5039C347.195 58.7253 346.882 58.9076 346.511 59.0508C346.14 59.1875 345.713 59.2754 345.232 59.3145L344.529 59.8516ZM344.529 64.5H340.407L341.306 63.0352H344.529C345.03 63.0352 345.446 62.9733 345.779 62.8496C346.111 62.7194 346.358 62.5371 346.521 62.3027C346.69 62.0618 346.775 61.7754 346.775 61.4434C346.775 61.1113 346.69 60.8281 346.521 60.5938C346.358 60.3529 346.111 60.1706 345.779 60.0469C345.446 59.9167 345.03 59.8516 344.529 59.8516H341.784L341.804 58.4062H345.232L345.886 58.9531C346.465 58.9987 346.957 59.1419 347.361 59.3828C347.764 59.6237 348.07 59.9297 348.279 60.3008C348.487 60.6654 348.591 61.0625 348.591 61.4922C348.591 61.987 348.497 62.4232 348.308 62.8008C348.126 63.1784 347.859 63.4941 347.507 63.748C347.155 63.9954 346.729 64.1842 346.228 64.3145C345.726 64.4382 345.16 64.5 344.529 64.5ZM357.643 62.6934V57.2539C357.643 56.8372 357.559 56.4759 357.389 56.1699C357.227 55.8574 356.979 55.6165 356.647 55.4473C356.315 55.278 355.905 55.1934 355.417 55.1934C354.961 55.1934 354.561 55.2715 354.216 55.4277C353.877 55.584 353.61 55.7891 353.415 56.043C353.226 56.2969 353.132 56.5703 353.132 56.8633H351.325C351.325 56.4857 351.423 56.1113 351.618 55.7402C351.813 55.3691 352.093 55.0339 352.458 54.7344C352.829 54.4284 353.272 54.1875 353.786 54.0117C354.307 53.8294 354.886 53.7383 355.524 53.7383C356.292 53.7383 356.97 53.8685 357.555 54.1289C358.148 54.3893 358.61 54.7832 358.942 55.3105C359.281 55.8314 359.45 56.4857 359.45 57.2734V62.1953C359.45 62.5469 359.479 62.9212 359.538 63.3184C359.603 63.7155 359.697 64.0573 359.821 64.3438V64.5H357.936C357.845 64.2917 357.774 64.015 357.721 63.6699C357.669 63.3184 357.643 62.9928 357.643 62.6934ZM357.956 58.0938L357.975 59.3633H356.149C355.635 59.3633 355.176 59.4056 354.772 59.4902C354.369 59.5684 354.03 59.6888 353.757 59.8516C353.483 60.0143 353.275 60.2194 353.132 60.4668C352.988 60.7077 352.917 60.9909 352.917 61.3164C352.917 61.6484 352.992 61.9512 353.141 62.2246C353.291 62.498 353.516 62.7161 353.815 62.8789C354.121 63.0352 354.496 63.1133 354.938 63.1133C355.492 63.1133 355.98 62.9961 356.403 62.7617C356.826 62.5273 357.162 62.2409 357.409 61.9023C357.663 61.5638 357.8 61.235 357.819 60.916L358.591 61.7852C358.545 62.0586 358.421 62.3613 358.22 62.6934C358.018 63.0254 357.748 63.3444 357.409 63.6504C357.077 63.9499 356.68 64.2005 356.218 64.4023C355.762 64.5977 355.248 64.6953 354.675 64.6953C353.958 64.6953 353.33 64.5553 352.79 64.2754C352.256 63.9954 351.839 63.6211 351.54 63.1523C351.247 62.6771 351.1 62.1465 351.1 61.5605C351.1 60.9941 351.211 60.4961 351.432 60.0664C351.654 59.6302 351.973 59.2689 352.389 58.9824C352.806 58.6895 353.307 58.4681 353.893 58.3184C354.479 58.1686 355.134 58.0938 355.856 58.0938H357.956ZM144.33 85.6387L149.203 77.9336H151.02V88.5H149.203V80.7949L144.33 88.5H142.533V77.9336H144.33V85.6387ZM166.722 77.9336V79.4277H161.38V77.9336H166.722ZM161.644 77.9336V88.5H159.837V77.9336H161.644ZM168.323 77.9336V88.5H166.507V77.9336H168.323ZM173.43 79.9648V92.5625H171.614V77.9336H173.274L173.43 79.9648ZM180.55 83.1289V83.334C180.55 84.1022 180.458 84.8151 180.276 85.4727C180.094 86.1237 179.827 86.6901 179.475 87.1719C179.13 87.6536 178.704 88.028 178.196 88.2949C177.688 88.5618 177.106 88.6953 176.448 88.6953C175.777 88.6953 175.185 88.5846 174.671 88.3633C174.156 88.1419 173.72 87.8197 173.362 87.3965C173.004 86.9733 172.718 86.4655 172.503 85.873C172.294 85.2806 172.151 84.6133 172.073 83.8711V82.7773C172.151 81.9961 172.298 81.2962 172.513 80.6777C172.727 80.0592 173.011 79.5319 173.362 79.0957C173.72 78.653 174.153 78.3177 174.661 78.0898C175.169 77.8555 175.755 77.7383 176.419 77.7383C177.083 77.7383 177.672 77.8685 178.186 78.1289C178.701 78.3828 179.134 78.7474 179.485 79.2227C179.837 79.6979 180.1 80.2676 180.276 80.9316C180.458 81.5892 180.55 82.3216 180.55 83.1289ZM178.733 83.334V83.1289C178.733 82.6016 178.678 82.1068 178.567 81.6445C178.457 81.1758 178.284 80.7656 178.05 80.4141C177.822 80.056 177.529 79.776 177.171 79.5742C176.813 79.3659 176.386 79.2617 175.891 79.2617C175.436 79.2617 175.039 79.3398 174.7 79.4961C174.368 79.6523 174.085 79.8639 173.85 80.1309C173.616 80.3913 173.424 80.6908 173.274 81.0293C173.131 81.3613 173.024 81.7064 172.952 82.0645V84.5938C173.082 85.0495 173.264 85.4792 173.499 85.8828C173.733 86.2799 174.046 86.6022 174.436 86.8496C174.827 87.0905 175.318 87.2109 175.911 87.2109C176.399 87.2109 176.819 87.11 177.171 86.9082C177.529 86.6999 177.822 86.4167 178.05 86.0586C178.284 85.7005 178.457 85.2904 178.567 84.8281C178.678 84.3594 178.733 83.8613 178.733 83.334ZM189.485 86.6934V81.2539C189.485 80.8372 189.4 80.4759 189.231 80.1699C189.068 79.8574 188.821 79.6165 188.489 79.4473C188.157 79.278 187.746 79.1934 187.258 79.1934C186.802 79.1934 186.402 79.2715 186.057 79.4277C185.718 79.584 185.452 79.7891 185.256 80.043C185.067 80.2969 184.973 80.5703 184.973 80.8633H183.166C183.166 80.4857 183.264 80.1113 183.459 79.7402C183.655 79.3691 183.935 79.0339 184.299 78.7344C184.67 78.4284 185.113 78.1875 185.627 78.0117C186.148 77.8294 186.728 77.7383 187.366 77.7383C188.134 77.7383 188.811 77.8685 189.397 78.1289C189.989 78.3893 190.452 78.7832 190.784 79.3105C191.122 79.8314 191.291 80.4857 191.291 81.2734V86.1953C191.291 86.5469 191.321 86.9212 191.379 87.3184C191.444 87.7155 191.539 88.0573 191.662 88.3438V88.5H189.778C189.687 88.2917 189.615 88.015 189.563 87.6699C189.511 87.3184 189.485 86.9928 189.485 86.6934ZM189.797 82.0938L189.817 83.3633H187.991C187.476 83.3633 187.017 83.4056 186.614 83.4902C186.21 83.5684 185.871 83.6888 185.598 83.8516C185.325 84.0143 185.116 84.2194 184.973 84.4668C184.83 84.7077 184.758 84.9909 184.758 85.3164C184.758 85.6484 184.833 85.9512 184.983 86.2246C185.133 86.498 185.357 86.7161 185.657 86.8789C185.963 87.0352 186.337 87.1133 186.78 87.1133C187.333 87.1133 187.821 86.9961 188.245 86.7617C188.668 86.5273 189.003 86.2409 189.25 85.9023C189.504 85.5638 189.641 85.235 189.661 84.916L190.432 85.7852C190.386 86.0586 190.263 86.3613 190.061 86.6934C189.859 87.0254 189.589 87.3444 189.25 87.6504C188.918 87.9499 188.521 88.2005 188.059 88.4023C187.603 88.5977 187.089 88.6953 186.516 88.6953C185.8 88.6953 185.172 88.5553 184.631 88.2754C184.097 87.9954 183.681 87.6211 183.381 87.1523C183.088 86.6771 182.942 86.1465 182.942 85.5605C182.942 84.9941 183.052 84.4961 183.274 84.0664C183.495 83.6302 183.814 83.2689 184.231 82.9824C184.648 82.6895 185.149 82.4681 185.735 82.3184C186.321 82.1686 186.975 82.0938 187.698 82.0938H189.797ZM199.494 83.8516H196.027L196.008 82.4062H198.84C199.4 82.4062 199.865 82.3509 200.236 82.2402C200.614 82.1296 200.897 81.9635 201.086 81.7422C201.275 81.5208 201.369 81.2474 201.369 80.9219C201.369 80.668 201.314 80.4466 201.203 80.2578C201.099 80.0625 200.939 79.903 200.725 79.7793C200.51 79.6491 200.243 79.5547 199.924 79.4961C199.611 79.431 199.243 79.3984 198.82 79.3984H196.506V88.5H194.699V77.9336H198.82C199.491 77.9336 200.093 77.9922 200.627 78.1094C201.167 78.2266 201.626 78.4056 202.004 78.6465C202.388 78.8809 202.681 79.1803 202.883 79.5449C203.085 79.9095 203.186 80.3392 203.186 80.834C203.186 81.153 203.12 81.4557 202.99 81.7422C202.86 82.0286 202.668 82.2826 202.414 82.5039C202.16 82.7253 201.848 82.9076 201.477 83.0508C201.105 83.1875 200.679 83.2754 200.197 83.3145L199.494 83.8516ZM199.494 88.5H195.373L196.271 87.0352H199.494C199.995 87.0352 200.412 86.9733 200.744 86.8496C201.076 86.7194 201.324 86.5371 201.486 86.3027C201.656 86.0618 201.74 85.7754 201.74 85.4434C201.74 85.1113 201.656 84.8281 201.486 84.5938C201.324 84.3529 201.076 84.1706 200.744 84.0469C200.412 83.9167 199.995 83.8516 199.494 83.8516H196.75L196.77 82.4062H200.197L200.852 82.9531C201.431 82.9987 201.923 83.1419 202.326 83.3828C202.73 83.6237 203.036 83.9297 203.244 84.3008C203.452 84.6654 203.557 85.0625 203.557 85.4922C203.557 85.987 203.462 86.4232 203.273 86.8008C203.091 87.1784 202.824 87.4941 202.473 87.748C202.121 87.9954 201.695 88.1842 201.193 88.3145C200.692 88.4382 200.126 88.5 199.494 88.5ZM212.609 86.6934V81.2539C212.609 80.8372 212.524 80.4759 212.355 80.1699C212.192 79.8574 211.945 79.6165 211.613 79.4473C211.281 79.278 210.871 79.1934 210.382 79.1934C209.927 79.1934 209.526 79.2715 209.181 79.4277C208.843 79.584 208.576 79.7891 208.38 80.043C208.192 80.2969 208.097 80.5703 208.097 80.8633H206.291C206.291 80.4857 206.388 80.1113 206.584 79.7402C206.779 79.3691 207.059 79.0339 207.423 78.7344C207.795 78.4284 208.237 78.1875 208.752 78.0117C209.272 77.8294 209.852 77.7383 210.49 77.7383C211.258 77.7383 211.935 77.8685 212.521 78.1289C213.114 78.3893 213.576 78.7832 213.908 79.3105C214.246 79.8314 214.416 80.4857 214.416 81.2734V86.1953C214.416 86.5469 214.445 86.9212 214.504 87.3184C214.569 87.7155 214.663 88.0573 214.787 88.3438V88.5H212.902C212.811 88.2917 212.739 88.015 212.687 87.6699C212.635 87.3184 212.609 86.9928 212.609 86.6934ZM212.921 82.0938L212.941 83.3633H211.115C210.601 83.3633 210.142 83.4056 209.738 83.4902C209.334 83.5684 208.996 83.6888 208.722 83.8516C208.449 84.0143 208.24 84.2194 208.097 84.4668C207.954 84.7077 207.882 84.9909 207.882 85.3164C207.882 85.6484 207.957 85.9512 208.107 86.2246C208.257 86.498 208.481 86.7161 208.781 86.8789C209.087 87.0352 209.461 87.1133 209.904 87.1133C210.457 87.1133 210.946 86.9961 211.369 86.7617C211.792 86.5273 212.127 86.2409 212.375 85.9023C212.629 85.5638 212.765 85.235 212.785 84.916L213.556 85.7852C213.511 86.0586 213.387 86.3613 213.185 86.6934C212.983 87.0254 212.713 87.3444 212.375 87.6504C212.043 87.9499 211.645 88.2005 211.183 88.4023C210.727 88.5977 210.213 88.6953 209.64 88.6953C208.924 88.6953 208.296 88.5553 207.755 88.2754C207.222 87.9954 206.805 87.6211 206.505 87.1523C206.213 86.6771 206.066 86.1465 206.066 85.5605C206.066 84.9941 206.177 84.4961 206.398 84.0664C206.619 83.6302 206.938 83.2689 207.355 82.9824C207.772 82.6895 208.273 82.4681 208.859 82.3184C209.445 82.1686 210.099 82.0938 210.822 82.0938H212.921Z" fill="#005AAA"/>
<path fill-rule="evenodd" clip-rule="evenodd" d="M89.8772 10.7151L113.761 38.8437C114.446 39.6531 114.776 40.6761 114.688 41.7281C114.602 42.7813 114.111 43.7384 113.305 44.4242C112.593 45.0299 111.685 45.3627 110.748 45.3627C109.586 45.3627 108.488 44.8551 107.732 43.97L86.2521 18.6712L80.1766 23.8276L100.824 48.1422C101.55 48.9971 102.368 50.5936 102.489 52.5061L102.49 52.5263L102.471 52.6119L102.475 52.6486C102.68 64.1649 88.2215 76.5079 85.3203 78.8648L54.0233 105.434C52.3124 106.885 50.2002 107.653 47.9159 107.653C44.931 107.653 42.0876 106.32 40.1147 103.996C39.678 103.482 39.2842 102.914 38.9401 102.298L38.7485 101.953L38.39 102.116C36.797 102.839 35.0892 103.101 33.3112 102.886C30.7394 102.582 28.3814 101.305 26.6702 99.2913C25.9343 98.4241 25.3443 97.4344 24.9167 96.3457L24.7987 96.0439L24.477 96.0726C24.114 96.1084 23.8012 96.1263 23.5217 96.1263C20.5381 96.1263 17.6946 94.7939 15.7207 92.4693C13.5286 89.8879 12.7281 86.4391 13.5798 83.2466L13.6633 82.9336L13.386 82.7687C12.384 82.1675 11.5023 81.4229 10.7653 80.5559C7.16145 76.3102 7.53772 70.0494 11.6036 66.5981L25.2752 54.9921C25.9889 54.3864 26.8973 54.0523 27.8314 54.0523C28.9948 54.0523 30.0947 54.5611 30.8484 55.4473C31.5333 56.2545 31.8618 57.2774 31.7759 58.3284C31.6912 59.3825 31.1991 60.3399 30.3932 61.0232L16.7216 72.6299C15.9823 73.2576 16.0157 74.5168 16.7951 75.4349C17.3528 76.0939 17.9952 76.2575 18.3281 76.2977L18.3435 76.299C18.408 76.3042 18.4826 76.3102 18.5619 76.3102C18.9516 76.3102 19.2867 76.1942 19.555 75.9661L36.0932 61.924C36.8059 61.3196 37.7131 60.9868 38.6494 60.9868C39.8141 60.9868 40.914 61.4944 41.6679 62.3805C42.3515 63.1865 42.6811 64.2106 42.5939 65.2635C42.5096 66.3157 42.0183 67.2718 41.2127 67.9567L21.6759 84.542C20.9366 85.169 20.97 86.4289 21.7504 87.3499C22.1112 87.7751 22.6244 88.0769 23.1566 88.1734C23.6798 88.275 24.1742 88.1635 24.5093 87.8763L47.0419 68.748C47.7568 68.1414 48.665 67.8072 49.6003 67.8072C50.7672 67.8072 51.8671 68.3161 52.6184 69.2019C53.303 70.0069 53.6317 71.0314 53.5448 72.0843C53.4589 73.1352 52.9692 74.0904 52.1629 74.7762L32.6222 91.3672C31.8861 91.994 31.9218 93.2529 32.7001 94.1703C33.2569 94.8261 33.8926 94.9897 34.221 95.0287C34.7017 95.0868 35.1394 94.9696 35.4588 94.6981L60.4886 73.4502C61.2013 72.8445 62.1085 72.5107 63.0448 72.5107C64.2082 72.5107 65.308 73.0193 66.0619 73.9054C66.7468 74.7123 67.0749 75.7355 66.9893 76.7887C66.9033 77.8419 66.4127 78.799 65.6067 79.4826L46.0689 96.0672C45.7536 96.3368 45.5667 96.7473 45.5456 97.222C45.53 97.5571 45.5887 98.219 46.1433 98.8726C46.8847 99.7466 48.2021 100 48.9033 99.4016L80.3817 72.6855C85.7844 68.2762 94.4149 59.0829 94.5829 53.1821L94.5877 53.016L71.733 26.1019C70.2502 24.3542 70.454 21.7225 72.1863 20.2342L83.9741 10.2253C84.7325 9.58629 85.6931 9.2334 86.6808 9.2334C87.9154 9.2334 89.0811 9.77442 89.8772 10.7151ZM16.8998 47.0069L32.296 22.7545L25.5671 18.4854L7.31075 46.6775C6.5782 47.8074 5.33684 48.4821 3.98747 48.4821C3.22486 48.4821 2.48227 48.2617 1.83988 47.8442C0.0106844 46.6587 -0.513689 44.206 0.670888 42.3759L20.8132 11.2729C21.6392 9.99826 23.0309 9.23682 24.5328 9.23682C25.3322 9.23682 26.1082 9.4628 26.7762 9.88693L39.6237 18.0356C39.8543 18.1804 40.078 18.3563 40.2885 18.5566L40.3955 18.6323C41.7592 19.3726 43.221 19.7533 44.7252 19.7533C47.0466 19.7533 48.7723 18.8483 49.2454 18.5722C50.6126 17.7741 52.3571 17.7996 53.6908 18.6401L62.594 24.2874L72.1943 30.7452C73.282 31.4576 74.039 32.5553 74.324 33.831C74.6156 35.1357 74.3898 36.4649 73.6861 37.5748L73.587 37.7239L69.1691 44.0683C68.9669 44.3922 68.803 44.6826 68.6248 44.9998C67.83 46.4127 66.7433 48.3441 64.4043 48.9328C62.8959 49.3101 61.3114 48.9919 59.695 47.9924L51.1333 42.9771L50.8998 43.2109C48.703 45.4007 45.973 46.9101 43.005 47.5745C40.9922 48.0278 38.9436 48.0924 36.9183 47.7685C35.8766 47.6027 34.9614 47.0382 34.3388 46.1834C33.7188 45.326 33.4683 44.282 33.6341 43.2397C33.9427 41.3086 35.5827 39.9069 37.5352 39.9069C37.7514 39.9069 37.9629 39.9237 38.1654 39.957C39.1921 40.1228 40.2383 40.0907 41.2749 39.8568C43.4915 39.3604 45.4299 37.9499 46.5956 35.9918L46.7326 35.7179C47.7788 34.0292 50.0044 33.3868 51.8016 34.2429L52.0776 34.3665L62.2043 40.2954L62.6029 39.6598L65.3674 35.6856L58.2176 30.8777L51.1569 26.3992L50.9576 26.476C49.537 27.0193 47.2872 27.666 44.6361 27.666C42.8715 27.666 41.1315 27.3833 39.4627 26.8256L39.1497 26.722L23.5397 51.3073C22.8082 52.4394 21.5647 53.114 20.2153 53.114C19.4549 53.114 18.7134 52.8939 18.0699 52.4761C16.2396 51.2929 15.7152 48.8392 16.8998 47.0069Z" fill="url(#paint0_linear_23_22)"/>
<defs>
<linearGradient id="paint0_linear_23_22" x1="0.037109" y1="73.7384" x2="114.703" y2="73.7967" gradientUnits="userSpaceOnUse">
<stop stop-color="#502D7F"/>
<stop offset="1" stop-color="#FF6418"/>
</linearGradient>
</defs>
</svg>
