<svg width="417" height="115" viewBox="0 0 417 115" fill="none" xmlns="http://www.w3.org/2000/svg">
	<path d="M144.613 25.2383L151.615 14.2812H153.5V28.5H151.615V17.5332L144.613 28.5H142.738V14.2812H144.613V25.2383ZM164.222 22.5137V23.9785H158.636V22.5137H164.222ZM159.017 17.9336V28.5H157.211V17.9336H159.017ZM165.687 17.9336V28.5H163.871V17.9336H165.687ZM173.226 27.2109C173.655 27.2109 174.053 27.123 174.417 26.9473C174.782 26.7715 175.081 26.5306 175.316 26.2246C175.55 25.9121 175.683 25.5573 175.716 25.1602H177.435C177.402 25.7852 177.191 26.3678 176.8 26.9082C176.416 27.4421 175.911 27.875 175.286 28.207C174.661 28.5326 173.974 28.6953 173.226 28.6953C172.432 28.6953 171.738 28.5553 171.146 28.2754C170.56 27.9954 170.071 27.6113 169.681 27.123C169.297 26.6348 169.007 26.0749 168.812 25.4434C168.623 24.8053 168.529 24.1315 168.529 23.4219V23.0117C168.529 22.3021 168.623 21.6315 168.812 21C169.007 20.362 169.297 19.7988 169.681 19.3105C170.071 18.8223 170.56 18.4382 171.146 18.1582C171.738 17.8783 172.432 17.7383 173.226 17.7383C174.053 17.7383 174.775 17.9076 175.394 18.2461C176.012 18.5781 176.497 19.0339 176.849 19.6133C177.207 20.1862 177.402 20.8372 177.435 21.5664H175.716C175.683 21.1302 175.56 20.7363 175.345 20.3848C175.137 20.0332 174.85 19.7533 174.486 19.5449C174.127 19.3301 173.708 19.2227 173.226 19.2227C172.672 19.2227 172.207 19.3333 171.829 19.5547C171.458 19.7695 171.162 20.0625 170.941 20.4336C170.726 20.7982 170.57 21.2051 170.472 21.6543C170.381 22.097 170.335 22.5495 170.335 23.0117V23.4219C170.335 23.8841 170.381 24.3398 170.472 24.7891C170.563 25.2383 170.716 25.6452 170.931 26.0098C171.152 26.3743 171.448 26.6673 171.82 26.8887C172.197 27.1035 172.666 27.2109 173.226 27.2109ZM184.173 17.9336V28.5H182.356V17.9336H184.173ZM187.718 17.9336V19.3984H178.88V17.9336H187.718ZM191.848 25.6387L196.721 17.9336H198.537V28.5H196.721V20.7949L191.848 28.5H190.051V17.9336H191.848V25.6387ZM206.145 17.9336V28.5H204.328V17.9336H206.145ZM209.689 17.9336V19.3984H200.852V17.9336H209.689ZM214.953 27.4062L217.892 17.9336H219.826L215.588 30.1309C215.49 30.3913 215.36 30.6712 215.197 30.9707C215.041 31.2767 214.839 31.5664 214.591 31.8398C214.344 32.1133 214.045 32.3346 213.693 32.5039C213.348 32.6797 212.935 32.7676 212.453 32.7676C212.31 32.7676 212.127 32.748 211.906 32.709C211.685 32.6699 211.528 32.6374 211.437 32.6113L211.427 31.1465C211.479 31.153 211.561 31.1595 211.671 31.166C211.789 31.179 211.87 31.1855 211.916 31.1855C212.326 31.1855 212.674 31.1302 212.961 31.0195C213.247 30.9154 213.488 30.7363 213.683 30.4824C213.885 30.235 214.058 29.8932 214.201 29.457L214.953 27.4062ZM212.795 17.9336L215.539 26.1367L216.007 28.041L214.709 28.7051L210.822 17.9336H212.795ZM226.163 17.9336V28.5H224.347V17.9336H226.163ZM229.708 17.9336V19.3984H220.87V17.9336H229.708ZM249.395 23.4023V23.6074C249.395 24.3496 249.314 25.0332 249.151 25.6582C248.988 26.2767 248.744 26.8138 248.418 27.2695C248.099 27.7253 247.702 28.0801 247.227 28.334C246.752 28.5814 246.202 28.7051 245.577 28.7051C245.062 28.7051 244.61 28.6367 244.219 28.5C243.829 28.3568 243.496 28.1517 243.223 27.8848C242.956 27.6178 242.741 27.2988 242.579 26.9277C242.422 26.5501 242.315 26.127 242.256 25.6582V20.9707C242.315 20.4694 242.422 20.0202 242.579 19.623C242.741 19.2259 242.956 18.8874 243.223 18.6074C243.496 18.3275 243.825 18.1126 244.209 17.9629C244.593 17.8132 245.043 17.7383 245.557 17.7383C246.065 17.7383 246.521 17.8294 246.924 18.0117C247.334 18.1875 247.692 18.4414 247.998 18.7734C248.311 19.1055 248.568 19.5059 248.77 19.9746C248.978 20.4368 249.135 20.9577 249.239 21.5371C249.343 22.1165 249.395 22.7383 249.395 23.4023ZM247.588 23.6074V23.4023C247.588 22.9466 247.556 22.5137 247.491 22.1035C247.432 21.6868 247.338 21.306 247.207 20.9609C247.084 20.6094 246.921 20.3034 246.719 20.043C246.517 19.7826 246.273 19.5807 245.987 19.4375C245.707 19.2943 245.385 19.2227 245.02 19.2227C244.629 19.2227 244.304 19.2715 244.043 19.3691C243.789 19.4668 243.591 19.597 243.448 19.7598C243.304 19.916 243.2 20.082 243.135 20.2578V26.3809C243.213 26.5241 243.327 26.6608 243.477 26.791C243.627 26.9147 243.829 27.0189 244.082 27.1035C244.336 27.1816 244.655 27.2207 245.039 27.2207C245.495 27.2207 245.883 27.1296 246.202 26.9473C246.527 26.7585 246.791 26.498 246.993 26.166C247.201 25.834 247.351 25.4499 247.442 25.0137C247.539 24.5775 247.588 24.1087 247.588 23.6074ZM236.846 23.6074V23.4023C236.846 22.7383 236.898 22.1165 237.002 21.5371C237.107 20.9577 237.263 20.4368 237.471 19.9746C237.679 19.5059 237.937 19.1055 238.243 18.7734C238.555 18.4414 238.913 18.1875 239.317 18.0117C239.727 17.8294 240.186 17.7383 240.694 17.7383C241.195 17.7383 241.631 17.8132 242.002 17.9629C242.38 18.1126 242.699 18.3275 242.959 18.6074C243.22 18.8874 243.428 19.2259 243.584 19.623C243.741 20.0202 243.851 20.4694 243.916 20.9707V25.4727C243.858 25.9674 243.75 26.4134 243.594 26.8105C243.438 27.2077 243.23 27.5495 242.969 27.8359C242.709 28.1159 242.386 28.3307 242.002 28.4805C241.625 28.6302 241.182 28.7051 240.674 28.7051C240.049 28.7051 239.499 28.5814 239.024 28.334C238.549 28.0801 238.148 27.7253 237.823 27.2695C237.504 26.8138 237.26 26.2767 237.09 25.6582C236.927 25.0332 236.846 24.3496 236.846 23.6074ZM238.662 23.4023V23.6074C238.662 24.1087 238.705 24.5775 238.789 25.0137C238.881 25.4499 239.021 25.834 239.209 26.166C239.405 26.498 239.659 26.7585 239.971 26.9473C240.284 27.1296 240.668 27.2207 241.123 27.2207C241.514 27.2207 241.836 27.1719 242.09 27.0742C242.344 26.9766 242.546 26.8496 242.696 26.6934C242.845 26.5371 242.959 26.3743 243.037 26.2051V20.2578C242.972 20.082 242.865 19.916 242.715 19.7598C242.572 19.597 242.373 19.4668 242.12 19.3691C241.866 19.2715 241.54 19.2227 241.143 19.2227C240.687 19.2227 240.3 19.3333 239.981 19.5547C239.662 19.776 239.405 20.0788 239.209 20.4629C239.021 20.847 238.881 21.293 238.789 21.8008C238.705 22.3021 238.662 22.8359 238.662 23.4023ZM242.139 32.5625V13.5H243.955V32.5625H242.139ZM255.01 27.4062L257.949 17.9336H259.883L255.645 30.1309C255.547 30.3913 255.417 30.6712 255.254 30.9707C255.098 31.2767 254.896 31.5664 254.648 31.8398C254.401 32.1133 254.102 32.3346 253.75 32.5039C253.405 32.6797 252.992 32.7676 252.51 32.7676C252.367 32.7676 252.184 32.748 251.963 32.709C251.742 32.6699 251.585 32.6374 251.494 32.6113L251.484 31.1465C251.536 31.153 251.618 31.1595 251.729 31.166C251.846 31.179 251.927 31.1855 251.973 31.1855C252.383 31.1855 252.731 31.1302 253.018 31.0195C253.304 30.9154 253.545 30.7363 253.74 30.4824C253.942 30.235 254.115 29.8932 254.258 29.457L255.01 27.4062ZM252.852 17.9336L255.596 26.1367L256.064 28.041L254.766 28.7051L250.879 17.9336H252.852ZM269.082 22.5137V23.9785H263.496V22.5137H269.082ZM263.877 17.9336V28.5H262.07V17.9336H263.877ZM270.546 17.9336V28.5H268.73V17.9336H270.546ZM275.761 17.9336H277.568L277.411 21.8887C277.372 22.8913 277.258 23.7572 277.07 24.4863C276.881 25.2155 276.64 25.8372 276.347 26.3516C276.054 26.8594 275.725 27.2858 275.361 27.6309C275.002 27.9759 274.631 28.2656 274.247 28.5H273.349L273.398 27.0254L273.769 27.0156C273.984 26.7617 274.192 26.5013 274.394 26.2344C274.596 25.9609 274.781 25.6387 274.95 25.2676C275.12 24.89 275.26 24.431 275.37 23.8906C275.488 23.3438 275.562 22.6764 275.595 21.8887L275.761 17.9336ZM276.21 17.9336H282.568V28.5H280.761V19.6035H276.21V17.9336ZM272.939 27.0156H283.925V31.6152H282.118V28.5H274.745V31.6152H272.929L272.939 27.0156ZM292.557 26.6934V21.2539C292.557 20.8372 292.473 20.4759 292.304 20.1699C292.141 19.8574 291.893 19.6165 291.561 19.4473C291.229 19.278 290.819 19.1934 290.331 19.1934C289.875 19.1934 289.475 19.2715 289.13 19.4277C288.791 19.584 288.524 19.7891 288.329 20.043C288.14 20.2969 288.046 20.5703 288.046 20.8633H286.239C286.239 20.4857 286.337 20.1113 286.532 19.7402C286.727 19.3691 287.007 19.0339 287.372 18.7344C287.743 18.4284 288.186 18.1875 288.7 18.0117C289.221 17.8294 289.8 17.7383 290.438 17.7383C291.207 17.7383 291.884 17.8685 292.47 18.1289C293.062 18.3893 293.524 18.7832 293.856 19.3105C294.195 19.8314 294.364 20.4857 294.364 21.2734V26.1953C294.364 26.5469 294.393 26.9212 294.452 27.3184C294.517 27.7155 294.611 28.0573 294.735 28.3438V28.5H292.85C292.759 28.2917 292.688 28.015 292.636 27.6699C292.583 27.3184 292.557 26.9928 292.557 26.6934ZM292.87 22.0938L292.889 23.3633H291.063C290.549 23.3633 290.09 23.4056 289.686 23.4902C289.283 23.5684 288.944 23.6888 288.671 23.8516C288.397 24.0143 288.189 24.2194 288.046 24.4668C287.902 24.7077 287.831 24.9909 287.831 25.3164C287.831 25.6484 287.906 25.9512 288.055 26.2246C288.205 26.498 288.43 26.7161 288.729 26.8789C289.035 27.0352 289.41 27.1133 289.852 27.1133C290.406 27.1133 290.894 26.9961 291.317 26.7617C291.74 26.5273 292.076 26.2409 292.323 25.9023C292.577 25.5638 292.714 25.235 292.733 24.916L293.505 25.7852C293.459 26.0586 293.335 26.3613 293.134 26.6934C292.932 27.0254 292.662 27.3444 292.323 27.6504C291.991 27.9499 291.594 28.2005 291.132 28.4023C290.676 28.5977 290.162 28.6953 289.589 28.6953C288.873 28.6953 288.244 28.5553 287.704 28.2754C287.17 27.9954 286.753 27.6211 286.454 27.1523C286.161 26.6771 286.014 26.1465 286.014 25.5605C286.014 24.9941 286.125 24.4961 286.346 24.0664C286.568 23.6302 286.887 23.2689 287.304 22.9824C287.72 22.6895 288.221 22.4681 288.807 22.3184C289.393 22.1686 290.048 22.0938 290.77 22.0938H292.87ZM303.68 26.0977L307.274 17.9336H309.012L304.305 28.5H303.055L298.368 17.9336H300.106L303.68 26.0977ZM299.579 17.9336V28.5H297.772V17.9336H299.579ZM307.723 28.5V17.9336H309.539V28.5H307.723ZM317.234 28.6953C316.499 28.6953 315.831 28.5716 315.232 28.3242C314.64 28.0703 314.129 27.7155 313.699 27.2598C313.276 26.804 312.951 26.2637 312.723 25.6387C312.495 25.0137 312.381 24.3301 312.381 23.5879V23.1777C312.381 22.3184 312.508 21.5534 312.762 20.8828C313.016 20.2057 313.361 19.6328 313.797 19.1641C314.233 18.6953 314.728 18.3405 315.281 18.0996C315.835 17.8587 316.408 17.7383 317 17.7383C317.755 17.7383 318.406 17.8685 318.953 18.1289C319.507 18.3893 319.959 18.7539 320.311 19.2227C320.662 19.6849 320.923 20.2318 321.092 20.8633C321.261 21.4883 321.346 22.1719 321.346 22.9141V23.7246H313.455V22.25H319.539V22.1133C319.513 21.6445 319.415 21.1888 319.246 20.7461C319.083 20.3034 318.823 19.9388 318.465 19.6523C318.107 19.3659 317.618 19.2227 317 19.2227C316.59 19.2227 316.212 19.3105 315.867 19.4863C315.522 19.6556 315.226 19.9095 314.979 20.248C314.731 20.5866 314.539 21 314.402 21.4883C314.266 21.9766 314.197 22.5397 314.197 23.1777V23.5879C314.197 24.0892 314.266 24.5612 314.402 25.0039C314.546 25.4401 314.751 25.8242 315.018 26.1562C315.291 26.4883 315.62 26.7487 316.004 26.9375C316.395 27.1263 316.837 27.2207 317.332 27.2207C317.97 27.2207 318.51 27.0905 318.953 26.8301C319.396 26.5697 319.783 26.2214 320.115 25.7852L321.209 26.6543C320.981 26.9993 320.691 27.3281 320.34 27.6406C319.988 27.9531 319.555 28.207 319.041 28.4023C318.533 28.5977 317.931 28.6953 317.234 28.6953ZM331.023 22.5137V23.9785H325.437V22.5137H331.023ZM325.818 17.9336V28.5H324.011V17.9336H325.818ZM332.488 17.9336V28.5H330.671V17.9336H332.488ZM340.105 17.9336V28.5H338.288V17.9336H340.105ZM343.65 17.9336V19.3984H334.812V17.9336H343.65ZM351.901 26.6934V21.2539C351.901 20.8372 351.817 20.4759 351.647 20.1699C351.485 19.8574 351.237 19.6165 350.905 19.4473C350.573 19.278 350.163 19.1934 349.675 19.1934C349.219 19.1934 348.818 19.2715 348.473 19.4277C348.135 19.584 347.868 19.7891 347.673 20.043C347.484 20.2969 347.389 20.5703 347.389 20.8633H345.583C345.583 20.4857 345.68 20.1113 345.876 19.7402C346.071 19.3691 346.351 19.0339 346.716 18.7344C347.087 18.4284 347.529 18.1875 348.044 18.0117C348.565 17.8294 349.144 17.7383 349.782 17.7383C350.55 17.7383 351.227 17.8685 351.813 18.1289C352.406 18.3893 352.868 18.7832 353.2 19.3105C353.539 19.8314 353.708 20.4857 353.708 21.2734V26.1953C353.708 26.5469 353.737 26.9212 353.796 27.3184C353.861 27.7155 353.955 28.0573 354.079 28.3438V28.5H352.194C352.103 28.2917 352.031 28.015 351.979 27.6699C351.927 27.3184 351.901 26.9928 351.901 26.6934ZM352.214 22.0938L352.233 23.3633H350.407C349.893 23.3633 349.434 23.4056 349.03 23.4902C348.626 23.5684 348.288 23.6888 348.014 23.8516C347.741 24.0143 347.533 24.2194 347.389 24.4668C347.246 24.7077 347.175 24.9909 347.175 25.3164C347.175 25.6484 347.249 25.9512 347.399 26.2246C347.549 26.498 347.774 26.7161 348.073 26.8789C348.379 27.0352 348.753 27.1133 349.196 27.1133C349.749 27.1133 350.238 26.9961 350.661 26.7617C351.084 26.5273 351.419 26.2409 351.667 25.9023C351.921 25.5638 352.057 25.235 352.077 24.916L352.848 25.7852C352.803 26.0586 352.679 26.3613 352.477 26.6934C352.276 27.0254 352.005 27.3444 351.667 27.6504C351.335 27.9499 350.938 28.2005 350.475 28.4023C350.02 28.5977 349.505 28.6953 348.932 28.6953C348.216 28.6953 347.588 28.5553 347.048 28.2754C346.514 27.9954 346.097 27.6211 345.798 27.1523C345.505 26.6771 345.358 26.1465 345.358 25.5605C345.358 24.9941 345.469 24.4961 345.69 24.0664C345.912 23.6302 346.231 23.2689 346.647 22.9824C347.064 22.6895 347.565 22.4681 348.151 22.3184C348.737 22.1686 349.391 22.0938 350.114 22.0938H352.214ZM364.01 17.9336V19.4277H358.903V17.9336H364.01ZM365.602 17.9336V28.5H363.795V17.9336H365.602ZM358.463 17.9336H360.28L360.006 23.0312C359.961 23.819 359.886 24.5156 359.782 25.1211C359.684 25.7201 359.547 26.2344 359.371 26.6641C359.202 27.0938 358.987 27.4453 358.727 27.7188C358.473 27.9857 358.167 28.1842 357.809 28.3145C357.451 28.4382 357.038 28.5 356.569 28.5H356.002V26.9082L356.393 26.8789C356.673 26.8594 356.911 26.7943 357.106 26.6836C357.308 26.5729 357.477 26.4102 357.614 26.1953C357.75 25.974 357.861 25.6908 357.946 25.3457C358.037 25.0007 358.105 24.5905 358.151 24.1152C358.203 23.64 358.242 23.0866 358.268 22.4551L358.463 17.9336ZM370.396 21.5664H373.57C374.423 21.5664 375.143 21.7161 375.729 22.0156C376.314 22.3086 376.757 22.7155 377.057 23.2363C377.363 23.7507 377.516 24.3366 377.516 24.9941C377.516 25.4824 377.431 25.9414 377.262 26.3711C377.092 26.7943 376.839 27.1654 376.5 27.4844C376.168 27.8034 375.755 28.054 375.26 28.2363C374.771 28.4121 374.208 28.5 373.57 28.5H369.078V17.9336H370.885V27.0156H373.57C374.091 27.0156 374.508 26.9212 374.82 26.7324C375.133 26.5436 375.357 26.2995 375.494 26C375.631 25.7005 375.699 25.388 375.699 25.0625C375.699 24.7435 375.631 24.431 375.494 24.125C375.357 23.819 375.133 23.5651 374.82 23.3633C374.508 23.1549 374.091 23.0508 373.57 23.0508H370.396V21.5664ZM387.339 22.5137V23.9785H381.754V22.5137H387.339ZM382.134 17.9336V28.5H380.328V17.9336H382.134ZM388.804 17.9336V28.5H386.988V17.9336H388.804ZM391.636 23.334V23.1094C391.636 22.3477 391.747 21.6413 391.968 20.9902C392.189 20.3327 392.508 19.763 392.925 19.2812C393.342 18.793 393.846 18.4154 394.439 18.1484C395.031 17.875 395.695 17.7383 396.431 17.7383C397.173 17.7383 397.84 17.875 398.433 18.1484C399.032 18.4154 399.54 18.793 399.956 19.2812C400.379 19.763 400.702 20.3327 400.923 20.9902C401.144 21.6413 401.255 22.3477 401.255 23.1094V23.334C401.255 24.0957 401.144 24.8021 400.923 25.4531C400.702 26.1042 400.379 26.6738 399.956 27.1621C399.54 27.6439 399.035 28.0215 398.443 28.2949C397.857 28.5618 397.193 28.6953 396.45 28.6953C395.708 28.6953 395.041 28.5618 394.448 28.2949C393.856 28.0215 393.348 27.6439 392.925 27.1621C392.508 26.6738 392.189 26.1042 391.968 25.4531C391.747 24.8021 391.636 24.0957 391.636 23.334ZM393.443 23.1094V23.334C393.443 23.8613 393.504 24.3594 393.628 24.8281C393.752 25.2904 393.937 25.7005 394.185 26.0586C394.439 26.4167 394.754 26.6999 395.132 26.9082C395.51 27.11 395.949 27.2109 396.45 27.2109C396.945 27.2109 397.378 27.11 397.749 26.9082C398.127 26.6999 398.439 26.4167 398.687 26.0586C398.934 25.7005 399.12 25.2904 399.243 24.8281C399.374 24.3594 399.439 23.8613 399.439 23.334V23.1094C399.439 22.5885 399.374 22.097 399.243 21.6348C399.12 21.166 398.931 20.7526 398.677 20.3945C398.43 20.0299 398.117 19.7435 397.739 19.5352C397.368 19.3268 396.932 19.2227 396.431 19.2227C395.936 19.2227 395.5 19.3268 395.122 19.5352C394.751 19.7435 394.439 20.0299 394.185 20.3945C393.937 20.7526 393.752 21.166 393.628 21.6348C393.504 22.097 393.443 22.5885 393.443 23.1094ZM405.874 25.6387L410.747 17.9336H412.563V28.5H410.747V20.7949L405.874 28.5H404.077V17.9336H405.874V25.6387ZM409.761 14.1055H411.225C411.225 14.6133 411.108 15.0658 410.874 15.4629C410.639 15.8535 410.304 16.1595 409.868 16.3809C409.432 16.6022 408.914 16.7129 408.315 16.7129C407.41 16.7129 406.694 16.472 406.167 15.9902C405.646 15.502 405.386 14.8737 405.386 14.1055H406.85C406.85 14.4896 406.961 14.8281 407.182 15.1211C407.404 15.4141 407.781 15.5605 408.315 15.5605C408.836 15.5605 409.207 15.4141 409.429 15.1211C409.65 14.8281 409.761 14.4896 409.761 14.1055ZM149.418 41.9336V43.4277H144.076V41.9336H149.418ZM144.34 41.9336V52.5H142.533V41.9336H144.34ZM151.02 41.9336V52.5H149.203V41.9336H151.02ZM153.841 47.334V47.1094C153.841 46.3477 153.952 45.6413 154.173 44.9902C154.395 44.3327 154.714 43.763 155.13 43.2812C155.547 42.793 156.052 42.4154 156.644 42.1484C157.237 41.875 157.901 41.7383 158.636 41.7383C159.379 41.7383 160.046 41.875 160.638 42.1484C161.237 42.4154 161.745 42.793 162.162 43.2812C162.585 43.763 162.907 44.3327 163.129 44.9902C163.35 45.6413 163.461 46.3477 163.461 47.1094V47.334C163.461 48.0957 163.35 48.8021 163.129 49.4531C162.907 50.1042 162.585 50.6738 162.162 51.1621C161.745 51.6439 161.24 52.0215 160.648 52.2949C160.062 52.5618 159.398 52.6953 158.656 52.6953C157.914 52.6953 157.246 52.5618 156.654 52.2949C156.061 52.0215 155.554 51.6439 155.13 51.1621C154.714 50.6738 154.395 50.1042 154.173 49.4531C153.952 48.8021 153.841 48.0957 153.841 47.334ZM155.648 47.1094V47.334C155.648 47.8613 155.71 48.3594 155.834 48.8281C155.957 49.2904 156.143 49.7005 156.39 50.0586C156.644 50.4167 156.96 50.6999 157.337 50.9082C157.715 51.11 158.155 51.2109 158.656 51.2109C159.151 51.2109 159.584 51.11 159.955 50.9082C160.332 50.6999 160.645 50.4167 160.892 50.0586C161.14 49.7005 161.325 49.2904 161.449 48.8281C161.579 48.3594 161.644 47.8613 161.644 47.334V47.1094C161.644 46.5885 161.579 46.097 161.449 45.6348C161.325 45.166 161.136 44.7526 160.882 44.3945C160.635 44.0299 160.323 43.7435 159.945 43.5352C159.574 43.3268 159.138 43.2227 158.636 43.2227C158.142 43.2227 157.705 43.3268 157.328 43.5352C156.957 43.7435 156.644 44.0299 156.39 44.3945C156.143 44.7526 155.957 45.166 155.834 45.6348C155.71 46.097 155.648 46.5885 155.648 47.1094ZM167.327 41.9336H169.134L168.978 45.8887C168.939 46.8913 168.825 47.7572 168.636 48.4863C168.447 49.2155 168.206 49.8372 167.913 50.3516C167.62 50.8594 167.292 51.2858 166.927 51.6309C166.569 51.9759 166.198 52.2656 165.814 52.5H164.915L164.964 51.0254L165.335 51.0156C165.55 50.7617 165.758 50.5013 165.96 50.2344C166.162 49.9609 166.348 49.6387 166.517 49.2676C166.686 48.89 166.826 48.431 166.937 47.8906C167.054 47.3438 167.129 46.6764 167.161 45.8887L167.327 41.9336ZM167.777 41.9336H174.134V52.5H172.327V43.6035H167.777V41.9336ZM164.505 51.0156H175.491V55.6152H173.685V52.5H166.312V55.6152H164.495L164.505 51.0156ZM184.72 41.9336V43.4277H179.837V52.5H178.03V41.9336H184.72ZM186.018 47.334V47.1094C186.018 46.3477 186.129 45.6413 186.35 44.9902C186.571 44.3327 186.89 43.763 187.307 43.2812C187.724 42.793 188.228 42.4154 188.821 42.1484C189.413 41.875 190.077 41.7383 190.813 41.7383C191.555 41.7383 192.222 41.875 192.815 42.1484C193.414 42.4154 193.922 42.793 194.338 43.2812C194.761 43.763 195.084 44.3327 195.305 44.9902C195.526 45.6413 195.637 46.3477 195.637 47.1094V47.334C195.637 48.0957 195.526 48.8021 195.305 49.4531C195.084 50.1042 194.761 50.6738 194.338 51.1621C193.922 51.6439 193.417 52.0215 192.825 52.2949C192.239 52.5618 191.575 52.6953 190.832 52.6953C190.09 52.6953 189.423 52.5618 188.83 52.2949C188.238 52.0215 187.73 51.6439 187.307 51.1621C186.89 50.6738 186.571 50.1042 186.35 49.4531C186.129 48.8021 186.018 48.0957 186.018 47.334ZM187.825 47.1094V47.334C187.825 47.8613 187.886 48.3594 188.01 48.8281C188.134 49.2904 188.319 49.7005 188.567 50.0586C188.821 50.4167 189.136 50.6999 189.514 50.9082C189.892 51.11 190.331 51.2109 190.832 51.2109C191.327 51.2109 191.76 51.11 192.131 50.9082C192.509 50.6999 192.821 50.4167 193.069 50.0586C193.316 49.7005 193.502 49.2904 193.625 48.8281C193.756 48.3594 193.821 47.8613 193.821 47.334V47.1094C193.821 46.5885 193.756 46.097 193.625 45.6348C193.502 45.166 193.313 44.7526 193.059 44.3945C192.812 44.0299 192.499 43.7435 192.121 43.5352C191.75 43.3268 191.314 43.2227 190.813 43.2227C190.318 43.2227 189.882 43.3268 189.504 43.5352C189.133 43.7435 188.821 44.0299 188.567 44.3945C188.319 44.7526 188.134 45.166 188.01 45.6348C187.886 46.097 187.825 46.5885 187.825 47.1094ZM202.395 41.9336V52.5H200.578V41.9336H202.395ZM205.939 41.9336V43.3984H197.102V41.9336H205.939ZM207.228 47.334V47.1094C207.228 46.3477 207.339 45.6413 207.56 44.9902C207.782 44.3327 208.101 43.763 208.517 43.2812C208.934 42.793 209.438 42.4154 210.031 42.1484C210.623 41.875 211.287 41.7383 212.023 41.7383C212.765 41.7383 213.433 41.875 214.025 42.1484C214.624 42.4154 215.132 42.793 215.548 43.2812C215.972 43.763 216.294 44.3327 216.515 44.9902C216.737 45.6413 216.847 46.3477 216.847 47.1094V47.334C216.847 48.0957 216.737 48.8021 216.515 49.4531C216.294 50.1042 215.972 50.6738 215.548 51.1621C215.132 51.6439 214.627 52.0215 214.035 52.2949C213.449 52.5618 212.785 52.6953 212.043 52.6953C211.3 52.6953 210.633 52.5618 210.041 52.2949C209.448 52.0215 208.94 51.6439 208.517 51.1621C208.101 50.6738 207.782 50.1042 207.56 49.4531C207.339 48.8021 207.228 48.0957 207.228 47.334ZM209.035 47.1094V47.334C209.035 47.8613 209.097 48.3594 209.22 48.8281C209.344 49.2904 209.53 49.7005 209.777 50.0586C210.031 50.4167 210.347 50.6999 210.724 50.9082C211.102 51.11 211.541 51.2109 212.043 51.2109C212.537 51.2109 212.97 51.11 213.341 50.9082C213.719 50.6999 214.032 50.4167 214.279 50.0586C214.526 49.7005 214.712 49.2904 214.836 48.8281C214.966 48.3594 215.031 47.8613 215.031 47.334V47.1094C215.031 46.5885 214.966 46.097 214.836 45.6348C214.712 45.166 214.523 44.7526 214.269 44.3945C214.022 44.0299 213.709 43.7435 213.332 43.5352C212.961 43.3268 212.524 43.2227 212.023 43.2227C211.528 43.2227 211.092 43.3268 210.714 43.5352C210.343 43.7435 210.031 44.0299 209.777 44.3945C209.53 44.7526 209.344 45.166 209.22 45.6348C209.097 46.097 209.035 46.5885 209.035 47.1094ZM224.474 47.8516H221.007L220.988 46.4062H223.82C224.379 46.4062 224.845 46.3509 225.216 46.2402C225.594 46.1296 225.877 45.9635 226.066 45.7422C226.254 45.5208 226.349 45.2474 226.349 44.9219C226.349 44.668 226.293 44.4466 226.183 44.2578C226.079 44.0625 225.919 43.903 225.704 43.7793C225.489 43.6491 225.223 43.5547 224.904 43.4961C224.591 43.431 224.223 43.3984 223.8 43.3984H221.486V52.5H219.679V41.9336H223.8C224.471 41.9336 225.073 41.9922 225.607 42.1094C226.147 42.2266 226.606 42.4056 226.984 42.6465C227.368 42.8809 227.661 43.1803 227.863 43.5449C228.064 43.9095 228.165 44.3392 228.165 44.834C228.165 45.153 228.1 45.4557 227.97 45.7422C227.84 46.0286 227.648 46.2826 227.394 46.5039C227.14 46.7253 226.827 46.9076 226.456 47.0508C226.085 47.1875 225.659 47.2754 225.177 47.3145L224.474 47.8516ZM224.474 52.5H220.353L221.251 51.0352H224.474C224.975 51.0352 225.392 50.9733 225.724 50.8496C226.056 50.7194 226.303 50.5371 226.466 50.3027C226.635 50.0618 226.72 49.7754 226.72 49.4434C226.72 49.1113 226.635 48.8281 226.466 48.5938C226.303 48.3529 226.056 48.1706 225.724 48.0469C225.392 47.9167 224.975 47.8516 224.474 47.8516H221.73L221.749 46.4062H225.177L225.831 46.9531C226.411 46.9987 226.902 47.1419 227.306 47.3828C227.71 47.6237 228.015 47.9297 228.224 48.3008C228.432 48.6654 228.536 49.0625 228.536 49.4922C228.536 49.987 228.442 50.4232 228.253 50.8008C228.071 51.1784 227.804 51.4941 227.452 51.748C227.101 51.9954 226.674 52.1842 226.173 52.3145C225.672 52.4382 225.105 52.5 224.474 52.5ZM233.321 41.9336V52.5H231.514V41.9336H233.321ZM240.255 41.9336L235.245 47.9883H232.716L232.442 46.4062H234.512L238.057 41.9336H240.255ZM238.311 52.5L234.425 47.7148L235.587 46.4062L240.606 52.5H238.311ZM244.532 49.6387L249.405 41.9336H251.221V52.5H249.405V44.7949L244.532 52.5H242.735V41.9336H244.532V49.6387ZM144.33 73.6387L149.203 65.9336H151.02V76.5H149.203V68.7949L144.33 76.5H142.533V65.9336H144.33V73.6387ZM163.987 65.9336V76.5H162.171V65.9336H163.987ZM167.532 65.9336V67.3984H158.695V65.9336H167.532ZM173.313 76.6953C172.578 76.6953 171.91 76.5716 171.311 76.3242C170.719 76.0703 170.208 75.7155 169.778 75.2598C169.355 74.804 169.029 74.2637 168.802 73.6387C168.574 73.0137 168.46 72.3301 168.46 71.5879V71.1777C168.46 70.3184 168.587 69.5534 168.841 68.8828C169.095 68.2057 169.44 67.6328 169.876 67.1641C170.312 66.6953 170.807 66.3405 171.36 66.0996C171.914 65.8587 172.486 65.7383 173.079 65.7383C173.834 65.7383 174.485 65.8685 175.032 66.1289C175.585 66.3893 176.038 66.7539 176.389 67.2227C176.741 67.6849 177.001 68.2318 177.171 68.8633C177.34 69.4883 177.425 70.1719 177.425 70.9141V71.7246H169.534V70.25H175.618V70.1133C175.592 69.6445 175.494 69.1888 175.325 68.7461C175.162 68.3034 174.902 67.9388 174.544 67.6523C174.186 67.3659 173.697 67.2227 173.079 67.2227C172.669 67.2227 172.291 67.3105 171.946 67.4863C171.601 67.6556 171.305 67.9095 171.057 68.248C170.81 68.5866 170.618 69 170.481 69.4883C170.345 69.9766 170.276 70.5397 170.276 71.1777V71.5879C170.276 72.0892 170.345 72.5612 170.481 73.0039C170.624 73.4401 170.83 73.8242 171.096 74.1562C171.37 74.4883 171.699 74.7487 172.083 74.9375C172.473 75.1263 172.916 75.2207 173.411 75.2207C174.049 75.2207 174.589 75.0905 175.032 74.8301C175.475 74.5697 175.862 74.2214 176.194 73.7852L177.288 74.6543C177.06 74.9993 176.77 75.3281 176.419 75.6406C176.067 75.9531 175.634 76.207 175.12 76.4023C174.612 76.5977 174.01 76.6953 173.313 76.6953ZM181.155 65.9336L183.469 69.7812L185.813 65.9336H187.932L184.475 71.1484L188.039 76.5H185.95L183.508 72.5352L181.067 76.5H178.967L182.522 71.1484L179.075 65.9336H181.155ZM197.424 70.5137V71.9785H191.838V70.5137H197.424ZM192.219 65.9336V76.5H190.412V65.9336H192.219ZM198.889 65.9336V76.5H197.072V65.9336H198.889ZM201.72 71.334V71.1094C201.72 70.3477 201.831 69.6413 202.052 68.9902C202.274 68.3327 202.593 67.763 203.009 67.2812C203.426 66.793 203.931 66.4154 204.523 66.1484C205.115 65.875 205.78 65.7383 206.515 65.7383C207.257 65.7383 207.925 65.875 208.517 66.1484C209.116 66.4154 209.624 66.793 210.041 67.2812C210.464 67.763 210.786 68.3327 211.007 68.9902C211.229 69.6413 211.339 70.3477 211.339 71.1094V71.334C211.339 72.0957 211.229 72.8021 211.007 73.4531C210.786 74.1042 210.464 74.6738 210.041 75.1621C209.624 75.6439 209.119 76.0215 208.527 76.2949C207.941 76.5618 207.277 76.6953 206.535 76.6953C205.793 76.6953 205.125 76.5618 204.533 76.2949C203.94 76.0215 203.433 75.6439 203.009 75.1621C202.593 74.6738 202.274 74.1042 202.052 73.4531C201.831 72.8021 201.72 72.0957 201.72 71.334ZM203.527 71.1094V71.334C203.527 71.8613 203.589 72.3594 203.713 72.8281C203.836 73.2904 204.022 73.7005 204.269 74.0586C204.523 74.4167 204.839 74.6999 205.216 74.9082C205.594 75.11 206.033 75.2109 206.535 75.2109C207.03 75.2109 207.463 75.11 207.834 74.9082C208.211 74.6999 208.524 74.4167 208.771 74.0586C209.018 73.7005 209.204 73.2904 209.328 72.8281C209.458 72.3594 209.523 71.8613 209.523 71.334V71.1094C209.523 70.5885 209.458 70.097 209.328 69.6348C209.204 69.166 209.015 68.7526 208.761 68.3945C208.514 68.0299 208.201 67.7435 207.824 67.5352C207.453 67.3268 207.017 67.2227 206.515 67.2227C206.02 67.2227 205.584 67.3268 205.207 67.5352C204.836 67.7435 204.523 68.0299 204.269 68.3945C204.022 68.7526 203.836 69.166 203.713 69.6348C203.589 70.097 203.527 70.5885 203.527 71.1094ZM220.909 65.9336V67.4277H215.802V65.9336H220.909ZM222.501 65.9336V76.5H220.695V65.9336H222.501ZM215.363 65.9336H217.179L216.905 71.0312C216.86 71.819 216.785 72.5156 216.681 73.1211C216.583 73.7201 216.446 74.2344 216.271 74.6641C216.101 75.0938 215.887 75.4453 215.626 75.7188C215.372 75.9857 215.066 76.1842 214.708 76.3145C214.35 76.4382 213.937 76.5 213.468 76.5H212.902V74.9082L213.292 74.8789C213.572 74.8594 213.81 74.7943 214.005 74.6836C214.207 74.5729 214.376 74.4102 214.513 74.1953C214.65 73.974 214.76 73.6908 214.845 73.3457C214.936 73.0007 215.004 72.5905 215.05 72.1152C215.102 71.64 215.141 71.0866 215.167 70.4551L215.363 65.9336ZM225.333 71.334V71.1094C225.333 70.3477 225.443 69.6413 225.665 68.9902C225.886 68.3327 226.205 67.763 226.622 67.2812C227.039 66.793 227.543 66.4154 228.136 66.1484C228.728 65.875 229.392 65.7383 230.128 65.7383C230.87 65.7383 231.537 65.875 232.13 66.1484C232.729 66.4154 233.236 66.793 233.653 67.2812C234.076 67.763 234.399 68.3327 234.62 68.9902C234.841 69.6413 234.952 70.3477 234.952 71.1094V71.334C234.952 72.0957 234.841 72.8021 234.62 73.4531C234.399 74.1042 234.076 74.6738 233.653 75.1621C233.236 75.6439 232.732 76.0215 232.139 76.2949C231.554 76.5618 230.889 76.6953 230.147 76.6953C229.405 76.6953 228.738 76.5618 228.145 76.2949C227.553 76.0215 227.045 75.6439 226.622 75.1621C226.205 74.6738 225.886 74.1042 225.665 73.4531C225.443 72.8021 225.333 72.0957 225.333 71.334ZM227.139 71.1094V71.334C227.139 71.8613 227.201 72.3594 227.325 72.8281C227.449 73.2904 227.634 73.7005 227.882 74.0586C228.136 74.4167 228.451 74.6999 228.829 74.9082C229.207 75.11 229.646 75.2109 230.147 75.2109C230.642 75.2109 231.075 75.11 231.446 74.9082C231.824 74.6999 232.136 74.4167 232.384 74.0586C232.631 73.7005 232.817 73.2904 232.94 72.8281C233.07 72.3594 233.136 71.8613 233.136 71.334V71.1094C233.136 70.5885 233.07 70.097 232.94 69.6348C232.817 69.166 232.628 68.7526 232.374 68.3945C232.126 68.0299 231.814 67.7435 231.436 67.5352C231.065 67.3268 230.629 67.2227 230.128 67.2227C229.633 67.2227 229.197 67.3268 228.819 67.5352C228.448 67.7435 228.136 68.0299 227.882 68.3945C227.634 68.7526 227.449 69.166 227.325 69.6348C227.201 70.097 227.139 70.5885 227.139 71.1094ZM244.444 65.9336V67.4277H239.561V76.5H237.754V65.9336H244.444ZM248.369 73.6387L253.242 65.9336H255.059V76.5H253.242V68.7949L248.369 76.5H246.572V65.9336H248.369V73.6387ZM266.328 65.9336V76.5H264.521V65.9336H266.328ZM265.713 70.7871V72.2715C265.348 72.4082 264.977 72.5319 264.599 72.6426C264.228 72.7467 263.834 72.8314 263.418 72.8965C263.007 72.9551 262.561 72.9844 262.08 72.9844C261.246 72.9844 260.524 72.8411 259.912 72.5547C259.3 72.2617 258.828 71.8223 258.496 71.2363C258.164 70.6439 257.998 69.8984 257.998 69V65.9141H259.804V69C259.804 69.5859 259.892 70.0612 260.068 70.4258C260.244 70.7904 260.501 71.0605 260.839 71.2363C261.178 71.4056 261.591 71.4902 262.08 71.4902C262.548 71.4902 262.988 71.4609 263.398 71.4023C263.815 71.3372 264.212 71.2526 264.589 71.1484C264.974 71.0443 265.348 70.9238 265.713 70.7871ZM274.023 76.6953C273.287 76.6953 272.62 76.5716 272.021 76.3242C271.428 76.0703 270.917 75.7155 270.488 75.2598C270.064 74.804 269.739 74.2637 269.511 73.6387C269.283 73.0137 269.169 72.3301 269.169 71.5879V71.1777C269.169 70.3184 269.296 69.5534 269.55 68.8828C269.804 68.2057 270.149 67.6328 270.585 67.1641C271.021 66.6953 271.516 66.3405 272.07 66.0996C272.623 65.8587 273.196 65.7383 273.788 65.7383C274.543 65.7383 275.195 65.8685 275.741 66.1289C276.295 66.3893 276.747 66.7539 277.099 67.2227C277.45 67.6849 277.711 68.2318 277.88 68.8633C278.049 69.4883 278.134 70.1719 278.134 70.9141V71.7246H270.243V70.25H276.327V70.1133C276.301 69.6445 276.204 69.1888 276.034 68.7461C275.872 68.3034 275.611 67.9388 275.253 67.6523C274.895 67.3659 274.407 67.2227 273.788 67.2227C273.378 67.2227 273.001 67.3105 272.655 67.4863C272.31 67.6556 272.014 67.9095 271.767 68.248C271.519 68.5866 271.327 69 271.191 69.4883C271.054 69.9766 270.986 70.5397 270.986 71.1777V71.5879C270.986 72.0892 271.054 72.5612 271.191 73.0039C271.334 73.4401 271.539 73.8242 271.806 74.1562C272.079 74.4883 272.408 74.7487 272.792 74.9375C273.183 75.1263 273.626 75.2207 274.12 75.2207C274.758 75.2207 275.299 75.0905 275.741 74.8301C276.184 74.5697 276.571 74.2214 276.904 73.7852L277.997 74.6543C277.769 74.9993 277.48 75.3281 277.128 75.6406C276.777 75.9531 276.344 76.207 275.829 76.4023C275.321 76.5977 274.719 76.6953 274.023 76.6953ZM284.872 75.2109C285.302 75.2109 285.699 75.123 286.063 74.9473C286.428 74.7715 286.727 74.5306 286.962 74.2246C287.196 73.9121 287.33 73.5573 287.362 73.1602H289.081C289.048 73.7852 288.837 74.3678 288.446 74.9082C288.062 75.4421 287.557 75.875 286.932 76.207C286.307 76.5326 285.621 76.6953 284.872 76.6953C284.078 76.6953 283.384 76.5553 282.792 76.2754C282.206 75.9954 281.718 75.6113 281.327 75.123C280.943 74.6348 280.653 74.0749 280.458 73.4434C280.269 72.8053 280.175 72.1315 280.175 71.4219V71.0117C280.175 70.3021 280.269 69.6315 280.458 69C280.653 68.362 280.943 67.7988 281.327 67.3105C281.718 66.8223 282.206 66.4382 282.792 66.1582C283.384 65.8783 284.078 65.7383 284.872 65.7383C285.699 65.7383 286.421 65.9076 287.04 66.2461C287.658 66.5781 288.143 67.0339 288.495 67.6133C288.853 68.1862 289.048 68.8372 289.081 69.5664H287.362C287.33 69.1302 287.206 68.7363 286.991 68.3848C286.783 68.0332 286.496 67.7533 286.132 67.5449C285.774 67.3301 285.354 67.2227 284.872 67.2227C284.318 67.2227 283.853 67.3333 283.475 67.5547C283.104 67.7695 282.808 68.0625 282.587 68.4336C282.372 68.7982 282.216 69.2051 282.118 69.6543C282.027 70.097 281.981 70.5495 281.981 71.0117V71.4219C281.981 71.8841 282.027 72.3398 282.118 72.7891C282.209 73.2383 282.362 73.6452 282.577 74.0098C282.798 74.3743 283.095 74.6673 283.466 74.8887C283.843 75.1035 284.312 75.2109 284.872 75.2109ZM293.475 65.9336V76.5H291.668V65.9336H293.475ZM300.409 65.9336L295.399 71.9883H292.87L292.596 70.4062H294.666L298.211 65.9336H300.409ZM298.465 76.5L294.579 71.7148L295.741 70.4062L300.76 76.5H298.465ZM304.686 73.6387L309.559 65.9336H311.375V76.5H309.559V68.7949L304.686 76.5H302.889V65.9336H304.686V73.6387ZM315.896 65.9336L318.211 69.7812L320.554 65.9336H322.673L319.216 71.1484L322.781 76.5H320.691L318.25 72.5352L315.808 76.5H313.709L317.263 71.1484L313.816 65.9336H315.896ZM144.33 97.6387L149.203 89.9336H151.02V100.5H149.203V92.7949L144.33 100.5H142.533V89.9336H144.33V97.6387ZM161.488 94.5137V95.9785H155.902V94.5137H161.488ZM156.283 89.9336V100.5H154.476V89.9336H156.283ZM162.953 89.9336V100.5H161.136V89.9336H162.953ZM173.431 94.5137V95.9785H167.845V94.5137H173.431ZM168.226 89.9336V100.5H166.419V89.9336H168.226ZM174.896 89.9336V100.5H173.079V89.9336H174.896ZM177.727 95.334V95.1094C177.727 94.3477 177.838 93.6413 178.059 92.9902C178.281 92.3327 178.6 91.763 179.016 91.2812C179.433 90.793 179.938 90.4154 180.53 90.1484C181.123 89.875 181.787 89.7383 182.522 89.7383C183.264 89.7383 183.932 89.875 184.524 90.1484C185.123 90.4154 185.631 90.793 186.048 91.2812C186.471 91.763 186.793 92.3327 187.014 92.9902C187.236 93.6413 187.346 94.3477 187.346 95.1094V95.334C187.346 96.0957 187.236 96.8021 187.014 97.4531C186.793 98.1042 186.471 98.6738 186.048 99.1621C185.631 99.6439 185.126 100.021 184.534 100.295C183.948 100.562 183.284 100.695 182.542 100.695C181.8 100.695 181.132 100.562 180.54 100.295C179.947 100.021 179.44 99.6439 179.016 99.1621C178.6 98.6738 178.281 98.1042 178.059 97.4531C177.838 96.8021 177.727 96.0957 177.727 95.334ZM179.534 95.1094V95.334C179.534 95.8613 179.596 96.3594 179.72 96.8281C179.843 97.2904 180.029 97.7005 180.276 98.0586C180.53 98.4167 180.846 98.6999 181.223 98.9082C181.601 99.11 182.04 99.2109 182.542 99.2109C183.037 99.2109 183.47 99.11 183.841 98.9082C184.218 98.6999 184.531 98.4167 184.778 98.0586C185.026 97.7005 185.211 97.2904 185.335 96.8281C185.465 96.3594 185.53 95.8613 185.53 95.334V95.1094C185.53 94.5885 185.465 94.097 185.335 93.6348C185.211 93.166 185.022 92.7526 184.768 92.3945C184.521 92.0299 184.208 91.7435 183.831 91.5352C183.46 91.3268 183.024 91.2227 182.522 91.2227C182.027 91.2227 181.591 91.3268 181.214 91.5352C180.843 91.7435 180.53 92.0299 180.276 92.3945C180.029 92.7526 179.843 93.166 179.72 93.6348C179.596 94.097 179.534 94.5885 179.534 95.1094ZM194.973 95.8516H191.506L191.487 94.4062H194.319C194.879 94.4062 195.344 94.3509 195.715 94.2402C196.093 94.1296 196.376 93.9635 196.565 93.7422C196.754 93.5208 196.848 93.2474 196.848 92.9219C196.848 92.668 196.793 92.4466 196.682 92.2578C196.578 92.0625 196.418 91.903 196.204 91.7793C195.989 91.6491 195.722 91.5547 195.403 91.4961C195.09 91.431 194.722 91.3984 194.299 91.3984H191.985V100.5H190.178V89.9336H194.299C194.97 89.9336 195.572 89.9922 196.106 90.1094C196.646 90.2266 197.105 90.4056 197.483 90.6465C197.867 90.8809 198.16 91.1803 198.362 91.5449C198.564 91.9095 198.664 92.3392 198.664 92.834C198.664 93.153 198.599 93.4557 198.469 93.7422C198.339 94.0286 198.147 94.2826 197.893 94.5039C197.639 94.7253 197.327 94.9076 196.955 95.0508C196.584 95.1875 196.158 95.2754 195.676 95.3145L194.973 95.8516ZM194.973 100.5H190.852L191.75 99.0352H194.973C195.474 99.0352 195.891 98.9733 196.223 98.8496C196.555 98.7194 196.802 98.5371 196.965 98.3027C197.135 98.0618 197.219 97.7754 197.219 97.4434C197.219 97.1113 197.135 96.8281 196.965 96.5938C196.802 96.3529 196.555 96.1706 196.223 96.0469C195.891 95.9167 195.474 95.8516 194.973 95.8516H192.229L192.248 94.4062H195.676L196.33 94.9531C196.91 94.9987 197.401 95.1419 197.805 95.3828C198.209 95.6237 198.515 95.9297 198.723 96.3008C198.931 96.6654 199.036 97.0625 199.036 97.4922C199.036 97.987 198.941 98.4232 198.752 98.8008C198.57 99.1784 198.303 99.4941 197.952 99.748C197.6 99.9954 197.174 100.184 196.672 100.314C196.171 100.438 195.605 100.5 194.973 100.5ZM208.088 98.6934V93.2539C208.088 92.8372 208.003 92.4759 207.834 92.1699C207.671 91.8574 207.424 91.6165 207.092 91.4473C206.76 91.278 206.35 91.1934 205.861 91.1934C205.406 91.1934 205.005 91.2715 204.66 91.4277C204.322 91.584 204.055 91.7891 203.859 92.043C203.671 92.2969 203.576 92.5703 203.576 92.8633H201.77C201.77 92.4857 201.867 92.1113 202.062 91.7402C202.258 91.3691 202.538 91.0339 202.902 90.7344C203.273 90.4284 203.716 90.1875 204.23 90.0117C204.751 89.8294 205.331 89.7383 205.969 89.7383C206.737 89.7383 207.414 89.8685 208 90.1289C208.592 90.3893 209.055 90.7832 209.387 91.3105C209.725 91.8314 209.895 92.4857 209.895 93.2734V98.1953C209.895 98.5469 209.924 98.9212 209.982 99.3184C210.048 99.7155 210.142 100.057 210.266 100.344V100.5H208.381C208.29 100.292 208.218 100.015 208.166 99.6699C208.114 99.3184 208.088 98.9928 208.088 98.6934ZM208.4 94.0938L208.42 95.3633H206.594C206.079 95.3633 205.62 95.4056 205.217 95.4902C204.813 95.5684 204.475 95.6888 204.201 95.8516C203.928 96.0143 203.719 96.2194 203.576 96.4668C203.433 96.7077 203.361 96.9909 203.361 97.3164C203.361 97.6484 203.436 97.9512 203.586 98.2246C203.736 98.498 203.96 98.7161 204.26 98.8789C204.566 99.0352 204.94 99.1133 205.383 99.1133C205.936 99.1133 206.424 98.9961 206.848 98.7617C207.271 98.5273 207.606 98.2409 207.854 97.9023C208.107 97.5638 208.244 97.235 208.264 96.916L209.035 97.7852C208.99 98.0586 208.866 98.3613 208.664 98.6934C208.462 99.0254 208.192 99.3444 207.854 99.6504C207.521 99.9499 207.124 100.201 206.662 100.402C206.206 100.598 205.692 100.695 205.119 100.695C204.403 100.695 203.775 100.555 203.234 100.275C202.701 99.9954 202.284 99.6211 201.984 99.1523C201.691 98.6771 201.545 98.1465 201.545 97.5605C201.545 96.9941 201.656 96.4961 201.877 96.0664C202.098 95.6302 202.417 95.2689 202.834 94.9824C203.251 94.6895 203.752 94.4681 204.338 94.3184C204.924 94.1686 205.578 94.0938 206.301 94.0938H208.4ZM213.293 100.5V89.9336H215.099V99.0156H219.963V89.9336H221.779V100.5H213.293ZM223.029 99.0156L222.853 103.635H221.242V100.5H219.865V99.0156H223.029ZM227.345 97.6387L232.218 89.9336H234.034V100.5H232.218V92.7949L227.345 100.5H225.548V89.9336H227.345V97.6387ZM239.288 97.6387L244.161 89.9336H245.977V100.5H244.161V92.7949L239.288 100.5H237.491V89.9336H239.288V97.6387ZM243.175 86.1055H244.639C244.639 86.6133 244.522 87.0658 244.288 87.4629C244.054 87.8535 243.718 88.1595 243.282 88.3809C242.846 88.6022 242.328 88.7129 241.729 88.7129C240.824 88.7129 240.108 88.472 239.581 87.9902C239.06 87.502 238.8 86.8737 238.8 86.1055H240.264C240.264 86.4896 240.375 86.8281 240.596 87.1211C240.818 87.4141 241.195 87.5605 241.729 87.5605C242.25 87.5605 242.621 87.4141 242.843 87.1211C243.064 86.8281 243.175 86.4896 243.175 86.1055Z" fill="#005AAA" />
	<path d="M20.775 92.6209V55.9244L54.7959 77.3331L54.9221 77.4151C55.6645 77.891 56.5279 78.1456 57.4109 78.1456H57.4176C58.2938 78.1456 59.1435 77.9011 59.8728 77.4385L95.127 55.1845V75.7232C95.127 77.9355 94.7236 80.1355 93.8748 82.179C90.9669 89.1732 81.7969 102.038 53.6731 102.038L52.325 102.041C51.4465 102.041 51.4465 102.043 50.6636 102.002L48.9421 101.918C46.5124 101.806 44.529 103.344 44.2245 105.576C44.0635 106.756 44.3996 107.964 45.1429 108.892C45.8454 109.765 46.8302 110.294 47.9151 110.381C50.0426 110.551 50.5431 110.584 51.2827 110.584C51.473 110.584 51.6807 110.582 51.9359 110.579C52.3352 110.574 52.8569 110.569 53.6731 110.569H53.7146C90.996 110.569 100.647 89.5786 102.948 81.7155C103.4 80.1725 103.616 78.5757 103.617 76.9658L103.639 50.2521C103.639 50.1101 103.611 49.9761 103.598 49.8373L112.651 44.1227C113.915 43.3249 114.842 42.021 114.98 40.5317C115.143 38.7654 114.32 37.1097 112.85 36.1822L59.8674 2.73806C58.3753 1.79844 56.4497 1.80179 54.9611 2.74253L1.98652 36.1822C0.000629306 37.4367 -0.597035 40.0762 0.654044 42.0635C1.25951 43.0291 2.20395 43.7004 3.31341 43.9517C4.42175 44.2053 5.56357 44.0086 6.52363 43.4L57.4176 11.2729L103.067 40.0892L57.4176 68.9069L18.7936 44.5941C17.8302 43.9875 16.6895 43.7908 15.5811 44.0434C14.4727 44.2947 13.5283 44.965 12.9229 45.9293C12.3675 46.8119 12.159 47.8565 12.3285 48.888C12.2839 49.1383 12.2616 49.3851 12.2616 49.6253V98.6963C12.2616 99.8082 12.5984 100.916 13.312 101.766C14.5073 103.187 16.3249 103.747 18.0554 103.289L23.1088 101.943L30.7191 112.245C31.5809 113.415 32.96 114.114 34.4074 114.114C35.1667 114.114 35.9174 113.923 36.6019 113.555C38.1295 112.737 38.9994 111.056 38.9994 109.32V77.6797C38.9994 75.6442 37.6254 73.7915 35.635 73.3838C32.8999 72.823 30.4858 74.9134 30.4858 77.5581V99.8283L24.8672 91.7772L20.775 92.6209Z" fill="url(#paint0_linear_23_43)" />
	<defs>
		<linearGradient id="paint0_linear_23_43" x1="-3.09552e-07" y1="75.492" x2="115.001" y2="75.5436" gradientUnits="userSpaceOnUse">
			<stop stop-color="#005AAA" />
			<stop offset="1" stop-color="#00BEF3" />
		</linearGradient>
	</defs>
</svg>