<svg width="350" height="90" viewBox="0 0 350 90" fill="none" xmlns="http://www.w3.org/2000/svg">
<path d="M21.3626 57.1453V61.9794H29.2162V29.949H20.732V44.5552C20.732 48.1091 20.5147 50.5388 20.0825 51.8571C19.6542 53.1779 18.8515 54.2284 17.6858 55.0303C16.5213 55.8309 15.2023 56.2267 13.7326 56.2267C12.5844 56.2267 11.6046 55.9514 10.7893 55.3919C9.97156 54.8349 9.38743 54.0495 9.02314 53.0383C8.66136 52.0359 8.48047 49.8092 8.48047 46.3734V29.949H0V49.8841C0 52.3366 0.155768 54.217 0.464788 55.5378C0.780089 56.8484 1.33406 58.0271 2.12797 59.0663C2.92187 60.1016 4.09263 60.9491 5.64653 61.6228C7.1954 62.289 8.91008 62.6189 10.7893 62.6189C15.0365 62.6189 18.5575 60.7981 21.3626 57.1453ZM32.986 29.949H41.3358V41.8184H53.3047V29.949H61.6483V61.9794H53.3047V48.628H41.3358V61.9794H32.986V29.949ZM81.6555 29.949H64.6832V39.966L73.1649 36.6685V62.0251H81.6555V36.6685L90.146 39.966V29.949H81.6555ZM102.522 37.6835C104.083 36.2231 105.942 35.5126 108.205 35.5126C110.48 35.5126 112.281 36.3195 113.713 37.9766C114.601 39.022 115.07 40.2198 115.358 41.4898C112.379 41.4898 103.34 41.4898 100.155 41.4898C100.651 39.9876 101.42 38.7163 102.522 37.6835ZM116.512 51.4916C116.512 51.4916 115.04 54.7727 112.149 56.2267C111.071 56.7685 109.721 57.04 108.147 57.04C105.346 57.04 103.199 55.9857 101.595 53.8148C100.434 52.2618 99.7394 50.5147 99.4781 48.5265C102.822 48.5265 123.411 48.5265 123.411 48.5265C123.411 48.5265 124.421 39.829 120.092 34.2603C117.174 30.5022 113.257 28.4797 108.141 28.4797C102.905 28.4797 98.6893 30.3195 95.6053 33.9469C92.7789 37.2597 91.3368 41.4074 91.3368 46.2744C91.3368 51.0095 92.7789 55.1076 95.6053 58.4687C98.7282 62.1862 102.951 64.0729 108.141 64.0729C111.791 64.0729 115.003 63.0616 117.688 61.0798C122.593 57.4485 124.504 51.4916 124.504 51.4916H116.512ZM146.749 53.5027C145.466 55.0861 143.855 55.8778 141.927 55.8778C139.912 55.8778 138.206 55.015 136.804 53.292C135.405 51.5665 134.703 48.9008 134.703 45.2911C134.703 42.1496 135.371 39.7706 136.715 38.1682C138.059 36.5632 139.74 35.7689 141.78 35.7689C143.73 35.7689 145.365 36.5797 146.684 38.2151C148.007 39.848 148.671 42.3475 148.671 45.7149C148.671 49.3245 148.028 51.9154 146.749 53.5027ZM153.358 33.48C150.806 30.5707 147.704 29.1103 144.049 29.1103C141.945 29.1103 140.034 29.6267 138.313 30.6532C136.596 31.6834 135.23 32.9953 134.225 34.5902V29.9236H126.436V73.8767H134.786V57.885C136.347 59.5827 137.829 60.7766 139.244 61.4744C140.658 62.1735 142.245 62.5262 143.985 62.5262C147.64 62.5262 150.753 61.0456 153.328 58.0855C155.894 55.1229 157.18 50.9753 157.18 45.6375C157.18 40.4418 155.907 36.3868 153.358 33.48ZM209.145 50.351C208.945 44.2241 218.558 41.1003 225.202 44.5527V56.0377C217.864 59.1246 209.527 56.3904 209.145 50.351ZM225.202 61.9794H234.576V46.2439C234.576 41.0572 234.901 37.6581 232.761 34.306C230.615 30.9501 226.355 29.6267 223.349 29.6267C216.19 29.6267 213.017 29.6267 206.174 29.6267C204.564 29.6914 204.947 27.74 205.075 27.348C209.145 11.8384 212.429 7.27586 217.977 7.73389C220.367 8.05869 221.845 8.12341 222.947 9.49369C223.851 10.6013 224.177 10.7333 225.915 8.05869C227.004 6.23672 227.85 4.80173 228.495 3.69535C229.076 2.65241 230.566 1.28594 228.366 1.0233C201.976 0.435858 201.597 10.9934 192.565 28.3249C191.596 29.9541 190.557 29.8893 187.531 29.8893C185.53 29.8893 180.759 29.8893 178.69 29.8893C166.755 29.8893 160.562 39.338 159.856 44.6174C159.275 47.8058 158.949 50.5426 160.498 53.9353C161.722 56.4741 164.69 59.929 169.079 61.883C170.245 62.3384 170.952 61.4935 171.014 61.4287C172.31 60.25 176.307 56.6695 177.469 55.7573C178.177 55.1038 177.335 54.7143 176.82 54.6522C169.403 53.7374 166.691 51.7175 165.404 46.7604C165.016 43.0517 166.755 34.7767 180.047 34.6435C185.405 34.7767 189.722 34.1271 187.724 38.9447C180.499 57.0616 178.818 60.3871 171.271 75.0428C166.691 81.8219 161.02 82.8014 151.72 79.8641C149.308 79.1003 148.556 80.7891 148.224 81.5148C147.729 82.5857 146.863 84.5523 146.537 85.2488C146.02 86.3121 146.437 86.68 147.187 86.6737C160.157 86.5404 173.011 84.0359 182.882 72.6981C192.11 60.7728 194.239 51.1947 200.302 39.0753C201.271 36.926 202.698 34.9708 205.158 34.9708C208.869 34.9708 217.234 34.9708 219.717 34.9708C224.38 34.9708 225.202 36.926 225.202 39.4674C221.845 38.4257 219.01 37.9652 215.018 38.4257C206.431 39.338 201.009 42.8538 200.63 50.6758C200.69 56.5427 206.302 62.6011 216.168 62.4032C220.265 62.5973 223.023 62.0162 225.202 59.7273V61.9794ZM247.583 61.9794V48.1916C248.794 48.1916 249.712 48.4605 250.33 48.9871C250.94 49.5187 251.676 50.7063 252.513 52.565L256.215 61.9794H265.083L260.94 52.9698C260.822 52.7477 260.713 52.5397 260.616 52.343C258.808 48.4643 256.597 46.1628 253.979 45.4243C255.797 44.7468 257.176 42.9375 258.145 40.0117C258.852 37.8383 259.514 36.5327 260.118 36.0899C260.731 35.6725 262.132 35.4593 264.318 35.4593L264.288 29.8526C262.731 29.7561 261.635 29.7041 261.012 29.7041C258.959 29.7041 257.311 30.1469 256.051 31.0249C254.795 31.9067 253.635 33.9127 252.573 37.0529C251.764 39.409 251.075 40.9341 250.507 41.6357C249.935 42.3348 248.959 42.765 247.583 42.9248V29.949H239.234V61.9794H247.583ZM294.599 39.4953L286.413 40.9519C286.134 39.3101 285.497 38.0793 284.515 37.2508C283.529 36.4185 282.249 36.0036 280.675 36.0036C278.587 36.0036 276.917 36.7306 275.674 38.1846C274.424 39.6412 273.803 42.0747 273.803 45.4827C273.803 49.284 274.43 51.9624 275.693 53.5179C276.955 55.0886 278.651 55.8715 280.769 55.8715C282.355 55.8715 283.657 55.4071 284.668 54.486C285.68 53.561 286.394 51.9687 286.807 49.7103L295 51.0869C294.152 54.9402 292.52 57.8444 290.107 59.8148C287.702 61.784 284.466 62.7622 280.414 62.7622C275.808 62.7622 272.14 61.2892 269.4 58.3418C266.663 55.3919 265.291 51.3064 265.291 46.0917C265.291 40.8136 266.669 36.7027 269.413 33.7617C272.165 30.8206 275.886 29.3514 280.566 29.3514C284.408 29.3514 287.45 30.1862 289.719 31.8598C291.983 33.5295 293.612 36.0721 294.599 39.4953ZM122.994 76.8089H127.109L129.25 80.5594L131.326 76.8089H135.405L131.644 82.7087L135.759 88.9994H131.556L129.173 85.0839L126.779 88.9994H122.612L126.785 82.6478L122.994 76.8089ZM111.429 84.348L110.109 79.9656L108.79 84.348H111.429ZM112.22 86.9959H107.994L107.391 88.9994H103.582L108.117 76.8089H112.205L116.727 88.9994H112.823L112.22 86.9959ZM89.2428 76.8089H98.4719V79.434H92.9875V81.5465H97.6818V84.0143H92.9875V88.9994H89.2428V76.8089ZM73.994 81.7381H75.5806C75.7514 81.7381 76.083 81.6861 76.5729 81.5745C76.8229 81.525 77.0252 81.3981 77.1847 81.1963C77.3443 80.9933 77.4209 80.7548 77.4209 80.4922C77.4209 80.0988 77.3015 79.7994 77.044 79.5888C76.8016 79.382 76.3305 79.2729 75.6446 79.2729H73.994V81.7381ZM70.2494 88.9994V76.8089H76.4775C77.6319 76.8089 78.5163 76.9079 79.1293 77.1058C79.7385 77.3037 80.2284 77.6767 80.6053 78.2122C80.9822 78.7565 81.1656 79.415 81.1656 80.1915C81.1656 80.8627 81.0186 81.4501 80.7397 81.9386C80.4458 82.4309 80.0563 82.8267 79.5551 83.1325C79.2361 83.3279 78.7951 83.489 78.2349 83.6159C78.6821 83.7669 79.0062 83.9179 79.2122 84.0676C79.3491 84.1691 79.5488 84.3823 79.8089 84.7096C80.0689 85.0446 80.2435 85.2945 80.3327 85.4709L82.1479 88.9994H77.9322L75.9235 85.2729C75.6748 84.787 75.4462 84.4787 75.2502 84.3328C74.9738 84.1412 74.6673 84.0486 74.3244 84.0486H73.994V88.9994H70.2494ZM52.1076 76.8089H62.108V79.415H55.8523V81.3511H61.6483V83.8354H55.8523V86.2283H62.2852V88.9994H52.1076V76.8089ZM33.1782 76.8089H44.5291V79.821H40.7203V88.9994H36.9932V79.821H33.1782V76.8089ZM14.0931 76.8089H17.584L22.1251 83.5474V76.8089H25.6437V88.9994H22.1251L17.6091 82.2951V88.9994H14.0931V76.8089ZM1.75111 76.8089H5.49591V89H1.75111V76.8089Z" fill="#09ABB0"/>
</svg>
