<svg width="256" height="255" viewBox="0 0 256 255" fill="none" xmlns="http://www.w3.org/2000/svg">
<g clip-path="url(#clip0_451_950)">
<rect x="0.166504" width="255" height="255" rx="24" fill="url(#paint0_linear_451_950)"/>
<path d="M177.495 153.012L168.799 115.816L177.828 107.956C180.606 105.537 180.773 101.52 178.495 98.9044C176.099 96.1517 172.078 96.0214 169.438 98.3194L165.549 101.706L161.959 86.9235L181.686 69.7526C184.464 67.3341 186.246 64.3311 186.993 61.2611C190.675 55.3932 191.972 50.1503 189.576 47.3976C187.179 44.6448 181.947 45.0861 175.489 48.0472C172.345 48.3634 169.246 49.8532 166.347 52.1334L146.622 69.3063L132.475 63.7157L136.364 60.3295C139.142 57.911 139.309 53.8937 137.032 51.2781C134.636 48.5253 130.615 48.395 127.975 50.693L118.946 58.5534L83.3019 44.8189L76.2177 50.9864L93.3901 63.1375L91.5857 64.7118L93.5033 66.9144L95.7261 64.9793L102.268 69.688L100.045 71.6232L101.963 73.8258L104.741 71.4073L111.283 76.1161L108.643 78.4141L110.561 80.6167L113.756 77.8354L120.298 82.5441L117.242 85.2047L118.919 87.1336L122.531 83.9895L125.646 87.5681L97.5863 111.997L92.1359 118.92L65.0361 107.426L58.3686 113.231L82.7829 131.176L81.6333 132.661L70 147.628L73.9547 152.171L90.381 142.709L92.0104 141.775L106.423 168.428L113.23 162.502L105.577 134.077L113.184 129.632L141.244 105.203L144.36 108.782L140.749 111.926L142.666 114.129L145.722 111.468L149.485 118.596L146.291 121.377L148.208 123.58L150.848 121.282L154.611 128.41L151.833 130.829L153.75 133.031L155.973 131.096L159.736 138.224L157.376 140.281L159.293 142.484L161.1 140.911L170.77 159.593L177.855 153.427L177.495 153.012Z" fill="white"/>
<path d="M52.5703 200.938H55.1953L60.1289 214.098L65.0508 200.938H67.6758L61.1602 218H59.0742L52.5703 200.938ZM51.375 200.938H53.8711L54.3047 212.328V218H51.375V200.938ZM66.375 200.938H68.8828V218H65.9414V212.328L66.375 200.938ZM79.2422 215.457V209.41C79.2422 208.957 79.1602 208.566 78.9961 208.238C78.832 207.91 78.582 207.656 78.2461 207.477C77.918 207.297 77.5039 207.207 77.0039 207.207C76.543 207.207 76.1445 207.285 75.8086 207.441C75.4727 207.598 75.2109 207.809 75.0234 208.074C74.8359 208.34 74.7422 208.641 74.7422 208.977H71.9297C71.9297 208.477 72.0508 207.992 72.293 207.523C72.5352 207.055 72.8867 206.637 73.3477 206.27C73.8086 205.902 74.3594 205.613 75 205.402C75.6406 205.191 76.3594 205.086 77.1562 205.086C78.1094 205.086 78.9531 205.246 79.6875 205.566C80.4297 205.887 81.0117 206.371 81.4336 207.02C81.8633 207.66 82.0781 208.465 82.0781 209.434V215.07C82.0781 215.648 82.1172 216.168 82.1953 216.629C82.2812 217.082 82.4023 217.477 82.5586 217.812V218H79.6641C79.5312 217.695 79.4258 217.309 79.3477 216.84C79.2773 216.363 79.2422 215.902 79.2422 215.457ZM79.6523 210.289L79.6758 212.035H77.6484C77.125 212.035 76.6641 212.086 76.2656 212.188C75.8672 212.281 75.5352 212.422 75.2695 212.609C75.0039 212.797 74.8047 213.023 74.6719 213.289C74.5391 213.555 74.4727 213.855 74.4727 214.191C74.4727 214.527 74.5508 214.836 74.707 215.117C74.8633 215.391 75.0898 215.605 75.3867 215.762C75.6914 215.918 76.0586 215.996 76.4883 215.996C77.0664 215.996 77.5703 215.879 78 215.645C78.4375 215.402 78.7812 215.109 79.0312 214.766C79.2812 214.414 79.4141 214.082 79.4297 213.77L80.3438 215.023C80.25 215.344 80.0898 215.688 79.8633 216.055C79.6367 216.422 79.3398 216.773 78.9727 217.109C78.6133 217.438 78.1797 217.707 77.6719 217.918C77.1719 218.129 76.5938 218.234 75.9375 218.234C75.1094 218.234 74.3711 218.07 73.7227 217.742C73.0742 217.406 72.5664 216.957 72.1992 216.395C71.832 215.824 71.6484 215.18 71.6484 214.461C71.6484 213.789 71.7734 213.195 72.0234 212.68C72.2812 212.156 72.6562 211.719 73.1484 211.367C73.6484 211.016 74.2578 210.75 74.9766 210.57C75.6953 210.383 76.5156 210.289 77.4375 210.289H79.6523ZM93.4688 205.32V207.57H87.9375V218H85.1133V205.32H93.4688ZM98.0273 213.875L103.008 205.32H105.832V218H103.008V209.434L98.0273 218H95.2031V205.32H98.0273V213.875ZM114 215.984C114.461 215.984 114.875 215.895 115.242 215.715C115.617 215.527 115.918 215.27 116.145 214.941C116.379 214.613 116.508 214.234 116.531 213.805H119.191C119.176 214.625 118.934 215.371 118.465 216.043C117.996 216.715 117.375 217.25 116.602 217.648C115.828 218.039 114.973 218.234 114.035 218.234C113.066 218.234 112.223 218.07 111.504 217.742C110.785 217.406 110.188 216.945 109.711 216.359C109.234 215.773 108.875 215.098 108.633 214.332C108.398 213.566 108.281 212.746 108.281 211.871V211.461C108.281 210.586 108.398 209.766 108.633 209C108.875 208.227 109.234 207.547 109.711 206.961C110.188 206.375 110.785 205.918 111.504 205.59C112.223 205.254 113.062 205.086 114.023 205.086C115.039 205.086 115.93 205.289 116.695 205.695C117.461 206.094 118.062 206.652 118.5 207.371C118.945 208.082 119.176 208.91 119.191 209.855H116.531C116.508 209.387 116.391 208.965 116.18 208.59C115.977 208.207 115.688 207.902 115.312 207.676C114.945 207.449 114.504 207.336 113.988 207.336C113.418 207.336 112.945 207.453 112.57 207.688C112.195 207.914 111.902 208.227 111.691 208.625C111.48 209.016 111.328 209.457 111.234 209.949C111.148 210.434 111.105 210.938 111.105 211.461V211.871C111.105 212.395 111.148 212.902 111.234 213.395C111.32 213.887 111.469 214.328 111.68 214.719C111.898 215.102 112.195 215.41 112.57 215.645C112.945 215.871 113.422 215.984 114 215.984ZM127.242 205.32V218H124.406V205.32H127.242ZM131.402 205.32V207.547H120.316V205.32H131.402ZM136.125 207.758V222.875H133.301V205.32H135.902L136.125 207.758ZM144.387 211.543V211.789C144.387 212.711 144.277 213.566 144.059 214.355C143.848 215.137 143.531 215.82 143.109 216.406C142.695 216.984 142.184 217.434 141.574 217.754C140.965 218.074 140.262 218.234 139.465 218.234C138.676 218.234 137.984 218.09 137.391 217.801C136.805 217.504 136.309 217.086 135.902 216.547C135.496 216.008 135.168 215.375 134.918 214.648C134.676 213.914 134.504 213.109 134.402 212.234V211.285C134.504 210.355 134.676 209.512 134.918 208.754C135.168 207.996 135.496 207.344 135.902 206.797C136.309 206.25 136.805 205.828 137.391 205.531C137.977 205.234 138.66 205.086 139.441 205.086C140.238 205.086 140.945 205.242 141.562 205.555C142.18 205.859 142.699 206.297 143.121 206.867C143.543 207.43 143.859 208.109 144.07 208.906C144.281 209.695 144.387 210.574 144.387 211.543ZM141.562 211.789V211.543C141.562 210.957 141.508 210.414 141.398 209.914C141.289 209.406 141.117 208.961 140.883 208.578C140.648 208.195 140.348 207.898 139.98 207.688C139.621 207.469 139.188 207.359 138.68 207.359C138.18 207.359 137.75 207.445 137.391 207.617C137.031 207.781 136.73 208.012 136.488 208.309C136.246 208.605 136.059 208.953 135.926 209.352C135.793 209.742 135.699 210.168 135.645 210.629V212.902C135.738 213.465 135.898 213.98 136.125 214.449C136.352 214.918 136.672 215.293 137.086 215.574C137.508 215.848 138.047 215.984 138.703 215.984C139.211 215.984 139.645 215.875 140.004 215.656C140.363 215.438 140.656 215.137 140.883 214.754C141.117 214.363 141.289 213.914 141.398 213.406C141.508 212.898 141.562 212.359 141.562 211.789ZM153.938 215.457V209.41C153.938 208.957 153.855 208.566 153.691 208.238C153.527 207.91 153.277 207.656 152.941 207.477C152.613 207.297 152.199 207.207 151.699 207.207C151.238 207.207 150.84 207.285 150.504 207.441C150.168 207.598 149.906 207.809 149.719 208.074C149.531 208.34 149.438 208.641 149.438 208.977H146.625C146.625 208.477 146.746 207.992 146.988 207.523C147.23 207.055 147.582 206.637 148.043 206.27C148.504 205.902 149.055 205.613 149.695 205.402C150.336 205.191 151.055 205.086 151.852 205.086C152.805 205.086 153.648 205.246 154.383 205.566C155.125 205.887 155.707 206.371 156.129 207.02C156.559 207.66 156.773 208.465 156.773 209.434V215.07C156.773 215.648 156.812 216.168 156.891 216.629C156.977 217.082 157.098 217.477 157.254 217.812V218H154.359C154.227 217.695 154.121 217.309 154.043 216.84C153.973 216.363 153.938 215.902 153.938 215.457ZM154.348 210.289L154.371 212.035H152.344C151.82 212.035 151.359 212.086 150.961 212.188C150.562 212.281 150.23 212.422 149.965 212.609C149.699 212.797 149.5 213.023 149.367 213.289C149.234 213.555 149.168 213.855 149.168 214.191C149.168 214.527 149.246 214.836 149.402 215.117C149.559 215.391 149.785 215.605 150.082 215.762C150.387 215.918 150.754 215.996 151.184 215.996C151.762 215.996 152.266 215.879 152.695 215.645C153.133 215.402 153.477 215.109 153.727 214.766C153.977 214.414 154.109 214.082 154.125 213.77L155.039 215.023C154.945 215.344 154.785 215.688 154.559 216.055C154.332 216.422 154.035 216.773 153.668 217.109C153.309 217.438 152.875 217.707 152.367 217.918C151.867 218.129 151.289 218.234 150.633 218.234C149.805 218.234 149.066 218.07 148.418 217.742C147.77 217.406 147.262 216.957 146.895 216.395C146.527 215.824 146.344 215.18 146.344 214.461C146.344 213.789 146.469 213.195 146.719 212.68C146.977 212.156 147.352 211.719 147.844 211.367C148.344 211.016 148.953 210.75 149.672 210.57C150.391 210.383 151.211 210.289 152.133 210.289H154.348ZM165.422 205.32V218H162.586V205.32H165.422ZM169.582 205.32V207.547H158.496V205.32H169.582ZM175.289 216.617L178.734 205.32H181.758L176.672 219.934C176.555 220.246 176.402 220.586 176.215 220.953C176.027 221.32 175.781 221.668 175.477 221.996C175.18 222.332 174.809 222.602 174.363 222.805C173.918 223.016 173.379 223.121 172.746 223.121C172.496 223.121 172.254 223.098 172.02 223.051C171.793 223.012 171.578 222.969 171.375 222.922L171.363 220.766C171.441 220.773 171.535 220.781 171.645 220.789C171.762 220.797 171.855 220.801 171.926 220.801C172.395 220.801 172.785 220.742 173.098 220.625C173.41 220.516 173.664 220.336 173.859 220.086C174.062 219.836 174.234 219.5 174.375 219.078L175.289 216.617ZM173.344 205.32L176.355 214.812L176.859 217.789L174.902 218.293L170.297 205.32H173.344ZM186.211 207.758V222.875H183.387V205.32H185.988L186.211 207.758ZM194.473 211.543V211.789C194.473 212.711 194.363 213.566 194.145 214.355C193.934 215.137 193.617 215.82 193.195 216.406C192.781 216.984 192.27 217.434 191.66 217.754C191.051 218.074 190.348 218.234 189.551 218.234C188.762 218.234 188.07 218.09 187.477 217.801C186.891 217.504 186.395 217.086 185.988 216.547C185.582 216.008 185.254 215.375 185.004 214.648C184.762 213.914 184.59 213.109 184.488 212.234V211.285C184.59 210.355 184.762 209.512 185.004 208.754C185.254 207.996 185.582 207.344 185.988 206.797C186.395 206.25 186.891 205.828 187.477 205.531C188.062 205.234 188.746 205.086 189.527 205.086C190.324 205.086 191.031 205.242 191.648 205.555C192.266 205.859 192.785 206.297 193.207 206.867C193.629 207.43 193.945 208.109 194.156 208.906C194.367 209.695 194.473 210.574 194.473 211.543ZM191.648 211.789V211.543C191.648 210.957 191.594 210.414 191.484 209.914C191.375 209.406 191.203 208.961 190.969 208.578C190.734 208.195 190.434 207.898 190.066 207.688C189.707 207.469 189.273 207.359 188.766 207.359C188.266 207.359 187.836 207.445 187.477 207.617C187.117 207.781 186.816 208.012 186.574 208.309C186.332 208.605 186.145 208.953 186.012 209.352C185.879 209.742 185.785 210.168 185.73 210.629V212.902C185.824 213.465 185.984 213.98 186.211 214.449C186.438 214.918 186.758 215.293 187.172 215.574C187.594 215.848 188.133 215.984 188.789 215.984C189.297 215.984 189.73 215.875 190.09 215.656C190.449 215.438 190.742 215.137 190.969 214.754C191.203 214.363 191.375 213.914 191.484 213.406C191.594 212.898 191.648 212.359 191.648 211.789ZM204.023 215.457V209.41C204.023 208.957 203.941 208.566 203.777 208.238C203.613 207.91 203.363 207.656 203.027 207.477C202.699 207.297 202.285 207.207 201.785 207.207C201.324 207.207 200.926 207.285 200.59 207.441C200.254 207.598 199.992 207.809 199.805 208.074C199.617 208.34 199.523 208.641 199.523 208.977H196.711C196.711 208.477 196.832 207.992 197.074 207.523C197.316 207.055 197.668 206.637 198.129 206.27C198.59 205.902 199.141 205.613 199.781 205.402C200.422 205.191 201.141 205.086 201.938 205.086C202.891 205.086 203.734 205.246 204.469 205.566C205.211 205.887 205.793 206.371 206.215 207.02C206.645 207.66 206.859 208.465 206.859 209.434V215.07C206.859 215.648 206.898 216.168 206.977 216.629C207.062 217.082 207.184 217.477 207.34 217.812V218H204.445C204.312 217.695 204.207 217.309 204.129 216.84C204.059 216.363 204.023 215.902 204.023 215.457ZM204.434 210.289L204.457 212.035H202.43C201.906 212.035 201.445 212.086 201.047 212.188C200.648 212.281 200.316 212.422 200.051 212.609C199.785 212.797 199.586 213.023 199.453 213.289C199.32 213.555 199.254 213.855 199.254 214.191C199.254 214.527 199.332 214.836 199.488 215.117C199.645 215.391 199.871 215.605 200.168 215.762C200.473 215.918 200.84 215.996 201.27 215.996C201.848 215.996 202.352 215.879 202.781 215.645C203.219 215.402 203.562 215.109 203.812 214.766C204.062 214.414 204.195 214.082 204.211 213.77L205.125 215.023C205.031 215.344 204.871 215.688 204.645 216.055C204.418 216.422 204.121 216.773 203.754 217.109C203.395 217.438 202.961 217.707 202.453 217.918C201.953 218.129 201.375 218.234 200.719 218.234C199.891 218.234 199.152 218.07 198.504 217.742C197.855 217.406 197.348 216.957 196.98 216.395C196.613 215.824 196.43 215.18 196.43 214.461C196.43 213.789 196.555 213.195 196.805 212.68C197.062 212.156 197.438 211.719 197.93 211.367C198.43 211.016 199.039 210.75 199.758 210.57C200.477 210.383 201.297 210.289 202.219 210.289H204.434Z" fill="white"/>
</g>
<defs>
<linearGradient id="paint0_linear_451_950" x1="12.279" y1="240.337" x2="298.852" y2="105.812" gradientUnits="userSpaceOnUse">
<stop stop-color="#3893E3"/>
<stop offset="0.9964" stop-color="#1C77C7"/>
</linearGradient>
<clipPath id="clip0_451_950">
<rect x="0.166504" width="255" height="255" rx="24" fill="white"/>
</clipPath>
</defs>
</svg>
