<svg width="256" height="255" viewBox="0 0 256 255" fill="none" xmlns="http://www.w3.org/2000/svg">
<rect x="0.5" width="255" height="255" rx="24" fill="url(#paint0_linear_456_1817)"/>
<path d="M176.493 108.823L149.581 76.1397L159.015 67.0804L159.014 67.0805C159.61 66.4927 159.967 65.7096 160.019 64.8794C160.07 64.0499 159.81 63.2327 159.291 62.5848C158.963 62.1745 158.967 61.5919 159.3 61.1813L159.854 60.5314L172.066 75.3535C172.32 75.6613 172.737 75.7853 173.122 75.6678C173.507 75.5503 173.785 75.2151 173.825 74.8175C174.114 72.0207 173.029 69.266 170.913 67.4163L162.897 60.0914C162.405 59.637 161.93 59.1549 161.435 58.69L162.415 57.5442C162.735 57.1532 162.735 56.5937 162.415 56.2074C162.095 55.8201 161.543 55.7123 161.096 55.9493L159.771 56.6773C159.378 56.1436 159.004 55.5935 158.66 55.0263L153.016 45.767C151.617 43.323 149.11 41.7089 146.286 41.4339C145.89 41.4007 145.511 41.606 145.322 41.9545C145.133 42.3038 145.171 42.7298 145.418 43.0377L157.62 57.8169L156.874 58.2222C156.406 58.4694 155.829 58.3622 155.486 57.9641C154.95 57.3304 154.194 56.9171 153.366 56.8043C152.538 56.6923 151.695 56.8874 150.999 57.3545L140.213 64.7703L113.298 32.0754C112.276 30.8375 110.8 30.0562 109.192 29.9035C107.584 29.7505 105.977 30.2394 104.724 31.2609C103.169 32.5414 102.062 34.2793 101.567 36.2218C101.07 38.1637 101.211 40.2083 101.968 42.0574L110.222 62.5073C110.987 64.4241 112.039 66.2149 113.342 67.8178L122.17 78.5142L98.8332 102.9L89.0145 90.9978C87.6671 89.6345 85.7195 89.0323 83.8211 89.3919C81.9237 89.7514 80.3248 91.0262 79.558 92.7895L78.535 95.0707L78.5352 95.0714C77.9693 96.3338 77.7658 97.7248 77.9471 99.0906C78.1282 100.456 78.6882 101.742 79.5628 102.806L83.9476 108.127C85.4601 109.983 87.5153 111.328 89.8322 111.98L89.0982 112.6L82.498 117.901C81.3628 118.791 81.1352 120.411 81.9831 121.564C82.4127 122.119 83.0515 122.475 83.7533 122.552C84.4561 122.63 85.1613 122.421 85.7091 121.974C85.7091 121.974 92.7994 116.21 93.0277 116.033L93.027 116.033C93.2327 118.355 94.1335 120.557 95.6144 122.358L100.065 127.767L100.064 127.766C100.941 128.831 102.1 129.631 103.411 130.077C104.723 130.523 106.136 130.598 107.492 130.292L109.99 129.743C111.868 129.335 113.428 128.032 114.154 126.262C114.882 124.492 114.682 122.485 113.622 120.903L113.365 120.569L103.837 108.993L132.455 90.969L141.283 101.665C142.6 103.275 144.158 104.675 145.9 105.82L164.398 117.951C166.078 119.052 168.074 119.588 170.09 119.479C172.107 119.371 174.04 118.623 175.607 117.347C176.862 116.326 177.66 114.855 177.827 113.256C177.993 111.657 177.513 110.063 176.493 108.823L176.493 108.823Z" fill="white"/>
<path d="M92.1836 163.37H95.1133C95.0195 164.488 94.707 165.484 94.1758 166.359C93.6445 167.226 92.8984 167.909 91.9375 168.409C90.9766 168.909 89.8086 169.159 88.4336 169.159C87.3789 169.159 86.4297 168.972 85.5859 168.597C84.7422 168.214 84.0195 167.675 83.418 166.98C82.8164 166.277 82.3555 165.429 82.0352 164.437C81.7227 163.445 81.5664 162.335 81.5664 161.109V159.691C81.5664 158.464 81.7266 157.355 82.0469 156.363C82.375 155.37 82.8438 154.523 83.4531 153.82C84.0625 153.109 84.793 152.566 85.6445 152.191C86.5039 151.816 87.4688 151.628 88.5391 151.628C89.8984 151.628 91.0469 151.878 91.9844 152.378C92.9219 152.878 93.6484 153.57 94.1641 154.452C94.6875 155.335 95.0078 156.347 95.125 157.488H92.1953C92.1172 156.753 91.9453 156.124 91.6797 155.601C91.4219 155.077 91.0391 154.679 90.5312 154.406C90.0234 154.124 89.3594 153.984 88.5391 153.984C87.8672 153.984 87.2812 154.109 86.7812 154.359C86.2812 154.609 85.8633 154.976 85.5273 155.46C85.1914 155.945 84.9375 156.542 84.7656 157.253C84.6016 157.956 84.5195 158.761 84.5195 159.667V161.109C84.5195 161.968 84.5938 162.749 84.7422 163.452C84.8984 164.148 85.1328 164.745 85.4453 165.245C85.7656 165.745 86.1719 166.132 86.6641 166.406C87.1562 166.679 87.7461 166.816 88.4336 166.816C89.2695 166.816 89.9453 166.683 90.4609 166.417C90.9844 166.152 91.3789 165.765 91.6445 165.257C91.918 164.741 92.0977 164.113 92.1836 163.37ZM100.34 158.683V173.8H97.5156V156.245H100.117L100.34 158.683ZM108.602 162.468V162.714C108.602 163.636 108.492 164.491 108.273 165.281C108.062 166.062 107.746 166.745 107.324 167.331C106.91 167.909 106.398 168.359 105.789 168.679C105.18 168.999 104.477 169.159 103.68 169.159C102.891 169.159 102.199 169.015 101.605 168.726C101.02 168.429 100.523 168.011 100.117 167.472C99.7109 166.933 99.3828 166.3 99.1328 165.573C98.8906 164.839 98.7188 164.034 98.6172 163.159V162.21C98.7188 161.281 98.8906 160.437 99.1328 159.679C99.3828 158.921 99.7109 158.269 100.117 157.722C100.523 157.175 101.02 156.753 101.605 156.456C102.191 156.159 102.875 156.011 103.656 156.011C104.453 156.011 105.16 156.167 105.777 156.48C106.395 156.784 106.914 157.222 107.336 157.792C107.758 158.355 108.074 159.034 108.285 159.831C108.496 160.62 108.602 161.499 108.602 162.468ZM105.777 162.714V162.468C105.777 161.882 105.723 161.339 105.613 160.839C105.504 160.331 105.332 159.886 105.098 159.503C104.863 159.12 104.562 158.823 104.195 158.613C103.836 158.394 103.402 158.284 102.895 158.284C102.395 158.284 101.965 158.37 101.605 158.542C101.246 158.706 100.945 158.937 100.703 159.234C100.461 159.531 100.273 159.878 100.141 160.277C100.008 160.667 99.9141 161.093 99.8594 161.554V163.827C99.9531 164.39 100.113 164.906 100.34 165.374C100.566 165.843 100.887 166.218 101.301 166.499C101.723 166.773 102.262 166.909 102.918 166.909C103.426 166.909 103.859 166.8 104.219 166.581C104.578 166.363 104.871 166.062 105.098 165.679C105.332 165.288 105.504 164.839 105.613 164.331C105.723 163.823 105.777 163.284 105.777 162.714ZM116.594 169.159C115.656 169.159 114.809 169.007 114.051 168.702C113.301 168.39 112.66 167.956 112.129 167.402C111.605 166.847 111.203 166.195 110.922 165.445C110.641 164.695 110.5 163.886 110.5 163.019V162.55C110.5 161.558 110.645 160.659 110.934 159.855C111.223 159.05 111.625 158.363 112.141 157.792C112.656 157.214 113.266 156.773 113.969 156.468C114.672 156.163 115.434 156.011 116.254 156.011C117.16 156.011 117.953 156.163 118.633 156.468C119.312 156.773 119.875 157.202 120.32 157.757C120.773 158.304 121.109 158.956 121.328 159.714C121.555 160.472 121.668 161.308 121.668 162.222V163.429H111.871V161.402H118.879V161.179C118.863 160.671 118.762 160.195 118.574 159.749C118.395 159.304 118.117 158.945 117.742 158.671C117.367 158.398 116.867 158.261 116.242 158.261C115.773 158.261 115.355 158.363 114.988 158.566C114.629 158.761 114.328 159.046 114.086 159.421C113.844 159.796 113.656 160.249 113.523 160.781C113.398 161.304 113.336 161.894 113.336 162.55V163.019C113.336 163.573 113.41 164.089 113.559 164.566C113.715 165.034 113.941 165.445 114.238 165.796C114.535 166.148 114.895 166.425 115.316 166.628C115.738 166.823 116.219 166.921 116.758 166.921C117.438 166.921 118.043 166.784 118.574 166.511C119.105 166.238 119.566 165.851 119.957 165.351L121.445 166.792C121.172 167.191 120.816 167.573 120.379 167.941C119.941 168.3 119.406 168.593 118.773 168.82C118.148 169.046 117.422 169.159 116.594 169.159ZM126.168 156.245H128.992L128.852 160.71C128.812 162.007 128.664 163.12 128.406 164.05C128.148 164.98 127.812 165.765 127.398 166.406C126.984 167.038 126.516 167.558 125.992 167.964C125.477 168.37 124.934 168.691 124.363 168.925H123.531V166.698L123.93 166.675C124.266 166.316 124.555 165.956 124.797 165.597C125.047 165.23 125.258 164.827 125.43 164.39C125.602 163.945 125.734 163.425 125.828 162.831C125.93 162.238 125.996 161.531 126.027 160.71L126.168 156.245ZM126.918 156.245H134.957V168.925H132.145V158.636H126.918V156.245ZM122.887 166.675H136.691V172.698H133.867V168.925H125.746V172.698H122.875L122.887 166.675ZM147.297 161.542V163.769H140.734V161.542H147.297ZM141.555 156.245V168.925H138.73V156.245H141.555ZM149.336 156.245V168.925H146.512V156.245H149.336ZM157.938 169.159C157 169.159 156.152 169.007 155.395 168.702C154.645 168.39 154.004 167.956 153.473 167.402C152.949 166.847 152.547 166.195 152.266 165.445C151.984 164.695 151.844 163.886 151.844 163.019V162.55C151.844 161.558 151.988 160.659 152.277 159.855C152.566 159.05 152.969 158.363 153.484 157.792C154 157.214 154.609 156.773 155.312 156.468C156.016 156.163 156.777 156.011 157.598 156.011C158.504 156.011 159.297 156.163 159.977 156.468C160.656 156.773 161.219 157.202 161.664 157.757C162.117 158.304 162.453 158.956 162.672 159.714C162.898 160.472 163.012 161.308 163.012 162.222V163.429H153.215V161.402H160.223V161.179C160.207 160.671 160.105 160.195 159.918 159.749C159.738 159.304 159.461 158.945 159.086 158.671C158.711 158.398 158.211 158.261 157.586 158.261C157.117 158.261 156.699 158.363 156.332 158.566C155.973 158.761 155.672 159.046 155.43 159.421C155.188 159.796 155 160.249 154.867 160.781C154.742 161.304 154.68 161.894 154.68 162.55V163.019C154.68 163.573 154.754 164.089 154.902 164.566C155.059 165.034 155.285 165.445 155.582 165.796C155.879 166.148 156.238 166.425 156.66 166.628C157.082 166.823 157.562 166.921 158.102 166.921C158.781 166.921 159.387 166.784 159.918 166.511C160.449 166.238 160.91 165.851 161.301 165.351L162.789 166.792C162.516 167.191 162.16 167.573 161.723 167.941C161.285 168.3 160.75 168.593 160.117 168.82C159.492 169.046 158.766 169.159 157.938 169.159ZM170.805 169.159C169.867 169.159 169.02 169.007 168.262 168.702C167.512 168.39 166.871 167.956 166.34 167.402C165.816 166.847 165.414 166.195 165.133 165.445C164.852 164.695 164.711 163.886 164.711 163.019V162.55C164.711 161.558 164.855 160.659 165.145 159.855C165.434 159.05 165.836 158.363 166.352 157.792C166.867 157.214 167.477 156.773 168.18 156.468C168.883 156.163 169.645 156.011 170.465 156.011C171.371 156.011 172.164 156.163 172.844 156.468C173.523 156.773 174.086 157.202 174.531 157.757C174.984 158.304 175.32 158.956 175.539 159.714C175.766 160.472 175.879 161.308 175.879 162.222V163.429H166.082V161.402H173.09V161.179C173.074 160.671 172.973 160.195 172.785 159.749C172.605 159.304 172.328 158.945 171.953 158.671C171.578 158.398 171.078 158.261 170.453 158.261C169.984 158.261 169.566 158.363 169.199 158.566C168.84 158.761 168.539 159.046 168.297 159.421C168.055 159.796 167.867 160.249 167.734 160.781C167.609 161.304 167.547 161.894 167.547 162.55V163.019C167.547 163.573 167.621 164.089 167.77 164.566C167.926 165.034 168.152 165.445 168.449 165.796C168.746 166.148 169.105 166.425 169.527 166.628C169.949 166.823 170.43 166.921 170.969 166.921C171.648 166.921 172.254 166.784 172.785 166.511C173.316 166.238 173.777 165.851 174.168 165.351L175.656 166.792C175.383 167.191 175.027 167.573 174.59 167.941C174.152 168.3 173.617 168.593 172.984 168.82C172.359 169.046 171.633 169.159 170.805 169.159ZM29.7578 187.245V189.495H23.5V187.245H29.7578ZM24.168 187.245V199.925H21.3438V187.245H24.168ZM31.9727 187.245V199.925H29.1367V187.245H31.9727ZM37.7969 189.683V204.8H34.9727V187.245H37.5742L37.7969 189.683ZM46.0586 193.468V193.714C46.0586 194.636 45.9492 195.491 45.7305 196.281C45.5195 197.062 45.2031 197.745 44.7812 198.331C44.3672 198.909 43.8555 199.359 43.2461 199.679C42.6367 199.999 41.9336 200.159 41.1367 200.159C40.3477 200.159 39.6562 200.015 39.0625 199.726C38.4766 199.429 37.9805 199.011 37.5742 198.472C37.168 197.933 36.8398 197.3 36.5898 196.573C36.3477 195.839 36.1758 195.034 36.0742 194.159V193.21C36.1758 192.281 36.3477 191.437 36.5898 190.679C36.8398 189.921 37.168 189.269 37.5742 188.722C37.9805 188.175 38.4766 187.753 39.0625 187.456C39.6484 187.159 40.332 187.011 41.1133 187.011C41.9102 187.011 42.6172 187.167 43.2344 187.48C43.8516 187.784 44.3711 188.222 44.793 188.792C45.2148 189.355 45.5312 190.034 45.7422 190.831C45.9531 191.62 46.0586 192.499 46.0586 193.468ZM43.2344 193.714V193.468C43.2344 192.882 43.1797 192.339 43.0703 191.839C42.9609 191.331 42.7891 190.886 42.5547 190.503C42.3203 190.12 42.0195 189.823 41.6523 189.613C41.293 189.394 40.8594 189.284 40.3516 189.284C39.8516 189.284 39.4219 189.37 39.0625 189.542C38.7031 189.706 38.4023 189.937 38.1602 190.234C37.918 190.531 37.7305 190.878 37.5977 191.277C37.4648 191.667 37.3711 192.093 37.3164 192.554V194.827C37.4102 195.39 37.5703 195.906 37.7969 196.374C38.0234 196.843 38.3438 197.218 38.7578 197.499C39.1797 197.773 39.7188 197.909 40.375 197.909C40.8828 197.909 41.3164 197.8 41.6758 197.581C42.0352 197.363 42.3281 197.062 42.5547 196.679C42.7891 196.288 42.9609 195.839 43.0703 195.331C43.1797 194.823 43.2344 194.284 43.2344 193.714ZM47.9219 193.726V193.456C47.9219 192.542 48.0547 191.695 48.3203 190.913C48.5859 190.124 48.9688 189.441 49.4688 188.863C49.9766 188.277 50.5938 187.823 51.3203 187.503C52.0547 187.175 52.8828 187.011 53.8047 187.011C54.7344 187.011 55.5625 187.175 56.2891 187.503C57.0234 187.823 57.6445 188.277 58.1523 188.863C58.6602 189.441 59.0469 190.124 59.3125 190.913C59.5781 191.695 59.7109 192.542 59.7109 193.456V193.726C59.7109 194.64 59.5781 195.488 59.3125 196.269C59.0469 197.05 58.6602 197.734 58.1523 198.32C57.6445 198.898 57.0273 199.351 56.3008 199.679C55.5742 199.999 54.75 200.159 53.8281 200.159C52.8984 200.159 52.0664 199.999 51.332 199.679C50.6055 199.351 49.9883 198.898 49.4805 198.32C48.9727 197.734 48.5859 197.05 48.3203 196.269C48.0547 195.488 47.9219 194.64 47.9219 193.726ZM50.7461 193.456V193.726C50.7461 194.296 50.8047 194.835 50.9219 195.343C51.0391 195.851 51.2227 196.296 51.4727 196.679C51.7227 197.062 52.043 197.363 52.4336 197.581C52.8242 197.8 53.2891 197.909 53.8281 197.909C54.3516 197.909 54.8047 197.8 55.1875 197.581C55.5781 197.363 55.8984 197.062 56.1484 196.679C56.3984 196.296 56.582 195.851 56.6992 195.343C56.8242 194.835 56.8867 194.296 56.8867 193.726V193.456C56.8867 192.894 56.8242 192.363 56.6992 191.863C56.582 191.355 56.3945 190.906 56.1367 190.515C55.8867 190.124 55.5664 189.82 55.1758 189.601C54.793 189.374 54.3359 189.261 53.8047 189.261C53.2734 189.261 52.8125 189.374 52.4219 189.601C52.0391 189.82 51.7227 190.124 51.4727 190.515C51.2227 190.906 51.0391 191.355 50.9219 191.863C50.8047 192.363 50.7461 192.894 50.7461 193.456ZM77.1367 193.738V193.984C77.1367 194.882 77.0352 195.71 76.832 196.468C76.6367 197.218 76.3438 197.87 75.9531 198.425C75.5625 198.98 75.0781 199.409 74.5 199.714C73.9297 200.019 73.2656 200.171 72.5078 200.171C71.8438 200.171 71.2656 200.058 70.7734 199.831C70.2812 199.605 69.8672 199.288 69.5312 198.882C69.1953 198.468 68.9258 197.984 68.7227 197.429C68.5195 196.866 68.3711 196.249 68.2773 195.577V191.909C68.3711 191.191 68.5156 190.534 68.7109 189.941C68.9141 189.339 69.1836 188.82 69.5195 188.382C69.8633 187.945 70.2773 187.609 70.7617 187.374C71.2461 187.132 71.8203 187.011 72.4844 187.011C73.0938 187.011 73.6445 187.12 74.1367 187.339C74.6289 187.55 75.0625 187.855 75.4375 188.253C75.8125 188.644 76.125 189.116 76.375 189.671C76.625 190.218 76.8125 190.835 76.9375 191.523C77.0703 192.21 77.1367 192.948 77.1367 193.738ZM74.3125 193.984V193.738C74.3125 193.245 74.2812 192.777 74.2188 192.331C74.1562 191.886 74.0586 191.48 73.9258 191.113C73.8008 190.738 73.6367 190.413 73.4336 190.14C73.2305 189.859 72.9844 189.644 72.6953 189.495C72.4141 189.339 72.0859 189.261 71.7109 189.261C71.2031 189.261 70.7812 189.347 70.4453 189.519C70.1172 189.683 69.8672 189.917 69.6953 190.222C69.5312 190.519 69.4258 190.863 69.3789 191.253V196.245C69.4336 196.573 69.5469 196.863 69.7188 197.113C69.8984 197.363 70.1523 197.562 70.4805 197.71C70.8086 197.851 71.2266 197.921 71.7344 197.921C72.2031 197.921 72.5977 197.823 72.918 197.628C73.2461 197.425 73.5117 197.144 73.7148 196.784C73.9258 196.425 74.0781 196.007 74.1719 195.531C74.2656 195.054 74.3125 194.538 74.3125 193.984ZM61.5977 193.984V193.738C61.5977 192.948 61.6602 192.21 61.7852 191.523C61.9102 190.835 62.0977 190.218 62.3477 189.671C62.6055 189.116 62.9219 188.644 63.2969 188.253C63.6719 187.855 64.1055 187.55 64.5977 187.339C65.0898 187.12 65.6406 187.011 66.25 187.011C66.9062 187.011 67.4727 187.132 67.9492 187.374C68.4258 187.609 68.8281 187.945 69.1562 188.382C69.4922 188.82 69.7578 189.339 69.9531 189.941C70.1562 190.534 70.3047 191.191 70.3984 191.909V195.437C70.3125 196.124 70.168 196.757 69.9648 197.335C69.7617 197.913 69.4961 198.413 69.168 198.835C68.8398 199.257 68.4336 199.585 67.9492 199.82C67.4648 200.054 66.8906 200.171 66.2266 200.171C65.4766 200.171 64.8125 200.019 64.2344 199.714C63.6562 199.409 63.1719 198.98 62.7812 198.425C62.3906 197.87 62.0938 197.218 61.8906 196.468C61.6953 195.71 61.5977 194.882 61.5977 193.984ZM64.4219 193.738V193.984C64.4219 194.538 64.4648 195.054 64.5508 195.531C64.6445 196.007 64.7891 196.425 64.9844 196.784C65.1797 197.136 65.4375 197.413 65.7578 197.616C66.0781 197.82 66.4727 197.921 66.9414 197.921C67.457 197.921 67.8789 197.843 68.207 197.687C68.5352 197.531 68.7852 197.316 68.957 197.042C69.1367 196.769 69.2539 196.456 69.3086 196.105V191.253C69.2617 190.863 69.1523 190.519 68.9805 190.222C68.8086 189.917 68.5586 189.683 68.2305 189.519C67.9023 189.347 67.4805 189.261 66.9648 189.261C66.4961 189.261 66.0977 189.378 65.7695 189.613C65.4492 189.847 65.1875 190.171 64.9844 190.585C64.7891 190.991 64.6445 191.468 64.5508 192.015C64.4648 192.554 64.4219 193.128 64.4219 193.738ZM67.8906 204.8V181.925H70.7266V204.8H67.8906ZM85.1523 200.159C84.2148 200.159 83.3672 200.007 82.6094 199.702C81.8594 199.39 81.2188 198.956 80.6875 198.402C80.1641 197.847 79.7617 197.195 79.4805 196.445C79.1992 195.695 79.0586 194.886 79.0586 194.019V193.55C79.0586 192.558 79.2031 191.659 79.4922 190.855C79.7812 190.05 80.1836 189.363 80.6992 188.792C81.2148 188.214 81.8242 187.773 82.5273 187.468C83.2305 187.163 83.9922 187.011 84.8125 187.011C85.7188 187.011 86.5117 187.163 87.1914 187.468C87.8711 187.773 88.4336 188.202 88.8789 188.757C89.332 189.304 89.668 189.956 89.8867 190.714C90.1133 191.472 90.2266 192.308 90.2266 193.222V194.429H80.4297V192.402H87.4375V192.179C87.4219 191.671 87.3203 191.195 87.1328 190.749C86.9531 190.304 86.6758 189.945 86.3008 189.671C85.9258 189.398 85.4258 189.261 84.8008 189.261C84.332 189.261 83.9141 189.363 83.5469 189.566C83.1875 189.761 82.8867 190.046 82.6445 190.421C82.4023 190.796 82.2148 191.249 82.082 191.781C81.957 192.304 81.8945 192.894 81.8945 193.55V194.019C81.8945 194.573 81.9688 195.089 82.1172 195.566C82.2734 196.034 82.5 196.445 82.7969 196.796C83.0938 197.148 83.4531 197.425 83.875 197.628C84.2969 197.823 84.7773 197.921 85.3164 197.921C85.9961 197.921 86.6016 197.784 87.1328 197.511C87.6641 197.238 88.125 196.851 88.5156 196.351L90.0039 197.792C89.7305 198.191 89.375 198.573 88.9375 198.941C88.5 199.3 87.9648 199.593 87.332 199.82C86.707 200.046 85.9805 200.159 85.1523 200.159ZM97.6094 197.909C98.0703 197.909 98.4844 197.82 98.8516 197.64C99.2266 197.452 99.5273 197.195 99.7539 196.866C99.9883 196.538 100.117 196.159 100.141 195.73H102.801C102.785 196.55 102.543 197.296 102.074 197.968C101.605 198.64 100.984 199.175 100.211 199.573C99.4375 199.964 98.582 200.159 97.6445 200.159C96.6758 200.159 95.832 199.995 95.1133 199.667C94.3945 199.331 93.7969 198.87 93.3203 198.284C92.8438 197.698 92.4844 197.023 92.2422 196.257C92.0078 195.491 91.8906 194.671 91.8906 193.796V193.386C91.8906 192.511 92.0078 191.691 92.2422 190.925C92.4844 190.152 92.8438 189.472 93.3203 188.886C93.7969 188.3 94.3945 187.843 95.1133 187.515C95.832 187.179 96.6719 187.011 97.6328 187.011C98.6484 187.011 99.5391 187.214 100.305 187.62C101.07 188.019 101.672 188.577 102.109 189.296C102.555 190.007 102.785 190.835 102.801 191.781H100.141C100.117 191.312 100 190.89 99.7891 190.515C99.5859 190.132 99.2969 189.827 98.9219 189.601C98.5547 189.374 98.1133 189.261 97.5977 189.261C97.0273 189.261 96.5547 189.378 96.1797 189.613C95.8047 189.839 95.5117 190.152 95.3008 190.55C95.0898 190.941 94.9375 191.382 94.8438 191.874C94.7578 192.359 94.7148 192.863 94.7148 193.386V193.796C94.7148 194.32 94.7578 194.827 94.8438 195.32C94.9297 195.812 95.0781 196.253 95.2891 196.644C95.5078 197.027 95.8047 197.335 96.1797 197.57C96.5547 197.796 97.0312 197.909 97.6094 197.909ZM110.148 197.909C110.609 197.909 111.023 197.82 111.391 197.64C111.766 197.452 112.066 197.195 112.293 196.866C112.527 196.538 112.656 196.159 112.68 195.73H115.34C115.324 196.55 115.082 197.296 114.613 197.968C114.145 198.64 113.523 199.175 112.75 199.573C111.977 199.964 111.121 200.159 110.184 200.159C109.215 200.159 108.371 199.995 107.652 199.667C106.934 199.331 106.336 198.87 105.859 198.284C105.383 197.698 105.023 197.023 104.781 196.257C104.547 195.491 104.43 194.671 104.43 193.796V193.386C104.43 192.511 104.547 191.691 104.781 190.925C105.023 190.152 105.383 189.472 105.859 188.886C106.336 188.3 106.934 187.843 107.652 187.515C108.371 187.179 109.211 187.011 110.172 187.011C111.188 187.011 112.078 187.214 112.844 187.62C113.609 188.019 114.211 188.577 114.648 189.296C115.094 190.007 115.324 190.835 115.34 191.781H112.68C112.656 191.312 112.539 190.89 112.328 190.515C112.125 190.132 111.836 189.827 111.461 189.601C111.094 189.374 110.652 189.261 110.137 189.261C109.566 189.261 109.094 189.378 108.719 189.613C108.344 189.839 108.051 190.152 107.84 190.55C107.629 190.941 107.477 191.382 107.383 191.874C107.297 192.359 107.254 192.863 107.254 193.386V193.796C107.254 194.32 107.297 194.827 107.383 195.32C107.469 195.812 107.617 196.253 107.828 196.644C108.047 197.027 108.344 197.335 108.719 197.57C109.094 197.796 109.57 197.909 110.148 197.909ZM120.426 195.8L125.406 187.245H128.23V199.925H125.406V191.359L120.426 199.925H117.602V187.245H120.426V195.8ZM130.68 193.726V193.456C130.68 192.542 130.812 191.695 131.078 190.913C131.344 190.124 131.727 189.441 132.227 188.863C132.734 188.277 133.352 187.823 134.078 187.503C134.812 187.175 135.641 187.011 136.562 187.011C137.492 187.011 138.32 187.175 139.047 187.503C139.781 187.823 140.402 188.277 140.91 188.863C141.418 189.441 141.805 190.124 142.07 190.913C142.336 191.695 142.469 192.542 142.469 193.456V193.726C142.469 194.64 142.336 195.488 142.07 196.269C141.805 197.05 141.418 197.734 140.91 198.32C140.402 198.898 139.785 199.351 139.059 199.679C138.332 199.999 137.508 200.159 136.586 200.159C135.656 200.159 134.824 199.999 134.09 199.679C133.363 199.351 132.746 198.898 132.238 198.32C131.73 197.734 131.344 197.05 131.078 196.269C130.812 195.488 130.68 194.64 130.68 193.726ZM133.504 193.456V193.726C133.504 194.296 133.562 194.835 133.68 195.343C133.797 195.851 133.98 196.296 134.23 196.679C134.48 197.062 134.801 197.363 135.191 197.581C135.582 197.8 136.047 197.909 136.586 197.909C137.109 197.909 137.562 197.8 137.945 197.581C138.336 197.363 138.656 197.062 138.906 196.679C139.156 196.296 139.34 195.851 139.457 195.343C139.582 194.835 139.645 194.296 139.645 193.726V193.456C139.645 192.894 139.582 192.363 139.457 191.863C139.34 191.355 139.152 190.906 138.895 190.515C138.645 190.124 138.324 189.82 137.934 189.601C137.551 189.374 137.094 189.261 136.562 189.261C136.031 189.261 135.57 189.374 135.18 189.601C134.797 189.82 134.48 190.124 134.23 190.515C133.98 190.906 133.797 191.355 133.68 191.863C133.562 192.363 133.504 192.894 133.504 193.456ZM153.496 192.542V194.769H146.934V192.542H153.496ZM147.754 187.245V199.925H144.93V187.245H147.754ZM155.535 187.245V199.925H152.711V187.245H155.535ZM165.695 197.382V191.335C165.695 190.882 165.613 190.491 165.449 190.163C165.285 189.835 165.035 189.581 164.699 189.402C164.371 189.222 163.957 189.132 163.457 189.132C162.996 189.132 162.598 189.21 162.262 189.366C161.926 189.523 161.664 189.734 161.477 189.999C161.289 190.265 161.195 190.566 161.195 190.902H158.383C158.383 190.402 158.504 189.917 158.746 189.448C158.988 188.98 159.34 188.562 159.801 188.195C160.262 187.827 160.812 187.538 161.453 187.327C162.094 187.116 162.812 187.011 163.609 187.011C164.562 187.011 165.406 187.171 166.141 187.491C166.883 187.812 167.465 188.296 167.887 188.945C168.316 189.585 168.531 190.39 168.531 191.359V196.995C168.531 197.573 168.57 198.093 168.648 198.554C168.734 199.007 168.855 199.402 169.012 199.738V199.925H166.117C165.984 199.62 165.879 199.234 165.801 198.765C165.73 198.288 165.695 197.827 165.695 197.382ZM166.105 192.214L166.129 193.96H164.102C163.578 193.96 163.117 194.011 162.719 194.113C162.32 194.206 161.988 194.347 161.723 194.534C161.457 194.722 161.258 194.948 161.125 195.214C160.992 195.48 160.926 195.781 160.926 196.116C160.926 196.452 161.004 196.761 161.16 197.042C161.316 197.316 161.543 197.531 161.84 197.687C162.145 197.843 162.512 197.921 162.941 197.921C163.52 197.921 164.023 197.804 164.453 197.57C164.891 197.327 165.234 197.034 165.484 196.691C165.734 196.339 165.867 196.007 165.883 195.695L166.797 196.948C166.703 197.269 166.543 197.613 166.316 197.98C166.09 198.347 165.793 198.698 165.426 199.034C165.066 199.363 164.633 199.632 164.125 199.843C163.625 200.054 163.047 200.159 162.391 200.159C161.562 200.159 160.824 199.995 160.176 199.667C159.527 199.331 159.02 198.882 158.652 198.32C158.285 197.749 158.102 197.105 158.102 196.386C158.102 195.714 158.227 195.12 158.477 194.605C158.734 194.081 159.109 193.644 159.602 193.292C160.102 192.941 160.711 192.675 161.43 192.495C162.148 192.308 162.969 192.214 163.891 192.214H166.105ZM180.004 187.245V189.495H173.816V187.245H180.004ZM182.219 187.245V199.925H179.395V187.245H182.219ZM173.125 187.245H175.914L175.574 193.515C175.527 194.445 175.434 195.265 175.293 195.976C175.16 196.679 174.98 197.284 174.754 197.792C174.527 198.292 174.25 198.698 173.922 199.011C173.594 199.323 173.211 199.554 172.773 199.702C172.336 199.851 171.844 199.925 171.297 199.925H170.418L170.406 197.605L170.852 197.57C171.141 197.546 171.391 197.472 171.602 197.347C171.812 197.214 171.992 197.027 172.141 196.784C172.297 196.542 172.422 196.23 172.516 195.847C172.617 195.464 172.695 195.011 172.75 194.488C172.812 193.964 172.859 193.355 172.891 192.659L173.125 187.245ZM187.316 191.277H191.055C192.148 191.277 193.078 191.46 193.844 191.827C194.609 192.195 195.191 192.706 195.59 193.363C195.996 194.011 196.199 194.753 196.199 195.589C196.199 196.206 196.086 196.781 195.859 197.312C195.633 197.835 195.297 198.292 194.852 198.683C194.414 199.073 193.875 199.378 193.234 199.597C192.602 199.816 191.875 199.925 191.055 199.925H185.441V187.245H188.277V197.687H191.055C191.617 197.687 192.066 197.589 192.402 197.394C192.738 197.198 192.98 196.945 193.129 196.632C193.285 196.32 193.363 195.988 193.363 195.636C193.363 195.277 193.285 194.937 193.129 194.616C192.98 194.296 192.738 194.034 192.402 193.831C192.066 193.628 191.617 193.527 191.055 193.527H187.316V191.277ZM207.121 192.542V194.769H200.559V192.542H207.121ZM201.379 187.245V199.925H198.555V187.245H201.379ZM209.16 187.245V199.925H206.336V187.245H209.16ZM211.633 193.726V193.456C211.633 192.542 211.766 191.695 212.031 190.913C212.297 190.124 212.68 189.441 213.18 188.863C213.688 188.277 214.305 187.823 215.031 187.503C215.766 187.175 216.594 187.011 217.516 187.011C218.445 187.011 219.273 187.175 220 187.503C220.734 187.823 221.355 188.277 221.863 188.863C222.371 189.441 222.758 190.124 223.023 190.913C223.289 191.695 223.422 192.542 223.422 193.456V193.726C223.422 194.64 223.289 195.488 223.023 196.269C222.758 197.05 222.371 197.734 221.863 198.32C221.355 198.898 220.738 199.351 220.012 199.679C219.285 199.999 218.461 200.159 217.539 200.159C216.609 200.159 215.777 199.999 215.043 199.679C214.316 199.351 213.699 198.898 213.191 198.32C212.684 197.734 212.297 197.05 212.031 196.269C211.766 195.488 211.633 194.64 211.633 193.726ZM214.457 193.456V193.726C214.457 194.296 214.516 194.835 214.633 195.343C214.75 195.851 214.934 196.296 215.184 196.679C215.434 197.062 215.754 197.363 216.145 197.581C216.535 197.8 217 197.909 217.539 197.909C218.062 197.909 218.516 197.8 218.898 197.581C219.289 197.363 219.609 197.062 219.859 196.679C220.109 196.296 220.293 195.851 220.41 195.343C220.535 194.835 220.598 194.296 220.598 193.726V193.456C220.598 192.894 220.535 192.363 220.41 191.863C220.293 191.355 220.105 190.906 219.848 190.515C219.598 190.124 219.277 189.82 218.887 189.601C218.504 189.374 218.047 189.261 217.516 189.261C216.984 189.261 216.523 189.374 216.133 189.601C215.75 189.82 215.434 190.124 215.184 190.515C214.934 190.906 214.75 191.355 214.633 191.863C214.516 192.363 214.457 192.894 214.457 193.456ZM231.379 200.159C230.441 200.159 229.594 200.007 228.836 199.702C228.086 199.39 227.445 198.956 226.914 198.402C226.391 197.847 225.988 197.195 225.707 196.445C225.426 195.695 225.285 194.886 225.285 194.019V193.55C225.285 192.558 225.43 191.659 225.719 190.855C226.008 190.05 226.41 189.363 226.926 188.792C227.441 188.214 228.051 187.773 228.754 187.468C229.457 187.163 230.219 187.011 231.039 187.011C231.945 187.011 232.738 187.163 233.418 187.468C234.098 187.773 234.66 188.202 235.105 188.757C235.559 189.304 235.895 189.956 236.113 190.714C236.34 191.472 236.453 192.308 236.453 193.222V194.429H226.656V192.402H233.664V192.179C233.648 191.671 233.547 191.195 233.359 190.749C233.18 190.304 232.902 189.945 232.527 189.671C232.152 189.398 231.652 189.261 231.027 189.261C230.559 189.261 230.141 189.363 229.773 189.566C229.414 189.761 229.113 190.046 228.871 190.421C228.629 190.796 228.441 191.249 228.309 191.781C228.184 192.304 228.121 192.894 228.121 193.55V194.019C228.121 194.573 228.195 195.089 228.344 195.566C228.5 196.034 228.727 196.445 229.023 196.796C229.32 197.148 229.68 197.425 230.102 197.628C230.523 197.823 231.004 197.921 231.543 197.921C232.223 197.921 232.828 197.784 233.359 197.511C233.891 197.238 234.352 196.851 234.742 196.351L236.23 197.792C235.957 198.191 235.602 198.573 235.164 198.941C234.727 199.3 234.191 199.593 233.559 199.82C232.934 200.046 232.207 200.159 231.379 200.159ZM56.3594 224.726V224.456C56.3594 223.542 56.4922 222.695 56.7578 221.913C57.0234 221.124 57.4062 220.441 57.9062 219.863C58.4141 219.277 59.0312 218.823 59.7578 218.503C60.4922 218.175 61.3203 218.011 62.2422 218.011C63.1719 218.011 64 218.175 64.7266 218.503C65.4609 218.823 66.082 219.277 66.5898 219.863C67.0977 220.441 67.4844 221.124 67.75 221.913C68.0156 222.695 68.1484 223.542 68.1484 224.456V224.726C68.1484 225.64 68.0156 226.488 67.75 227.269C67.4844 228.05 67.0977 228.734 66.5898 229.32C66.082 229.898 65.4648 230.351 64.7383 230.679C64.0117 230.999 63.1875 231.159 62.2656 231.159C61.3359 231.159 60.5039 230.999 59.7695 230.679C59.043 230.351 58.4258 229.898 57.918 229.32C57.4102 228.734 57.0234 228.05 56.7578 227.269C56.4922 226.488 56.3594 225.64 56.3594 224.726ZM59.1836 224.456V224.726C59.1836 225.296 59.2422 225.835 59.3594 226.343C59.4766 226.851 59.6602 227.296 59.9102 227.679C60.1602 228.062 60.4805 228.363 60.8711 228.581C61.2617 228.8 61.7266 228.909 62.2656 228.909C62.7891 228.909 63.2422 228.8 63.625 228.581C64.0156 228.363 64.3359 228.062 64.5859 227.679C64.8359 227.296 65.0195 226.851 65.1367 226.343C65.2617 225.835 65.3242 225.296 65.3242 224.726V224.456C65.3242 223.894 65.2617 223.363 65.1367 222.863C65.0195 222.355 64.832 221.906 64.5742 221.515C64.3242 221.124 64.0039 220.82 63.6133 220.601C63.2305 220.374 62.7734 220.261 62.2422 220.261C61.7109 220.261 61.25 220.374 60.8594 220.601C60.4766 220.82 60.1602 221.124 59.9102 221.515C59.6602 221.906 59.4766 222.355 59.3594 222.863C59.2422 223.363 59.1836 223.894 59.1836 224.456ZM78.4727 212.691H80.7578C80.7578 213.386 80.6602 213.96 80.4648 214.413C80.2773 214.859 79.9961 215.226 79.6211 215.515C79.2539 215.796 78.7969 216.023 78.25 216.195C77.7109 216.366 77.0859 216.523 76.375 216.663C75.7188 216.804 75.125 217.027 74.5938 217.331C74.0703 217.628 73.6289 218.046 73.2695 218.585C72.918 219.116 72.6641 219.8 72.5078 220.636C72.3516 221.472 72.3047 222.491 72.3672 223.695V224.491L70.1289 224.691V223.894C70.1289 222.402 70.2656 221.101 70.5391 219.991C70.8125 218.882 71.1992 217.948 71.6992 217.191C72.207 216.425 72.8086 215.816 73.5039 215.363C74.207 214.909 74.9883 214.597 75.8477 214.425C76.4336 214.3 76.9219 214.175 77.3125 214.05C77.7031 213.917 77.9922 213.749 78.1797 213.546C78.375 213.335 78.4727 213.05 78.4727 212.691ZM76.4922 218.96C77.3359 218.96 78.0859 219.109 78.7422 219.406C79.3984 219.695 79.9531 220.101 80.4062 220.624C80.8594 221.148 81.2031 221.765 81.4375 222.476C81.6797 223.187 81.8008 223.96 81.8008 224.796V225.054C81.8008 225.929 81.6719 226.738 81.4141 227.48C81.1562 228.222 80.7773 228.87 80.2773 229.425C79.7773 229.972 79.1641 230.402 78.4375 230.714C77.7188 231.019 76.8945 231.171 75.9648 231.171C75.043 231.171 74.2188 231.011 73.4922 230.691C72.7656 230.37 72.1523 229.925 71.6523 229.355C71.1523 228.777 70.7734 228.101 70.5156 227.327C70.2578 226.554 70.1289 225.71 70.1289 224.796V224.538C70.1211 224.374 70.1641 224.214 70.2578 224.058C70.3594 223.902 70.4805 223.734 70.6211 223.554C70.7617 223.374 70.8867 223.167 70.9961 222.933C71.3867 222.144 71.8477 221.452 72.3789 220.859C72.9102 220.265 73.5156 219.8 74.1953 219.464C74.8828 219.128 75.6484 218.96 76.4922 218.96ZM75.9414 221.198C75.2383 221.198 74.6641 221.366 74.2188 221.702C73.7812 222.031 73.457 222.468 73.2461 223.015C73.043 223.562 72.9414 224.156 72.9414 224.796V225.054C72.9414 225.577 73 226.073 73.1172 226.542C73.2344 227.011 73.4102 227.425 73.6445 227.784C73.8867 228.136 74.1992 228.413 74.582 228.616C74.9727 228.82 75.4336 228.921 75.9648 228.921C76.5039 228.921 76.9609 228.82 77.3359 228.616C77.7188 228.413 78.0273 228.136 78.2617 227.784C78.5039 227.425 78.6797 227.011 78.7891 226.542C78.9062 226.073 78.9648 225.577 78.9648 225.054V224.796C78.9648 224.312 78.9062 223.855 78.7891 223.425C78.6797 222.995 78.5039 222.616 78.2617 222.288C78.0195 221.952 77.707 221.687 77.3242 221.491C76.9414 221.296 76.4805 221.198 75.9414 221.198ZM86.6406 220.683V235.8H83.8164V218.245H86.418L86.6406 220.683ZM94.9023 224.468V224.714C94.9023 225.636 94.793 226.491 94.5742 227.281C94.3633 228.062 94.0469 228.745 93.625 229.331C93.2109 229.909 92.6992 230.359 92.0898 230.679C91.4805 230.999 90.7773 231.159 89.9805 231.159C89.1914 231.159 88.5 231.015 87.9062 230.726C87.3203 230.429 86.8242 230.011 86.418 229.472C86.0117 228.933 85.6836 228.3 85.4336 227.573C85.1914 226.839 85.0195 226.034 84.918 225.159V224.21C85.0195 223.281 85.1914 222.437 85.4336 221.679C85.6836 220.921 86.0117 220.269 86.418 219.722C86.8242 219.175 87.3203 218.753 87.9062 218.456C88.4922 218.159 89.1758 218.011 89.957 218.011C90.7539 218.011 91.4609 218.167 92.0781 218.48C92.6953 218.784 93.2148 219.222 93.6367 219.792C94.0586 220.355 94.375 221.034 94.5859 221.831C94.7969 222.62 94.9023 223.499 94.9023 224.468ZM92.0781 224.714V224.468C92.0781 223.882 92.0234 223.339 91.9141 222.839C91.8047 222.331 91.6328 221.886 91.3984 221.503C91.1641 221.12 90.8633 220.823 90.4961 220.613C90.1367 220.394 89.7031 220.284 89.1953 220.284C88.6953 220.284 88.2656 220.37 87.9062 220.542C87.5469 220.706 87.2461 220.937 87.0039 221.234C86.7617 221.531 86.5742 221.878 86.4414 222.277C86.3086 222.667 86.2148 223.093 86.1602 223.554V225.827C86.2539 226.39 86.4141 226.906 86.6406 227.374C86.8672 227.843 87.1875 228.218 87.6016 228.499C88.0234 228.773 88.5625 228.909 89.2188 228.909C89.7266 228.909 90.1602 228.8 90.5195 228.581C90.8789 228.363 91.1719 228.062 91.3984 227.679C91.6328 227.288 91.8047 226.839 91.9141 226.331C92.0234 225.823 92.0781 225.284 92.0781 224.714ZM104.453 228.382V222.335C104.453 221.882 104.371 221.491 104.207 221.163C104.043 220.835 103.793 220.581 103.457 220.402C103.129 220.222 102.715 220.132 102.215 220.132C101.754 220.132 101.355 220.21 101.02 220.366C100.684 220.523 100.422 220.734 100.234 220.999C100.047 221.265 99.9531 221.566 99.9531 221.902H97.1406C97.1406 221.402 97.2617 220.917 97.5039 220.448C97.7461 219.98 98.0977 219.562 98.5586 219.195C99.0195 218.827 99.5703 218.538 100.211 218.327C100.852 218.116 101.57 218.011 102.367 218.011C103.32 218.011 104.164 218.171 104.898 218.491C105.641 218.812 106.223 219.296 106.645 219.945C107.074 220.585 107.289 221.39 107.289 222.359V227.995C107.289 228.573 107.328 229.093 107.406 229.554C107.492 230.007 107.613 230.402 107.77 230.738V230.925H104.875C104.742 230.62 104.637 230.234 104.559 229.765C104.488 229.288 104.453 228.827 104.453 228.382ZM104.863 223.214L104.887 224.96H102.859C102.336 224.96 101.875 225.011 101.477 225.113C101.078 225.206 100.746 225.347 100.48 225.534C100.215 225.722 100.016 225.948 99.8828 226.214C99.75 226.48 99.6836 226.781 99.6836 227.116C99.6836 227.452 99.7617 227.761 99.918 228.042C100.074 228.316 100.301 228.531 100.598 228.687C100.902 228.843 101.27 228.921 101.699 228.921C102.277 228.921 102.781 228.804 103.211 228.57C103.648 228.327 103.992 228.034 104.242 227.691C104.492 227.339 104.625 227.007 104.641 226.695L105.555 227.948C105.461 228.269 105.301 228.613 105.074 228.98C104.848 229.347 104.551 229.698 104.184 230.034C103.824 230.363 103.391 230.632 102.883 230.843C102.383 231.054 101.805 231.159 101.148 231.159C100.32 231.159 99.582 230.995 98.9336 230.667C98.2852 230.331 97.7773 229.882 97.4102 229.32C97.043 228.749 96.8594 228.105 96.8594 227.386C96.8594 226.714 96.9844 226.12 97.2344 225.605C97.4922 225.081 97.8672 224.644 98.3594 224.292C98.8594 223.941 99.4688 223.675 100.188 223.495C100.906 223.308 101.727 223.214 102.648 223.214H104.863ZM115.492 224.866H113.055V223.437H115.023C115.523 223.437 115.922 223.37 116.219 223.238C116.523 223.105 116.738 222.921 116.863 222.687C116.996 222.445 117.062 222.163 117.062 221.843C117.062 221.562 116.996 221.296 116.863 221.046C116.738 220.788 116.523 220.577 116.219 220.413C115.914 220.249 115.5 220.167 114.977 220.167C114.547 220.167 114.16 220.238 113.816 220.378C113.48 220.519 113.215 220.714 113.02 220.964C112.824 221.214 112.727 221.503 112.727 221.831H109.902C109.902 221.042 110.125 220.363 110.57 219.792C111.023 219.222 111.629 218.784 112.387 218.48C113.145 218.175 113.977 218.023 114.883 218.023C115.656 218.023 116.352 218.105 116.969 218.269C117.586 218.425 118.109 218.659 118.539 218.972C118.977 219.277 119.309 219.659 119.535 220.12C119.77 220.573 119.887 221.101 119.887 221.702C119.887 222.132 119.785 222.538 119.582 222.921C119.379 223.304 119.086 223.644 118.703 223.941C118.32 224.23 117.855 224.456 117.309 224.62C116.77 224.784 116.164 224.866 115.492 224.866ZM113.055 224.046H115.492C116.242 224.046 116.906 224.12 117.484 224.269C118.062 224.409 118.547 224.62 118.938 224.902C119.328 225.183 119.621 225.531 119.816 225.945C120.02 226.351 120.121 226.82 120.121 227.351C120.121 227.945 119.992 228.48 119.734 228.956C119.484 229.425 119.125 229.823 118.656 230.152C118.195 230.48 117.645 230.73 117.004 230.902C116.363 231.073 115.656 231.159 114.883 231.159C114.039 231.159 113.219 231.019 112.422 230.738C111.633 230.456 110.98 230.023 110.465 229.437C109.957 228.843 109.703 228.089 109.703 227.175H112.527C112.527 227.495 112.625 227.796 112.82 228.077C113.016 228.359 113.297 228.589 113.664 228.769C114.031 228.941 114.473 229.027 114.988 229.027C115.52 229.027 115.953 228.945 116.289 228.781C116.625 228.609 116.875 228.386 117.039 228.113C117.203 227.831 117.285 227.534 117.285 227.222C117.285 226.8 117.203 226.46 117.039 226.202C116.875 225.945 116.625 225.757 116.289 225.64C115.953 225.515 115.531 225.452 115.023 225.452H113.055V224.046ZM121.984 224.726V224.456C121.984 223.542 122.117 222.695 122.383 221.913C122.648 221.124 123.031 220.441 123.531 219.863C124.039 219.277 124.656 218.823 125.383 218.503C126.117 218.175 126.945 218.011 127.867 218.011C128.797 218.011 129.625 218.175 130.352 218.503C131.086 218.823 131.707 219.277 132.215 219.863C132.723 220.441 133.109 221.124 133.375 221.913C133.641 222.695 133.773 223.542 133.773 224.456V224.726C133.773 225.64 133.641 226.488 133.375 227.269C133.109 228.05 132.723 228.734 132.215 229.32C131.707 229.898 131.09 230.351 130.363 230.679C129.637 230.999 128.812 231.159 127.891 231.159C126.961 231.159 126.129 230.999 125.395 230.679C124.668 230.351 124.051 229.898 123.543 229.32C123.035 228.734 122.648 228.05 122.383 227.269C122.117 226.488 121.984 225.64 121.984 224.726ZM124.809 224.456V224.726C124.809 225.296 124.867 225.835 124.984 226.343C125.102 226.851 125.285 227.296 125.535 227.679C125.785 228.062 126.105 228.363 126.496 228.581C126.887 228.8 127.352 228.909 127.891 228.909C128.414 228.909 128.867 228.8 129.25 228.581C129.641 228.363 129.961 228.062 130.211 227.679C130.461 227.296 130.645 226.851 130.762 226.343C130.887 225.835 130.949 225.296 130.949 224.726V224.456C130.949 223.894 130.887 223.363 130.762 222.863C130.645 222.355 130.457 221.906 130.199 221.515C129.949 221.124 129.629 220.82 129.238 220.601C128.855 220.374 128.398 220.261 127.867 220.261C127.336 220.261 126.875 220.374 126.484 220.601C126.102 220.82 125.785 221.124 125.535 221.515C125.285 221.906 125.102 222.355 124.984 222.863C124.867 223.363 124.809 223.894 124.809 224.456ZM142.305 225.499H138.25L138.227 223.507H141.555C142.102 223.507 142.551 223.452 142.902 223.343C143.262 223.234 143.527 223.07 143.699 222.851C143.871 222.624 143.957 222.351 143.957 222.031C143.957 221.765 143.906 221.534 143.805 221.339C143.703 221.136 143.547 220.972 143.336 220.847C143.133 220.714 142.875 220.62 142.562 220.566C142.258 220.503 141.902 220.472 141.496 220.472H139.188V230.925H136.363V218.245H141.496C142.309 218.245 143.039 218.316 143.688 218.456C144.344 218.597 144.902 218.812 145.363 219.101C145.824 219.39 146.176 219.757 146.418 220.202C146.668 220.64 146.793 221.156 146.793 221.749C146.793 222.14 146.707 222.507 146.535 222.851C146.371 223.195 146.125 223.499 145.797 223.765C145.469 224.031 145.066 224.249 144.59 224.421C144.113 224.585 143.566 224.687 142.949 224.726L142.305 225.499ZM142.305 230.925H137.43L138.555 228.698H142.305C142.805 228.698 143.219 228.636 143.547 228.511C143.875 228.386 144.117 228.206 144.273 227.972C144.438 227.73 144.52 227.445 144.52 227.116C144.52 226.781 144.441 226.491 144.285 226.249C144.129 226.007 143.887 225.823 143.559 225.698C143.238 225.566 142.82 225.499 142.305 225.499H139.082L139.105 223.507H142.938L143.746 224.281C144.551 224.335 145.219 224.507 145.75 224.796C146.281 225.085 146.68 225.448 146.945 225.886C147.211 226.323 147.344 226.8 147.344 227.316C147.344 227.909 147.23 228.433 147.004 228.886C146.785 229.339 146.457 229.718 146.02 230.023C145.59 230.32 145.062 230.546 144.438 230.702C143.812 230.851 143.102 230.925 142.305 230.925ZM156.93 228.382V222.335C156.93 221.882 156.848 221.491 156.684 221.163C156.52 220.835 156.27 220.581 155.934 220.402C155.605 220.222 155.191 220.132 154.691 220.132C154.23 220.132 153.832 220.21 153.496 220.366C153.16 220.523 152.898 220.734 152.711 220.999C152.523 221.265 152.43 221.566 152.43 221.902H149.617C149.617 221.402 149.738 220.917 149.98 220.448C150.223 219.98 150.574 219.562 151.035 219.195C151.496 218.827 152.047 218.538 152.688 218.327C153.328 218.116 154.047 218.011 154.844 218.011C155.797 218.011 156.641 218.171 157.375 218.491C158.117 218.812 158.699 219.296 159.121 219.945C159.551 220.585 159.766 221.39 159.766 222.359V227.995C159.766 228.573 159.805 229.093 159.883 229.554C159.969 230.007 160.09 230.402 160.246 230.738V230.925H157.352C157.219 230.62 157.113 230.234 157.035 229.765C156.965 229.288 156.93 228.827 156.93 228.382ZM157.34 223.214L157.363 224.96H155.336C154.812 224.96 154.352 225.011 153.953 225.113C153.555 225.206 153.223 225.347 152.957 225.534C152.691 225.722 152.492 225.948 152.359 226.214C152.227 226.48 152.16 226.781 152.16 227.116C152.16 227.452 152.238 227.761 152.395 228.042C152.551 228.316 152.777 228.531 153.074 228.687C153.379 228.843 153.746 228.921 154.176 228.921C154.754 228.921 155.258 228.804 155.688 228.57C156.125 228.327 156.469 228.034 156.719 227.691C156.969 227.339 157.102 227.007 157.117 226.695L158.031 227.948C157.938 228.269 157.777 228.613 157.551 228.98C157.324 229.347 157.027 229.698 156.66 230.034C156.301 230.363 155.867 230.632 155.359 230.843C154.859 231.054 154.281 231.159 153.625 231.159C152.797 231.159 152.059 230.995 151.41 230.667C150.762 230.331 150.254 229.882 149.887 229.32C149.52 228.749 149.336 228.105 149.336 227.386C149.336 226.714 149.461 226.12 149.711 225.605C149.969 225.081 150.344 224.644 150.836 224.292C151.336 223.941 151.945 223.675 152.664 223.495C153.383 223.308 154.203 223.214 155.125 223.214H157.34ZM171.379 223.542V225.769H164.816V223.542H171.379ZM165.637 218.245V230.925H162.812V218.245H165.637ZM173.418 218.245V230.925H170.594V218.245H173.418ZM179.348 226.8L184.328 218.245H187.152V230.925H184.328V222.359L179.348 230.925H176.523V218.245H179.348V226.8ZM195.73 231.159C194.793 231.159 193.945 231.007 193.188 230.702C192.438 230.39 191.797 229.956 191.266 229.402C190.742 228.847 190.34 228.195 190.059 227.445C189.777 226.695 189.637 225.886 189.637 225.019V224.55C189.637 223.558 189.781 222.659 190.07 221.855C190.359 221.05 190.762 220.363 191.277 219.792C191.793 219.214 192.402 218.773 193.105 218.468C193.809 218.163 194.57 218.011 195.391 218.011C196.297 218.011 197.09 218.163 197.77 218.468C198.449 218.773 199.012 219.202 199.457 219.757C199.91 220.304 200.246 220.956 200.465 221.714C200.691 222.472 200.805 223.308 200.805 224.222V225.429H191.008V223.402H198.016V223.179C198 222.671 197.898 222.195 197.711 221.749C197.531 221.304 197.254 220.945 196.879 220.671C196.504 220.398 196.004 220.261 195.379 220.261C194.91 220.261 194.492 220.363 194.125 220.566C193.766 220.761 193.465 221.046 193.223 221.421C192.98 221.796 192.793 222.249 192.66 222.781C192.535 223.304 192.473 223.894 192.473 224.55V225.019C192.473 225.573 192.547 226.089 192.695 226.566C192.852 227.034 193.078 227.445 193.375 227.796C193.672 228.148 194.031 228.425 194.453 228.628C194.875 228.823 195.355 228.921 195.895 228.921C196.574 228.921 197.18 228.784 197.711 228.511C198.242 228.238 198.703 227.851 199.094 227.351L200.582 228.792C200.309 229.191 199.953 229.573 199.516 229.941C199.078 230.3 198.543 230.593 197.91 230.82C197.285 231.046 196.559 231.159 195.73 231.159Z" fill="white"/>
<defs>
<linearGradient id="paint0_linear_456_1817" x1="12.6125" y1="240.337" x2="299.186" y2="105.812" gradientUnits="userSpaceOnUse">
<stop stop-color="#AF1B7E"/>
<stop offset="0.9964" stop-color="#9A2695"/>
</linearGradient>
</defs>
</svg>
