<svg width="250" height="70" viewBox="0 0 250 70" fill="none" xmlns="http://www.w3.org/2000/svg">
<path d="M32.8654 37.496C32.8654 42.8902 31.249 47.2133 28.0193 50.4654C24.793 53.7174 20.6435 55.3434 15.5741 55.3434H1.16495V38.6781L1.41003 38.6129C2.55484 43.4997 4.27206 47.1429 6.55832 49.5405C9.01076 52.1143 12.138 53.3985 15.9417 53.3985C18.3539 53.3985 20.3565 52.7784 21.9528 51.5364C24.0813 49.9104 25.1422 47.3648 25.1422 43.8979C25.1422 39.4462 22.9734 36.365 18.6393 34.6527L6.49789 30.4159C2.16372 27.976 0 23.6106 0 17.3197C0 12.0118 1.71386 7.84018 5.14493 4.79955C8.29064 2.01788 12.3126 0.62793 17.2108 0.62793C18.7635 0.62793 25.7448 1.06306 29.9547 2.564V15.1705H29.7097C29.1389 12.0417 27.9757 9.36401 26.2215 7.13375C23.8144 4.0896 20.6955 2.56928 16.8599 2.56928C13.9224 2.56928 11.6999 3.59633 10.1891 5.65043C8.88319 7.40681 8.23021 9.67583 8.23021 12.4557C8.23021 16.8211 11.762 19.9446 18.8289 21.8295C23.4837 23.0697 26.715 24.3346 28.5111 25.6171C29.7768 26.5578 30.8192 28.013 31.635 29.9825C32.4508 31.952 32.8654 34.4571 32.8654 37.496ZM55.0801 47.1041V23.9893C55.0801 23.0451 54.7847 22.0497 54.1922 20.9963C53.6013 19.9463 52.9164 19.2698 52.1426 18.9686V18.7114H64.9067V48.4007C64.9067 49.3872 65.1786 50.5728 65.6637 51.6087C66.2009 52.752 67.0335 54.3674 67.851 54.7532V55.0087H55.3873L55.0818 50.379C54.1249 51.4572 53.0103 52.3682 51.78 53.0779C49.6582 54.3622 47.4945 55.0087 45.2922 55.0087C43.8654 55.0087 42.5225 54.6863 41.2568 54.0433C39.6235 53.1854 38.8077 52.0702 38.8077 50.6961V23.9893C38.8077 23.0451 38.5156 22.0462 37.9231 20.9963C37.3322 19.9463 36.6474 19.2698 35.8735 18.9686V18.7114H48.7652V47.1693C48.7652 49.3132 49.8076 50.3878 51.8925 50.3878C52.7116 50.3878 53.4468 50.0637 54.0981 49.4207C54.7528 48.7777 55.0801 48.0043 55.0801 47.1041ZM73.2376 63.1986V24.6359C73.2376 23.6493 72.9489 22.6646 72.3782 21.678C71.8075 20.6933 71.1159 19.3491 70.3001 18.9615V18.7043H82.7537L83.0625 21.065C83.7978 20.2916 84.9711 19.6081 86.5876 19.0074C88.2007 18.4066 89.6594 18.1071 90.9671 18.1071C94.279 18.1071 96.911 19.7807 98.875 23.1226C100.715 26.2513 101.633 30.2785 101.633 35.2076C101.633 40.9506 100.836 45.538 99.2426 48.9662C97.3609 52.9951 94.6029 55.0087 90.9671 55.0087C89.3304 55.0087 87.8096 54.8114 86.3996 54.4238C84.9896 54.0362 83.8783 53.3192 83.0625 52.2799V63.2004C83.0625 64.5076 83.65 65.672 84.2174 66.7977C84.4725 67.3068 84.7126 67.8265 84.9979 68.3198C85.1003 68.4942 85.9984 69.4508 85.9984 69.4895V69.7467C85.9984 69.7467 81.4578 68.4695 78.5303 68.4695C75.6095 68.4695 70.0063 70.0004 70.0063 70.0004V69.7432C70.7802 69.4455 71.7571 67.2399 72.3496 66.1899C72.9388 65.1382 73.2376 64.1411 73.2376 63.1986ZM83.0625 24.5196V49.1758C83.0625 50.0743 83.368 50.8283 83.9807 51.429C84.5968 52.028 85.3941 52.331 86.3778 52.331C88.0916 52.331 89.3388 50.6556 90.1194 47.3102C90.6901 44.821 90.9755 41.4738 90.9755 37.2652C90.9755 32.2022 90.7925 28.5767 90.4249 26.387C89.8122 22.654 88.6254 20.7866 86.8679 20.7866C85.8456 20.7866 84.956 21.1848 84.1989 21.9775C83.4419 22.7703 83.0625 23.6194 83.0625 24.5196ZM132.362 43.7887C130.975 47.9761 129.424 50.8423 127.71 52.3803C125.749 54.1314 122.894 55.0087 119.141 55.0087C114.734 55.0087 111.266 53.1237 108.735 49.3502C106.451 45.9661 105.306 41.8508 105.306 37.008C105.306 31.8217 106.654 27.377 109.348 23.6687C112.04 19.9622 115.45 18.1071 119.571 18.1071C123.732 18.1071 126.901 19.4583 129.088 22.159C131.272 24.8596 132.363 28.8885 132.363 34.2475H115.325C115.325 38.967 116.04 42.367 117.469 44.451C118.897 46.5351 121.066 47.5745 123.967 47.5745C125.642 47.5745 127.091 47.2098 128.318 46.4822C129.79 45.5856 131.138 43.9173 132.363 41.4791V43.7887H132.362ZM115.324 32.3061H122.664C122.664 28.1504 122.389 25.0023 121.838 22.8619C121.288 20.7197 120.38 19.6486 119.117 19.6486C117.566 19.6486 116.547 20.6457 116.059 22.6346C115.57 24.6271 115.324 27.8509 115.324 32.3061ZM137.218 49.0666V23.9929C137.218 23.0504 136.919 22.0427 136.33 20.9716C135.736 19.9005 135.054 19.2364 134.28 18.9792V18.722C138.208 18.722 143.664 18.7043 146.798 18.7043H147.043V22.5835C148.02 20.8677 148.876 19.668 149.609 18.9827C150.751 17.9556 152.114 17.4412 153.703 17.4412C154.356 17.4412 154.979 17.5575 155.568 17.7936C156.163 18.0296 156.68 18.3414 157.129 18.729C157.129 21.745 157.181 24.768 157.123 27.7857C157.136 27.0176 155.051 25.3828 154.47 25.0181C153.421 24.3558 152.166 24.1373 150.955 24.1373C149.851 24.1373 148.926 24.7486 148.172 25.9694C147.419 27.192 147.041 28.6806 147.041 30.437V49.0736C147.041 50.0584 147.326 51.0555 147.897 52.0614C148.468 53.0673 149.163 53.7403 149.975 54.0838V54.341H134.277V54.0838C135.051 53.7843 135.732 53.1096 136.326 52.0614C136.919 51.0079 137.218 50.0108 137.218 49.0666Z" fill="#FF0000"/>
<path d="M171.262 52.7847V6.36489C171.262 4.95027 170.891 3.69773 170.15 2.6055C169.413 1.51151 168.547 0.729328 167.56 0.257203V0H186.001V0.257203C185.006 0.737544 184.154 1.49257 183.536 2.44166C182.735 3.57664 182.302 4.95099 182.3 6.36312C182.3 20.4494 183.755 35.4129 182.33 49.3759C181.501 57.4619 174.298 68.6203 165.417 67.3818C166.142 67.2444 166.197 67.1246 166.565 66.9573C168.378 66.1363 169.323 63.8004 169.909 61.9735C170.135 61.2777 170.311 60.5677 170.466 59.8578C170.996 57.4549 171.262 55.0978 171.262 52.7847ZM218.086 34.8615C218.086 40.6486 216.634 45.2342 213.732 48.6166C210.994 51.7929 207.476 53.3749 203.185 53.3749C198.895 53.3749 195.38 51.7929 192.639 48.6166C189.736 45.2342 188.288 40.6504 188.288 34.8615C188.288 29.1185 189.736 24.5752 192.639 21.2333C195.38 18.0606 198.895 16.4751 203.185 16.4751C207.519 16.4751 211.038 18.0412 213.732 21.1699C216.634 24.51 218.086 29.0762 218.086 34.8615ZM207.303 34.8615C207.303 23.6309 205.933 18.0148 203.185 18.0148C200.441 18.0148 199.071 23.6309 199.071 34.8615C199.071 46.1785 200.441 51.8352 203.185 51.8352C204.864 51.8352 205.972 50.5491 206.504 47.9771C207.038 45.4051 207.303 41.0326 207.303 34.8615ZM223.139 53.3749V6.55691C223.139 5.61618 222.86 4.1082 222.437 2.95431C222.018 1.79161 220.975 0.516167 220.201 0.258964V0H232.964V17.8809C233.249 17.6237 233.964 17.3277 235.104 16.9877C236.261 16.6439 237.458 16.4708 238.661 16.4733C241.196 16.4733 243.566 17.6307 245.768 19.9455C248.588 22.9474 250 27.0609 250 32.2895C250 37.9462 248.771 42.7679 246.319 46.7545C243.621 51.1692 239.962 53.3749 235.342 53.3749H223.139ZM232.964 20.4934V50.9332C233.288 51.1481 233.639 51.3525 234.006 51.5462C234.37 51.7383 234.76 51.8352 235.17 51.8352C236.93 51.8352 238.137 49.5239 238.792 44.896C239.16 42.3662 239.343 38.9415 239.343 34.6131C239.343 29.2154 238.946 25.1671 238.146 22.4665C237.348 19.7659 236.292 18.4164 234.985 18.4164C234.414 18.4164 233.932 18.6155 233.543 19.0154C233.162 19.4015 232.952 19.9375 232.964 20.4934Z" fill="#222222"/>
</svg>
