<svg width="316" height="109" viewBox="0 0 316 109" fill="none" xmlns="http://www.w3.org/2000/svg">
<path d="M146.719 42.8496H143.115L143.096 41.3359H146.367C146.908 41.3359 147.38 41.2448 147.783 41.0625C148.187 40.8802 148.499 40.6198 148.721 40.2812C148.949 39.9362 149.062 39.526 149.062 39.0508C149.062 38.5299 148.962 38.1068 148.76 37.7812C148.564 37.4492 148.262 37.2083 147.852 37.0586C147.448 36.9023 146.934 36.8242 146.309 36.8242H143.535V49.5H141.65V35.2812H146.309C147.038 35.2812 147.689 35.3561 148.262 35.5059C148.835 35.6491 149.32 35.877 149.717 36.1895C150.12 36.4954 150.426 36.8861 150.635 37.3613C150.843 37.8366 150.947 38.4062 150.947 39.0703C150.947 39.6562 150.798 40.1868 150.498 40.6621C150.199 41.1309 149.782 41.515 149.248 41.8145C148.721 42.1139 148.102 42.306 147.393 42.3906L146.719 42.8496ZM146.631 49.5H142.373L143.438 47.9668H146.631C147.23 47.9668 147.738 47.8626 148.154 47.6543C148.577 47.446 148.9 47.153 149.121 46.7754C149.342 46.3913 149.453 45.9388 149.453 45.418C149.453 44.8906 149.359 44.4349 149.17 44.0508C148.981 43.6667 148.685 43.3704 148.281 43.1621C147.878 42.9538 147.357 42.8496 146.719 42.8496H144.033L144.053 41.3359H147.725L148.125 41.8828C148.809 41.9414 149.388 42.1367 149.863 42.4688C150.339 42.7943 150.7 43.2109 150.947 43.7188C151.201 44.2266 151.328 44.7865 151.328 45.3984C151.328 46.2839 151.133 47.0326 150.742 47.6445C150.358 48.25 149.814 48.7122 149.111 49.0312C148.408 49.3438 147.581 49.5 146.631 49.5ZM153.759 44.334V44.1094C153.759 43.3477 153.87 42.6413 154.091 41.9902C154.313 41.3327 154.632 40.763 155.048 40.2812C155.465 39.793 155.97 39.4154 156.562 39.1484C157.155 38.875 157.819 38.7383 158.554 38.7383C159.296 38.7383 159.964 38.875 160.556 39.1484C161.155 39.4154 161.663 39.793 162.08 40.2812C162.503 40.763 162.825 41.3327 163.046 41.9902C163.268 42.6413 163.379 43.3477 163.379 44.1094V44.334C163.379 45.0957 163.268 45.8021 163.046 46.4531C162.825 47.1042 162.503 47.6738 162.08 48.1621C161.663 48.6439 161.158 49.0215 160.566 49.2949C159.98 49.5618 159.316 49.6953 158.574 49.6953C157.832 49.6953 157.164 49.5618 156.572 49.2949C155.979 49.0215 155.472 48.6439 155.048 48.1621C154.632 47.6738 154.313 47.1042 154.091 46.4531C153.87 45.8021 153.759 45.0957 153.759 44.334ZM155.566 44.1094V44.334C155.566 44.8613 155.628 45.3594 155.752 45.8281C155.875 46.2904 156.061 46.7005 156.308 47.0586C156.562 47.4167 156.878 47.6999 157.255 47.9082C157.633 48.11 158.073 48.2109 158.574 48.2109C159.069 48.2109 159.502 48.11 159.873 47.9082C160.25 47.6999 160.563 47.4167 160.81 47.0586C161.058 46.7005 161.243 46.2904 161.367 45.8281C161.497 45.3594 161.562 44.8613 161.562 44.334V44.1094C161.562 43.5885 161.497 43.097 161.367 42.6348C161.243 42.166 161.054 41.7526 160.8 41.3945C160.553 41.0299 160.24 40.7435 159.863 40.5352C159.492 40.3268 159.056 40.2227 158.554 40.2227C158.06 40.2227 157.623 40.3268 157.246 40.5352C156.875 40.7435 156.562 41.0299 156.308 41.3945C156.061 41.7526 155.875 42.166 155.752 42.6348C155.628 43.097 155.566 43.5885 155.566 44.1094ZM170.429 49.6953C169.693 49.6953 169.026 49.5716 168.427 49.3242C167.835 49.0703 167.323 48.7155 166.894 48.2598C166.471 47.804 166.145 47.2637 165.917 46.6387C165.689 46.0137 165.575 45.3301 165.575 44.5879V44.1777C165.575 43.3184 165.702 42.5534 165.956 41.8828C166.21 41.2057 166.555 40.6328 166.991 40.1641C167.428 39.6953 167.922 39.3405 168.476 39.0996C169.029 38.8587 169.602 38.7383 170.195 38.7383C170.95 38.7383 171.601 38.8685 172.148 39.1289C172.701 39.3893 173.154 39.7539 173.505 40.2227C173.857 40.6849 174.117 41.2318 174.286 41.8633C174.456 42.4883 174.54 43.1719 174.54 43.9141V44.7246H166.65V43.25H172.734V43.1133C172.708 42.6445 172.61 42.1888 172.441 41.7461C172.278 41.3034 172.017 40.9388 171.659 40.6523C171.301 40.3659 170.813 40.2227 170.195 40.2227C169.784 40.2227 169.407 40.3105 169.062 40.4863C168.717 40.6556 168.42 40.9095 168.173 41.248C167.926 41.5866 167.734 42 167.597 42.4883C167.46 42.9766 167.392 43.5397 167.392 44.1777V44.5879C167.392 45.0892 167.46 45.5612 167.597 46.0039C167.74 46.4401 167.945 46.8242 168.212 47.1562C168.486 47.4883 168.814 47.7487 169.198 47.9375C169.589 48.1263 170.032 48.2207 170.527 48.2207C171.165 48.2207 171.705 48.0905 172.148 47.8301C172.59 47.5697 172.978 47.2214 173.31 46.7852L174.404 47.6543C174.176 47.9993 173.886 48.3281 173.534 48.6406C173.183 48.9531 172.75 49.207 172.236 49.4023C171.728 49.5977 171.126 49.6953 170.429 49.6953ZM184.218 43.5137V44.9785H178.632V43.5137H184.218ZM179.013 38.9336V49.5H177.206V38.9336H179.013ZM185.682 38.9336V49.5H183.866V38.9336H185.682ZM196.161 43.5137V44.9785H190.575V43.5137H196.161ZM190.955 38.9336V49.5H189.149V38.9336H190.955ZM197.625 38.9336V49.5H195.809V38.9336H197.625ZM202.42 42.5664H205.594C206.447 42.5664 207.166 42.7161 207.752 43.0156C208.338 43.3086 208.781 43.7155 209.08 44.2363C209.386 44.7507 209.539 45.3366 209.539 45.9941C209.539 46.4824 209.454 46.9414 209.285 47.3711C209.116 47.7943 208.862 48.1654 208.523 48.4844C208.191 48.8034 207.778 49.054 207.283 49.2363C206.795 49.4121 206.232 49.5 205.594 49.5H201.102V38.9336H202.908V48.0156H205.594C206.115 48.0156 206.531 47.9212 206.844 47.7324C207.156 47.5436 207.381 47.2995 207.518 47C207.654 46.7005 207.723 46.388 207.723 46.0625C207.723 45.7435 207.654 45.431 207.518 45.125C207.381 44.819 207.156 44.5651 206.844 44.3633C206.531 44.1549 206.115 44.0508 205.594 44.0508H202.42V42.5664ZM213.299 38.9336V49.5H211.492V38.9336H213.299ZM218.816 46.6387L223.689 38.9336H225.505V49.5H223.689V41.7949L218.816 49.5H217.019V38.9336H218.816V46.6387ZM222.703 35.1055H224.168C224.168 35.6133 224.05 36.0658 223.816 36.4629C223.582 36.8535 223.246 37.1595 222.81 37.3809C222.374 37.6022 221.856 37.7129 221.257 37.7129C220.352 37.7129 219.636 37.472 219.109 36.9902C218.588 36.502 218.328 35.8737 218.328 35.1055H219.793C219.793 35.4896 219.903 35.8281 220.125 36.1211C220.346 36.4141 220.724 36.5605 221.257 36.5605C221.778 36.5605 222.149 36.4141 222.371 36.1211C222.592 35.8281 222.703 35.4896 222.703 35.1055ZM237.136 48.4062L240.075 38.9336H242.009L237.77 51.1309C237.673 51.3913 237.542 51.6712 237.38 51.9707C237.223 52.2767 237.022 52.5664 236.774 52.8398C236.527 53.1133 236.227 53.3346 235.876 53.5039C235.531 53.6797 235.117 53.7676 234.636 53.7676C234.492 53.7676 234.31 53.748 234.089 53.709C233.867 53.6699 233.711 53.6374 233.62 53.6113L233.61 52.1465C233.662 52.153 233.744 52.1595 233.854 52.166C233.971 52.179 234.053 52.1855 234.098 52.1855C234.509 52.1855 234.857 52.1302 235.143 52.0195C235.43 51.9154 235.671 51.7363 235.866 51.4824C236.068 51.235 236.24 50.8932 236.384 50.457L237.136 48.4062ZM234.977 38.9336L237.721 47.1367L238.19 49.041L236.891 49.7051L233.005 38.9336H234.977ZM252.008 38.9336V49.5H250.202V38.9336H252.008ZM251.393 43.7871V45.2715C251.028 45.4082 250.657 45.5319 250.28 45.6426C249.909 45.7467 249.515 45.8314 249.098 45.8965C248.688 45.9551 248.242 45.9844 247.76 45.9844C246.927 45.9844 246.204 45.8411 245.592 45.5547C244.98 45.2617 244.508 44.8223 244.176 44.2363C243.844 43.6439 243.678 42.8984 243.678 42V38.9141H245.485V42C245.485 42.5859 245.573 43.0612 245.748 43.4258C245.924 43.7904 246.181 44.0605 246.52 44.2363C246.858 44.4056 247.272 44.4902 247.76 44.4902C248.229 44.4902 248.668 44.4609 249.079 44.4023C249.495 44.3372 249.892 44.2526 250.27 44.1484C250.654 44.0443 251.028 43.9238 251.393 43.7871ZM259.703 49.6953C258.967 49.6953 258.3 49.5716 257.701 49.3242C257.109 49.0703 256.598 48.7155 256.168 48.2598C255.745 47.804 255.419 47.2637 255.191 46.6387C254.964 46.0137 254.85 45.3301 254.85 44.5879V44.1777C254.85 43.3184 254.977 42.5534 255.23 41.8828C255.484 41.2057 255.829 40.6328 256.266 40.1641C256.702 39.6953 257.197 39.3405 257.75 39.0996C258.303 38.8587 258.876 38.7383 259.469 38.7383C260.224 38.7383 260.875 38.8685 261.422 39.1289C261.975 39.3893 262.428 39.7539 262.779 40.2227C263.131 40.6849 263.391 41.2318 263.561 41.8633C263.73 42.4883 263.814 43.1719 263.814 43.9141V44.7246H255.924V43.25H262.008V43.1133C261.982 42.6445 261.884 42.1888 261.715 41.7461C261.552 41.3034 261.292 40.9388 260.934 40.6523C260.576 40.3659 260.087 40.2227 259.469 40.2227C259.059 40.2227 258.681 40.3105 258.336 40.4863C257.991 40.6556 257.695 40.9095 257.447 41.248C257.2 41.5866 257.008 42 256.871 42.4883C256.734 42.9766 256.666 43.5397 256.666 44.1777V44.5879C256.666 45.0892 256.734 45.5612 256.871 46.0039C257.014 46.4401 257.219 46.8242 257.486 47.1562C257.76 47.4883 258.089 47.7487 258.473 47.9375C258.863 48.1263 259.306 48.2207 259.801 48.2207C260.439 48.2207 260.979 48.0905 261.422 47.8301C261.865 47.5697 262.252 47.2214 262.584 46.7852L263.678 47.6543C263.45 47.9993 263.16 48.3281 262.809 48.6406C262.457 48.9531 262.024 49.207 261.51 49.4023C261.002 49.5977 260.4 49.6953 259.703 49.6953ZM273.101 34.334H274.586C274.586 34.972 274.488 35.4798 274.293 35.8574C274.097 36.2285 273.83 36.515 273.492 36.7168C273.16 36.9186 272.782 37.0716 272.359 37.1758C271.942 37.2799 271.509 37.3809 271.06 37.4785C270.5 37.5957 269.979 37.7812 269.498 38.0352C269.022 38.2826 268.612 38.6341 268.267 39.0898C267.929 39.5456 267.678 40.138 267.515 40.8672C267.359 41.5964 267.317 42.498 267.388 43.5723V44.4707H265.904V43.5723C265.904 42.3678 266.018 41.3164 266.246 40.418C266.48 39.5195 266.809 38.7611 267.232 38.1426C267.655 37.5241 268.157 37.0326 268.736 36.668C269.322 36.3034 269.966 36.0527 270.67 35.916C271.177 35.8184 271.614 35.7142 271.978 35.6035C272.343 35.4863 272.619 35.3301 272.808 35.1348C273.004 34.9395 273.101 34.6725 273.101 34.334ZM270.963 39.5391C271.653 39.5391 272.268 39.6595 272.808 39.9004C273.349 40.1413 273.808 40.4766 274.185 40.9062C274.563 41.3359 274.849 41.8438 275.045 42.4297C275.246 43.0091 275.347 43.6406 275.347 44.3242V44.5391C275.347 45.2747 275.24 45.9583 275.025 46.5898C274.817 47.2148 274.507 47.7617 274.097 48.2305C273.694 48.6927 273.199 49.054 272.613 49.3145C272.033 49.5749 271.373 49.7051 270.63 49.7051C269.888 49.7051 269.224 49.5749 268.638 49.3145C268.059 49.054 267.564 48.6927 267.154 48.2305C266.744 47.7617 266.431 47.2148 266.216 46.5898C266.008 45.9583 265.904 45.2747 265.904 44.5391V44.3242C265.904 44.1615 265.933 44.002 265.992 43.8457C266.05 43.6895 266.122 43.5299 266.207 43.3672C266.298 43.2044 266.379 43.0319 266.451 42.8496C266.692 42.2637 267.02 41.7201 267.437 41.2188C267.86 40.7174 268.365 40.3138 268.951 40.0078C269.543 39.6953 270.214 39.5391 270.963 39.5391ZM270.611 41.0137C269.947 41.0137 269.4 41.1667 268.97 41.4727C268.547 41.7786 268.231 42.1855 268.023 42.6934C267.815 43.1947 267.711 43.7383 267.711 44.3242V44.5391C267.711 45.0339 267.769 45.5026 267.886 45.9453C268.004 46.388 268.179 46.7819 268.414 47.127C268.655 47.4655 268.957 47.7324 269.322 47.9277C269.693 48.123 270.129 48.2207 270.63 48.2207C271.132 48.2207 271.565 48.123 271.929 47.9277C272.294 47.7324 272.593 47.4655 272.828 47.127C273.062 46.7819 273.238 46.388 273.355 45.9453C273.472 45.5026 273.531 45.0339 273.531 44.5391V44.3242C273.531 43.8815 273.472 43.4616 273.355 43.0645C273.238 42.6673 273.059 42.3158 272.818 42.0098C272.584 41.7038 272.281 41.4629 271.91 41.2871C271.545 41.1048 271.112 41.0137 270.611 41.0137ZM284.79 43.5137V44.9785H279.204V43.5137H284.79ZM279.585 38.9336V49.5H277.779V38.9336H279.585ZM286.255 38.9336V49.5H284.439V38.9336H286.255ZM291.05 42.5664H294.223C295.076 42.5664 295.796 42.7161 296.382 43.0156C296.968 43.3086 297.41 43.7155 297.71 44.2363C298.016 44.7507 298.169 45.3366 298.169 45.9941C298.169 46.4824 298.084 46.9414 297.915 47.3711C297.746 47.7943 297.492 48.1654 297.153 48.4844C296.821 48.8034 296.408 49.054 295.913 49.2363C295.425 49.4121 294.861 49.5 294.223 49.5H289.731V38.9336H291.538V48.0156H294.223C294.744 48.0156 295.161 47.9212 295.473 47.7324C295.786 47.5436 296.011 47.2995 296.147 47C296.284 46.7005 296.352 46.388 296.352 46.0625C296.352 45.7435 296.284 45.431 296.147 45.125C296.011 44.819 295.786 44.5651 295.473 44.3633C295.161 44.1549 294.744 44.0508 294.223 44.0508H291.05V42.5664ZM301.929 38.9336V49.5H300.122V38.9336H301.929ZM307.446 46.6387L312.319 38.9336H314.135V49.5H312.319V41.7949L307.446 49.5H305.649V38.9336H307.446V46.6387ZM311.332 35.1055H312.797C312.797 35.6133 312.68 36.0658 312.446 36.4629C312.211 36.8535 311.876 37.1595 311.44 37.3809C311.004 37.6022 310.486 37.7129 309.887 37.7129C308.982 37.7129 308.266 37.472 307.739 36.9902C307.218 36.502 306.957 35.8737 306.957 35.1055H308.422C308.422 35.4896 308.533 35.8281 308.754 36.1211C308.976 36.4141 309.353 36.5605 309.887 36.5605C310.408 36.5605 310.779 36.4141 311 36.1211C311.222 35.8281 311.332 35.4896 311.332 35.1055ZM141.533 73.5V62.9336H143.34V72.0156H148.203V62.9336H150.02V73.5H141.533ZM151.27 72.0156L151.094 76.6348H149.482V73.5H148.105V72.0156H151.27ZM158.017 73.6953C157.282 73.6953 156.614 73.5716 156.015 73.3242C155.423 73.0703 154.912 72.7155 154.482 72.2598C154.059 71.804 153.733 71.2637 153.505 70.6387C153.278 70.0137 153.164 69.3301 153.164 68.5879V68.1777C153.164 67.3184 153.291 66.5534 153.545 65.8828C153.798 65.2057 154.143 64.6328 154.58 64.1641C155.016 63.6953 155.511 63.3405 156.064 63.0996C156.617 62.8587 157.19 62.7383 157.783 62.7383C158.538 62.7383 159.189 62.8685 159.736 63.1289C160.289 63.3893 160.742 63.7539 161.093 64.2227C161.445 64.6849 161.705 65.2318 161.875 65.8633C162.044 66.4883 162.129 67.1719 162.129 67.9141V68.7246H154.238V67.25H160.322V67.1133C160.296 66.6445 160.198 66.1888 160.029 65.7461C159.866 65.3034 159.606 64.9388 159.248 64.6523C158.89 64.3659 158.401 64.2227 157.783 64.2227C157.373 64.2227 156.995 64.3105 156.65 64.4863C156.305 64.6556 156.009 64.9095 155.761 65.248C155.514 65.5866 155.322 66 155.185 66.4883C155.048 66.9766 154.98 67.5397 154.98 68.1777V68.5879C154.98 69.0892 155.048 69.5612 155.185 70.0039C155.328 70.4401 155.533 70.8242 155.8 71.1562C156.074 71.4883 156.403 71.7487 156.787 71.9375C157.177 72.1263 157.62 72.2207 158.115 72.2207C158.753 72.2207 159.293 72.0905 159.736 71.8301C160.179 71.5697 160.566 71.2214 160.898 70.7852L161.992 71.6543C161.764 71.9993 161.474 72.3281 161.123 72.6406C160.771 72.9531 160.338 73.207 159.824 73.4023C159.316 73.5977 158.714 73.6953 158.017 73.6953ZM171.806 67.5137V68.9785H166.22V67.5137H171.806ZM166.601 62.9336V73.5H164.794V62.9336H166.601ZM173.271 62.9336V73.5H171.454V62.9336H173.271ZM180.888 62.9336V73.5H179.071V62.9336H180.888ZM184.432 62.9336V64.3984H175.595V62.9336H184.432ZM188.416 64.9648V77.5625H186.6V62.9336H188.26L188.416 64.9648ZM195.536 68.1289V68.334C195.536 69.1022 195.444 69.8151 195.262 70.4727C195.08 71.1237 194.813 71.6901 194.461 72.1719C194.116 72.6536 193.69 73.028 193.182 73.2949C192.674 73.5618 192.092 73.6953 191.434 73.6953C190.763 73.6953 190.171 73.5846 189.657 73.3633C189.142 73.1419 188.706 72.8197 188.348 72.3965C187.99 71.9733 187.704 71.4655 187.489 70.873C187.28 70.2806 187.137 69.6133 187.059 68.8711V67.7773C187.137 66.9961 187.284 66.2962 187.498 65.6777C187.713 65.0592 187.996 64.5319 188.348 64.0957C188.706 63.653 189.139 63.3177 189.647 63.0898C190.155 62.8555 190.741 62.7383 191.405 62.7383C192.069 62.7383 192.658 62.8685 193.172 63.1289C193.687 63.3828 194.12 63.7474 194.471 64.2227C194.823 64.6979 195.086 65.2676 195.262 65.9316C195.444 66.5892 195.536 67.3216 195.536 68.1289ZM193.719 68.334V68.1289C193.719 67.6016 193.664 67.1068 193.553 66.6445C193.442 66.1758 193.27 65.7656 193.036 65.4141C192.808 65.056 192.515 64.776 192.157 64.5742C191.799 64.3659 191.372 64.2617 190.877 64.2617C190.422 64.2617 190.024 64.3398 189.686 64.4961C189.354 64.6523 189.071 64.8639 188.836 65.1309C188.602 65.3913 188.41 65.6908 188.26 66.0293C188.117 66.3613 188.01 66.7064 187.938 67.0645V69.5938C188.068 70.0495 188.25 70.4792 188.485 70.8828C188.719 71.2799 189.032 71.6022 189.422 71.8496C189.813 72.0905 190.304 72.2109 190.897 72.2109C191.385 72.2109 191.805 72.11 192.157 71.9082C192.515 71.6999 192.808 71.4167 193.036 71.0586C193.27 70.7005 193.442 70.2904 193.553 69.8281C193.664 69.3594 193.719 68.8613 193.719 68.334Z" fill="#005AAA"/>
<path fill-rule="evenodd" clip-rule="evenodd" d="M109.574 47.1032H109.581C112.019 47.1032 113.996 45.1253 114 42.6851C114.003 40.2412 112.028 38.2567 109.587 38.2535L72.6635 38.1969L61.2006 3.05098C60.6073 1.23123 58.9117 0 57.0006 0C55.0883 0 53.3936 1.23123 52.8003 3.05098L41.3362 38.1969L4.41236 38.2535C1.97197 38.2567 -0.00331009 40.2412 4.16456e-06 42.6851C0.00331841 45.1266 1.98191 47.1032 4.419 47.1032H4.42561L44.549 47.0425C46.4591 47.0393 48.1503 45.8089 48.7436 43.9915L57.0006 18.6776L65.2564 43.9915C65.8494 45.8089 67.5408 47.0393 69.451 47.0425L109.574 47.1032ZM21.9056 108.153C22.68 108.716 23.5916 108.999 24.503 108.999C25.4122 108.999 26.3214 108.717 27.0947 108.157L57.0004 86.4718L86.9046 108.157C88.4534 109.283 90.548 109.28 92.0946 108.154C93.6412 107.029 94.2897 105.034 93.7022 103.213L82.3453 68.0331L91.2307 61.546C93.204 60.1069 93.6371 57.339 92.1987 55.3647C90.7612 53.3887 87.9971 52.9528 86.0254 54.3954L74.5536 62.7683C73.0101 63.8958 72.3639 65.8858 72.9505 67.7055L81.1303 93.0439L59.5919 77.4248C58.0453 76.3009 55.9539 76.3031 54.4086 77.4248L32.8692 93.0439L41.0487 67.7055C41.6365 65.8858 40.9903 63.8958 39.4469 62.7683L27.9751 54.3941C26.0032 52.9551 23.2392 53.3875 21.8008 55.3634C20.3635 57.3381 20.7966 60.1056 22.7697 61.545L31.655 68.0318L20.2983 103.212C19.7106 105.033 20.359 107.028 21.9056 108.153Z" fill="url(#paint0_linear_23_25)"/>
<defs>
<linearGradient id="paint0_linear_23_25" x1="23.4107" y1="109" x2="23.4108" y2="-4.50983e-06" gradientUnits="userSpaceOnUse">
<stop stop-color="#502D7F"/>
<stop offset="1" stop-color="#E70F47"/>
</linearGradient>
</defs>
</svg>
